/* XPM */
static char *acqua[] = {
/* width height num_colors chars_per_pixel */
"    48    48      131            2",
/* colors */
".. c #ffffff",
".# c #fcfefc",
".a c #f4fefc",
".b c #b3c7c5",
".c c #bcd6d0",
".d c #ecf8f9",
".e c #a1adaf",
".f c #f4f8f9",
".g c #fcf1f6",
".h c #c8d0d2",
".i c #8f9d9e",
".j c #d3e0e1",
".k c #9fb3b1",
".l c #eff1f2",
".m c #bccfcd",
".n c #9ca5a6",
".o c #e0e9ed",
".p c #dee1e3",
".q c #b0c6bc",
".r c #acb4b7",
".s c #aabcbd",
".t c #b5bcbb",
".u c #b8c1c5",
".v c #d3e7e3",
".w c #bcc6b1",
".x c #94a4a2",
".y c #8ca4a3",
".z c #84a4a2",
".A c #8f9698",
".B c #d0d8dc",
".C c #e3eff0",
".D c #a5bbb3",
".E c #92a393",
".F c #8baba8",
".G c #849c92",
".H c #849d9d",
".I c #e0e7e4",
".J c #e3f6f4",
".K c #94aba8",
".L c #9fac9e",
".M c #9c9ea2",
".N c #b9c2b7",
".O c #7ba4a5",
".P c #c4d7d4",
".Q c #8c9d92",
".R c #9ca48f",
".S c #94b2ac",
".T c #94afb7",
".U c #8cb2b2",
".V c #a2ab92",
".W c #acb09a",
".X c #a6a090",
".Y c #949d8e",
".Z c #7c9d9c",
".0 c #749b97",
".1 c #496f71",
".2 c #2a5051",
".3 c #345254",
".4 c #5c7a7c",
".5 c #acc2c4",
".6 c #c9d1bc",
".7 c #d4cfb3",
".8 c #ccc7a9",
".9 c #6c9490",
"#. c #113a3c",
"## c #09181b",
"#a c #0a2e32",
"#b c #264449",
"#c c #779496",
"#d c #c4c6ac",
"#e c #e3d7b1",
"#f c #f4e0d4",
"#g c #f4eed4",
"#h c #d1d8d3",
"#i c #d4d2d4",
"#j c #345754",
"#k c #07292c",
"#l c #052124",
"#m c #1c4644",
"#n c #618c8c",
"#o c #547a74",
"#p c #4c6a6c",
"#q c #a8a68f",
"#r c #f6e2be",
"#s c #ebe0bb",
"#t c #b4b69c",
"#u c #9c9e8e",
"#v c #acaeae",
"#w c #386064",
"#x c #0e3336",
"#y c #193e3c",
"#z c #bcc7c9",
"#A c #a49e7c",
"#B c #bfbb9e",
"#C c #f4d8af",
"#D c #e2d7be",
"#E c #e4fef8",
"#F c #e1cea9",
"#G c #fce7bd",
"#H c #b4b198",
"#I c #eed2a6",
"#J c #2c4a54",
"#K c #92b8b6",
"#L c #446a64",
"#M c #849496",
"#N c #ccc2ac",
"#O c #f6e0b3",
"#P c #d4c9ac",
"#Q c #e4d2b4",
"#R c #ecdaa9",
"#S c #c4c29c",
"#T c #405858",
"#U c #f1e6c4",
"#V c #5f8184",
"#W c #1c3a3c",
"#X c #446264",
"#Y c #2a3c3c",
"#Z c #ccded4",
"#0 c #ecd9b9",
"#1 c #c4b6a0",
"#2 c #a4a6a9",
"#3 c #d1bf9f",
"#4 c #c5c9ca",
"#5 c #bcb084",
"#6 c #ccb684",
"#7 c #ecded7",
"#8 c #dccabc",
"#9 c #b7a4a6",
"a. c #b4b5b4",
"a# c #fce8ec",
"aa c #f4e8e7",
/* pixels */
".............#.#.#.#.#.#.#.#.#.#.#.#.#.#.#.#.#.#.#.a.#.#.#.#.#.a.b.c.a.a.a.#.#.#.#.#.#.#.#.#.#.#",
".............#.#.#.#.#.#.#.#.#.#.#.#.#.#.#.#.#.#.#.a.#.#.#.#.#.d.e.c.d.a.#.#.#.#.#.#.#.#.#.#.#.#",
".............#.#.#.#.#.#.#.#.#.#.#.#.f.#.#.#.#.#.#.#.#.#.#.g.#.h.i.j.#.f.#.#.#.#.#.#.#.#.#.#.#.#",
".............#.#.#.#.#.#.#.#.#.#.#.#.#.#.#.#.#.#.a.#.#.#.#.#.#.k.e.a.#.#.#.#.#.#.#.#.#.#.#.#.#.#",
".............#.#.#.#.#.#.#.#.#.#.#.#.#.#.#.#.#.#.#.#.#.#.#.#.l.e.h.a.#.#.#.#.#.#.#.#.#.#.#.#.#.#",
".............#.#.#.#.#.#.#.#.#.#.#.#.#.a.a.f.a.#.a.f.f.#.#.#.m.n.o.#.#.#.#.#.#.#.#.#.#.#.#.#.#.#",
".............#.#.#.#.#.#.#.#.a.a.a.a.d.p.h.q.r.s.t.u.u.h.p.l.s.s.a.#.#.#.#.#.#.#.#.#.#.#.#.#.#.#",
".............#.#.#.#.#.#.#.#.a.a.v.w.e.n.i.x.i.x.y.z.A.i.e.s.B.j.#.a.#.#.a.#.#.#.#.#.#.#.#.#.#.#",
".............#.#.#.#.f.a.a.a.C.D.i.x.y.E.x.i.e.y.F.y.G.x.x.o.a.H.k.I.#.#.a.#.#.#.#.#.#.#.#.#.#.#",
".............#.#.#.a.#.a.J.c.K.L.K.y.y.y.i.x.y.z.F.F.F.y.D.a.m.E.x.M.N.C.#.a.#.#.#.#.#.#.#.#.#.#",
".............#.#.#.#.a.J.q.y.G.O.H.z.y.i.H.y.H.y.F.F.F.z.P.a.k.y.E.Q.R.t.l.a.#.#.#.#.#.#.#.#.#.#",
".............#.#.#.#.J.D.z.z.S.F.z.z.H.F.T.H.y.F.O.U.z.U.J.C.G.V.R.W.X.Y.w.I.#.#.#.#.#.#.#.#.#.#",
".............#.#.#.J.q.E.G.U.Z.0.1.2.3.4.Z.T.K.z.F.F.O.5.a.b.i.m.6.7.7.8.7.w.l.#.#.#.#.#.#.#.#.#",
".............#.#.a.P.y.z.F.9.2#.#####.#a#b#c.F.z.z.H.F.j.a.L.E.t#d#e#f#g#h.R#i.l.#.#.#.#.#.#.#.#",
".............a.a.j.L.z.F.9#j#k#l#m#n#o#.#l#p.y.i.y.i.5.J.j.y.Y.Y#q#e#r#s#t#u#v#i.#.#.#.#.#.#.#.#",
".............#.d.b.Q.F.E#w#l#l#.#n.O.2#l#x#y.F.F.F.y#z.a.s.x.x#A#B#r#C#D.W.Y.A.N.l.#.#.#.#.#.#.#",
".............a.P.x.i.z#c#x#l#k.2.O#n#a#a#l.2.T.H.x.n#E.v.T.i.x.X#F#G#r.8.E.y.y.x.u.#.#.#.#.f.#.#",
".............a.5.y.y.y#p#l#k#a#w.O#n#a#k#x#o.O.F.i.b.a.m.y.y.i#H#I#G#e#t.z.F.z.y.s.#.#.g.#.#.#.f",
".............C.x.i.T.H#J#l#k#k#o#K.O#o#L#o.0.z.T#M.o#E.k.y.x#u#N#O#O#P.V.F.Z.F.Q.e.p.#.#.#.#.#..",
".............P.y.y.F.y#b#a#k#l.9.O.0.U#K.U.z.z.K.x.a.B.y.y.y#q#Q#G#R#S.Y.K.z.y.i.i.h.#.#.#.#....",
".............s.x.K.i.F#b#k#a#k.O.U.O#K.0.0.F.y.y.m.a.D.z.K.E#B#s#G#e.W.Q.K.E.y.i.Q.t.#.#.#.#....",
".............k.y.i.H.F#T#l#k#k#n#K#K#c#y#j.Z.y.x.C.J.F.K.K.Y#F#U#r#d.V.E.F.y.y.x.H.e.#.#.#.#....",
".............K.y.y.F.i#V#W#k#k.2.9.Z#L#a#X.z.y.u.a.m.y.K.E.W#s#O#e#t.E.F.y.y.i.K.H.x.a.#.#.g....",
".............i.x.T.y.Z.F#T#a#a#l#b#y#l#Y.Z.S.x#Z.a.L.y.z.R#d#U#I.7.V.z.F.E.y.z.K.y.y.a.#.#.g....",
".............y.x.H.y.T.F.Z#V#.#a#l#x#p.Z.F.K.K.a.v.H.K.E.R#U#O#s#t.Y.K.z.z.y.y.K.F.z.a.f.#......",
".............z.x.z.i.F.y.F.Z.T.U.y.z.F.K.K.y.b.a.b.G.x.Y#t#U#s#e.W.E.F.z.y.y.z.F.z.F.a.a........",
".............x.K.y.y.z.z.F.F.H.z.F.F.y.H.H.i.J#E.x.i.E.R#e#e#s.8.R.E.F.z.y.z.E.F.z.S.a.a........",
".............D.K.z.y.y.z.y.F.z.y.H.y.K.H.z.D.a.P.y.x.R#H#s#e#R#t.E.E.y.z.F.z.z.z.z.D.a.#........",
".............m.F.H.y.F.y.z.z.F.T.z.z.k.H.K.v.a.k.F.E#A#P#C#r.7.E.G.F.z.y.F.z.z.E.z.m.a.a........",
".............v.K.Z.y.F.F.F.z.H.U.y.y.K#c.e#E.v.i.K.Q.X#0#I#G#t.E.E.F.y.E.F.z.E.y.K.j.#.#........",
"............#E.k.z.K.F.y.y.z.z.y.K.T.y.y.b.a.D.z.F.E#1#O#C#I.X.y.F.z.y.y.z.F.z.x.e.d.#.#........",
".............a.5.x.T.y.z.z.F.T.Z.z.y.G.e.j.a.i.y.Q#2#F#r#C#3.Y.y.F.F.E.E.z.F.y.n.r.#.#.#........",
".............#.o.r.i.y.z.H.F.U.T.H.x.A.s.a.h.z.K.R#H#O#C#0#q.i.y.F.F.y.F.z.z.A.e.p.#.#.#.#.....#",
".............#.f.B.n.i.F.y.Z.z.z.y.x.y.B.f.s.y.y#u#3#O#r#F.X.K.y.z.z.F.G.z.K#u#4.#.#.#.#.#.#.#.#",
".............#.#.l.u.x.y.y.F.z.Z.K.y.e.J.o.n.K.x.X#F#O#G#5.Y.D.S.F.z.E.F.F.Q.t.l.#.#.#.#.#.#.#.#",
".............#.#.#.I.r.H.H.k.y.z.k#c.b.a#z.i.E.E#3#G#O#I#A.V.P.D.E.F.F.E.y.x.I.#.#.#.#.#.#.#.#.#",
".............#.#.#.f.j.e.i.y.y.F.x.H.v.a.e.y.E.R#R#O#O#6#q#S.P.S.z.F.x.G.k.P.#.#.#.#.#.#.#.#.#.#",
".............#.#.#.#.d.j.r#c.i.y.i.D.a.v.H.E.R#t#s#I#I#5#S.6.K.K.y.G.Q.k#Z.a.#.f.g.#.#.#.#.#.#.#",
".............#.#.#.#.#.#.I.s.n.y.i.j#E.b.y.x.R#P#s#R#F#3#P.w.G.F.K.x.D.I.a.#.#.#.#.#.#.#.#.#.#.#",
".............g.#.#.#.f.#.#.d.t.x.y.J.J.y.F.E#q#s#s#G#F#R.8.A.L.G.E.b.l.a.#.a.#.#.#.#.#.#.#.#.#.#",
".............#.#.#.#.#.#.#.#.f.l#z#E.P.G.F.E#t#D#r#0#0#B.X.Y.n.b.I.a.a.a.#.#.#.#.#.#.#.#.#.#.#.#",
".............#.#.#.#.#.#.#.#.#.a.r.m.m.D.k.x.M.7#7#8#1#9a.#h.C.d.a.a.#.#.#.#.#.#.#.#.#.#.#.#.#.#",
".............#.#.#.#.#.#.#.#.#.d.L#z.a.a.a.d.Ia#aa#7#g.g.f.#.#.a.#.#.#.#.#.#.#.#.#.#.#.#.#.#.#.#",
".............#.#.#.#.#.#.#.#.##h.n.B.a.a#E.a.#.#.#.g.#.#.#.#.a.a.a.a.#.#.#.#.#.#.#.#.#.#.#.#.#.#",
".............#.#.#.#.#.#.#.#.f.e#v.d.#.a.#.#.#.#.#.#.#.#.f.#.#.#.#.#.#.#.#.#.#.#.#.#.#.#.#.#.#.#",
".............#.#.#.#.#.#.#.#.I.M.h.#.a.f.#.f.#.#.l.f.#.#.a.#.#.#.#.#.#.#.#.#.#.#.#.#.#.#.#.#.#.#",
".............#.#.#.#.#.#.#.##4#v.l.a.f.#.#.a.#.a.#.#.#.a.#.#.#.#.#.#.#.#.#.#.#.#.#.#.#.#.#.#.#.#",
".............#.#.#.#.#.#.#.##2.t.#.#.#.#.#.#.#.a.a.a.#.a.a.#.#.#.#.#.#.#.#.#.#.#.#.#.#.#.#.#.#.#"
};
SIMPLE  =                    T                                                  BITPIX  =                    8                                                  NAXIS   =                    2                                                  NAXIS1  =                   48                                                  NAXIS2  =                   48                                                  HISTORY Written by XV 3.10a                                                     END                                                                                                                                                                                                                                                                                                                                                                                                                                                                                                                                                                                                                                                                                                                                                                                                                                                                                                                                                                                                                                                                                                                                                                                                                                                                                                                                                                                                                                                                                                                                                                                                                                                                                                                                                                                                                                                                                                                                                                                                                                                                                                                                                                                                                                                                                                                                                                                                                                                                                             ÿÿÿÿÿÿıııııııı¥¹ıııııııúúúıúúıııııııııııııııııııÿÿÿÿÿÿııııııııÇ­ğúöııúıúıııúııııııııııııııııııııÿÿÿÿÿÿııııııııäÍıúöıöıığöııúıııııııııııııııııııÿÿÿÿÿÿııııııııö©­ôıúııııııııöıııııııııııııııııııÿÿÿÿÿÿıııııııııÔ¢Õúúôúıııõııııúúúúııııııııııııııÿÿÿÿÿÿıııııııııô¥Ãúúúôäïëáìõöııúııııııııııııııııÿÿÿÿÿÿıııııııııú±ÈÈ²«ÌáÎ·ª´ÔëôúúııııııııııııııÿÿÿÿÿÿııııııııöğÃôĞ’Ÿš±ÖãÚÚ·Ÿ—¢¿äúúúııııııııııııÿÿÿÿÿÿõıııöııô¹›ïï›Ÿš£ŞŞçÎØÄ“¥’š¿ğúıúııııııııııÿÿÿÿÿÿııııııäµ¢›˜Ûô¿›ÈŞØÎÀÈ¿’Ÿ¢²äúıııııııııııÿÿÿÿÿÿııııôÛ±Š˜›˜²úß”š±ŞÔÔ­¼Ê¢¢›’•«ÖúıöõıııııııÿÿÿÿÿÿıııöÛ©˜››Ÿ”ßú©›šØààµ£¼Ğ¦˜Ÿ’«Ğııııııııııÿÿÿÿÿÿıııä±””«›˜«Š¿úÃ˜ššÀçàÔš¤Ğ²šŸŸš›äıııııııııÿÿÿÿÿÿıığ¾››Ÿ˜‘¢›©ïæ¢¢ŸÎàç­—²¦Ÿ˜šŸŸ•¹ğııııııııÿÿÿÿÿÿıöÕ¢˜Ÿ›‘˜˜››Õöµ››šÀàãÎŸ¢›˜˜Ÿ’˜¢šÇııııııııÿÿÿÿÿÿıæ±˜›˜”Ÿ¤¦”“µúÍ˜¢®àÛÚ£˜›ŸŸ›Ÿ˜˜“©àııııÿÿıÿÿÿÿÿÿúº¦›˜˜Ÿ¦‘˜›’©Ûú˜›•¥ÎãÛÀ—›ŸŸšš˜Ÿ›¢±ıııÿÿÿÿÿÿÿÿÿÿô«˜¢Ÿ››˜˜›¢¦››¿ú²˜Ÿš·àÛÔŸ›Ÿ˜››˜Ÿ˜©ôııÿÿÿÿÿÿÿÿÿÿß¢‘›ŸŸŸ˜”¤››¢Š©ôß˜¢•ŸÚÔç±ššŸ›šŸ˜š›¢ÛııÿÿÿÿÿÿÿÿÿÿÈŸ”›Ÿ›˜˜Ÿ¦˜˜«”¢ßú«ŸššÈÛãÌš’Ÿ˜›Ÿ˜˜š˜Èúúÿÿÿÿÿÿÿÿÿÿ²¢˜››˜›Ÿ˜›”›¢”˜²úĞ›®ŞÕØ±šš›˜Ÿ˜˜˜˜²úıÿÿÿÿÿÿÿÿÿÿ¢››˜˜ŸŸ”˜ŸŸ›””˜ïô˜šÕÕŞÄšŸ˜›˜šŸ˜¦úúÿÿÿÿÿÿÿÿÿÿ˜˜˜Ÿ›Ÿ‘¦¤›˜Ÿ¢¢›¿ú¿’—±äŞÕ«šŸ˜››˜Ÿ˜Ÿúúÿÿÿÿÿÿÿÿÿÿ›”›¦Ÿ‘u,"&`‘Ÿ¢¢úß”¢šäàŞ±—¢˜˜››¢Ÿ˜úöıÿÿÿÿÿÿÿÿÿ˜¦›‘ŸO"":05‘¦Öú¥›˜ÁäÔÌ¤˜Ÿš›˜¢››úııõÿÿÿÿÿÿÿÿ¢››Ÿ˜u0C…‘\"X˜›¾úÈ›¢š«ŞàÕ±šŸ››˜¢”úııõÿÿÿÿÿÿÿÿ«›˜”ŸO}ªªŠ0J‘›ëïŸ¢¢—ÎäãÁ¤šŸ››”©ııııÿÿÿÿÿÿÿÿµ¢˜Ÿ:"–¤–ªŒŒŸ››Èú²˜¢š·ŞçÕ«•¢š›˜•¹ııııÿÿÿÿÿÿÿÿĞ››Ÿ›:"…–Œ¤ª¤˜˜¢úÕ›››£ÓçØ¼—¢˜›˜˜Íııııÿÿÿÿÿÿÿÿë˜¦”Alª–l\lŒ˜¦æô«›šÂààÈ¤Ÿ‘Ÿ•©àıııııÿÿÿÿÿÿÿúº›››`"R–}"&l–Ÿ˜¿úÈ››˜®ÔçÕ±˜Ÿ˜›µııõıııöÿÿÿÿÿÿúĞ˜˜Š&C–}""C¦”¢ôß¦˜ŸÎçãÄš››¾ııııöııÿÿÿÿÿÿıô¿•ŸšR,}–C&0ŸŸŸ›Ãúµš·ãÛÖ«—“½ğıııııııÿÿÿÿÿÿúúÛ¥˜Ÿ…J7}l,`›˜›˜ºïÛ›——£ÕãŞ±š­ÓııııııııÿÿÿÿÿÿııúĞ›˜Ÿ…C,,":ŠŸ˜˜”ŸÛú¥š¹ÁÕåìÔÓğııııııııÿÿÿÿÿÿıııï¼š’¤‘ŒbCHp‘¦¢˜ŸŸ–ºú¿˜ÈÊÌÌÄÌ¿ğıııııııııÿÿÿÿÿÿııııï²˜˜¦Ÿ˜˜”Ÿ¦”›Ÿ–¤˜¤ïë’¤«Ÿ—¿äııııııııııÿÿÿÿÿÿııııúï¼›’–”˜›˜”›”›ŸŸŸ˜Ğú«›š•¹ğúııııııııııÿÿÿÿÿÿıııúıúïÌ¢¥¢›››˜›˜ŸŸŸ›²úÈš½ëıúııııııııııÿÿÿÿÿÿııııöúúúë²˜›š˜©›Ÿ›’æú”«äııúıııııııııııÿÿÿÿÿÿııııııııúúß¿©¢˜˜›˜“˜©µÕÛıúııúıııııııııııÿÿÿÿÿÿııııııııúúúúôàÍ¼±µ¹¾¾ÍàğµµúıııııııııııııııÿÿÿÿÿÿıııııııııııııúúöúıúööıııÈ¢æıııııııııııııııÿÿÿÿÿÿıııııııııııııııııııııııığ©Íúııııııııııııııÿÿÿÿÿÿııııııııııııııııııúıııııı«©úııııııııııııııÿÿÿÿÿÿııııııııııııöııııııııııõıÍ˜Ûıöııııııııııııÿÿÿÿÿÿıııııııııııııııııııúıııııô©Ìôúııııııııııııÿÿÿÿÿÿıııııııııııııııııııúıııııú¿Ìúúúııııııııııı                                                                                                                                                                                                                                                                                                                                                                                                                                                                                                                                                                                                