/* XPM */
static char * arrows2_xpm[] = {
"48 48 58 1",
" 	c #666666669999",
".	c #686868689B9B",
"X	c #6A6A6A6A9D9D",
"o	c #6C6C6C6C9F9F",
"O	c #6E6E6E6EA1A1",
"+	c #70707070A3A3",
"@	c #72727272A5A5",
"#	c #74747474A7A7",
"$	c #76767676A9A9",
"%	c #78787878ABAB",
"&	c #7A7A7A7AADAD",
"*	c #7C7C7C7CAFAF",
"=	c #7E7E7E7EB1B1",
"-	c #80808080B3B3",
";	c #82828282B5B5",
":	c #84848484B7B7",
">	c #86868686B9B9",
",	c #88888888BBBB",
"<	c #000000000000",
"1	c #8A8A8A8ABDBD",
"2	c #8C8C8C8CBFBF",
"3	c #000077770000",
"4	c #8E8E8E8EC1C1",
"5	c #90909090C3C3",
"6	c #000055550000",
"7	c #92929292C5C5",
"8	c #94949494C7C7",
"9	c #96969696C9C9",
"0	c #99999999CCCC",
"q	c #0000FFFF0000",
"w	c #0000ABAB0000",
"e	c #9D9D9D9DD0D0",
"r	c #9B9B9B9BCECE",
"t	c #9F9F9F9FD2D2",
"y	c #A3A3A3A3D6D6",
"u	c #A5A5A5A5D8D8",
"i	c #A9A9A9A9DCDC",
"p	c #ABABABABDEDE",
"a	c #ADADADADE0E0",
"s	c #B1B1B1B1E4E4",
"d	c #B3B3B3B3E6E6",
"f	c #A1A1A1A1D4D4",
"g	c #AFAFAFAFE2E2",
"h	c #B5B5B5B5E8E8",
"j	c #B7B7B7B7EAEA",
"k	c #A7A7A7A7DADA",
"l	c #B9B9B9B9ECEC",
"z	c #BBBBBBBBEEEE",
"x	c #BDBDBDBDF0F0",
"c	c #BFBFBFBFF2F2",
"v	c #C1C1C1C1F4F4",
"b	c #C3C3C3C3F6F6",
"n	c #C7C7C7C7FAFA",
"m	c #CCCCCCCCFFFF",
"M	c #DCDC00000000",
"N	c #FFFF00000000",
"B	c #777700000000",
"V	c #ABAB00000000",
"                                                ",
"                  ..XXXoooXXX..                 ",
"               .XXooOOO+++OOOooXX.              ",
"             .XoOO+@@@#####@@@+OOoX.            ",
"           .XoO+@@#$$$%%%%%$$$#@@+OoX.          ",
"          .oO+@#$$%&&&*****&&&%$$#@+Oo.         ",
"         XoO+#$%%&*===-----===*&%%$#+OoX        ",
"        Xo+@#$%&*=-;;:::::::;;-=*&%$#@+oX       ",
"       Xo+@$%&*=-;:>>,,,,,,<>>:;-=*&%$@+oX      ",
"      Xo+@$%&=-;:>,1122222<3<1,>:;-=&%$@+oX     ",
"     .o+@$%*=-:>,12445555<336<21,>:-=*%$@+o.    ",
"    .oO@$%*=;:>12455788888<366<421>:;=*%$@Oo.   ",
"    XO+#%&=;:,1247889000000<666<421,:;=&%#+OX   ",
"   .o+#$&=-<q<<<q<<<<<<<<<<<<666<541,:-=&$#+o.  ",
"   XO@$%*-:>qqqqqqqqwwww33336666<<541>:-*%$@OX  ",
"  .o+#%&=;>12<q<<<qqwwww33336666<<<521>;=&%#+o. ",
"  XO@$%*-:,247qqqqqqwwww33336666<<9742,:-*%$@OX ",
"  XO@$&=;>14780<q<<<w<<<<<<<<666<e08741>;=&$@OX ",
" .o+#%*-:,2589rtyuipassddds<666<ytr9852,:-*%#+o.",
" .o@$&=;>14580efuipgsdhjjj<366<iufe08541>;=&$@o.",
" XO@$&=;>1479rtykpashjlzz<336<apkytr9741>;=&$@OX",
" XO@$&=:,2580efuiasdjzxccc<3<dsaiufe0852,:=&$@OX",
" XO#%*-:,2580efuiashlxvbbbv<lhsaiufe0852,:-*%#OX",
" o+#%*-:,2580eykpgdjzcbnnnbczjdgpkye0852,:-*%#+o",
" o+#%*-:,2580tykpgdjzcbnmnbczjdgpkyt0852,:-*%#+o",
" o+#%*-:,2580eykpg<jzcbnnnbczjdgpkye0852,:-*%#+o",
" XO#%*-:,2580efui<M<lxvbbbvxlhsaiufe0852,:-*%#OX",
" XO@$&=:,2580efu<MMM<zxcccxzjdsaiufe0852,:=&$@OX",
" XO@$&=;>1479rt<MMM<hjlzzzljhsapkytr9741>;=&$@OX",
" .o@$&=;>14580<NMM<gsdhjjjhdsgpiufe08541>;=&$@o.",
" .o+#%*-:,258<NNM<<<<<<<<<<<<B<<<<<9852,:-*%#+o.",
"  XO@$&=;>14<NNNMMMMVVVVBBBBBBBBB<08741>;=&$@OX ",
"  XO@$%*-:,<NNNNMMMMVVVVBBBB<<<B<09742,:-*%$@OX ",
"  .o+#%&=;>1<NNNMMMMVVVVBBBBBBBB097521>;=&%#+o. ",
"   XO@$%*-:>1<NNM<<<<<<<<B<<<B<097541>:-*%$@OX  ",
"   .o+#$&=-:,1<NMM<0reeeteeer0987541,:-=&$#+o.  ",
"    XO+#%&=;:,1<MMM<900000009887421,:;=&%#+OX   ",
"    .oO@$%*=;:>1<MMM<8888888755421>:;=*%$@Oo.   ",
"     .o+@$%*=-:>,<M<455555554421,>:-=*%$@+o.    ",
"      Xo+@$%&=-;:><11222222211,>:;-=&%$@+oX     ",
"       Xo+@$%&*=-;:>>,,,,,,,>>:;-=*&%$@+oX      ",
"        Xo+@#$%&*=-;;:::::::;;-=*&%$#@+oX       ",
"         XoO+#$%%&*===-----===*&%%$#+OoX        ",
"          .oO+@#$$%&&&*****&&&%$$#@+Oo.         ",
"           .XoO+@@#$$$%%%%%$$$#@@+OoX.          ",
"             .XoOO+@@@#####@@@+OOoX.            ",
"               .XXooOOO+++OOOooXX.              ",
"                  ..XXXoooXXX..                 "};
