/* XPM */
static char *bookshelf[] = {
/* width height num_colors chars_per_pixel */
"    48    48       79            2",
/* colors */
".. c #000000",
".# c None",
".a c #101000",
".b c #101800",
".c c #101f10",
".d c #101f1f",
".e c #10381f",
".f c #1f1f20",
".g c #201810",
".h c #202000",
".i c #202810",
".j c #204740",
".k c #206020",
".l c #20682f",
".m c #2f2f30",
".n c #2f3000",
".o c #2f7f30",
".p c #2f902f",
".q c #2fa82f",
".r c #30302f",
".s c #30383f",
".t c #3f204f",
".u c #3f3000",
".v c #3f303f",
".w c #3f3050",
".x c #3f371f",
".y c #3f4000",
".z c #402000",
".A c #40c84f",
".B c #4f4f00",
".C c #4f574f",
".D c #4f7f9f",
".E c #50804f",
".F c #509f60",
".G c #5f2810",
".H c #5f500f",
".I c #5f5030",
".J c #5f5f60",
".K c #5faf5f",
".L c #60474f",
".M c #70404f",
".N c #707780",
".O c #7f402f",
".P c #7f706f",
".Q c #7f808f",
".R c #7fa79f",
".S c #803f30",
".T c #808890",
".U c #8f370f",
".V c #8f909f",
".W c #8fa8b0",
".X c #8fbfcf",
".Y c #90786f",
".Z c #908780",
".0 c #90ff90",
".1 c #9f7f6f",
".2 c #9fafa0",
".3 c #a05f5f",
".4 c #a06f5f",
".5 c #a0907f",
".6 c #a09890",
".7 c #a0a7c0",
".8 c #af2000",
".9 c #b03830",
"#. c #b07850",
"## c #b0b7cf",
"#a c #c0a84f",
"#b c #c0df9f",
"#c c #cfa77f",
"#d c #dfafa0",
"#e c #e0903f",
"#f c #e0a810",
"#g c #e0efe0",
"#h c #e0f0cf",
"#i c #e0f7e0",
"#j c #efb89f",
"#k c #efeff0",
"#l c #efffdf",
"#m c #ffffff",
/* pixels */
".#.#.#.#.#.#.#.#.#.#.#.#.#.#.#.#.#.#.#.#.#.#.#.#.#.#.#.#.#.#.#.#.#.#.#.#.#.#.#.#.#.#.#.#.#.#.#.#",
".#.#.#.#.#.#.#.#.#.#.#.#.#.#.#.#.#.#.#.#.#.#.#.#.#.#.#.#.#.#.#.#.#.#.#.#.#.#.#.#.#.#.#.#.#.#.#.#",
".#.#.#.#.#.#.#.#.#.#.#.#.#.#.#.#.#.#.#.#.#.#.#.#.#.#.#.#.#.#.#.#.#.#.#.#.#.#.#.#.#.#.#.#.#.#.#.#",
".#.#.#.#.#.#.#.#.#.##m.m.C#m#m#m#m...#.#.#.#.#.#.#.#.#.#.#.#.#.#.#.#.#.#.#.#.#.#.#.#.#.#.#.#.#.#",
".#.#.#.#.#.#.#.#.##m.i.C.6#m#m#m.....#.#.#.#.#.#.#.#.#.#.#.#.#.#.#.#.#.#.#.#.##l#d..#m#m.Q...#.#",
".#.#.#.#.#.#.#.##m.m.C.2#m#m#m.......#.#.#.#.#.#.#.#.#.#.#.#.#.#.#.#.#.#.#.#.##m#j...2#m#m...#.#",
".#.#.#.#.#.#.##m.i.C.6#m#m#m.........#.#.#.#.#.#.##l#c.x#m#m#m.C...#.#.#.#.#.##m#m#c..#m#m.2...#",
".#.#.#.#.#.#.##m#m#m#m#m#m.7.m.......#.#.#.#.#.#.##i.x#m#m#m#m.C...#.#.#.#.#.##m#m#d...2#m#m...#",
".#.#.#.#.#.#.##m.F.q.F.X.W.7.i.......#.#.#.#.#.##i#c.G#m#m#m.2.....#.#.#.#.#.##l#k#m#d#m#m#m.M..",
".#.#.#.#.#.#.##m.F.7##.7.X.7.m.......#...C#m#m..#l.G#m#m#m#m.2.....#.#.#.#.#.##m#m#m#c#d.C.C.I..",
".#.#.#.#.#.#.##..G.B.z.B.z.B.i.........C.2#m.6..#i#l#i#l#i#c.z.....#.#.#.#.#.##m#m#l.M.c...b....",
".#.#.#.#.#.#.##m.X.7.X.W.X.7.m.........2#m#m.e..#i#c#f#e#f#e.x.....#.#.#.#.#.##m#m#m.C.c.d.c.c..",
".#.##h...V#m#m.5.G.B.G.u.z.u.i........#m#m.R.r..#i#c#e.H#a#e.G.....#.#.#.#.#.##c#k#m.M.b...c....",
".##g...C#m#m#m.1.B.f.d.i.B.m.m.....s.k.R.W.R.e..#c.z.I.O.z.z.......#..#m#m#m.#..#m#m#c#d.C.C.I..",
"#g...C.2#m#m.k#..G.B.z.B.G.u.i.....k.s.R.R.R.r..#i#e#a.O#c#c.z.....y..#m#m#m.N..#d#l.8.h.z.h.z..",
"#l#g#l#i#l.2.k#m.X.7##.W.X.7.m.......m.w.S.j....#i#c#c#e#f#c.x.....v..#m#m#m.N...C#m#j#d.I.L.C..",
"#h.A.p.E.p.k...5.G.B.z.B.z.B.i.....k.s.R.R.R.r..#c.z.O.z.O.z.......y..#m#m#m#m.y..#m#d#c.M.I.M..",
"#l.R.E.p.E.k..#m.F.F.F.W.X.V.m.....t.m.w.s.s....#l#e#c#c#c#c.x.....y#m#m#m#m#m.v..#m#c#d.C.C.I..",
"#b.E...e......#m.F.q.7.7.W.V.i.....k.s.R.R.R.r..#i#e#c.B#c#c.z.....y.y.y.y.y.y.y..#l#d#c.M.I.M..",
"#l.R.E.p.E.l..#m.F.7##.7.X.T.m.......m.w.s.j....#i#e#c.n#c#c.x.....v.y.y.j.v.y.y..#m#j#d#j.L.C..",
"#b.E..........#m.F.w.7.s.W.V.i.....k.s.R.R.R.r..#i#e#e.B#c#c.G.....y.Y.P.3.4.Y.y..#m#d#c.M.I.M..",
".0.p.e.e.e.e..#m.F.a##.7.X.V.m.....s.k.R.k.R.e..#l#e#e#c#c#c.x.....y.y.v.y.y.y.v..#m#c#d.z.C.I..",
"#b.E...e......#m.F.s.7.J.W.V.i.....e.s.R.S.R.r..#i#e#a.B#c#c.z.....y.Q.Z.Q.Z.Q.y..#l#d#c.M.I.M..",
"#l.R.E.p.E.l..#m.F.7##.w.X.T.m.....e.k.R.k.R.e..#i#e#c.n#c#c.x.....v.Z.n.c.c.Z.y..#m#j#d.z.L.C..",
"#b.E..........#m.F.w.7.g.W.V.i.....e.s.R.9.R.r..#i#c#c.B#c#c.G.....y.Q.Z.Q.Z.Q.y..#m#d#c.M.I.M..",
"#l.R.E.p.E.k..#m.F.7##.7.X.V.m.....e.k.R.W.R.e..#l#c#c.n#c#c.x.....y.y.v.y.y.y.v..#m#c#d#j.C.I..",
"#g.K.p.p.p.k..#m.F.s.7.w.W.V.i.....e.s.R.S.R.r..#i#c#c.B#c#e.z.....y.d.P.Y.P.d.y..#l#d#c.z.I.M..",
"#l.R.E.p.E.l..#m.F.a##.a.X.T.m.....j.k.R.R.R.e..#i#c#c#c#f#c.x.....v.y.y.j.v.y.y..#m#j#d.I.L.C..",
"#h.A.p.E.p.k..#m.F.7.7.J.W.V.i.....k.s.R.R.R.r..#i#c#c.h#a#c.G.....y.y.b.y.c.y.y..#m#d#c#d.I.M..",
"#l.R.E.p.E.k..#m.F.w##.a.X.V.m.....e.k.R.W.R.e..#l#c#c.O#f#c.x.....y.c.v.c.y.y.v..#m#c#d#j.C.I..",
"#g.K.p.p.p.k..#m.F.s.7.w.W.V.i.....k.s.R.S.R.r..#i#c#c.h#e#c.z.....y.y.c.y.y.y.y..#l#d#c.M.I.M..",
"#l.R.E.p.E.l..#m.F.7##.7.X.T.m.....j.k.R.S.R.e..#i#c#c#c#f#c.x.....v.c.y.c.v.y.y..#m#j#d.I.L.C..",
"#b.E...e......#m.F.7.7##.W.V.i.....e.s.R.R.R.r..#i#c#c.H#a#c.G.....y.y.b.y.y.y.y..#m#d#c.M.I.M..",
"#l.R.E.p.E.k..#m.F.7##.7.X.V.m.....e.k.R.k.R.e..#l#c#c.O#f#c.x.....y.y.v.y.y.y.v..#m#c#d.C.C.I..",
"#b.E..........#m.F##.7.7.W.V.i.....e.s.R.S.R.r..#i#e#a#c#e#c.z.....y.3.D.Y.D.3.y..#l#d#c.M.I.M..",
".0.p.e.e.e.....7.B.G.u.B.u.G.m.....j.k.R.k.R.e..#i#e#c#c#f#c.x.....v.y.y.j.v.y.y..#m.U.z.z.z.z..",
"#b.E.c........#m.7.7.7##.W.7.i.....e.s.R.9.R.r..#i#e.O.y.y#c.G.....y.Y.P.3.4.Y.y..#m#d#c.M.I.M..",
"#l.R.E.p.E.k...7.B.B.u.z.B.w.m.....s.k.R.k.R.e..#l#e.y#c.y#c.x.....y.P.D.D.D.P.v..#m.I.c........",
"#b.E...e.c.....7.w.B.G.u.z.B.i.....e.s.o.R.R.r..#i#e.y#c.O#c.z.....y.3.P.Y.P.3.y..#l.M.c.c.b....",
"#l.R.E.p.E.l...7.j.w.s.B.u.w.m.........w.s.j....#i#c.y#c.j#c.x.....v.y.y.j.v.y.y..#m.C.c........",
"#h.A.p.E.p.k..#m.F.7.7.X.W.7.i.....k.s.R.R.R.r..#i#c.y.H.y#e.G.....y.Y.D.3.D.Y.y..#m#d#c.M.I.M..",
".#...........#.7.B.B.B.z.u.B.m.....e.k.R.W.R....#l#c#c#c#c#e.x.....y.y.v.y.y.y.v..#d#c#d.C.C.I..",
".#.#.#.#.#.#.##m.F.q.7.7.W##.i...#.............##c#c#a#e#e#e.z.....y.y.y.y.y.y.y...#...........#",
".#.#.#.#.#.#.##m.F.W.X.W.X.7.m...#.#.#.#.#.#.#.#.#...............#...............#.#.#.#.#.#.#.#",
".#.#.#.#.#.#.#.#...............#.#.#.#.#.#.#.#.#.#.#.#.#.#.#.#.#.#.#.#.#.#.#.#.#.#.#.#.#.#.#.#.#",
".#.#.#.#.#.#.#.#.#.#.#.#.#.#.#.#.#.#.#.#.#.#.#.#.#.#.#.#.#.#.#.#.#.#.#.#.#.#.#.#.#.#.#.#.#.#.#.#",
".#.#.#.#.#.#.#.#.#.#.#.#.#.#.#.#.#.#.#.#.#.#.#.#.#.#.#.#.#.#.#.#.#.#.#.#.#.#.#.#.#.#.#.#.#.#.#.#",
".#.#.#.#.#.#.#.#.#.#.#.#.#.#.#.#.#.#.#.#.#.#.#.#.#.#.#.#.#.#.#.#.#.#.#.#.#.#.#.#.#.#.#.#.#.#.#.#"
};
SIMPLE  =                    T                                                  
BITPIX  =                    8                                                  
NAXIS   =                    2                                                  
NAXIS1  =                   48                                                  
NAXIS2  =                   48                                                  
HISTORY Written by XV 3.10                                                      
END                                                                             
                                                                                
                                                                                
                                                                                
                                                                                
                                                                                
                                                                                
                                                                                
                                                                                
                                                                                
                                                                                
                                                                                
                                                                                
                                                                                
                                                                                
                                                                                
                                                                                
                                                                                
                                                                                
                                                                                
                                                                                
                                                                                
                                                                                
                                                                                
                                                                                
                                                                                
                                                                                
                                                                                
                                                                                
                                                                                
SSSSSSSSSSSSSSSSSSSSSSSSSSSSSSSSSSSSSSSSSSSSSSSSSSSSSSSSSSSSSSSSSSSSSSSSSSSSSSSS
SSSSSSSSSSSSSSSSSSSSSSSSSSSSSSSSSSSSSSSSSSSSSSSSSSSSSSSSSSSSSSSSSSSSSSSS€€€€€€€S
SSSSSSSSSSSSSSSSSSSSSSSSSSSSSSSSSSSSSSSÿz ± ±¨/€SSSSSSSSS€€€€€€€S€€€€€€€SSSSSSSS
SSSSSSSÿzk¨¨ ¸!€S€€€€€€S®®¢žžž&€€5555555€S€€€€€SS€€€€€S¨BBB&-B/€€&@˜ ˜€€ô®®®®ž6€
€5575557€½®½SSP€å†_g_@€ÿz¨¨± ¨!€€@6˜˜˜/€ë®5K5ž7€€5~sus~5€ÿ½®RPR€ô˜g_gF€¨8:6B-:/€
€€€:68€€ë®5®8®6€€7558755€ÿS€€€€Êg€&€€¨:B7-&B!€€&6W˜˜/€ëž5®S®&€€5uu~uu5€ôR€€
ô˜g_g@€¨BB-&B:/€€6@˜@˜&€ôž5®5®6€€5usssu7€ÿP€€€€Êg€€€€ÿ¨¨¨¸ ¨!€€&6˜`˜/€ëžS55®7€
€5~uu}~5€ÿ½®RPR€Ç_&&&€€¨B7-B-7/€€8@˜@˜&€ëž®®£®6€€7558755€ÿO&&&&€Êg€€€€€ÿz¸¨¨ ’!€
€&6˜S˜/€ëž¢®ž®&€€5us~su5€ô½®RPR€ô˜g_g@€ÿz¨¸¨±’/€€&@˜@˜&€ô®®S£®6€€5575557€ÿ®½SSP€
Êg€&€€€ÿz¨¨¸ ’!€€&6˜˜˜/€ë®®K¢®7€€555555€ÿ½®RPR€ô˜g_gF€ÿz¨¸¨±†/€€8@˜S˜&€ë®®®£®6€
€75755€ÿÇ½PPS€ç‡___@€ÿz6¨: ’!€€@6˜S˜/€ë®®ž®&€€555555€ô½®RPR€ô˜g_g@€ÿz:¸±’/€
€&@˜ ˜&€ô®®S£®6€€57557€ÿ®½ÇSP€å†_g_@€ÿz¨¨_ ’!€€@6˜˜˜/€ë®®¢®7€€55555€ÿ½®½PR€ô˜g_gF€ÿz¸±†/€€8@˜˜˜&€ë®®®£®6€€7558755€ÿÇ½PPS€ç‡___@€ÿz6¨: ’!€€&6˜S˜/€ë®®B®ž&€€5u~u5€ô½®&PR€ô˜g_g@€ÿz¨¸¨±’/€€&@˜ ˜&€ô®®(®®6€€5575557€ÿ®½ÇSP€Êg€€€€€ÿz:¨ ’!€€&6˜`˜/€ë®®B®®7€€5‚‰‚‰‚5€ÿ½®RPR€ô˜g_gF€ÿz¨¸:±†/€€&@˜@˜&€ëž®(®®6€€7‰(‰5€ÿÇ½&PS€Êg€&€€€ÿz6¨_ ’!€€&6˜S˜/€ëž¢B®®&€€5‚‰‚‰‚5€ô½®RPR€Ç_&&&&€ÿz¸¨±’/€€6@˜@˜&€ôžž®®®6€€5575557€ÿ®½&SP€Êg€€€€€ÿz:¨6 ’!€€@6˜˜˜/€ëžžB®®7€€5~uu}~5€ÿ½®RPR€ô˜g_gF€ÿz¨¸¨±†/€€€/:68€€ëž®(®®6€€7558755€ÿÇ½ÇPS€Êg€&€€€ÿzk¨¨ ’!€€@6˜˜˜/€ëž®B®®&€€5555555€ô½®RPR€ô˜g_g@€ÿzzz ±’/€€2/:66€€ôž®®®®6€€5ÿÿÿÿÿ7€ÿ®½SSP€å†_g_@€’7B&B&B!€€@6˜˜˜/€®&S&S&€€€5€ÿÿÿÿ5€ÿ½®RPR€ôçôëô§@ÿ±¨¸ ±¨/€€€/:S8€€ë®®ž£®6€€7€ÿÿÿv€SÿÇ½PPS€ç€S§ÿÿ@…7B&B7-!€€@6˜˜˜/€ëž¢S®®&€€5€ÿÿÿv€½ôL&&€Sç€Sÿÿÿ‡B!B//€€6@˜ ˜&€®&PS&&€€€S€ÿÿÿS€ÿÿ®½SSP€SSå€’ÿÿ’7B7-&-!€€€€ÿÿ˜/€ë®žK¢ž7€€SSSSSS®ïÿR€€€SSSSSSSÿ±¨± ±¨/€€€€§ÿÿ&€ë®£ž£ž6€€SSSSSSÿÿÿS€SSSSSSS…7B&B&B!€€€€S§ÿ™€ëôëôë®&€€SSSSSSÿÿôR€€€SSSSSSSÿz¨¸¨±¨/€€€S€Sÿÿ€ô7ÿÿÿÿ§€€SSSSSSÿÿÿ®½SSP€SSSSSSSÿzkz± ¨!€€€SSSSSSë®7ÿÿÿ§€€SSSSSSôïÿ½ÿÿÿR€SSSSSSSÿÿÿÿÿÿ¨/€€€SSSSSSSë6ÿÿÿÿS€SSSSSSÿÿ½€§ÿÿ€SSSSSSSSÿ!S™ÿÿÿ€€€€SSSSSSSô®6ÿÿÿS€SSSSSSÿÿ®€ÿÿ§€SSSSSSSSSÿ/S§ÿÿÿ€€€SSSSSSSSSSSSSSSSSSSSSÿÇ€§ÿÿ€SSSSSSSSSSSÿ!S™ÿÿÿ€€SSSSSSSSSSSSSSSSSSSSSô½€ÿÿ‚€SSSSSSSSSSSSÿ/Sÿÿÿÿ€SSSSSSSSSSSSSSSSSSSSSSSSSSSSSSSSSSSSSSSSSSSSSSSSSSSSSSSSSSSSSSSSSSSSSSSSSSSSSSSSSSSSSSSSSSSSSSSSSSSSSSSSSSSSSSSSSSSSSSSSSSSSSSSSSSSSSSSSSSSSSSSSSSSSSSSSSSSSSSSSSSSSSSSSSSSSSS€€€€€€€€€€€€€€€€€€€€€€€€€€€€€€€€€€€€€€€€€€€€€€€€€€€€€€€€€€€€€€€€€€€€€€€€€€€€€€€€€€€€€€€€€€€€€€€€€€€€€€€€€€€€€€€€€€€€€€€€€€€€€€€€€€€€€€€€€€€€€€€€€€€€€€€€€€€€€€€€€€€€€€€€€€€€€€€€€€€€€€€€€€€€€€€€€€€€€€€€€€€€€€€€€€€€€€€€€€€€€€€€€€€€€€€€€€€€€€€€€€€€€€€€€€€€€€€€€€€€€€€€€€€€€€€€€€€€€€€€€€€€€€€€€€€€€€€€€€€€€€€€€€€€€€€€€€€€€€€€€€€€€€€€€€€€€€€€€€€€€€€€€€€€€€€€€€€€€€€€€€€€€€€€€€€€€€€€€€€€€€€€€€€€€€€€€€€€€€€€€€€€€€€€€€€€€€€€€€€€€€€€€€€€€€€€€€€€€€€€€€€€€€€€€€€€€€€€€€€€€€€€€€€€€€€€€€€€€€€€€€€€€€€€€€€€€€€€€€€€€€€€€€€€€€€€€€€€€€€€€€€€€€€€€€€€€€€€€€€€€€€€€€€€€€€€€€€€€€€€€€€€€€€€€€€€€€€€
