/* XPM */
static char * CalInteractive_xpm[] = {
"48 48 67 1",
" 	c #D7D7D7D7BEBE",
".	c #A0A0B8B8D8D8",
"X	c #F0F0F8F8F8F8",
"o	c #C8C8D8D8E8E8",
"O	c #A8A8C8C8D8D8",
"+	c #A0A0C0C0D8D8",
"@	c #A8A8C0C0D8D8",
"#	c #B8B8D0D0E0E0",
"$	c #70709898C0C0",
"%	c #B8B8C8C8E0E0",
"&	c #70709898C8C8",
"*	c #8080A8A8C8C8",
"=	c #B0B0C8C8E0E0",
"-	c #C8C8E0E0E8E8",
";	c #D0D0E0E0E8E8",
":	c #C0C0D8D8E0E0",
">	c #40407878B0B0",
",	c #28286868A0A0",
"<	c #48488080B0B0",
"1	c #F0F0F0F0F8F8",
"2	c #7070A0A0C0C0",
"3	c #8888A8A8C8C8",
"4	c #E8E8F0F0F0F0",
"5	c #9898B8B8D0D0",
"6	c #60609090B8B8",
"7	c #68689090C0C0",
"8	c #9090B0B0D0D0",
"9	c #38387070A8A8",
"0	c #68689898C0C0",
"q	c #E0E0E8E8F0F0",
"w	c #8888A8A8D0D0",
"e	c #60609090C0C0",
"r	c #50508080B8B8",
"t	c #B0B0C8C8D8D8",
"y	c #7878A0A0C0C0",
"u	c #38387878A8A8",
"i	c #28286868A8A8",
"p	c #30307070A0A0",
"a	c #30306868A8A8",
"s	c #48487878B0B0",
"d	c #E0E0E8E8E8E8",
"f	c #7878A0A0C8C8",
"g	c #38387878B0B0",
"h	c #D8D8E8E8F0F0",
"j	c #9898C0C0D8D8",
"k	c #D8D8E0E0F0F0",
"l	c #68689898B8B8",
"z	c #A0A0B8B8D0D0",
"x	c #50508888B8B8",
"c	c #C8C8D8D8E0E0",
"v	c #30307070A8A8",
"b	c #9090B0B0C8C8",
"n	c #58588888B8B8",
"m	c #D0D0D8D8E8E8",
"M	c #7878A8A8C0C0",
"N	c #D0D0E0E0F0F0",
"B	c #8080A0A0C8C8",
"V	c #48488080B8B8",
"C	c #A8A8C0C0E0E0",
"Z	c #50508888B0B0",
"A	c #F8F8F8F8F8F8",
"S	c #40407878A8A8",
"D	c #8080A8A8D0D0",
"F	c #D8D8E0E0E8E8",
"G	c #C0C0D8D8E8E8",
"H	c #B8B8D0D0D8D8",
"J	c #40408080B0B0",
"                                                ",
"                                                ",
"                                                ",
"                                                ",
"                                                ",
"                .                               ",
"       XoO+...@#$                               ",
"     %&*=-;:=*>,<                               ",
"   1234       X56                               ",
"   78           8                               ",
"  =9X           #57o   *0q @77w  87e8   =77e8   ",
"  re         t;  O,q   yu  =,8,o 8i5pt  8,0$5   ",
"  a$        Xs0  O,d   fg  =i$u  8ih9j kli#:#   ",
"  i0        zxuc Oid   yu  tigvo 8i,v  ;i,,,b   ",
"  g<       19n>6 Oik ; yu  =,muf 8i5i* qMiNq:   ",
"  Bi#      3V+Cv=Oipa8 yu  tiZi5 biX.,*A8i<<8   ",
"  49Sh     Xo  c OxD*5 8Dq @**z  5DF @*:8nD*5   ",
"   Gvu#          F                      o1  X   ",
"    FZ,nt4    4H8*                              ",
"      :0givs<Jn5q                               ",
"                                                ",
"                                                ",
"                                                ",
"                                                ",
"                                                ",
"                                                ",
"                                                ",
"                                                ",
"                                                ",
"                                 pp             ",
" pppp      pp                  pppp5            ",
"  pp55     pp5                 pp555            ",
"  pp5pp pp ppp ppppppp pppp ppppppp pp  p ppp   ",
"  pp5ppppp5pp5pp5ppp5ppp5pppp5ppppp5pp5 ppp5pp  ",
"  pp5pp5pp5pp5pppppp5 55ppppp5 pppp5 ppp ppppp5 ",
"  pp5pp5pp5pp5pp55pp5 pp pppp5 pppp5 ppp5pp5555 ",
" pppppp5pp5ppp ppppp5 ppp ppppppppp5  p55 pppp  ",
"  555555 55 555 55555  555 555555555   5   5555 ",
"                                                ",
"                                                ",
"                                                ",
"                                                ",
"                                                ",
"                                                ",
"                                                ",
"                                                ",
"                                                ",
"                                                "};
