/* XPM */
static char * Dtterm_xpm[] = {
"48 48 8 1",
" 	c None",
".	c #FFFFFFFFFFFF",
"X	c #BDBDBDBDBDBD",
"o	c #212121212121",
"O	c #424242424242",
"j	c gray50",
"+	c #949494949494",
"@	c #737373737373",
"                                                ",
"                                                ",
"                                                ",
"                                                ",
"                                                ",
"          ...........................           ",
"         .XXXXXXXXXXXXXXXXXXXXXXXXXXXXo         ",
"        .XXXXXXXXXXXXXXXXXXXXXXXXXXXXXXo        ",
"        .XXjjjjjjjjjjjjjjjjjjjjjjjjjjXXo        ",
"        .XXjoooooooooooooooooooooooojXXo        ",
"        .XXjoOOOOOOOOOOOOOOOOOOOOOOo.XXo        ",
"        .XXjoOO+O++O+O+O+++O+OOOOOOo.XXo        ",
"        .XXjoOOOOOOOOOOOOOOOOOOOOOOo.XXo        ",
"        .XXjoOO+O+++O+++O++O+OOOOOOo.XXo        ",
"        .XXjoOOOOOOOOOOOOOOOOOOOOOOo.XXo        ",
"        .XXjoOO+O++O+++O+OO++OOOOOOo.XXo        ",
"        .XXjoOOOOOOOOOOOOOOOOOOOOOOo.XXo        ",
"        .XXjoOO++++O++O++++O++OOOOOo.XXo        ",
"        .XXjoOOOOOOOOOOOOOOOOOOOOOOo.XXo        ",
"        .XXjoOO+O++++O+++O+++O+OOOOo.XXo        ",
"        .XXjoOOOOOOOOOOOOOOOOOOOOOOo.XXo        ",
"        .XXjoOOOOOOOOOOOOOOOOOOOOOOo.XXo        ",
"        .XXjoOOOOOOOOOOOOOOOOOOOOOOo.XXo        ",
"        .XXjoOOOOOOOOOOOOOOOOOOOOOOo.XXo        ",
"        .XXjoOOOOOOOOOOOOOOOOOOOOOOo.XXo        ",
"        .XXjoooooooooooooooooooooooo.XXo        ",
"        .XX..........................XXo        ",
"        .XXXXXXXXXXXXXXXXXXXXXXXXXXXXXXo        ",
"         XXXXXXXXXXXXXXXXXXXXXXXXXXXXXo         ",
"          oooooooooooooooooooooooooooo          ",
"           XXXOOOOOOOOOOOOOOOOOOOOoXX           ",
"               oojjjjjjjjjjjjjjjoo              ",
"                oo@@@@@@@@@@@@ooo               ",
"                oo@@@@@@@@@@@@ooo               ",
"      ++++++++++++++++++++++++++++++++++++o     ",
"     .....@..@..@..@..@..@..@..@...@.@.@...o    ",
"    .....@..@..@..@..@..@..@..@....@..@.@...o   ",
"   .....@..@.................@..@..@.@.@.@...o  ",
"  .                                           o ",
" ..                                            o",
" .+++++++++++++++++++++++++++++++++++++++++++++o",
" .OOOOOOOOOOOOOOOOOOOOOOOOOOOOOOOOOOOOOOOOOOOOOo",
"  ooooooooooooooooooooooooooooooooooooooooooooo ",
"                                                ",
"                                                ",
"                                                ",
"                                                ",
"                                                "};
