/* XPM */
static char *fvwm[] = {
/* columns rows colors chars-per-pixel */
"48 16 257 2",
"   c #000100010001",
".  c #040201930000",
"X  c #03BC021D0000",
"o  c #041601EC0000",
"O  c #04A402F40012",
"+  c #053802470000",
"@  c #05CC036D0000",
"#  c #069203C30000",
"$  c #058A04CE0158",
"%  c #067A0549012E",
"&  c #094305280000",
"*  c #0FEE06C50000",
"=  c #0ECA06100000",
"-  c #0A6F092A02E8",
";  c #0EC30A24013C",
":  c #0E3A0C8003F9",
">  c #0E850D2B043F",
",  c #10AB073C0000",
"<  c #11B70A750000",
"1  c #123C0AE30000",
"2  c #131D0B780000",
"3  c #148B0C4A0000",
"4  c #17250D600000",
"5  c #17CC0F6000F5",
"6  c #139511200562",
"7  c #1AE4172306FC",
"8  c #1BC4183F0791",
"9  c #1C3918C707C6",
"0  c #1E0C1A39082C",
"q  c #1F3D1B2E086D",
"w  c #204A10D90000",
"e  c #24ED20A80A70",
"r  c #319F26390872",
"t  c #3BC32D610986",
"y  c #3A3132390F4B",
"u  c #4551307A06E7",
"i  c #4E703638072E",
"p  c #47003D1D127F",
"a  c #506230110000",
"s  c #51CE318D00A0",
"d  c #55B630DC0000",
"f  c #54AD3D2E0A02",
"g  c #5BF532D70000",
"h  c #593335550000",
"j  c #599F354C0000",
"k  c #5BDF378E0079",
"l  c #5E6031D90018",
"z  c #5E733B35029C",
"x  c #622F3A260000",
"c  c #624D3A780000",
"v  c #62F53ADD0000",
"b  c #6FAD3204002A",
"n  c #6F6131D4002A",
"m  c #6EC63B640017",
"M  c #6EDC3FAB0000",
"N  c #726B3519001D",
"B  c #744C357C0017",
"V  c #605245810B4A",
"C  c #526C42D31167",
"Z  c #60074ED81548",
"A  c #67D140C10255",
"S  c #650746EB09E8",
"D  c #704F43200000",
"F  c #706C43450000",
"G  c #647A544217D4",
"H  c #7092437B0000",
"J  c #769A473D003A",
"K  c #770947910043",
"L  c #75D546B5002C",
"P  c #769B4A4902F8",
"I  c #7D1D4AA2001D",
"U  c #724651DC0CD0",
"Y  c #727B60051B28",
"T  c #7CA95BDB1070",
"R  c #78C6681C1FAF",
"E  c #7D4569C71E6F",
"W  c #79FD6A4F210D",
"Q  c #83523D350125",
"!  c #83733D620123",
"~  c #85CD3F4A0111",
"^  c #87C04339009E",
"/  c #896C4B7E0017",
"(  c #815B5051029F",
")  c #8FF056C500F1",
"_  c #902C5711011F",
"`  c #9087578E0122",
"'  c #8F66567200E3",
"]  c #8BF3591E0615",
"[  c #955445CB0071",
"{  c #96AB46DB0076",
"}  c #97C74AD50077",
"|  c #9CBF4FA905B5",
" . c #9AD44DC7051E",
".. c #90DB57BE012B",
"X. c #924F585B0123",
"o. c #9AE05824014A",
"O. c #9DE659550232",
"+. c #8FEC69CC1A76",
"@. c #8C14727E1E10",
"#. c #9B3B6496075B",
"$. c #9CBA62C6050E",
"%. c #9CE465E60832",
"&. c #9CE96AA80CD6",
"*. c #930A6FFA16D3",
"=. c #93B66FD5164D",
"-. c #943370D116F6",
";. c #94DF70C5168E",
":. c #94A771901777",
">. c #9782758119C8",
",. c #98E876D51A4C",
"<. c #A06C79B41895",
"1. c #8674732B2272",
"2. c #871975962478",
"3. c #8AFB71E120E4",
"4. c #894F774C24DD",
"5. c #A225624C0178",
"6. c #A37C642C0309",
"7. c #A60D663F03B3",
"8. c #A61A66ED0433",
"9. c #A64F67C80465",
"0. c #A3F369420754",
"q. c #AB1D65E70FEF",
"w. c #AC7066B2100E",
"e. c #AE976B3B069A",
"r. c #AF6C6AEF06EE",
"t. c #AFDA6DF8065D",
"y. c #B04C6E9B06B7",
"u. c #AF6B6D460597",
"i. c #AB437035097C",
"p. c #A8B56E7709E6",
"a. c #AD006E720835",
"s. c #AC8572D00B8E",
"d. c #A30D7A261778",
"f. c #A2097A84186A",
"g. c #B0BC6A0107A5",
"h. c #B129703007DE",
"j. c #B1686D240717",
"k. c #B3A96C780AEA",
"l. c #B4106CD50AF1",
"z. c #B4626D130B23",
"x. c #B49870260A23",
"c. c #B41A71770804",
"v. c #B3387156081E",
"b. c #B362719C0854",
"n. c #B48172350840",
"m. c #B4B7725E0845",
"M. c #B68572620B98",
"N. c #B4EE70950B7B",
"B. c #B50872C7087F",
"V. c #B59B73EC0956",
"C. c #B6B574F10A34",
"Z. c #B6EA75C80AE7",
"A. c #B89E78350C5F",
"S. c #BA0A77F80BF4",
"D. c #B927770D0B90",
"F. c #B97974CE0D15",
"G. c #B9B076580D47",
"H. c #B9F475390D52",
"J. c #BA1578510C3F",
"K. c #BA5C790B0CA9",
"L. c #B9EC797B0D11",
"P. c #BB3F79250C6C",
"I. c #BBAB79850C7F",
"U. c #BBCB79A00C86",
"Y. c #BC6C7AA70D72",
"T. c #BCDE7B640DC3",
"R. c #BD957D710F01",
"E. c #BE757CAA0E84",
"W. c #BE0E7DF30F44",
"Q. c #BF8B7D720EE5",
"!. c #BFFD7E2E0F47",
"~. c #C0907EF10FA7",
"^. c #C02A8006107A",
"/. c #BE0D7CEF119A",
"(. c #C1227FC21028",
"). c #9586827228AC",
"_. c #95F382A828A0",
"`. c #96B5832F28B0",
"'. c #978C83E528E8",
"]. c #9D4E80B12523",
"[. c #BC5584C51485",
"{. c #C026808410CD",
"}. c #BB90838413D0",
"|. c #AA2994192DEF",
" X c #AB2794432D84",
".X c #B06098AB2EDE",
"XX c #B6FE8B49248B",
"oX c #B6ED95482850",
"OX c #B15999642F03",
"+X c #C20883D31208",
"@X c #C305863511EE",
"#X c #C41B85EA11B3",
"$X c #C3BD850E1361",
"%X c #C474862513F5",
"&X c #C2A386411222",
"*X c #C383863F1594",
"=X c #C5C887EA1503",
"-X c #C64B8964151F",
";X c #C5D189BA164D",
":X c #C73F8A141632",
">X c #C8428C8915BB",
",X c #C7A98B541718",
"<X c #C7DD8A9E166C",
"1X c #C8A68CC717BD",
"2X c #C9738C5315B1",
"3X c #C9F08CC315E4",
"4X c #CB13905D1807",
"5X c #C9F08EA01733",
"6X c #CA708EF61915",
"7X c #CB3A8F3B18E4",
"8X c #CB918FB71914",
"9X c #CAD28F9D197D",
"0X c #C9448DCC185A",
"qX c #C6AE938F1CF0",
"wX c #CBB0925B1B47",
"eX c #CB8F90E5184B",
"rX c #D06498981D29",
"tX c #D0BB99F21F90",
"yX c #D2D59B9E1E89",
"uX c #D14C9A6B1FBA",
"iX c #D1CF9B732070",
"pX c #D3DD9ED3225C",
"aX c #D51FA03022F9",
"sX c #CE91ADCE3221",
"dX c #D32CA4C026B9",
"fX c #D6AFA26025B3",
"gX c #D538A14F2581",
"hX c #D6DEA28E25CB",
"jX c #D764A9CA2A1F",
"kX c #D5B8AD7C2D8D",
"lX c #D9CBA766270D",
"zX c #D9E2A7942720",
"xX c #DA2AA7DB2742",
"cX c #DB7CA89B2745",
"vX c #DBC9A9152789",
"bX c #DC1DA98127A8",
"nX c #DBC4ABD629F1",
"mX c #D9A8AF9C2D6E",
"MX c #DE81AE6929C0",
"NX c #DF0DB00F2C1D",
"BX c #E071AFFD2A31",
"VX c #D159B2583544",
"CX c #D1C7B35F35CD",
"ZX c #D200B3363583",
"AX c #D341B3AA34F9",
"SX c #D364B4B53624",
"DX c #D613B30F32DE",
"FX c #DB98B5F03282",
"GX c #E041B66930F5",
"HX c #DF01B61631AE",
"JX c #E47BB790300B",
"KX c #E17CBA543409",
"LX c #E287BA0A333A",
"PX c #E1EBBB9334F0",
"IX c #E8B1C4F439B2",
"UX c #EAF0C8353B9F",
"YX c None",
/* pixels */
"Y >.*.*.*.*.*.*.=.*.=.f G ,.=.T ; YXYX6 @.*.=.f G ,.*.T ; YXYX6 @.=.=.f G >.*.S & YXYX: R >.;.V ",
" XMX5X8X4X4X4X4X5X7X=XA '.BX5X#.1 YXYX8 ZXyX@XA '.BX>X#.2 YXYX8 ZXyX=XM '.NX-X9.j $ - 2.IXrX@XP ",
" XzXE.G.F.F.G.G.G.G.j.v '.xXS...1 YXYX8 ZX7Xc.v '.xXS.` 2 YXYX8 ZX7Xh.v ).xXE.C.5.j 1.UXtX{.x.D ",
" XzXL.O.~ Q Q Q Q Q ^ d '.zXU...1 YXYX8 ZX4Xx.v '.xXU.X.1 YXYX8 ZX7Xn.v ).xX(.~.C.7.mXpX{.{.b.D ",
" XzXL.X.5 , , , ; , , & '.bXS.` 1 YXYX8 ZX7Xc.v '.xXS...1 YXYX8 ZX7Xc.v _.bXY.L.+XS.*X~.wX-Xc.D ",
" XzXU...5 & $ # $ $   YX'.bXL.X.1 YXYX8 ZX7Xx.v '.bXY...1 YXYX8 ZX7Xn.v _.zXS.[.yXE./.C.dX8Xx.D ",
" XzXS.i.d.d.f.f.d.U # YX'.xXL.X.1 YXYX8 ZX7Xn.v '.zXL.X.1 YXYX8 ZX7Xn.v _.bXS.s.FXyXC.0.FX7Xx.D ",
" XzXE.+X<X5X<X<X=XI # YX'.bXS.` 1 YXYX8 ZX7Xn.v '.xXL.X.1 YXYX8 ZX7Xn.v _.bXS...Z sX%.i ZX8Xc.D ",
" XzXE.N.k.k.k.k.r.I # YX'.bXY.X.1 YXYX8 ZX4Xx.v '.xXS.X.1 y r 7 ZX7Xn.v _.nXY...2 p t 8 VXeXx.D ",
"|.zXL.o.B N N n N g # YX'.xXS.X.2 YXYX0 ZX8Xc.v _.xXY.' C sX&.u ZX7Xn.v _.xXS...2 YXYX8 VX4Xc.D ",
" XzXL...4   # #   #   YX4.JX/.7.s   $ W PX=Xj.j _.bXS.p.DXaXC.$.kX8Xn.v _.xXY...1 YXYX8 VX8Xc.D ",
" XzXL...1 YXYXYXYXYXYXYXq OXNX/.7.s R KX5Xt.J 1 _.xXS.qXpX&X-Xx.[.<Xn.v _.bXY...1 YXYX8 VX8Xx.D ",
" XzXL.X.1 YXYXYXYXYXYXYXYXw OXHXE.t.jX0Xj.J 4 YX_.bX/.;XL.}.GX-XL.(.n.v _.cXL...1 YXYX8 CX7Xx.D ",
" XxXY.' 1 YXYXYXYXYXYXYXYXYXq OXNX{.{.t.J 3 YXYX_.bX(.E.9.z 4.LX<X(.n.v _.nXY...1 YXYX8 CX9Xx.D ",
" XgXx.' 1 YXYXYXYXYXYXYXYXYXYXq OXnXs.J 4 YXYXYX'.gXn.7.j # - 2.GX/.g.v _.gXn.' 2 YXYX8 ZX*Xa.P ",
"].q.[ / 1 YXYXYXYXYXYXYXYXYXYXYXw oX] 4 YXYXYXYX3.w.[ m & YXYX> +.| { g 3.w.[ / 2 YXYX8 XX .} H "
};
