/* XPM */
static char * HPMonitor_xpm[] = {
"48 48 16 1",
" 	c None",
".	c #FFFFFFFFFFFF",
"X	c #E5E5E5E5E5E5",
"o	c #BFBFBFBFBFBF",
"O	c #A6A6A6A6A6A6",
"+	c #7F7F7F7F7F7F",
"@	c #414141415151",
"#	c #333333330000",
"$	c #000000000000",
"%	c #35355353A3A3",
"&	c #4A4A5A5A8787",
"*	c #666666669999",
"=	c #090917173D3D",
"-	c #333366663333",
";	c #0000FFFF6666",
":	c #0F0F10101212",
"                                                ",
" .X.........................................XoO ",
" XXXXXXXXXXXXXXXXXXXXXXXXXXXXXXXXXXXXoXoooooXO+ ",
" .XXXXXXXXXXXXXXXXXXXXXXXXXXXXXXXXXXXXXoooooo@@ ",
" .XXXXXXXXXXXXXXXXXXXXXXXXXXXXXXXXXoXoooooooo+# ",
" .XXXXXXXXXXXXXXXXXXXXXXXXXXXXXXXXXXXoooooooo+@ ",
" .XXXX$$$$$$$$$$$$$$$$$$$$$$$$$$$$$$$$$$$Oooo+@ ",
" .XXXX$%%%%%&&&&&&&&&&&&&&&&&&&&&&&&&&&%%.ooo+@ ",
" .XXXX$%%%&&&&&&&&&&&&&&&&&&&&&&&&&&&&&&%.ooo+@ ",
" .XXXX$%%&&&&&&&&&&&&&&&&&&&&&&&&&&&&&&&&.ooo+@ ",
" .XXXX$%&&&&&&&&&&&&&&&&&&&&&&&&&&&&&&&&&.ooo+@ ",
" .XXXX$%&&&+XXXXXXXXooX*+ooXXXXXXXX+&&&&&.ooO+@ ",
" .XXXX$%&&&XXXXXXXXo+XX*+oooXXXXXXXX&&&&&.oOo+@ ",
" .XXXX$&&&&XXXXXXo+*+.+****o+oXXXXXX&&&&&.OOO+@ ",
" .XXXX$&&&&XXXXXo++*+.*******+oXXXXX&&&&&.oOO+@ ",
" .XXXX$&&&&XXXXX+***.X********+XXXXX&&&&&.OOO+@ ",
" .XXXX$&&&&XXXXo+***.X***oXXo*ooXXXX&&&&&.OOO+@ ",
" .XXXX$&&&&XXXXo+**X.*.**.**.**oXXXX&&&&&.OOO+@ ",
" .XXXX$&&&&XXXXo***.X*.**.**.**oXXXX&&&&&.OOO+@ ",
" .XXXX$&&&&XXXXo***.*o.*oo*.o**oXXXX&&&&&.OOO+@ ",
" .XXXX$&&&&XXXXo**X.*.**.**.o**oXXXX&&&&&.OOO+@ ",
" .XXXX$&&&&XXXXo**.o*.**.oXX**+oXXXX&&&&&.OOO+@ ",
" .XXXX$&&&&XXXXo+*o+*X*XXXX+**+oXXXX&&&&&.OOO+@ ",
" .XXXX$&&&&XXXXX+******.+****++XXXXX&&&&&.OOO+@ ",
" .XXXX$&&&&XXXXXX+****+.+***++oXXXXX&&&&&.OOO+@ ",
" .XXXX$&&&&XXXXXXo++**.X***++oXXXXXX&&&&&.OOO+@ ",
" .XXXX$&&&&XXXXXXXXoo+.*++ooXXXXXXXX&&&&&.OO++@ ",
" .XXXX$&&&&+XXXXXXXXooX*++oXXXXXXXX+&&&&&.OO++@ ",
" .XXXX$&&&&&&&&&&&&&&&&&&&&&&&&&&&&&&&&&=.++++@ ",
" .XXXX$&&&&&&&&&&&&&&&&&&&&&&&&&&&&&&&&&=.++++@ ",
" .XXXX$=&&&&&&&&&&&&&&&&&&&&&&&&&&&&&&&==.++++@ ",
" .XXXX$==&&&&&&&&&&&&&&&&&&&&&&&&&&&&====.++++@ ",
" .XXXXO...................................++++@ ",
" .XXXXXoXoooooooooooooOOOOOOOOOOOOOOOO---+++++@ ",
" .XXXoXooooooooooooooOOOOOOOOOOOOOOO++-;;o++++@ ",
" .XXXoooooooooooooooOOOOOOOOOOOOOOOO+++ooo++++@ ",
" .++++++++++++++++++++++++++++++++++++++++++++@ ",
" +@@@@@@@@@@@@@@@@@@@@@@@@@@@@@@@@@@@@@@@@@@@@@ ",
"          O.@----#ooOO+@@--##@@@##---           ",
"         O.O@@@@@@-@+:+@@---$##--@@@@#          ",
"        O.X++++++++@@---------@++++++@#         ",
"       O..OOOOOOOOOOOOOOOOOOOOOOOOOOOO@#        ",
"      O................................@#       ",
"      O.OOOOOOOOOOOOOOOOOOOOOOOOOOOOOOOO@       ",
"      O.OOOOOOOOOOOOOOOOOOOOOOOOOOOOOOOO@       ",
"      @@@@@@@@@@@@@@@@@@@@@@@@@@@@@@@@@@@       ",
"                                                ",
"                                                "};
