/* XPM */
static char *3Dpaint[] = {
/* width height num_colors chars_per_pixel */
"    48    48      252            2",
/* colors */
".. c #050307",
".# c #fafcfa",
".a c #fb6407",
".b c #050c0c",
".c c #fb5d0e",
".d c #525056",
".e c #08042c",
".f c #fbf5f8",
".g c #190407",
".h c #5a4754",
".i c #f96c07",
".j c #f85407",
".k c #050c2c",
".l c #041b8b",
".m c #fb740c",
".n c #e94906",
".o c #fa7d09",
".p c #e95a10",
".q c #042595",
".r c #0532cf",
".s c #f9490c",
".t c #fae9f7",
".u c #06164f",
".v c #08152d",
".w c #041871",
".x c #28050c",
".y c #062174",
".z c #fcf9dd",
".A c #080d74",
".B c #e9670c",
".C c #071410",
".D c #670608",
".E c #fbc673",
".F c #d84608",
".G c #0527a4",
".H c #0527af",
".I c #4a4956",
".J c #e6fbfa",
".K c #d93705",
".L c #0528b1",
".M c #f88945",
".N c #4b5955",
".O c #043be4",
".P c #0629c8",
".Q c #e5eaf3",
".R c #370710",
".S c #371616",
".T c #fa9a10",
".U c #f9aa36",
".V c #f9a94a",
".W c #880606",
".X c #d8570b",
".Y c #95190c",
".Z c #ca580d",
".0 c #fb9951",
".1 c #061b9e",
".2 c #faeadd",
".3 c #fb3a14",
".4 c #f6a860",
".5 c #fbe8b4",
".6 c #e87808",
".7 c #0527a5",
".8 c #f9d276",
".9 c #980508",
"#. c #77050b",
"## c #060a4f",
"#a c #f98611",
"#b c #062051",
"#c c #c81604",
"#d c #fb992d",
"#e c #f9bc83",
"#f c #fc7729",
"#g c #da670d",
"#h c #f5b74c",
"#i c #b90607",
"#j c #16092a",
"#k c #fad8a9",
"#l c #fa6922",
"#m c #d8290d",
"#n c #facaa0",
"#o c #17140b",
"#p c #da190e",
"#q c #0527a3",
"#r c #1e1f51",
"#s c #052ab7",
"#t c #052fc6",
"#u c #052375",
"#v c #052cb0",
"#w c #080e8e",
"#x c #4c4c14",
"#y c #e6290a",
"#z c #05269e",
"#A c #051d7e",
"#B c #47070a",
"#C c #203f3a",
"#D c #e83809",
"#E c #7c3814",
"#F c #a4280e",
"#G c #ef8669",
"#H c #bcbac3",
"#I c #c8380b",
"#J c #461518",
"#K c #c70807",
"#L c #f4b866",
"#M c #44412c",
"#N c #570307",
"#O c #051f95",
"#P c #0526a1",
"#Q c #f8231f",
"#R c #b71b0d",
"#S c #2d252d",
"#T c #0b25f2",
"#U c #05269d",
"#V c #b94227",
"#W c #f9ac7d",
"#X c #0528aa",
"#Y c #0528ba",
"#Z c #043ecc",
"#0 c #c9480a",
"#1 c #a60507",
"#2 c #0531b9",
"#3 c #e43838",
"#4 c #0e2807",
"#5 c #502736",
"#6 c #b15b3f",
"#7 c #75b0b0",
"#8 c #a91a0f",
"#9 c #f7b831",
"a. c #f6a51d",
"a# c #f97545",
"aa c #fb4846",
"ab c #0528ad",
"ac c #241420",
"ad c #0535d1",
"ae c #fcc8d4",
"af c #e0b75c",
"ag c #e7d5cc",
"ah c #0527a6",
"ai c #e1862d",
"aj c #caeee4",
"ak c #0528b4",
"al c #8eb5ca",
"am c #c2660e",
"an c #05249a",
"ao c #0528bf",
"ap c #6e3e24",
"aq c #78c5c4",
"ar c #71635e",
"as c #f9bbb8",
"at c #0527ac",
"au c #a85218",
"av c #0528c4",
"aw c #772110",
"ax c #f7c84a",
"ay c #dda455",
"az c #59180d",
"aA c #0529ae",
"aB c #0528bd",
"aC c #05229b",
"aD c #052598",
"aE c #0826d8",
"aF c #191733",
"aG c #fa6b4a",
"aH c #0d296d",
"aI c #f8ccba",
"aJ c #f3e891",
"aK c #f2ab9e",
"aL c #e6f7b0",
"aM c #6f4341",
"aN c #9fd3d2",
"aO c #3c3240",
"aP c #0529b4",
"aQ c #582114",
"aR c #042fb1",
"aS c #cb2707",
"aT c #052fc3",
"aU c #05258f",
"aV c #f8564a",
"aW c #052cbd",
"aX c #0529a7",
"aY c #242211",
"aZ c #06188a",
"a0 c #0535d6",
"a1 c #0527a8",
"a2 c #898497",
"a3 c #39220e",
"a4 c #052288",
"a5 c #052cc3",
"a6 c #b82807",
"a7 c #052cb5",
"a8 c #5c3e44",
"a9 c #fc9d84",
"b. c #b03808",
"b# c #fcf5b9",
"ba c #e24e4a",
"bb c #f69ca6",
"bc c #fcd5d8",
"bd c #68281d",
"be c #e87748",
"bf c #e96a47",
"bg c #4f4e3c",
"bh c #071283",
"bi c #0d2235",
"bj c #fc3d59",
"bk c #d8b428",
"bl c #461f08",
"bm c #c6d0d8",
"bn c #8296a4",
"bo c #0527a9",
"bp c #0636e2",
"bq c #28302c",
"br c #0529aa",
"bs c #052ebf",
"bt c #e95949",
"bu c #0527aa",
"bv c #faaebc",
"bw c #664f50",
"bx c #5ccbc1",
"by c #0528b6",
"bz c #0528a7",
"bA c #f10711",
"bB c #0527ae",
"bC c #741506",
"bD c #e8990e",
"bE c #072098",
"bF c #fc92b4",
"bG c #fc7e67",
"bH c #052bb6",
"bI c #0530c0",
"bJ c #8d121a",
"bK c #eac570",
"bL c #8a281c",
"bM c #0528c1",
"bN c #934940",
"bO c #fce068",
"bP c #0628c3",
"bQ c #0528b0",
"bR c #c8382c",
"bS c #0531d7",
"bT c #142e34",
"bU c #4c1848",
"bV c #052481",
"bW c #052fca",
"bX c #c84c2c",
"bY c #0d33cb",
"bZ c #0524a9",
"b0 c #051266",
"b1 c #051b7b",
"b2 c #cc584c",
"b3 c #052aba",
"b4 c #1c16c4",
"b5 c None",
/* pixels */
"ar.Iar.N.N.N.Na8.h.Nbw.d.h.d.h.d.d.h.h.h.h.h.h.h.h.h.I.d.I.d.d.d.I.d.h.h.h.h.h.h.h.hbw#Mbgbgar#x",
".I.........g.b.e.g...........b.....b.......................................b...........b.b...e.z",
".d..#WasaV#8.k#Z.r#Z.P.r.r.r.P.r.r.O#Z#Z.O.O.O.O.O.O.O.O.r.r.r.r.r.r#Z#Z#Z.r.O.O.O.O#T#T.O#T.P.J",
".h..#GaebF#3a3aR#Yb4aR.r.r.r.r#taTaTbSbIa0a0adadadadbSa0#tbsaTaTaTbIbIbIbI#ta0a0a0aE#Tbp#Ta0.O.J",
".d...s#Haeaaau.u.PaR.H.H.q.H.PbMbsakbH#t#2aTbsbIbsbIbs#sbH#sbH#2#2#2#2#2#2#t#t#taEbYaE.raE#T#T.J",
".d..aaa##kbFaa.S.l.H.H.H.H.HaR#vbrak.LataA#va7a7a7aPaAaAaA#v#v#vbQaP#sa7#saWaWbPbPa5.PaE#tbW.r.#",
".d..#pbt.Mbvbt#R#j.H.q.q.q.H.HatbuboaXat#XbzaXbrbrbrbzbzaXbr#Xabab.LaP.L#s#s#s#saob3aWa5#t#t.r.#",
".d..#Qaaa#aebFbj.D.1.q.H.1.1.l#O#OanaCah.G.G.G.G.G.G.G.G.7aha1boatbB.L.L.L.L.LaP#sby#YaBaoav.P.#",
".d..#c#ybt.4ae#Gb..v.l.q.l.l.l#O#OanaC#U#P#P#q#q#q#q#q.G.7aha1boatbB.L.L.L.L.Lakakby#YaBaoav.P.f",
".d...9#K#3bfasbbba#B##.y.l.l.AbhaZ.l#OaDan#z#P#q#q#q#q.G.G.Ga1boatbB.L.L.L.L.Lakakby#YaBaoav.P.f",
".d...9a6#Q.3.0as#G#i#j.w.w.w.wb1#Aa4aUaU.q.q#U.q#z#z#z#q#q#qahahaha1#Xabababab.Lak#Y#YaBaoav.P.#",
".d...D#.#p#QaVbvasbj#J#j.u.u.ybVbV#ua4#AbV.qaU#ObEaUbEaD#P.q#P.Gatat.H#X#X#X#XbZ#q.L#YaBaoav.P.f",
".d...R.D#E#ybjafagaGaw.R###b#b#b.wb0aH.ya4bV.wbh#O#u.l.laU.1#za4#P.G.7.7.7.7.7.7.q.7.qbQbMav.P.#",
".I...x#J.WbAbjbaaKaeaa.R#b.v.ubi###r#b.y.u.y.u.AbhaHbhbh.y#A.1#UbV.1#U#U#U#U#U#U#UbV#O#UbVbQ.H.#",
".d...x.gaz#8#i#3bbaKba.R#j.k.kbTaH##ac#S.eaF#rbi##.A.A#b.w#w.l.q.y.1.q.q.q.q.q.q.q.q.y.l.q.y.l.#",
".I...R.x.gaQ#R.3aV#ea9aM..aF.e...k#j..#r.A.C.vaY###raF#b#b.A#w.y.l#w#w.1#w.1.l.q.l.1.1.l.q.l.1.#",
".d...x#J.x.x#.#Q#3#GaparaO.e.b.k.e.v.u#j#r##.S.6.m#0.R.C#b.y.A.w.A#w.w.l.w.l.w.l.l.y.A.A.y.A.A.J",
".I.....g.x.R#NbJbNaM#H.tbm...e...v.e.x.b.u#j#6.J.J.obL.x##.u.w.u.w.y.y.u.y.w.y.w.y.l.w.w.w.w#w.#",
".I...b.b.g.g.g#Sa2albm.NaObi.b.e...v.e.e...x#d.t.5.o.p#J.e.v.u#b.u.u.u.u.u.A.w.A.l.A...b.b.b.eb#",
".I...b....ac.Cbn#7.N#C#H.#aj.........b.e.v#obDasag.o.maz.k.k.k.v.k.b.b.b.C.b.v.k.k.v.k.b.b.v.e.z",
".d...g....ac#S#C.ka2aNagag.Q.N...g...b...k.g.Xa..5.a.X#B.k.e...b.e...e.e...k...b.e.b.e.k.e##.e.#",
".d........aF.C..#Cbxbx#H.t.J#H.......g.C.g.k.R.a.f.oaz.x.b...v...b..#4.e.C.CaYbX.D.k.v.e.u.b.k.f",
".d...C......aY#5#5.haq#7.Q.Q.Jbg.....b...k....#F.f.FaQ.g...b...e.v.e.e.e.gaF.Q.##0ac.k...e.e.v.t",
".N.....g.....C.S#5aOa2aqaN.Jaj#H.....b#4.e....bl.E.Z.....b.C........#j...v#0.#.2.o...b.e.e.b.k.f",
".h...........b#o#S#Cbw#7aNbm.Jaj.h...g.....v.b.baxam..#o.......g...b...b...ZaI.T.n.....b.e.e...#",
".N...b...g.g.g.R.S#C#5bnaqaN.f.#al.g#.#N#..D#B.D#k#d#.#B#N.D#N#N#J.R..ac.g#6#e#0.D.b.g.g.....e.#",
".h...R.D.W.Y.W.YaQaY#S.h#7#7.Q.Jaj#M#c.Z#p#0#m#m#W.V.X#F#F#I.F#c#m#c#p#cbAasaV.Y#i#8#.aw.W.D.D.f",
".N...K#m#y.K.n.p#Vblbqa8.Ialaq.J.Qa2#F.B.o.2aiag.Ebf#damaw#F#g.m.j.i.a.aaiaKam#6.X.p.n.F.n#I#I.f",
".d...i.c.a.m.a.c.c#0aOaO.Sbnaqbm.f.Qbl.s#D.c.j#W.V.TaG.M.0#naf.5.2b#.p.0aLbG#8.p.i.s.c.p.c.c.a.#",
".d...B.j.6.j.B.j.s.ia3bqbqaralal.Jajbn.Y.Z.3.i#a#aa#.M.T.V.4#9#9.z.#.8.t.Ea..t#E#m.i.a.i.o.a.j.f",
".d...c.i.B.c#3.X#9beba.b#CbU#7alag.taja3au#g.a.a.a#abGa.#d.U#9.4.0ay.4.8bKaxaJbc#L#1.3.n.p.i.s.#",
".d...a#V#n.abN.M.z.F.WbC#o#CaHaqbxaN.h.g.x.d#g.a.MbG.M.UbD#h.V#h.V.E#L.E.5ax#e.2.#be#RbX.4b2.X.Q",
".d...j#g.V.5aK.2aS#1#R.D#Nbd#CaOa8..#B.S#x#4#x.m.6.6#l.0.U.Va9#h.4.V.8#n#LaJbK.t.2.5#H.5.zaf#V.#",
".d...i.FauaLaIbc.3.9.D#1bd#4.C...ba3.S.IbUapbT#6#a.0a9a.bkay.f.t.EbK.8.E#nafb#.2.z#k.z#kaybL.F.#",
".d...p.a.0#9.Q#lbd#B#i#1.W.D#N#M#5..bg.C#E.S.h.S.B#aaG.U.U#k.2bR#o.E#e.8.8aI#WaL.##W.Y#F.Y.F.s.#",
".d...o.s.0ax#n#V#B#Eaz#..Y.gbf.x#x.Sac#S.xaMapaOauaG.Maf#d.t#k#V#o#e.8.EbKae.5aJbcb.#iaS.F.c.o.t",
".d...p.ibk.M.zaubC#..9#i.W#4.gaM.x#M.baw.e.9.X#M#S#d.M.T.E#6#Rbl#3#h.EaJaK#n.2bc.V.W#i.nb..Z.i.z",
".d...paa.maV.U#e.o.c#J#1.9.x.C.I..#M#C#o#oazam#Jbqauay.U#9a..S#x#e.8bObKaLaI#k.6.Z.Y#caS#I.K.F.Q",
".d...m.T.s.Z#G#L.z.5.4#E#..W.D.B.m.ma8.x#Ebi.gapaw#5.T#f#L#h.Ea9#n#ebbaJ.8.zaiam#K#K#c.K.p.j.a.#",
".d...p.jaG#f#L.Uay.V.EaQbC.o.m#G.f.f#Eap.gaQ.ebdaM#r#6#9.4.z#ga6bObv.#.5ai.s#m#y#F#V#y.n.c.c.m.#",
".d..#l.j#l.B.c#g#y.c#haIaL#n.E#eax.c.c#x#r#4#x.Carap#M.0.t.c#K#R#K#IbJ.W#c.Y#1bL.KaS.s.B.a.a.a.#",
".d...p.o.c.c#l.jbe.p.i.Ta.#W.2bk.c.a.6bb.z.4.t.4#h.t.zbk.X#c.YbJ#8.9.Y#D.KbA#I.K.Z.m.c.a.m.m.o.#",
".d...n.c.j.a.c.o.o.6#g.X.s.F#Gbe.p.B#y#fa##kbe.B.3#I#p.i#p#i.9.W#KbR.FaS#D.X.n.B.c.s.a.m.o.o.o.#",
".d...3#y#g.c.a#l.3.j.c.s.a.Z.F.c.B.s.j#D.K#p.K#K#8.K#p.9#Ra6am.3.6.n.a.a.m.p.m.a.a#f#f.6#a#a#a.#",
".N...F.p#D.j#D.j#l.i.i.B.X.p.n.s.c.o.B#D.na6.s#Vb..K.Z.s.F.p#Q.i.n.a.c.c.a.m.j.i.BbD#f#a#d.T.T.#",
".d...K.K.s#y.c.3.j.a.j.i.a.a.s.i.a.a.c.c.c.n.c.j.a.c.j.n.n.c.m.a.i.i.i#l#fbfbe.M.0.U#d#d.U.V#W.z",
".d...p.n.j.n#m.a#m.j.n.a.j.a.n.a.c.c.a.a.c.a.c.a.c.a.a.c.a.i.m.i.m.o.ca#a##f.M.M.T.T#L#9.Uaf#hb#",
".Q.f.#.f.t.f.f.f.#.f.f.#.#.#.f.#.#.#.f.f.z.#.f.f.z.#.#.f.#.f.#.f.#.#.t.f.#.#.#.#.#.#.t.t.#.f.#.t"
};
SIMPLE  =                    T                                                  
BITPIX  =                    8                                                  
NAXIS   =                    2                                                  
NAXIS1  =                   48                                                  
NAXIS2  =                   48                                                  
HISTORY Written by XV 3.10                                                      
END                                                                             
                                                                                
                                                                                
                                                                                
                                                                                
                                                                                
                                                                                
                                                                                
                                                                                
                                                                                
                                                                                
                                                                                
                                                                                
                                                                                
                                                                                
                                                                                
                                                                                
                                                                                
                                                                                
                                                                                
                                                                                
                                                                                
                                                                                
                                                                                
                                                                                
                                                                                
                                                                                
                                                                                
                                                                                
                                                                                
Quu``uu
Qff{ev{uuuSnmmwu{
muT{fYfs{nkuQvev{sn{mfYfIIfY8NTwvu
Quw{neܖvbYYC82IgnZmwu{QwPA=
I8AmfYbfsQeĆC&CgJ>INIb=2PA<GfZ{Q13
IJ1<Q&tT{`eNfeuQ{sI-2'IIJ;7˹ȼwIIPf
Qȕ&<8K>3,w&,f!C܍sAPZbfnQf3-8C2Q>	;8w>)tN(
s2CuYsQ{fI,-AC!)QJ7ffYCZnQ<C<2' >
7KI!O!gؿANAn{Qnfv8'<<	&!K1J&tӶܫGn
QZ<N' <37I!CCӿfQfӉan233*OQ
˿Nq~wQsw	31&f<vu{Q{&,,g
Asv˫I`Qj77!({mӶI{Sf`efuf(,IKNːw;NwtwunubbO'2A2A1 )O>PsYj``wNNbnP`PYPYϋACI-;2''S	!37- -''ܩ- '  &tj'	O	)3WO		w		sإu	S!77	(s	j		Q 77OK	Nn1	jQ3,		 q'	Q)3S	ww			K	S3	ٕ,						K		)S7	&$			K =aQ	tG$$$$$$Q&-ksJg7	&!j$$$$$$$K1NvȹQ& &$$(($+$(($+$(Q,ICs&*)&$+$(++++++++$$+$$K&2Yۅ&$$*$#(-'(-------'(-'10Q'Ieٗ;*$''(%$$*(-'-.//////+/+1345Q'-Ykσ&$''%'#'+*(***+-+-.0000000..123345Q8TkvϥC"#'**++-+---...////0000011223345Q8Isϼ$$$#$(++--.......//001111111223345QPeۥY$+$$$((+*---......////001111111223345Qkۻ'(+0(($((+*/........////001111123223345QYʈN0+++000//000/0000//000001213333335688;Qܻ!$0000043011013444211133312343554465788;Q{ۅf5400+0536138776767633337777778887=7;7<<Oۻs&4234;;;;877;7==<<<<;=8677777778===7<@<=BQϋI@;@5;;;5;;B@@BBBBBBBB;;;;;;@@@;BBBB<<B<5K						gKgSSSSIOSWQOQOQQOOOOOOOOOKQKQQQKQOOOOOOOOW>KKgC
