/* XPM */
static char *sketch-closed-no-mail[] = {
/* width height num_colors chars_per_pixel */
"    48    48      180            2",
/* colors */
".. c #000000",
".# c #001000",
".a c #002100",
".b c #003110",
".c c #004208",
".d c #006321",
".e c #006b29",
".f c #007329",
".g c #008431",
".h c #080800",
".i c #083910",
".j c #086331",
".k c #101000",
".l c #108c42",
".m c #181818",
".n c #18944a",
".o c #212121",
".p c #212908",
".q c #215221",
".r c #217b42",
".s c #291000",
".t c #292118",
".u c #292929",
".v c #299c5a",
".w c #312918",
".x c #313110",
".y c #313121",
".z c #313131",
".A c #318c52",
".B c #392100",
".C c #39a563",
".D c #39ad6b",
".E c #422929",
".F c #423108",
".G c #423931",
".H c #424242",
".I c #424a31",
".J c #42c673",
".K c #4a2918",
".L c #4a3918",
".M c #4a4229",
".N c #4a4a4a",
".O c #4aad73",
".P c #4ace7b",
".Q c #524a39",
".R c #525252",
".S c #527b4a",
".T c #52a573",
".U c #52bd7b",
".V c #52c67b",
".W c #52d684",
".X c #5a4239",
".Y c #5a4a21",
".Z c #5a8c52",
".0 c #633121",
".1 c #634231",
".2 c #634239",
".3 c #635229",
".4 c #635a4a",
".5 c #635a52",
".6 c #63635a",
".7 c #636363",
".8 c #63ce8c",
".9 c #63e794",
"#. c #6b3121",
"## c #6b5a39",
"#a c #6b6b63",
"#b c #6ba56b",
"#c c #6bd694",
"#d c #732908",
"#e c #734a39",
"#f c #735a29",
"#g c #736339",
"#h c #736342",
"#i c #736b5a",
"#j c #73736b",
"#k c #738c73",
"#l c #73a57b",
"#m c #73de9c",
"#n c #73f7a5",
"#o c #7b6b42",
"#p c #7b7373",
"#q c #7b7b73",
"#r c #7bf7ad",
"#s c #84734a",
"#t c #847b5a",
"#u c #84847b",
"#v c #84a57b",
"#w c #84d69c",
"#x c #8c4a39",
"#y c #8c6b52",
"#z c #8c7b4a",
"#A c #8c846b",
"#B c #8c8c8c",
"#C c #8cb584",
"#D c #8cce9c",
"#E c #8ce7ad",
"#F c #8cf7b5",
"#G c #945239",
"#H c #945a4a",
"#I c #94845a",
"#J c #948c6b",
"#K c #948c7b",
"#L c #949494",
"#M c #94ffbd",
"#N c #9c5a42",
"#O c #9c9484",
"#P c #9cdeb5",
"#Q c #9cefbd",
"#R c #a58c6b",
"#S c #a59c84",
"#T c #a5a5a5",
"#U c #a5efc6",
"#V c #ad5a42",
"#W c #ad6352",
"#X c #ad7363",
"#Y c #ad8473",
"#Z c #ad8c73",
"#0 c #ad9c9c",
"#1 c #adadad",
"#2 c #b56b52",
"#3 c #b59c6b",
"#4 c #b5a584",
"#5 c #b5b5b5",
"#6 c #b5cea5",
"#7 c #b5efb5",
"#8 c #b5f7ce",
"#9 c #b5f7d6",
"a. c #bd7b63",
"a# c #bda57b",
"aa c #bdad8c",
"ab c #bdb594",
"ac c #bdbdbd",
"ad c #bdcead",
"ae c #bdd6ad",
"af c #bde7bd",
"ag c #c68c73",
"ah c #c6ad84",
"ai c #c6c6a5",
"aj c #c6f7c6",
"ak c #c6ffd6",
"al c #c6ffde",
"am c #ceada5",
"an c #cecece",
"ao c #d6846b",
"ap c #d68c73",
"aq c #d6b59c",
"ar c #d6bd94",
"as c #d6bdad",
"at c #d6c69c",
"au c #d6cead",
"av c #d6d6b5",
"aw c #d6d6d6",
"ax c #d6f7d6",
"ay c #d6ffe7",
"az c #de9c7b",
"aA c #dea594",
"aB c #dec6bd",
"aC c #decea5",
"aD c #deded6",
"aE c #dedede",
"aF c #deffe7",
"aG c #e78c6b",
"aH c #e7d6ad",
"aI c #e7ffef",
"aJ c #efd6ad",
"aK c #efdeb5",
"aL c #efdebd",
"aM c #efe7c6",
"aN c #efe7de",
"aO c #efefce",
"aP c #efefef",
"aQ c #efffef",
"aR c #f7b5a5",
"aS c #f7e7bd",
"aT c #f7f7f7",
"aU c #ff0000",
"aV c #ffefd6",
"aW c #fff7de",
"aX c #ffffff",
/* pixels */
"aXaXaXaXaXaXaXaXaXaXaXaXaXaXaXaXaXaXaXaXaXaXaXaXaXaXaXaXaXaXaXaXaXaXaXaXaXaXaXaXaXaXaXaXaXaXaXaX",
"aXaXaXaXaXaXaXaXaXaXaXaXaXaXaXaXaXaXaXaXaXaXaXaXaXaXaXaXaXaXaXaXaXaXaXaXaXaXaXaXaXaXaXaXaXaXaXaX",
"aXaXaXaXaXaXaXaXaXaXaXaXaXaXaXaXaXaXaXaXaXaXaXaXaXaXaXaXaXaXaXaXaXaXaXaXaXaXaXaXaXaXaXaXaXaXaXaX",
"aXaXaXaXaXaXaXaXaXaXaXaXaXaXaXaXaXaXaXaXaXaXaXaXaXaXaXaXaXaXaXaXaXaXaXaXaXaXaXaXaXaXaXaXaXaXaXaX",
"aXaXaXaXaXaXaXaXaXaXaXaXaXaXaXaXaXaXaXaXaXaXaXaXaXaXaXaXaXaXaXaXaXaXaXaXaXaXaXaXaXaXaXaXaXaXaXaX",
"aXaXaXaXaXaXaXaXaXaXaXaXaXaXaXaXaXaXaXaXaXaXaXaXaXaXaXaXaXaXaXaXaXaXaXaXaXaXaXaXaXaXaXaXaXaXaXaX",
"aXaXaXaXaXaXaXaXaXaXaXaXaXaXaXaXaXaXaXaXaXaXaXaXaXaXaXaXaXaXaA#2aTaXaXaXaXaXaXaXaXaXaXaXaXaXaXaX",
"aXaXaXaXaXaXaXaXaXaXaXaXaXaXaXaXaXaXaXaXaXaXaXaXaXaXaXaXaX.h.h.h#YaDaXaXaXaXaXaXaXaXaXaXaXaXaXaX",
"aXaXaXaXaXaXaXaXaXaXaXaXaXaXaXaXaXaXaXaXaXaXaXaXaB.h.h#uaRaPaPaP.X.H.z#5aXaXaXaXaXaXaXaXaXaXaXaX",
"aXaXaXaXaXaXaXaXaXaXaXaXaXaXaXaXaXaXaXaXaXaXac.H.h#uaPaPaPaPaPaPaPaP.N.oaXaXaXaXaXaXaXaXaXaXaXaX",
"aXaXaXaXaXaXaXaXaXaXaXaXaXaXaXaXaXaXaXaX.o.oawaTaPaPaPaPaPaPaPaPaPaP.E#d#daXaXaXaXaXaXaXaXaXaXaX",
"aXaXaXaXaXaXaXaXaXaXaXaXaXaXaXaXaX.u.o.oaPaPaPaPaPaPaPaPaPaEaPaPaP#h#H#x#V.2aXaXaXaXaXaXaXaXaXaX",
"aXaXaXaXaXaXaXaXaXaXaXaX.H.h.m.h.uaPaPaPaPaPaEaPaPaPaPaEaEaP#5.1aoazamaA#W#X#eaXaXaXaXaXaXaXaXaX",
"aXaXaXaXaXaXaXaXaXaXaX.R.u.u.z.haEaPaPaEaPaPaPaPaEaEaPaP.o#haUagazaAaAaAapa.#XaXaXaXaXaXaXaXaXaX",
"aXaXaXaXaXaXaXaXaXaXac.RaPaP.m.H.oaPaPaPaPaPaPaEaPaPaP.m#A#Xag#yaGazapazag#X#WaXaXaXaXaXaXaXaXaX",
"aXaXaXaXaXaXaXaXaXaX.7aPaPaPaP.m.maTaPaPaEaEaPaPaP.t.X#H#H#xaPaPaU#.#H#G#..haXaXaXaXaXaXaXaXaXaX",
"aXaXaXaXaXaXaXaXaXaX.HaPaPaPaP.H.kaEaPaPaPaPaPaPaP.u.5#H#NaPaPaPaPaP.0.K.m.maXaXaXaXaXaXaXaXaXaX",
"aXaXaXaXaXaXaXaXaX#5aPaPaPaPaPaP.m#qaPaPaPaTaEaPaP.G#e.k#5aNaTaTaPaPaPaPac.oaNaXaXaXaXaXaXaXaXaX",
"aXaXaXaXaXaXaXaXaX#qaPaP.m.maPaP.o.HaPaPawaNaPaPaP#u.G#TawaPaTaEaPaPacacac.manaXaXaXaXaXaXaXaXaX",
"aXaXaXaXaXaXaXaXaX.zaPaPaP.m.maPaP.oacaPaPaPaPawaEan#Lanawanan#0ac#0anan#uawaXaXaXaXaXaXaXaXaXaX",
"aXaXaXaXaXaXaXaXaw.zaPaPaPaPaPaPaP.uanaPaPaTaPawaPaPaPaPaP#L#T#L.H.7aTaXaXaXaXaXaXaXaXaXaXaXaXaX",
"aXaXaXaXaXaXaXaXaX.7aPaPaPaPaPaTaP.z#qaPaPaNaPaPaE#B#q.6.z...m.haXaXaXaXaXaXaXaXaXaXaXaXaXaXaXaX",
"aXaXaXaXaXaXaXaXaX.RaPaPaPaPaPaTaP.R#0aPaPaP#5#5.6#B.7.h........aXaXaXaXaXaXaXaXaXaXaXaXaXaXaXaX",
"aXaXaXaXaXaXaXaX#1.m.z.RaPaPaPaTaP#L#paP#q#q#a.QaU.w#i.k...k.k..aXaXaXaXaXaXaXaXaXaXaXaXaXaXaXaX",
"aXaXaXaXaXaXaXaXaXaX.o#T.m.G.k.m.m.o.7.G.k...1#yaHaraK.k.h.s.Q..aXaXaXaXaXaXaXaXaXaXaXaXaXaXaXaX",
"aXaXaXaXaXaXaXaXaXaX#B.R.7.7.o.o.m.o.z.u....#Aauaqatar.k.Y.Y.G..aXaXaXaXaXaXaXaXaXaXaXaXaXaXaXaX",
"aXaXaXaXaXaXaXaXaXaXaXaXaXaXaX.z.z.RaN#j....aQaH#z#3aJ.s.3##.M..aXaXaXaXaXaXaXaXaXaXaXaXaXaXaXaX",
"aXaXaXaXaXaXaXaXaXaXaXaXaXaXaXaXaX.zaXaX.k..aHaHaW#gaV.s#o#J.4..aXaXaXaXaXaXaXaXaXaXaXaXaXaXaXaX",
"aXaXaXaXaXaXaXaXaXaXaXaXaXaXaXaXaXaXaXaXaX..aHaHaH#faS.s#R#t.4.maXaXaXaXaXaXaXaXaXaXaXaXaXaXaXaX",
"aXaXaXaXaXaXaXaXaXaXaXaXaXaXaXaXaXaXaXaX.m.kaHaHaH#RaS.Ba##t#O.waXaXaXaXaXaXaXaXaXaXaXaXaXaXaXaX",
"aXaXaXaXaXaXaXaXaXaXaXaXaXaXaXaXaXaXaXaX.k.haQaKaJaraH.Bat#4ab.yaXaXaXaXaXaXaXaXaXaXaXaXaXaXaXaX",
"aXaXaXaXaXaXaXaXaXaXaXaXaXaXaXaXaXaXaXaX.k.kaW.3aKaKaH.FahataB.1aXaXaXaXaXaXaXaXaXaXaXaXaXaXaXaX",
"aXaXaXaXaXaXaXaXaXaXaXaXaXaXaXaXaXaXaXaX.t.saTaa#IaWat.B#gauaK.4aXaXaXaXaXaXaXaX#8aXayaXaXaXaNaX",
"aXaXaXaXaXaXaXaXaXaXaXaXaXaXaXaXaXaXaXaX.M.saWaL#4aWaC.F#oaqai.XaXaXaXaXaXaXaXal#8aXayaXaXaXaXaX",
"aXaXaXaXaXaXaXaXaXaXaXaXaXaXaXaXaXaXaXaX#A.taVaV#4aWaq.3#o#Zav#iaXaXaXaXaX#E#m#FakaIaXaXaXaXaXaX",
"aXaXaXaXaXaXaXaXaXaXaXaXaXaXaXaXaXaXaXaX#K.taWaWasaVaH.3#o#SaO#KaXaXaXaXaQ.U#r#raI#nalaX#UaXaXaX",
"aXaXaXaXaXaXaXaXaXaXaXaXaXaXaXaXaXaXaXaX#0.haWaWataVaL##.LaaaN#k#Q#P.CaXaX.O.9.g.D.laI#c.TaXaXaX",
"aXaXaXaXaXaXaXaXaXaXaXaXaXaXaXaXaXaXaXaXaX.waOaVaWasaW#J..adaW#D.U.n.f#c.W#n.W.9.D.v.V.d.r#8aXaX",
"aXaXaXaXaXaXaXaXaXaXaXaXaXaXaXaXaXaXaXaXaX.QaMaWaW#saV#J.haeaW.f.e.a.f.W.P#m.J.J.W.g.d.v.AafaXaX",
"aXaXaXaXaXaXaXaXaXaXaXaXaXaXaXaXaXaXaXaXaX.IavaVaO.xaMaO.kajaF.f.#.f.f.v.P#ral.9aIaXalaX#QaXaXaX",
"aXaXaXaXaXaXaXaXaXaXaXaXaXaXaXaXaXaXaXaXaQ.tadaVaW.I#6aV.paxaj.f.a.f.f.v.JalaX#8aX.8.OaTaXaXaXaX",
"aXaXaXaXaXaXaXaXaXaXaXaXaXaXaX#8.jaXaXaXaXaf#vaW.q.Z#v.S.Z#w.T.f.n.f.f.vaPaXaXaXaXaXaXaXaXaXaXaX",
"aXaXaXaXaXaXaXaXaXaXaXaXaXaXaX#M#caXaXaXaXaX.qaX#b#7#l#C.q.c.U.f#F.f.f#9aXaXaXaXaXaXaXaXaXaXaXaX",
"aXaXaXaXaXaXaXaXaXaXaXaXaX.O.8aXaX.8aXaXaXaXaXaXaXaXaXaX.a.baX#8aXaXaXaXaXaXaXaXaXaXaXaXaXaXaXaX",
"aXaXaXaXaXaXaXaXaXaXaXaXaX.8#EaXaXaXaXaXaXaXaX#raXaXaXaX.i#QaXaXaXaXaXaXaXaXaXaXaXaXaXaXaXaXaXaX",
"aXaXaXaXaXaXaXaXaXaXaXaXaXaXaXaXaXaXaXaXaXaXaXaXaXaXaXaXaXaXaXaXaXaXaXaXaXaXaXaXaXaXaXaXaXaXaXaX",
"aXaXaXaXaXaXaXaXaXaXaXaXaXaXaXaXaXaXaXaXaXaXaXaXaXaXaXaXaXaXaXaXaXaFaXaXaXaXaXaXaXaXaXaXaXaXaXaX",
"aXaXaXaXaXaXaXaXaXaXaXaXaXaXaXaXaXaXaXaXaXaXaXaXaXaXaXaXaXaXaXaXaXaXaXaXaXaXaXaXaXaXaXaXaXaXaXaX"
};
