/* XPM */
static char *sketch-open-no-mail[] = {
/* width height num_colors chars_per_pixel */
"    48    48      240            2",
/* colors */
".. c #ffffff",
".# c #84847b",
".a c #292929",
".b c #bdbdbd",
".c c #dedede",
".d c #000000",
".e c #424242",
".f c #dea594",
".g c #b56b52",
".h c #080800",
".i c #f7f7f7",
".j c #ffefd6",
".k c #312918",
".l c #ad8473",
".m c #deded6",
".n c #d6846b",
".o c #e7b59c",
".p c #d66b4a",
".q c #efefef",
".r c #313121",
".s c #423931",
".t c #8c8c8c",
".u c #d6cece",
".v c #dec6bd",
".w c #f7b5a5",
".x c #5a4239",
".y c #181818",
".z c #313131",
".A c #b5b5b5",
".B c #524a39",
".C c #adadad",
".D c #4a4a4a",
".E c #212121",
".F c #efe7de",
".G c #522918",
".H c #732908",
".I c #d6d6d6",
".J c #422929",
".K c #8c3918",
".L c #736342",
".M c #945a4a",
".N c #8c4a39",
".O c #ad5a42",
".P c #634239",
".Q c #c68c73",
".R c #bd9484",
".S c #ad7363",
".T c #b58c84",
".U c #94736b",
".V c #a5a5a5",
".W c #cecece",
".X c #634231",
".Y c #734a39",
".Z c #de9c7b",
".0 c #e7bda5",
".1 c #ceada5",
".2 c #ce9484",
".3 c #ad6352",
".4 c #101000",
".5 c #313129",
".6 c #ff0000",
".7 c #ce735a",
".8 c #525252",
".9 c #d68c73",
"#. c #bd7b63",
"## c #844a39",
"#a c #7b7373",
"#b c #080808",
"#c c #8c846b",
"#d c #8c6b52",
"#e c #e78c6b",
"#f c #1a1a1a",
"#g c #4c4c4c",
"#h c #1a1a18",
"#i c #7b7b73",
"#j c #9c5a42",
"#k c #a54a29",
"#l c #945239",
"#m c #292118",
"#n c #736b5a",
"#o c #6b3121",
"#p c #949494",
"#q c #333333",
"#r c #635a52",
"#s c #633121",
"#t c #4a2918",
"#u c #6b6b63",
"#v c #636363",
"#w c #ad9c9c",
"#x c #63635a",
"#y c #666666",
"#z c #73736b",
"#A c #a59c84",
"#B c #212908",
"#C c #847b5a",
"#D c #ad8c73",
"#E c #b5a584",
"#F c #5a4a21",
"#G c #311008",
"#H c #2e2e2c",
"#I c #94845a",
"#J c #e7d6ad",
"#K c #d6bd94",
"#L c #efdeb5",
"#M c #423108",
"#N c #291000",
"#O c #292921",
"#P c #392910",
"#Q c #d6cead",
"#R c #a58c6b",
"#S c #d6b59c",
"#T c #d6c69c",
"#U c #8c7b4a",
"#V c #392100",
"#W c #c6ad84",
"#X c #decea5",
"#Y c #b59c6b",
"#Z c #f7e7bd",
"#0 c #4a4229",
"#1 c #8c7b5a",
"#2 c #efffef",
"#3 c #efd6ad",
"#4 c #635229",
"#5 c #4a3918",
"#6 c #6b5a39",
"#7 c #fff7de",
"#8 c #736339",
"#9 c #7b6b42",
"a. c #948c6b",
"a# c #635a4a",
"aa c #523908",
"ab c #8c7b63",
"ac c #bdb594",
"ad c #735a29",
"ae c #bdb59c",
"af c #bda57b",
"ag c #bdad8c",
"ah c #9c9484",
"ai c #d6bdad",
"aj c #7b7363",
"ak c #c6b59c",
"al c #84734a",
"am c #efdebd",
"an c #e7d6bd",
"ao c #b5f7ce",
"ap c #d6ffe7",
"aq c #c6c6a5",
"ar c #9cdeb5",
"as c #c6ffde",
"at c #b5ad94",
"au c #ad9c73",
"av c #7b735a",
"aw c #e7ffef",
"ax c #84d69c",
"ay c #ad9c8c",
"az c #efe7c6",
"aA c #d6d6b5",
"aB c #8ce7ad",
"aC c #73de9c",
"aD c #52bd7b",
"aE c #8cf7b5",
"aF c #c6ffd6",
"aG c #948c7b",
"aH c #efefce",
"aI c #7bf7ad",
"aJ c #73f7a5",
"aK c #a5efc6",
"aL c #84f7b5",
"aM c #29ad63",
"aN c #6bd694",
"aO c #18944a",
"aP c #4ace7b",
"aQ c #63ce8c",
"aR c #deffe7",
"aS c #a5e7bd",
"aT c #313110",
"aU c #738c73",
"aV c #001000",
"aW c #9cefbd",
"aX c #39a563",
"aY c #4aad73",
"aZ c #63e794",
"a0 c #007329",
"a1 c #008431",
"a2 c #39ad6b",
"a3 c #299c5a",
"a4 c #108c42",
"a5 c #52a573",
"a6 c #eff7de",
"a7 c #73a57b",
"a8 c #002100",
"a9 c #086331",
"b. c #42c673",
"b# c #84bd9c",
"ba c #bdcead",
"bb c #8cce9c",
"bc c #003110",
"bd c #003108",
"be c #21a552",
"bf c #52d684",
"bg c #52c67b",
"bh c #006321",
"bi c #217b42",
"bj c #bdd6ad",
"bk c #84e7a5",
"bl c #188442",
"bm c #006b29",
"bn c #318c52",
"bo c #bde7bd",
"bp c #addec6",
"bq c #b5cea5",
"br c #b5efb5",
"bs c #003908",
"bt c #004208",
"bu c #7bffad",
"bv c #087331",
"bw c #424a31",
"bx c #8cb584",
"by c #c6f7c6",
"bz c #94ffbd",
"bA c #84a57b",
"bB c #d6f7d6",
"bC c #b5f7d6",
"bD c #84b58c",
"bE c #426331",
"bF c #add6a5",
"bG c #527b4a",
"bH c #215221",
"bI c #528c52",
"bJ c #005218",
"bK c #5a8c52",
"bL c #296329",
"bM c #6ba56b",
"bN c #529c63",
"bO c #081800",
"bP c #42945a",
"bQ c #083910",
"bR c #295a29",
"bS c #6bbd8c",
"bT c #7bc69c",
/* pixels */
"................................................................................................",
"................................................................................................",
".................................#..............................................................",
"...............................#.a.a............................................................",
".............................#.b.a.a.a..........................................................",
".............................#.c.c.#.c.a........................................................",
".............................a.c.b.e.e.e.....................f.g.i..............................",
"...........................#.a.a.a.j.j.j.e.................h.h.h.l.m............................",
".........................#.a.a.a.a.a.a...........v.h.h.#.w.q.q.q.x.e.z.A........................",
"...........................#.a.a.a.a.a.......b.e.h.#.q.q.q.q.q.q.q.q.D.E........................",
"...........................e.a.a.a.a.....E.E.I.i.q.q.q.q.q.q.q.q.q.q.J.H.H......................",
"...........................e.a.a.a.a.E.E.q.q.q.q.q.q.q.q.q.c.q.q.q.L.M.N.O.P....................",
".........................e.h.y.h.a.q.q.q.q.q.c.q.q.q.q.c.c.q.A.X.n.Z.1.f.3.S.Y..................",
".......................8.a.a.z.h.c.q.q.c.q.q.q.q.c.c.q.q.E.L.6.Q.Z.f.f.f.9#..S..................",
".....................b.8#a.a#b.e.E.q.q.q.q.q.q.c.q.q.q.y#c.S.Q#d#e.Z.9.Z.Q.S.3..................",
"....................#f#g#b#f.d#i.y.i.q.q.c.c.q.q.q#m.x.M.M.N.q.q.6#o.M#l#o.h....................",
"....................#g#g#q.s.z#b#i.c.q.q.q.q.q.q.q.a#r.M#j.q.q.q.q.q#s#t.y.y....................",
"...................A#i#q#q#q#q#q#i#i.q.q.q.i.c.q.q.s.Y.4.A.F.i.i.q.q.q.q.b.E.F..................",
"..................#i.D#q#q#q#q#q.E.e.q.q.I.F.q.q.q.#.s.V.I.q.i.c.q.q.b.b.b.y.W..................",
"...................z#u#q#q#q#q#q#q.E.b.q.q.q.q.I.c.W#p.W.I.W.W#w.b#w.W.W.#.I....................",
".................I.z.E#q#q.s.s#q#q.a.W.q.q.i.q.I.q.q.q.q.q#p.V#p.e#v.i..........................",
"..................#v#q#q#q#q#q#q#q.z#i.q.q.F.q.q.c.t#i#x.z.d.y.h................................",
"...................8#q#q#q.s#q#i#i#q#w.q.q.q.A.A#x.t#v.h.d.d.d.d................................",
".................C.y#g#q#y#q#y#y#y#p#a.q#i#i#u.B.6.k#n.4.d.4.4.d................................",
".............i#p.V.t.E.V.y#y#H.s#i.E#v.s.4.d.X#d#J#K#L.4.h#N.B.d................................",
".......b...q#a#a.C.t.t.8#v#v.E.E.y.E.z.a.d.d#c#Q#S#T#K.4#F#F.s.d................................",
".........b.t.e.b.i.i.i.i.F.C.W.z.z.8.F#z.d.d#2#J#U#Y#3#N#4#6#0.d................................",
".......F.I.8.I.i.i.i.i.c.i.i.i.e.8.z.W...4.d#J#J#7#8.j#N#9a.a#.d................................",
".......b#v.i.i.i.i.i.i.c.W.c#p.8.t.........d#J#J#Jad#Z#N#R#Ca#.y................................",
".......a#w.i.i.i.i.i.C.W#u.#.A.b.........y.4#J#J#J#R#Z#Vaf#Cah.k................................",
".......a.c.q.I.c.W.V.a#v.b.q.............4.h#2#L#3#K#J#V#T#Eac.r................................",
".......V#v#x#u#v.8.e.#.q.................4.4#7#4#L#L#J#M#W#T.v.X................................",
"...........D#u.V.i......................#m#N.iag#I#7#T#V#8#Q#La#................ao..ap.......F..",
"...........y#i#v.c......................#0#N#7am#E#7#X#M#9#Saq.x..............asao..ap..........",
"........................................#c#m.j.j#E#7#S#4#9#DaA#n..........aBaCaEaFaw............",
"........................................aG#m#7#7ai.j#J#4#9#AaHaG........#2aDaIaIawaJas..aK......",
"........................................#w.h#7#7#T.jam#6#5ag.FaUaWaraX....aYaZa1a2a4awaNa5......",
"...........................................kaH.j#7ai#7a..dba#7bbaDaObeaNbfaJbfaZa2a3bgbhbiao....",
"...........................................Baz#7#7al.ja..hbj#7bkbma8aXbfaPaCb.b.bfa1bha3bnbo....",
"..........................................bwaA.jaHaTazaH.4byaRaFaVa8a2a1aPaIasaZaw..as..aW......",
"........................................#2#mba.j#7bwbq.j#BbBbyaEa8bta4bCb.as..ao..aQaY.i........",
"..............................aoa9........bobA#7bHbKbAbGbKaxa5bJaOaJaIas.q......................",
"..............................bzaN..........bH..bMbra7bxbHbtaDbdaEapaKbC........................",
"..........................aYaQ....aQ....................a8bc..ao................................",
"..........................aQaB................aI........bQaW....................................",
"................................................................................................",
"..................................................................aR............................",
"................................................................................................"
};
