/* XPM */
static char * SshMonitor_xpm[] = {
"48 48 68 1",
" 	c None",
".	c #FFFFFFFFFFFF",
"X	c #E5E5E5E5E5E5",
"o	c #BFBFBFBFBFBF",
"O	c #A6A6A6A6A6A6",
"+	c #7F7F7F7F7F7F",
"@	c #414141415151",
"#	c #333333330000",
"$	c #000000000000",
"%	c #35355353A3A3",
"&	c #4A4A5A5A8787",
"*	c #7E7E7E7E7E7E",
"=	c #C2C2C2C2C2C2",
"-	c #C6C6C6C6C6C6",
";	c #929292929292",
":	c #8E8E8E8E8E8E",
">	c #363636363636",
",	c #6E6E6E6E6E6E",
"<	c #AEAEAEAEAEAE",
"1	c #BEBEBEBEBEBE",
"2	c #B2B2B2B2B2B2",
"3	c #D2D2D2D2DADA",
"4	c #A2A2A2A2A2A2",
"5	c #767676767676",
"6	c #5E5E5E5E5E5E",
"7	c #EAEAEAEAEAEA",
"8	c #BABABABABABA",
"9	c #868686868686",
"0	c #7A7A7A7A7A7A",
"q	c #9A9A9A9A9A9A",
"w	c #6A6A6A6A6A6A",
"e	c #B6B6B6B6B6B6",
"r	c #AAAAAAAAAAAA",
"t	c #565656565656",
"y	c #FEFEFEFEFEFE",
"u	c #DADADADADADA",
"i	c #020202020202",
"p	c #424242424242",
"a	c #CECECECECECE",
"s	c #EEEEEEEEF6F6",
"d	c #9E9E9E9E9E9E",
"f	c #969696969696",
"g	c #161616161616",
"h	c #727272727272",
"j	c #8A8A8A8A8A8A",
"k	c #DEDEDEDEDEDE",
"l	c #F2F2F2F2F2F2",
"z	c #666666666666",
"x	c #464646464646",
"c	c #2A2A2A2A3232",
"v	c #626262626262",
"b	c #4A4A4A4A4A4A",
"n	c #525252525252",
"m	c #0A0A0A0A0A0A",
"M	c #E6E6E6E6E6E6",
"N	c #828282828282",
"B	c #3A3A3A3A3A3A",
"V	c #222222222222",
"C	c #D6D6D6D6D6D6",
"Z	c #4E4E4E4E4E4E",
"A	c #3A3A3E3E4646",
"S	c #262626262E2E",
"D	c #5A5A5A5A5A5A",
"F	c #26262A2A2E2E",
"G	c #090917173D3D",
"H	c #333366663333",
"J	c #0000FFFF6666",
"K	c #0F0F10101212",
"                                                ",
" .X.........................................XoO ",
" XXXXXXXXXXXXXXXXXXXXXXXXXXXXXXXXXXXXoXoooooXO+ ",
" .XXXXXXXXXXXXXXXXXXXXXXXXXXXXXXXXXXXXXoooooo@@ ",
" .XXXXXXXXXXXXXXXXXXXXXXXXXXXXXXXXXoXoooooooo+# ",
" .XXXXXXXXXXXXXXXXXXXXXXXXXXXXXXXXXXXoooooooo+@ ",
" .XXXX$$$$$$$$$$$$$$$$$$$$$$$$$$$$$$$$$$$Oooo+@ ",
" .XXXX$%%%%%&&&&&&&&&&&&&&&&&&&&&&&&&&&%%.ooo+@ ",
" .XXXX$%%%&&&&&&&&&&&&&&&&&&&&&&&&&&&&&&%.ooo+@ ",
" .XXXX$%%&&&&&&&&&&&&&&&&&&&&&&&&&&&&&&&&.ooo+@ ",
" .XXXX$%&&&&&&&&&&&&&&&&&&&&&&&&&&&&&&&&&.ooo+@ ",
" .XXXX$&&&&&&&&&&&&&&&&&&&&&&&&&&&&&&&&&&.ooO+@ ",
" .XXXX$&&&&&&&&&&&&&&&&&&&&&&&&&&&&&&&&&&.oOo+@ ",
" .XXXX$&&&&&&&&&&*==-;:>&&&&&&&&&&&&&&&&&.OOO+@ ",
" .XXXX$&&&&&&&&,<1=232<45&&&&&&&&&&&$&&&&.oOO+@ ",
" .XXXX$&&&&&&&677890qwe2r6&&&&&&&&&&t&&&&.OOO+@ ",
" .XXXX$&&&&&&&2yqeu23=;6<Oi&&&&&&&&i&&&&&.OOO+@ ",
" .XXXX$&&&&&&pya2Oqyswadefgh&&&&&&&$&&&&&.OOO+@ ",
" .XXXX$&&&&&&jy9k,ylhOzdx<ci&&&&&&$&&&$&&.OOO+@ ",
" .XXXX$&&&&&&dy6el=evbn2,a;m&&&&&g$&&i&&&.OOO+@ ",
" .XXXX$&&&&&&,Mnqwk-N5w2qr,BV&&&h9bbV&&&&.OOO+@ ",
" .XXXX$&&&&&&p<NjO,qV=z=0:vn>&&bq0:v&&&&&.OOO+@ ",
" .XXXX$&&&&&&p4CB*4aeb=9BZv,g:t*2;qdm&&&&.OOO+@ ",
" .XXXX$&&&&&k<v42jAp-=f*6Z4S5rOa8p>&&&&&&.OOO+@ ",
" .XXXX$&&fZ4:,5jq0edOr:Z=4bhr<Nh0m&&&&&&&.OOO+@ ",
" .XXXX$&&upw0f9:V;h;5tAVD0h*N:z4&&&&&&&&&.OOO+@ ",
" .XXXX$&&&&&l<ttxDxcFN0O0j95,<&&&&&&&&&&&.OO++@ ",
" .XXXX$&&&&&&&&&&M7ud717ejfqu&&&&&&&&&&&&.OO++@ ",
" .XXXX$&&&&&&&&&&&&&&&&&&&&&&&&&&&&&&&&&G.++++@ ",
" .XXXX$&&&&&&&&&&&&&&&&&&&&&&&&&&&&&&&&&G.++++@ ",
" .XXXX$G&&&&&&&&&&&&&&&&&&&&&&&&&&&&&&&GG.++++@ ",
" .XXXX$GG&&&&&&&&&&&&&&&&&&&&&&&&&&&&GGGG.++++@ ",
" .XXXXO...................................++++@ ",
" .XXXXXoXoooooooooooooOOOOOOOOOOOOOOOOHHH+++++@ ",
" .XXXoXooooooooooooooOOOOOOOOOOOOOOO++HJJo++++@ ",
" .XXXoooooooooooooooOOOOOOOOOOOOOOOO+++ooo++++@ ",
" .++++++++++++++++++++++++++++++++++++++++++++@ ",
" +@@@@@@@@@@@@@@@@@@@@@@@@@@@@@@@@@@@@@@@@@@@@@ ",
"          O.@HHHH#ooOO+@@HH##@@@##HHH           ",
"         O.O@@@@@@H@+K+@@HHH$##HH@@@@#          ",
"        O.X++++++++@@HHHHHHHHH@++++++@#         ",
"       O..OOOOOOOOOOOOOOOOOOOOOOOOOOOO@#        ",
"      O................................@#       ",
"      O.OOOOOOOOOOOOOOOOOOOOOOOOOOOOOOOO@       ",
"      O.OOOOOOOOOOOOOOOOOOOOOOOOOOOOOOOO@       ",
"      @@@@@@@@@@@@@@@@@@@@@@@@@@@@@@@@@@@       ",
"                                                ",
"                                                "};
