/* XPM */
static char * vim1_xpm[] = {
"16 16 35 1",
" 	c None",
".	c #005500",
"+	c #555555",
"@	c #808080",
"#	c #007F00",
"$	c #009F00",
"%	c #CCCCCC",
"&	c #535353",
"*	c #005F00",
"=	c #A6A6A6",
"-	c #B9B9B9",
";	c #000000",
">	c #606060",
",	c #5F5F5F",
"'	c #406040",
")	c #404040",
"!	c #F2F2F2",
"~	c #7F7F7F",
"{	c #00002A",
"]	c #005F20",
"^	c #B2B2B2",
"/	c #999999",
"(	c #666666",
"_	c #004000",
":	c #000020",
"<	c #929292",
"[	c #333333",
"}	c #204020",
"|	c #9999B9",
"1	c #333372",
"2	c #202020",
"3	c #004020",
"4	c #444444",
"5	c #2A2A2A",
"6	c #333353",
"       ..       ",
" +@@@@@#$.@@@@+ ",
" +%%%%%&#*=%%%-;",
"  >%%%,*##'-%-, ",
"  @%%%)##'!%-,  ",
"  @%%%)#'!%-,.  ",
" .@%%%)'!%-,*$. ",
".$@%%%~!%-,*##$.",
"{]@%%%^%-,*###]{",
" {@%%%%/(_###]{ ",
"  @%%%%&(__*_:  ",
"  @%%%<[%[%/%// ",
"  @%%<}(([|1/[( ",
"  @%<23/[/[/[/4 ",
"   &5 ;(6(;(;(4 ",
"       {{       "};
