/* XPM */
static char *vnc48[] = {
/* width height num_colors chars_per_pixel */
"    48    48      255            2",
/* colors */
".. c #020202",
".# c #02ae02",
".a c #3a3a3a",
".b c #121212",
".c c #06b206",
".d c #0246fe",
".e c #6a6a6a",
".f c #3ac23a",
".g c #161616",
".h c #8a8a8a",
".i c #1e1e1e",
".j c #82d682",
".k c #222222",
".l c #aeaeae",
".m c #fe363a",
".n c #9ade9a",
".o c #262626",
".p c #fe6a6e",
".q c #cacaca",
".r c #c6eec6",
".s c #064afe",
".t c #2a2a2a",
".u c #dae6fe",
".v c #fe8a8e",
".w c #2e2e2e",
".x c #3e72fe",
".y c #e6e6e6",
".z c #5a8afe",
".A c #eaeaea",
".B c #8eaefe",
".C c #326afe",
".D c #323232",
".E c #feaeb0",
".F c #fe565a",
".G c #6ad26a",
".H c #e6f6e6",
".I c #fe3236",
".J c #12b612",
".K c #aac2fe",
".L c #bababa",
".M c #fecaca",
".N c #aaaaaa",
".O c #565656",
".P c #6e6e6e",
".Q c #eafaea",
".R c #5aca5a",
".S c #bebebe",
".T c #2ebe2e",
".U c #82a2fe",
".V c #daf2da",
".W c #cecece",
".X c #eefaee",
".Y c #8aaafe",
".Z c #1656fe",
".0 c #feeaea",
".1 c #c2c2c2",
".2 c #9a9a9a",
".3 c #fe9ea2",
".4 c #fe4e53",
".5 c #3e3e3e",
".6 c #52ca52",
".7 c #f2f6fe",
".8 c #9ebafe",
".9 c #767676",
"#. c #424242",
"## c #22ba22",
"#a c #c6d6fe",
"#b c #fe8286",
"#c c #a6e2a6",
"#d c #f2faf2",
"#e c #5a86fe",
"#f c #4ec64e",
"#g c #aee6ae",
"#h c #868686",
"#i c #0e0e0e",
"#j c #f6fafe",
"#k c #8ada8a",
"#l c #d6d6d6",
"#m c #5282fe",
"#n c #72d272",
"#o c #6a92fe",
"#p c #f2f2f2",
"#q c #626262",
"#r c #fecece",
"#s c #fafafa",
"#t c #fe5a5e",
"#u c #fafefa",
"#v c #4ac64a",
"#w c #b2c6fe",
"#x c #225efe",
"#y c #fe767a",
"#z c #fee6e6",
"#A c #fe9698",
"#B c #16b616",
"#C c #fedadb",
"#D c #b2e6b2",
"#E c #0a0a0a",
"#F c #969696",
"#G c #e2eafe",
"#H c #febec1",
"#I c #dedede",
"#J c #e6eafe",
"#K c #92de92",
"#L c #fe3e43",
"#M c #7a7a7a",
"#N c #fe5e62",
"#O c #feeeee",
"#P c #a2a2a2",
"#Q c #46c646",
"#R c #baeaba",
"#S c #cedefe",
"#T c #d2f2d2",
"#U c #02b202",
"#V c #76d676",
"#W c #525252",
"#X c #feaaab",
"#Y c #bacefe",
"#Z c #0eb20e",
"#0 c #1252fe",
"#1 c #1ab61a",
"#2 c #b2b2b2",
"#3 c #fe7276",
"#4 c #729afe",
"#5 c #f6f6f6",
"#6 c #060606",
"#7 c #3ec23e",
"#8 c #5e5e5e",
"#9 c #fee2e2",
"a. c #2aba2a",
"a# c #fe9295",
"aa c #a2bafe",
"ab c #def6de",
"ac c #929292",
"ad c #4e7efe",
"ae c #fe666a",
"af c #eaeefe",
"ag c #fe3a3e",
"ah c #464646",
"ai c #2a66fe",
"aj c #feb6b6",
"ak c #fefefe",
"al c #5ece5e",
"am c #8ede8e",
"an c #7ed67e",
"ao c #e2f6e2",
"ap c #1eba1e",
"aq c #fef6f6",
"ar c #7a9efe",
"as c #0e52fe",
"at c #f6fef6",
"au c #caeeca",
"av c #36c236",
"aw c #4276fe",
"ax c #cef2ce",
"ay c #fef2f2",
"az c #beeabe",
"aA c #0ab20a",
"aB c #5e8afe",
"aC c #0e4efe",
"aD c #eeeeee",
"aE c #fed6d8",
"aF c #d2defe",
"aG c #1a5afe",
"aH c #66ce66",
"aI c #828282",
"aJ c #4e4e4e",
"aK c #fe7e82",
"aL c #a2e2a2",
"aM c #b6b6b6",
"aN c #8eda8e",
"aO c #1a1a1a",
"aP c #aae6aa",
"aQ c #fefafa",
"aR c #26ba26",
"aS c #96de96",
"aT c #2662fe",
"aU c #96b2fe",
"aV c #becefe",
"aW c #9e9e9e",
"aX c #fe6266",
"aY c #0eb60e",
"aZ c #42c642",
"a0 c #6692fe",
"a1 c #5a5a5a",
"a2 c #4eca4e",
"a3 c #7ad67a",
"a4 c #82da82",
"a5 c #0a4efe",
"a6 c #fea2a5",
"a7 c #36be36",
"a8 c #b6eab6",
"a9 c #d6e2fe",
"b. c #9ee29e",
"b# c #c2eec2",
"ba c #42c242",
"bb c #feb2b6",
"bc c #666666",
"bd c #fe7a7e",
"be c #fe4248",
"bf c #6ed26e",
"bg c #ceeece",
"bh c #92aefe",
"bi c #bacafe",
"bj c #a6befe",
"bk c #eef2fe",
"bl c #668efe",
"bm c #86da86",
"bn c #8e8e8e",
"bo c #e6fae6",
"bp c #fe8688",
"bq c #fe9a9e",
"br c #e2e2e2",
"bs c #7e7e7e",
"bt c #2abe2a",
"bu c #4a4a4a",
"bv c #467afe",
"bw c #fedede",
"bx c #bed2fe",
"by c #56ca56",
"bz c #62ce62",
"bA c #fe525a",
"bB c #d6f2d6",
"bC c #5686fe",
"bD c #366efe",
"bE c #b6cafe",
"bF c #e6eefe",
"bG c #a6a6a6",
"bH c #7ea2fe",
"bI c #32be32",
"bJ c #727272",
"bK c #d2d2d2",
"bL c #82a6fe",
"bM c #a2befe",
"bN c #eaf2fe",
"bO c #2a62fe",
"bP c #1e5afe",
"bQ c #c2d2fe",
"bR c #b6e6b6",
"bS c #fe363e",
"bT c #5682fe",
"bU c #2e66fe",
"bV c #c2eac2",
"bW c #fe323a",
"bX c #366afe",
"bY c #aec2fe",
"bZ c #8eaafe",
"b0 c #cad6fe",
"b1 c #265efe",
"b2 c #1652fe",
"b3 c #7e9efe",
"b4 c #feb6ba",
"b5 c #fafafe",
"b6 c #fafefe",
"b7 c #fee2e6",
"b8 c #fe3a42",
/* pixels */
"akakakakakakakakakakakakakakakakakakakakakakakakakakakakakakakakakakakakakakakakakakakakakakakak",
"akakakakakakakakakakakakakakakakakakakakakakakakakakakakakakakakakakakakakakakakakakakakakakakak",
"akakakakakakakakakakakakakakakakakakakakakakakakakakakakakakakakakakakakakakakakakakakakakakakak",
"akak.i.i.i.i.i.i.i.5akakakakak.i.i.i.i.i.i.i.iakakakakakakak.i.iakakakakakakak.i.iakakakakakakak",
"akak.....b.b.b.b#E....akakakak...tbubububububuakakakakakak......akakakakakakak....akakakakakakak",
"akak....akakakakak....akakakak..acakakakakakakakakakakak.e..#p....akakakakakak....akakakakakakak",
"akak....akakakak.A....akakakak..........aMakakakakakakak..aOakak..aJakakakakak....akakakakakakak",
"akak................#Pakakakak..a1.2.2.2brakakakakakak....akakak....akakakakak....akakakakakakak",
"akak....akakak....akakakakakak..acakakakakakakakakak..................akakakak....akakakakakakak",
"akak....akakakak....#qakakakak................akak.L...9akakakakak.W....akakak................ak",
"akakakakakakakakakakakakakakakakakakakakakakakakakakakakakakakakakakakakakakakakakakakakakakakak",
"akakapapapapapapakakakakakakakakakakakakakakakakapapapapapapakakakakakakb5#obP#makakakakakakakak",
"akak.#.#.#.#.#.#akakakakakakakakakakakakakakakak.#.#.#.#.#.#akakakakbv.d.d.d.d.d.d.d#eakakakakak",
"akak.6.#.#.#.#.#aoakakakakakakakakakakakakakakaN.#.#.#.#.#a8akakak.d.d.d.d.d.d.d.d.d.d.dakakakak",
"akakak.#.#.#.#.#.#akakakakakakakakakakakakakak.#.#.#.#.#.#akakak.d.d.d.d.d.d.d.d.d.d.d.d.dakakak",
"akakak.#.#.#.#.#.#akakakakakakakakakakakakakak.#.#.#.#.##Uakakbj.d.d.d.d.d.d.d.d.d.d.d.d.d.sakak",
"akakakab.#.#.#.#.##kakakakakakakakakakakakak.f.#.#.#.#.#akakak.d.d.d.dadakakakakakbD.d.d.d.dakak",
"akakakak.#.#.#.#.#.#akakakakakakakakakakakak.#.#.#.#.#.#akakak.d.d.d.dakakakakakakak.d.d.d.dblak",
"akakakakaA.#.#.#.#.#akakakakakakakakakakakak.#.#.#.#.#.Rakak#j.d.d.d#eakakakakakakakai.d.d.dbPak",
"akakakakat.#.#.#.#.##kakakakakakakakakakak.f.#.#.#.#.#akakakbE.d.d.d.uakakakakakakak.Y.d.d.d.dak",
"akakakakak.#.#.#.#.#.#akakakakakakakakakak.#.#.#.#.#.#akakakbj.d.d.d.uakakakakakakakbh.d.d.d.dak",
"akakakakaka..#.#.#.#.#akakakakakakakakakak.#.#.#.#.#anakakakbj.d.d.d.uakakakakakakakbh.d.d.d.dak",
"akakakakakak.#.#.#.#.#amakakakakakakakakav.#.#.#.#.#akakakakbj.d.d.d.uakakakakakakakbh.d.d.d.dak",
"akakakakakak.#.#.#.#.#.#akakakakakakakak.#.#.#.#.#.#akakakakbj.d.d.d.uakakakakakakakbh.d.d.d.dak",
"akakakakakak#g.#.#.#.#.#akakakakakakakao.#.#.#.#.#atakakakakbj.d.d.d.uakakakakakakakbh.d.d.d.dak",
"akakakakakakak.#.#.#.#.#btakakakakakak.c.#.#.#.#.#akakakakakbj.d.d.d.uakakakakakakakbh.d.d.d.dak",
"akakakakakakak.#.#.#.#.#.#akakakakakak.#.#.#.#.##1akakakakakbj.d.d.d.uakakakakakakakbh.d.d.d.dak",
"akakakakakakakbB.#.#.#.#.#akakakakak.H.#.#.#.#.#akakakakakak#Yawawaw#JakakakakakakakbYawawawawak",
"akakakakakakakak.#.#.#.#.#btakakakak#U.#.#.#.#.#akakakakakakakakakakakakakakakakakakakakakakakak",
"akakakakakakakak.#.#.#.#.#.#akakakak.#.#.#.#.#.#akakakakakakakakakakakak#za##Nagagagagagagagagak",
"akakakakakakakakaA.#.#.#.#.#akakak.H.#.#.#.#.##fakakakakakakakakakakbe.I.I.I.I.I.I.I.I.I.I.I.Iak",
"akakakakakakakak#u.#.#.#.#.#btakak.#.#.#.#.#.#akakakakakakakakakak.I.I.I.I.I.I.I.I.I.I.I.I.I.Iak",
"akakakakakakakakak.#.#.#.#.#.#akak.#.#.#.#.#.#akakakakakakakakak.I.I.I.I.I.I.I.I.I.I.I.I.I.I.Iak",
"akakakakakakakakakbm.#.#.#.#.#axaN.#.#.#.#.#abakakakakakakakak.v.I.I.I.I.Ibbakakakakakakakakakak",
"akakakakakakakakakak.#.#.#.#.#.#.#.#.#.#.#.#akakakakakakakakak.I.I.I.IbAakakakakakakakakakakakak",
"akakakakakakakakakak.#.#.#.#.#.#.#.#.#.#.#.cakakakakakakakakak.I.I.I.Iakakakakakakakakakakakakak",
"akakakakakakakakakak#D.#.#.#.#.#.#.#.#.#.##dakakakakakakakakb7.I.I.I.pakakakakakakakakakakakakak",
"akakakakakakakakakakak.#.#.#.#.#.#.#.#.#.#akakakakakakakakakaj.I.I.I#Hakakakakakakakakakakakakak",
"akakakakakakakakakakak.#.#.#.#.#.#.#.#.###akakakakakakakakak#9.I.I.I#3akakakakakakakakakakakakak",
"akakakakakakakakakakakab.#.#.#.#.#.#.#.##uakakakakakakakakakak.I.I.I.Iakakakakakakakakakakakakak",
"akakakakakakakakakakakak.#.#.#.#.#.#.#.#akakakakakakakakakakak.I.I.I.I.Iakakakakakakakakakakakak",
"akakakakakakakakakakakakal.#.#.#.#.#.#.nakakakakakakakakakakakay.I.I.I.I.I.I.I.I.I.I.I.I.I.I.Iak",
"akakakakakakakakakakakakak.#.#.#.#.#.#akakakakakakakakakakakakak.I.I.I.I.I.I.I.I.I.I.I.I.I.I.Iak",
"akakakakakakakakakakakakak.#.#.#.#.#aYakakakakakakakakakakakakakak.I.I.I.I.I.I.I.I.I.I.I.I.I.Iak",
"akakakakakakakakakakakakakab.#.#.#.#akakakakakakakakakakakakakakakak.m.I.I.I.I.I.I.I.I.I.I.I.Iak",
"akakakakakakakakakakakakakakak#n#kakakakakakakakakakakakakakakakakakakak.0.3#3#3#3#3#3#3#3#3#3ak",
"akakakakakakakakakakakakakakakakakakakakakakakakakakakakakakakakakakakakakakakakakakakakakakakak",
"akakakakakakakakakakakakakakakakakakakakakakakakakakakakakakakakakakakakakakakakakakakakakakakak"
};
