/* XPM */
static char *close-activeup[] = {
/* columns rows colors chars-per-pixel */
"23 23 257 2",
"   c black",
".  c #7B2A15",
"X  c #003DAD",
"o  c #053FB2",
"O  c #0036CB",
"+  c #0040AD",
"@  c #0041B3",
"#  c #0049B4",
"$  c #0048C4",
"%  c #004ECD",
"&  c #004CD2",
"*  c #004EDA",
"=  c #0056CA",
"-  c #085ECB",
";  c #0052D3",
":  c #005BDC",
">  c #014FE3",
",  c #0053E1",
"<  c #015AE5",
"1  c #025FE8",
"2  c #035CF4",
"3  c #0860CE",
"4  c #0864D8",
"5  c #1A64DF",
"6  c #0060E2",
"7  c #0164EA",
"8  c #096DEC",
"9  c #0165F3",
"0  c #0068F3",
"q  c #0269FD",
"w  c #4E78AE",
"e  c #4D76B4",
"r  c #8C3319",
"t  c #892E28",
"y  c #8C2D24",
"u  c #8B3534",
"i  c #8E3E33",
"p  c #8E3A3A",
"a  c #853334",
"s  c #923225",
"d  c #96372C",
"f  c #943A2C",
"g  c #98352C",
"h  c #913B3B",
"j  c #9D3E33",
"k  c #A83113",
"l  c #A9311D",
"z  c #BE3714",
"x  c #95402E",
"c  c #914031",
"v  c #954538",
"b  c #A54B37",
"n  c #AF553C",
"m  c #BD492B",
"M  c #864045",
"N  c #8B4643",
"B  c #924740",
"V  c #9B4751",
"C  c #93514F",
"Z  c #9E5843",
"A  c #995058",
"S  c #895860",
"D  c #9B716C",
"F  c #A2444A",
"G  c #AC5C45",
"H  c #B0534E",
"J  c #B45F46",
"K  c #B65554",
"L  c #B35C50",
"P  c #A25865",
"I  c #B2634E",
"U  c #BA6448",
"Y  c #B4605D",
"T  c #B66B55",
"R  c #B96952",
"E  c #B8685B",
"W  c #B56552",
"Q  c #BD715F",
"!  c #A17162",
"~  c #A77572",
"^  c #B46560",
"/  c #BA6A62",
"(  c #B56C65",
")  c #BF6E71",
"_  c #B57666",
"`  c #B07268",
"'  c #B5786B",
"]  c #BE776A",
"[  c #BE7779",
"{  c #B87D7D",
"}  c #C63407",
"|  c #C3330C",
" . c #C33A0D",
".. c #CA370D",
"X. c #C83C0F",
"o. c #D73501",
"O. c #C23D20",
"+. c #E03E0A",
"@. c #CB4014",
"#. c #D44114",
"$. c #D6431A",
"%. c #DB4315",
"&. c #DC471D",
"*. c #D74B19",
"=. c #C04122",
"-. c #C1472C",
";. c #C64D2F",
":. c #C94324",
">. c #CB4B23",
",. c #CB4A2C",
"<. c #C64F35",
"1. c #CA4832",
"2. c #C6502C",
"3. c #CF5828",
"4. c #C25130",
"5. c #C75C3C",
"6. c #CB5539",
"7. c #CA5E35",
"8. c #CD5B3A",
"9. c #C4563C",
"0. c #D14C26",
"q. c #D24A29",
"w. c #D94C24",
"e. c #DC4E2C",
"r. c #D05128",
"t. c #DE5420",
"y. c #DC512C",
"u. c #D05737",
"i. c #D7543D",
"p. c #D75839",
"a. c #D85434",
"s. c #D95A35",
"d. c #DE583F",
"f. c #D0613E",
"g. c #E04A1C",
"h. c #E7521C",
"j. c #E05022",
"k. c #E75824",
"l. c #E05A29",
"z. c #E95223",
"x. c #EA5B27",
"c. c #E35730",
"v. c #E55638",
"b. c #E15A34",
"n. c #E05A3A",
"m. c #E85D3C",
"M. c #F7673A",
"N. c #C25D43",
"B. c #C45F4A",
"V. c #CB5541",
"C. c #DC5E40",
"Z. c #CC6947",
"A. c #CE6A4E",
"S. c #C96249",
"D. c #C66751",
"F. c #C36956",
"G. c #C16E58",
"H. c #CA6B53",
"J. c #D3634A",
"K. c #DD6143",
"L. c #D86A4E",
"P. c #DA6549",
"I. c #D16E58",
"U. c #DC6C53",
"Y. c #DC6E5F",
"T. c #D67456",
"R. c #DE7155",
"E. c #DD715E",
"W. c #DF7C5E",
"Q. c #C06F63",
"!. c #CC6E62",
"~. c #C07566",
"^. c #CC7568",
"/. c #CA7E66",
"(. c #CD7868",
"). c #C77864",
"_. c #C07278",
"`. c #C07B70",
"'. c #DA7062",
"]. c #D67D73",
"[. c #E95F40",
"{. c #E46942",
"}. c #E3684A",
"|. c #E56244",
" X c #E36B54",
".X c #E56F5B",
"XX c #EA6E53",
"oX c #E27259",
"OX c #E77A57",
"+X c #EB7154",
"@X c #EE7159",
"#X c #ED7959",
"$X c #F06546",
"%X c #F56C4A",
"&X c #F36C53",
"*X c #F27255",
"=X c #E37B65",
"-X c #E17C6D",
";X c #EC7762",
":X c #E97C6C",
">X c #ED7E71",
",X c #F17B67",
"<X c #F37B69",
"1X c #BA8375",
"2X c #C2807B",
"3X c #CE8A7C",
"4X c #D4887F",
"5X c #E48064",
"6X c #E18374",
"7X c #E38C7F",
"8X c #E88473",
"9X c #EB947B",
"0X c #F48572",
"qX c #F19377",
"wX c #F1987F",
"eX c #F1927B",
"rX c #B88C90",
"tX c #DFA191",
"yX c #DFA699",
"uX c #CCAFBC",
"iX c #D4A7AA",
"pX c #E09082",
"aX c #E69986",
"sX c #E99A84",
"dX c #EEA488",
"fX c #F4A084",
"gX c #FDAF92",
"hX c #FDB795",
"jX c #FDB89D",
"kX c #FDC2B3",
"lX c #FDD1B9",
"zX c #FDD8B6",
"xX c #FDD9BD",
"cX c #CCD6FB",
"vX c #CCD8FF",
"bX c #D0C4E1",
"nX c #D5C8E3",
"mX c #FDD4C6",
"MX c #FDDBCD",
"NX c #FDDFDC",
"BX c #E0C6E8",
"VX c #E8C5EA",
"CX c #FDE4D3",
"ZX c #FDE6DA",
"AX c #FDEBD6",
"SX c #FDEBDB",
"DX c #FDF0DE",
"FX c #FDEEE4",
"GX c #FDEEEC",
"HX c #FDE2E3",
"JX c #FDF1E3",
"KX c #FDF2EC",
"LX c #FDF1FE",
"PX c #FDF9F0",
"IX c #FDF8F9",
"UX c #FDF5F5",
"YX c None",
/* pixels */
"YX8 - - - - - - - - - - - - - - - - - - 4 5 YX",
"6 = cXLXLXLXLXLXLXLXLXLXLXLXLXLXLXLXLXLXcX: O ",
"# cXbXiXrX^._ _ ` ` ( / E E W I G R G ~ nXcX: ",
"+ LXuXtXsX9X9X6X6X-X-X=X=XW.E.R.U.J.5.b S LX% ",
"X LXrXdXhXqXqX8X>X:X;X#XOXOXOXoX Xd.s.m N LX% ",
"o LX{ 9XfX9X7XpX-X;X&X[.+XoXD.H.A.f.f.2.B LX& ",
"X LX[ qX9XaXkXCX^.=Xi.&XP.U Q CXjXf.>.4.i LX% ",
"+ LX_.0X-XpXmXKXAXT =X6.B.I DXAXlX}.e.8.f LX& ",
"@ LX) ,X>X].yXmXSXCXQ.L ~.SXSXAXJ.,.q.;.f LX& ",
"@ LX/ @X,X'.^.3XFXJXKXD FXSXAXn m n.m.<.v LX& ",
"@ LX/ XX@X.X=XI.] FXHXIXPXJXU 6.a.j.e.m i LX& ",
"@ LX^ P.@X@X@XoXF.' UXIXJX! 9.w.w.%.&.,.x LX* ",
"@ LXK P.*XXX X'.(.ZXKXKXKXAXD.a.t.h.z.q.f LX* ",
"@ LXH %X[.XX!._.FXJXZX1XCXJXZXT 3.h.%.q.j LX* ",
"$ LXK v.%XU.4XNXJXCX~.R /.AXFXSX7.*.z.:.y LX, ",
"% LXK n.p.L.CXFXSXR 5X5.Z.U SXAXzX>.&.O.s LX, ",
"% LXF C.[.L.kXMXF.T.2.m.{.7.A.xXhX0.#. .s LX, ",
"; LXF a.e.i.N.H.Z.}.b.M.t.l.w.f.*.#.%.X.r LX< ",
": LXV 1.w.v.C.6.u.a.c.j.x.k.t.$.g.%.o. .. LX6 ",
"7 LXP l q.| O.6.;.=.:.0.@.@.@.#.....} k C LX7 ",
"9 vXVXA t j p a a h h u f d g s s g y M nXvX9 ",
"q 9 vXLXLXLXLXLXLXLXLXLXLXLXLXLXLXLXLXLXvX9 2 ",
"YXq 9 1 1 1 1 1 1 1 1 1 1 1 1 1 < 1 1 1 9 2 YX"
};
