/* XPM */
static char *iconify-inactive[] = {
/* columns rows colors chars-per-pixel */
"23 23 35 1",
"  c #3B5E9C",
". c #3C619E",
"X c #3D63A2",
"o c #42639D",
"O c #4365A1",
"+ c #4167A9",
"@ c #446AA4",
"# c #456BAB",
"$ c #4867A5",
"% c #496AA5",
"& c #4A6DAC",
"* c #456DB1",
"= c #4A6EB1",
"- c #4E70AC",
"; c #4E78AE",
": c #4C72B3",
"> c #4F72B8",
", c #4B78B3",
"< c #5171AB",
"1 c #5778AF",
"2 c #5374B4",
"3 c #5275B8",
"4 c #5678B6",
"5 c #5678B9",
"6 c #5877B0",
"7 c #597AB5",
"8 c #5A7CBA",
"9 c #5E80BB",
"0 c #6182BD",
"q c #6485C0",
"w c #668DC2",
"e c #698BC2",
"r c #6F90C4",
"t c #7999CA",
"y c None",
/* pixels */
"y;;;1;;;;;;;;;;;<,<;;;y",
"@@rtttttttttttttttttr@@",
"@re06661<-<<<<<-<-&%rr@",
"@t0qq0008777444226=%%to",
"ot4eq0088888478422=&otO",
"$t7q0897741424442<&%Ot$",
"ot80008874223333>2=&ot$",
"ot288877542>>>>=2==&oto",
"Ot388855555>33>::=:=oto",
"Ot38887452>5::3=*==&oto",
"Ot35885455523>==,===otO",
"$t3558122>3>:>==>##&ot$",
"+t>585411245=::&*=*&ot+",
"$t=334411<2&5:5*:*=#ot+",
"&t=558ttttttt;:&,==&ot=",
"=t=>32ttttttt->&:#*+ t*",
"=t==3>ttttttt->,*#*XXt=",
"=t=:3=222222:,>:=*** t=",
"&t##===>>,>>==**#*#*.t,",
",t&#+&&&@##&##*#XXXX+t,",
",ewO.o.O........ .. wr,",
",;rtttttttttttttttttr,;",
"y>,:,,:>>,,,,>,,,,>,,:y"
};
