/* XPM */
static char * game_board_xpm[] = {
"16 16 17 1",
" 	c None",
".	c #444444",
"+	c #5B5B5B",
"@	c #6A6A6A",
"#	c #242424",
"$	c #020202",
"%	c #343434",
"&	c #656565",
"*	c #0D0D0D",
"=	c #1C1C1C",
"-	c #4D4C4C",
";	c #121212",
">	c #2B2B2B",
",	c #3B3B3B",
"'	c #535353",
")	c #7D7D7D",
"!	c #504F4F",
"                ",
"      .+        ",
"    @##$%&      ",
"    @*$$$=-     ",
"    #$$=;$>,    ",
"   ')%$*$$#,#   ",
"   >,=$$;$$'>!  ",
"  >$**$;;$$='#  ",
" ';$*$=.$$$$'>  ",
" >==%>+=$$$$>.& ",
" %$=! .$$$$$*'' ",
"  %- .$$$$$$$'- ",
"    !$$$$$$$$,& ",
"    #$*;*;*;;>& ",
"   '**;====##-& ",
"   +*$$$$$$$$$+ ",
};
