/* XPM */
static char * game_cards_xpm[] = {
"16 16 68 1",
" 	c None",
".	c #9A7875",
"+	c #AD9D9C",
"@	c #B6B6B6",
"#	c #9F7774",
"$	c #C6A9A7",
"%	c #858586",
"&	c #CBB5B3",
"*	c #BD8682",
"=	c #9B514B",
"-	c #984943",
";	c #CFA3A0",
">	c #D7B6B4",
",	c #D6BBB8",
"'	c #7C7C7C",
")	c #B56D68",
"!	c #863630",
"~	c #7F2F29",
"{	c #8A3B34",
"]	c #9C5A55",
"^	c #E7E9E9",
"/	c #D7D7D8",
"(	c #DEC1BF",
"_	c #DAD4D3",
":	c #879090",
"<	c #BC8D8A",
"[	c #88322B",
"}	c #86332D",
"|	c #893F39",
"1	c #8E423C",
"2	c #97544E",
"3	c #ECE2E1",
"4	c #9D9E9E",
"5	c #B5AFAF",
"6	c #FEFEFE",
"7	c #EEEEEE",
"8	c #B17C78",
"9	c #E9DCDA",
"0	c #F5F5F5",
"a	c #E3E3E3",
"b	c #C49995",
"c	c #893731",
"d	c #D9C1C0",
"e	c #FBE9EA",
"f	c #F5C6C9",
"g	c #C49B98",
"h	c #DD5E66",
"i	c #C60000",
"j	c #E16D73",
"k	c #EFB4B8",
"l	c #AF7672",
"m	c #832B24",
"n	c #A56E69",
"o	c #DB5159",
"p	c #EDF3F2",
"q	c #F1E4E3",
"r	c #F4CDCF",
"s	c #E58187",
"t	c #C9C9C9",
"u	c #D0B0AD",
"v	c #B4807C",
"w	c #D9BDBB",
"x	c #A4615C",
"y	c #DEDEDE",
"z	c #BA8985",
"A	c #E7D5D3",
"B	c #DAB0AC",
"C	c #959494",
"                ",
"      .+@#$     ",
"   %&*=-;>*,    ",
" '$)!~{~]^/(_   ",
":<[}|1!2345667% ",
" 8[11{196070066a",
" bc1|{d66ef66666",
" b=|[g666hijk666",
"  lmn6666jiio66p",
"  g{q6666rsf666t",
"  u]366666666664",
"   vc>666666666 ",
"   wxx>9666y@a7 ",
"    <3zxA66y'0% ",
"      8B  Ca69  ",
"                "};
