/* XPM */
static char * gnu_xpm[] = {
"16 16 83 1",
" 	c None",
".	c #010101",
"+	c #16120F",
"@	c #1D1A19",
"#	c #2C2C2C",
"$	c #312E2C",
"%	c #564B45",
"&	c #635B57",
"*	c #261F1C",
"=	c #5E544E",
"-	c #292522",
";	c #343333",
">	c #0B0B0B",
",	c #443D3A",
"'	c #92867F",
")	c #534F4B",
"!	c #23211F",
"~	c #615751",
"{	c #393536",
"]	c #141413",
"^	c #4A453E",
"/	c #272829",
"(	c #7A6B63",
"_	c #2A221E",
":	c #4C3C36",
"<	c #262524",
"[	c #3B362F",
"}	c #33312E",
"|	c #1A1515",
"1	c #58453C",
"2	c #453631",
"3	c #938D7B",
"4	c #857F6F",
"5	c #8C867F",
"6	c #8C7E6C",
"7	c #A1947D",
"8	c #7F7F7A",
"9	c #959392",
"0	c #454442",
"a	c #2F2C26",
"b	c #352C25",
"c	c #A19895",
"d	c #A19A87",
"e	c #625F5A",
"f	c #DDDCCF",
"g	c #9B9584",
"h	c #726B62",
"i	c #958974",
"j	c #C2BCB1",
"k	c #ABABA9",
"l	c #261B15",
"m	c #412B23",
"n	c #3D3D3B",
"o	c #D6D1C6",
"p	c #6C6455",
"q	c #ACAAA3",
"r	c #B3AA96",
"s	c #D3CFC2",
"t	c #C6C2B6",
"u	c #7D7567",
"v	c #B6B7B2",
"w	c #50504A",
"x	c #CCC1AB",
"y	c #817766",
"z	c #635B4E",
"A	c #8E908D",
"B	c #6B6B6B",
"C	c #9C988C",
"D	c #1B1917",
"E	c #070808",
"F	c #4F504C",
"G	c #6F6963",
"H	c #A1A39B",
"I	c #B4AC9B",
"J	c #A4A4A1",
"K	c #A9A08C",
"L	c #B0A190",
"M	c #3B3934",
"N	c #7C715D",
"O	c #92856D",
"P	c #585144",
"Q	c #726355",
"R	c #6B6159",
"                ",
" .+@#    #$%&#  ",
"+*=-;    >>+,') ",
"!~{  -]@*^/  *( ",
"_:< {-[$*<}< |1 ",
"*2!$34567890/a2 ",
" ,bcdefghijklm* ",
"  nopqrdstuv~_. ",
"  <w8t53xyz%).. ",
"   <A9BCrxuaDE. ",
"    FGqHsI^0E.  ",
"    nJHKL%M#..  ",
"     {NOP}n>.   ",
"     @QR||E.    ",
"      }M...     ",
"                "};
