/* XPM */
static char * image_viewer_xpm[] = {
"16 16 65 1",
" 	c None",
".	c #6F5B56",
"+	c #9B7E7C",
"@	c #987271",
"#	c #6C4244",
"$	c #49292C",
"%	c #241317",
"&	c #A3A3A3",
"*	c #CECDCD",
"=	c #7D7575",
"-	c #5D4243",
";	c #2D181C",
">	c #747474",
",	c #DFDFDF",
"'	c #EDEDED",
")	c #464646",
"!	c #1C0D11",
"~	c #AFAFAF",
"{	c #626262",
"]	c #5B5C5C",
"^	c #302D2D",
"/	c #BBBBBB",
"(	c #535353",
"_	c #201F1F",
":	c #6B6B6B",
"<	c #1C1C1C",
"[	c #B2B2B2",
"}	c #7B7B7B",
"|	c #8C8C8C",
"1	c #212121",
"2	c #343434",
"3	c #4B4B4B",
"4	c #979797",
"5	c #2A2A2A",
"6	c #0C0C0C",
"7	c #0D0806",
"8	c #474848",
"9	c #000000",
"0	c #393939",
"a	c #0B0605",
"b	c #1B0D0B",
"c	c #21110C",
"d	c #44332E",
"e	c #1B1E20",
"f	c #140F0D",
"g	c #231815",
"h	c #37231D",
"i	c #49261C",
"j	c #432016",
"k	c #51261A",
"l	c #5C2B1E",
"m	c #4E2217",
"n	c #B0826E",
"o	c #B7907F",
"p	c #A97663",
"q	c #A4644F",
"r	c #B1654C",
"s	c #C0684D",
"t	c #D27D64",
"u	c #C9674D",
"v	c #753423",
"w	c #653B2B",
"x	c #532A1C",
"y	c #642F21",
"z	c #30150E",
"                ",
"          .+@#$%",
"         &*=-$;%",
"        >,'&)!% ",
"        *'~{]^  ",
"       ~'/]](_  ",
"      :'/{((<   ",
"     (&[>](     ",
"    )}&])(      ",
"    |:1(2       ",
"   34567        ",
"   }8669 99     ",
"  007a9aa7bccb  ",
" de6aafghijklm  ",
"  nopqrstuv     ",
"   wwxxxlymz    "};
