/* XPM */
static char * home_xpm[] = {
"16 16 13 1",
" 	c None",
".	c #000000",
"+	c #CDD6CD",
"@	c #FFFFFF",
"#	c #CDD2C5",
"$	c #CDCEC5",
"%	c #83917B",
"&	c #C5CEC5",
"*	c #EEF2EE",
"=	c #A4B29C",
"-	c #7B8D73",
";	c #7B896A",
">	c #6A7962",
"          .     ",
"       . .+.    ",
"      .@..#.    ",
"     .@$%.&.    ",
"    .@*$=-$.    ",
"   .@**$$=;.    ",
"  .@**$$$$=%.   ",
" .@**$$$$$$=%.  ",
"...@*$$$$$$>... ",
"  .@*$$$$$$>.   ",
"  .@*...$$$>.   ",
"  .@*.$.$$$>.   ",
"  .@$.$.$$$>.   ",
"  .$>.>.>>>>.   ",
"  ...........   ",
"                "};
