/* XPM */
static char * information_xpm[] = {
"16 16 68 1",
" 	c None",
".	c #FEFEFD",
"+	c #E4E6EB",
"@	c #DBDDE3",
"#	c #ECEDF2",
"$	c #E3E3E4",
"%	c #9E9E9C",
"&	c #A3986E",
"*	c #9F9672",
"=	c #B0AB96",
"-	c #D7D7DB",
";	c #8D8B84",
">	c #DDCA85",
",	c #FFF7C9",
"'	c #FEFAC9",
")	c #FFEF9F",
"!	c #DCC97D",
"~	c #918970",
"{	c #BABABB",
"]	c #C5B77B",
"^	c #FFFAC5",
"/	c #F7F4EC",
"(	c #F7EDC5",
"_	c #FFEC95",
":	c #8D8A7E",
"<	c #AEAEAC",
"[	c #FBF3D3",
"}	c #F9F3E3",
"|	c #F6E697",
"1	c #EFDC86",
"2	c #92896A",
"3	c #B4B4B5",
"4	c #CBBB7A",
"5	c #F9F7F1",
"6	c #F4E6B1",
"7	c #F4E59C",
"8	c #EAD682",
"9	c #8C8463",
"0	c #A39B79",
"a	c #FBEFC5",
"b	c #F8E596",
"c	c #C1AF65",
"d	c #FCFBF5",
"e	c #E7D588",
"f	c #BFAF69",
"g	c #726B4D",
"h	c #59574B",
"i	c #AAA797",
"j	c #B0A57A",
"k	c #D1BD75",
"l	c #887C4D",
"m	c #75756F",
"n	c #CECED2",
"o	c #696A67",
"p	c #A3A3A2",
"q	c #898A8A",
"r	c #4B4A41",
"s	c #858583",
"t	c #5C5C5C",
"u	c #6F6F6B",
"v	c #525252",
"w	c #373736",
"x	c #949493",
"y	c #777776",
"z	c #010101",
"A	c #4A4A49",
"B	c #0A0A09",
"C	c #1B1B1A",
"                ",
"        .       ",
"     ..+@#..    ",
"    .$%&&*=-.   ",
"    #;>,')!~-.  ",
"   .{]^//(_!:.  ",
"   .<>[/}(|12+  ",
"   .34,5[6789#  ",
"    +0a/67bc;.  ",
"    d*6a7efg-.  ",
"     hijklmn.   ",
"     opqrs..    ",
"    ts<uv       ",
"    wx%vy       ",
"    wzAw        ",
"     BC         "};
