/* XPM */
static char * mail_xpm[] = {
"16 16 67 1",
" 	c None",
".	c #0B0B0B",
"+	c #1C1D1E",
"@	c #353534",
"#	c #2E2C14",
"$	c #151508",
"%	c #1D1F20",
"&	c #2B2A18",
"*	c #171718",
"=	c #5D5D5D",
"-	c #757575",
";	c #666964",
">	c #AEB3BA",
",	c #AAB0B4",
"'	c #A5AAAB",
")	c #9AA0A2",
"!	c #7E8386",
"~	c #070708",
"{	c #292A2A",
"]	c #363738",
"^	c #7B7C7B",
"/	c #9FA5B1",
"(	c #92989A",
"_	c #8B8C8C",
":	c #84898C",
"<	c #7E8388",
"[	c #797E81",
"}	c #242425",
"|	c #3B3D3E",
"1	c #121313",
"2	c #4B4D4D",
"3	c #636464",
"4	c #BDBA46",
"5	c #96944B",
"6	c #6A6F79",
"7	c #73787C",
"8	c #6B7177",
"9	c #6A6F74",
"0	c #60666B",
"a	c #666C72",
"b	c #777877",
"c	c #CFCFCF",
"d	c #939494",
"e	c #989233",
"f	c #464946",
"g	c #6F747B",
"h	c #5F646A",
"i	c #5B6166",
"j	c #424344",
"k	c #BBBBBB",
"l	c #575842",
"m	c #8E892F",
"n	c #4E5254",
"o	c #A1A4A5",
"p	c #C2C2C3",
"q	c #36383A",
"r	c #3E4246",
"s	c #3A3E44",
"t	c #272828",
"u	c #646A6E",
"v	c #2F3030",
"w	c #404448",
"x	c #595F63",
"y	c #242628",
"z	c #565C60",
"A	c #000000",
"B	c #1F2122",
"                ",
"                ",
" .+@####$%&%+%* ",
"=-;>,,,,,,')))!~",
"={]^/(((((_:<[!}",
"|1+2:3456!7890a+",
"bcd|!3efg00hhia+",
"jkc|0lmn0h00hha+",
"]opqhrs9h000ih8+",
"t3pqiauhhhh0ais~",
"vw,qihhh0a0nq1  ",
"@+_|i000xry~    ",
" @3si0z|A       ",
"  2jrB~         ",
"   1~           ",
"                "};
