/* XPM */
static char * default_xpm[] = {
"16 16 72 1",
" 	c None",
".	c #0D0D0D",
"+	c #777F7C",
"@	c #2D2D2D",
"#	c #1B1C1B",
"$	c #C1CEC9",
"%	c #FDFFFF",
"&	c #9AA5A1",
"*	c #A4A4A4",
"=	c #E4F5F1",
"-	c #C5D2CC",
";	c #212222",
">	c #070808",
",	c #5E6462",
"'	c #88918E",
")	c #646665",
"!	c #353736",
"~	c #9E967C",
"{	c #919090",
"]	c #848D89",
"^	c #949E9A",
"/	c #C9D6D1",
"(	c #D2E1DC",
"_	c #838A85",
":	c #ECFCF8",
"<	c #7B7D72",
"[	c #BEA256",
"}	c #FCE78B",
"|	c #FDD36D",
"1	c #917644",
"2	c #9FABA9",
"3	c #CCD9D3",
"4	c #585F5C",
"5	c #4F4D4E",
"6	c #444846",
"7	c #BAC6C3",
"8	c #BCC8C9",
"9	c #B8A669",
"0	c #FFFFA0",
"a	c #AE884B",
"b	c #5A5A51",
"c	c #2F3332",
"d	c #000000",
"e	c #444544",
"f	c #A7B3B2",
"g	c #857C5B",
"h	c #D4C16F",
"i	c #E0BB60",
"j	c #AE873F",
"k	c #5B482C",
"l	c #3D3D3C",
"m	c #A3AEA9",
"n	c #7B7C6F",
"o	c #615640",
"p	c #6D7572",
"q	c #E8F2EE",
"r	c #E6F5EF",
"s	c #B4BFBA",
"t	c #A4B0AB",
"u	c #B0BBB6",
"v	c #ABB7B2",
"w	c #99A39E",
"x	c #555C59",
"y	c #DBE9E3",
"z	c #131413",
"A	c #514E50",
"B	c #747273",
"C	c #171918",
"D	c #515453",
"E	c #7E8582",
"F	c #B6C3BD",
"G	c #EBF9F4",
"                ",
"       .+@      ",
"      #$%&.     ",
"      *%=-#;>>  ",
" ,')!#~~{]^/(/] ",
" _%%:<[}|12(-345",
"  67890}|ab2'cd ",
"   efghijklcd@  ",
" ;m:%7nokbp,;l  ",
"6q%:rs(:-tuvupd ",
"w=7mxd7%&;]8$ypz",
".Al;5B7r&C DE_C)",
"     eFGwC      ",
"      Dy,;      ",
"       !;       ",
"                "};
