/* XPM */
static char * printing_xpm[] = {
"16 16 33 1",
" 	c None",
".	c #BDBCBD",
"+	c #DCDCDC",
"@	c #B5B4B5",
"#	c #858585",
"$	c #6C6C6C",
"%	c #525252",
"&	c #434343",
"*	c #3C3C3C",
"=	c #8A8A8A",
"-	c #BEC2BA",
";	c #CCCCCC",
">	c #F3F3F3",
",	c #E8E8E8",
"'	c #D4D4D4",
")	c #959595",
"!	c #636363",
"~	c #E4E4E4",
"{	c #FAFAFA",
"]	c #474847",
"^	c #A9A9A9",
"/	c #9D9E9D",
"(	c #717171",
"_	c #A0A0A0",
":	c #5D5D5D",
"<	c #C7C6C8",
"[	c #CFD5CA",
"}	c #DFEBD6",
"|	c #AEBBA3",
"1	c #4B4B4B",
"2	c #353535",
"3	c #C4C4C4",
"4	c #2A2A2A",
"                ",
"                ",
"                ",
"                ",
"      .+@#$%    ",
"   &*=-;>>,')%! ",
"'~{>')!]]$)^=@/!",
",,++~>>+@#(_):&&",
"~++';;<[}+/:&]%*",
"'+'';<<-|/]]1112",
"+~';<3..@^1&1]4 ",
"(/3;'<.@@_&1*   ",
"    $)^@@/&4    ",
"        $$      ",
"                ",
"                "};
