/* XPM */
static char * wm_restart_xpm[] = {
"16 16 68 1",
" 	c None",
".	c #464646",
"+	c #7D7C7C",
"@	c #6C6C6D",
"#	c #6F6F71",
"$	c #2D3D3D",
"%	c #A90101",
"&	c #B5B5B5",
"*	c #BBBABA",
"=	c #C5C4C4",
"-	c #5B6E6E",
";	c #750000",
">	c #FF0101",
",	c #D10000",
"'	c #A3A3A3",
")	c #DDDDDE",
"!	c #4F6262",
"~	c #790101",
"{	c #CE0000",
"]	c #727272",
"^	c #8D8D8D",
"/	c #949495",
"(	c #C40101",
"_	c #D6D6D5",
":	c #636363",
"<	c #C9C9C9",
"[	c #E70304",
"}	c #273535",
"|	c #4A5656",
"1	c #4C4B4C",
"2	c #4F4F47",
"3	c #28281E",
"4	c #2A2A50",
"5	c #323270",
"6	c #393971",
"7	c #323E7B",
"8	c #142238",
"9	c #9797BC",
"0	c #BABAFE",
"a	c #B0B0EF",
"b	c #B2B2F2",
"c	c #AFAFF2",
"d	c #B8B5FF",
"e	c #57546F",
"f	c #2E2E5A",
"g	c #7E7E9C",
"h	c #9A9AB3",
"i	c #9494AE",
"j	c #91919C",
"k	c #DADAC8",
"l	c #62625D",
"m	c #5F688B",
"n	c #A8A6FF",
"o	c #8B8BE3",
"p	c #8E8EEE",
"q	c #6F6FA6",
"r	c #696565",
"s	c #657974",
"t	c #CFCFC2",
"u	c #D2D2C5",
"v	c #95958D",
"w	c #292928",
"x	c #6C7F81",
"y	c #EAE6E9",
"z	c #D5D5D8",
"A	c #E5E5E8",
"B	c #324242",
"C	c #5F5F5F",
"                ",
" .+@@##@+$ %    ",
" +&&*&*&=-;>,   ",
" #')))))*!~>>{  ",
" ]&^///^*- ~(>  ",
" #'_____&:   >% ",
" +==<<<=<#   [( ",
" }|1111123   ~~ ",
" ~;     4566678 ",
" ([     90abcde ",
" %>    fghiijkl ",
"  >(~ mnooopq_r ",
"  {>>~sktutkv.w ",
"   ,>~xyzzzA/   ",
"    % BreCC:.   ",
"                "};
