/* XPM */
static char * todo_xpm[] = {
"16 16 73 1",
" 	c None",
".	c #3D1313",
"+	c #6B2B2A",
"@	c #7B302F",
"#	c #722728",
"$	c #4A1A19",
"%	c #8D3636",
"&	c #C54C4D",
"*	c #C54847",
"=	c #C14341",
"-	c #A43232",
";	c #AB4041",
">	c #C04748",
",	c #B44242",
"'	c #AF3B3A",
")	c #AB3434",
"!	c #B13635",
"~	c #460B0B",
"{	c #C84346",
"]	c #B33A3D",
"^	c #B83C3D",
"/	c #9C2F2E",
"(	c #8B2625",
"_	c #361112",
":	c #864242",
"<	c #884343",
"[	c #823C3C",
"}	c #A43938",
"|	c #A32F2F",
"1	c #591919",
"2	c #752525",
"3	c #676968",
"4	c #717979",
"5	c #454342",
"6	c #772927",
"7	c #511515",
"8	c #501718",
"9	c #531B1B",
"0	c #923435",
"a	c #7B2B2A",
"b	c #757575",
"c	c #4C4040",
"d	c #711C1C",
"e	c #621D1C",
"f	c #852A2A",
"g	c #455150",
"h	c #555E5D",
"i	c #3D3837",
"j	c #992424",
"k	c #832626",
"l	c #552C2D",
"m	c #592728",
"n	c #932D2D",
"o	c #8B2A2B",
"p	c #6D2324",
"q	c #7B2121",
"r	c #942222",
"s	c #8A1C1D",
"t	c #5A1213",
"u	c #9D312E",
"v	c #7F1A1B",
"w	c #8B1F20",
"x	c #861817",
"y	c #530B0B",
"z	c #B63837",
"A	c #671413",
"B	c #821415",
"C	c #BC3937",
"D	c #BA3738",
"E	c #79100F",
"F	c #1A0505",
"G	c #310F0F",
"H	c #230B0B",
"                ",
"      .+@#$     ",
"     %&&*==-$   ",
"    ;>,;''))!~  ",
"   %{]^')--//(  ",
"  _;:<[}))-|/-1 ",
"  2%3456789$77. ",
"00)a3bc9        ",
"def6ghi9        ",
"j(akllm1  8no0p ",
"(6qjrsrt  e-u)8 ",
"kvvwsvxyeon-zu  ",
"    ABByp/|CD   ",
"     ~Ey2|-o    ",
"       FG.H     ",
"                "};
