/* XPM */
static char * video_xpm[] = {
"16 16 37 1",
" 	c None",
".	c #D4D4D4",
"+	c #BABABA",
"@	c #CCCCCC",
"#	c #3B3C3C",
"$	c #6F746F",
"%	c #FCFCFC",
"&	c #A8A7A7",
"*	c #242424",
"=	c #333534",
"-	c #070808",
";	c #E3E3E3",
">	c #B3B3B3",
",	c #605F5F",
"'	c #C3C3C3",
")	c #9A9A9A",
"!	c #434443",
"~	c #535352",
"{	c #5B5C5C",
"]	c #2B2B2B",
"^	c #ABACAC",
"/	c #8B8B8B",
"(	c #7A7A7A",
"_	c #494946",
":	c #50504F",
"<	c #838483",
"[	c #A3A3A3",
"}	c #DBDBDB",
"|	c #626162",
"1	c #4B4646",
"2	c #6C6C6C",
"3	c #929392",
"4	c #494B4A",
"5	c #9E7C82",
"6	c #9BA19D",
"7	c #EDEDED",
"8	c #737273",
"                ",
"                ",
"  .+@#  $@%&*=- ",
"  ;>;@ ,.')*!~{]",
"  ^/(;!/>%(  _{:",
"  <[/)]^^}|  122",
"  3;%)  <>| *=)<",
"  +&.,      #~'4",
" 5<<>      (&/3 ",
" <$6/     ^>[.{ ",
"<)/7      [3@/  ",
"+>&^_  ]+>&@<   ",
"[+3.(&()/(;}    ",
" 2.%/<.%%}8     ",
"     *{+3       ",
"                "};
