/* XPM */
static char * window_delete_xpm[] = {
"16 16 4 1",
" 	c None",
".	c #808080",
"+	c #070505",
"@	c #000000",
"                ",
"                ",
"                ",
"   .++    @+.   ",
"   .++    @++.  ",
"    .++  @+++.  ",
"     .++@+++.   ",
"      +++++.    ",
"       ++++     ",
"      @+++++    ",
"     @+..++++   ",
"    @+..  ++++  ",
"   @+.     +++  ",
"   ..       +   ",
"                ",
"                "};
