/* XPM */
static char * window_close_xpm[] = {
"16 16 26 1",
" 	c None",
".	c #737173",
"+	c #414441",
"@	c #94918B",
"#	c #B4B6B4",
"$	c #000000",
"%	c #393839",
"&	c #E6E6DE",
"*	c #181010",
"=	c #4A2C31",
"-	c #94595A",
";	c #625552",
">	c #BDBAB4",
",	c #626562",
"'	c #CDCAC5",
")	c #291818",
"!	c #7B4041",
"~	c #83484A",
"{	c #8B5052",
"]	c #A46162",
"^	c #C5797B",
"/	c #AC6D73",
"(	c #52504A",
"_	c #8B8D83",
":	c #181818",
"<	c #BDBEB4",
"                ",
"      .+++++++. ",
"      +@#####$+ ",
"      %#&&&&&$+ ",
"      %#&&&&&$+ ",
"     **#&&&&&$+ ",
" +++%=-;&>,''$+ ",
" )!~{]^/(_:<<$+ ",
" )!~{]^/(&&&&$+ ",
" +++%=-;&&&&&$+ ",
"     **#&&&&&$+ ",
"      %#&&&&&$+ ",
"      %#&&&&&$+ ",
"      +@#####$+ ",
"      .+++++++. ",
"                "};
