/* XPM */
static char * windows_xpm[] = {
"16 16 27 1",
" 	c None",
".	c #6B6664",
"+	c #5C5556",
"@	c #565555",
"#	c #252825",
"$	c #2B2C2A",
"%	c #B2A8A6",
"&	c #746C68",
"*	c #62635F",
"=	c #656562",
"-	c #5D5C5B",
";	c #71736F",
">	c #3D423D",
",	c #242524",
"'	c #C2C3C2",
")	c #DCDDDD",
"!	c #F3F4F4",
"~	c #4F534F",
"{	c #FEFDFE",
"]	c #D4D3D3",
"^	c #282728",
"/	c #EEF2EE",
"(	c #0F110F",
"_	c #0A0A0A",
":	c #D6D8D6",
"<	c #E3E5E4",
"[	c #111312",
"                ",
"    .++@@@@@@@+#",
"   $%&.**==**-;>",
"   ,')))))))))!~",
"  .++@@@@@@+#{{~",
" $%&.**==**;>{{~",
" ,'))))))))!~{{~",
" ,]{{{{{{{{{~{{~",
" ,]{{{{{{{{{~{{~",
" ,]{{{{{{{{{~{{~",
" ^]{{{{{{{{{~{/~",
" $]{{{{{{{{{~((_",
" ^]{{{{{{{{{~   ",
" ^]]]]]:<<</~   ",
"  $___([((((_   ",
"                "};
