/* XPM */
static char * www_xpm[] = {
"16 16 125 2",
"  	c None",
". 	c #3F617B",
"+ 	c #637B72",
"@ 	c #728067",
"# 	c #606E54",
"$ 	c #2E3829",
"% 	c #2D5986",
"& 	c #A3BECB",
"* 	c #CCD3C2",
"= 	c #859EA5",
"- 	c #949E8E",
"; 	c #999C82",
"> 	c #A3A37B",
", 	c #838054",
"' 	c #38638D",
") 	c #D2E5E6",
"! 	c #FFFFDD",
"~ 	c #FFFFE3",
"{ 	c #E2E8CB",
"] 	c #BCC8C3",
"^ 	c #C8C498",
"/ 	c #E5D9A3",
"( 	c #C7C08B",
"_ 	c #958855",
": 	c #6495BE",
"< 	c #FFF9C9",
"[ 	c #FFFFEA",
"} 	c #D0D4AE",
"| 	c #EAE5A5",
"1 	c #BFB787",
"2 	c #A09869",
"3 	c #4C4A38",
"4 	c #9DB1A1",
"5 	c #B9CAAB",
"6 	c #DBE0B4",
"7 	c #D0DFB4",
"8 	c #FAF0B8",
"9 	c #C7BD98",
"0 	c #B6B488",
"a 	c #445051",
"b 	c #606049",
"c 	c #0D0E0E",
"d 	c #376390",
"e 	c #4F89C1",
"f 	c #4983BE",
"g 	c #7194A4",
"h 	c #99B486",
"i 	c #9AAD84",
"j 	c #C0B588",
"k 	c #D9C089",
"l 	c #BAAC83",
"m 	c #4A5A65",
"n 	c #6E7267",
"o 	c #4E4E4D",
"p 	c #315C89",
"q 	c #497CAC",
"r 	c #6A8DA7",
"s 	c #DAC9A0",
"t 	c #D2BC8B",
"u 	c #7D7D7D",
"v 	c #9E9C94",
"w 	c #A0997B",
"x 	c #A5A39B",
"y 	c #8F8E8B",
"z 	c #264C73",
"A 	c #4474A9",
"B 	c #3B6B9C",
"C 	c #7D949E",
"D 	c #EAD9A5",
"E 	c #B0A878",
"F 	c #52656F",
"G 	c #A9A397",
"H 	c #8B8983",
"I 	c #CDCAC2",
"J 	c #888681",
"K 	c #515151",
"L 	c #12263C",
"M 	c #36669A",
"N 	c #2F5C8A",
"O 	c #6A8392",
"P 	c #F4E1A4",
"Q 	c #C1B982",
"R 	c #6C7A6D",
"S 	c #5C696D",
"T 	c #969185",
"U 	c #ABA9A2",
"V 	c #D2CFCA",
"W 	c #474748",
"X 	c #1E3E63",
"Y 	c #2A5582",
"Z 	c #31587B",
"` 	c #B9B291",
" .	c #928973",
"..	c #234265",
"+.	c #A3A097",
"@.	c #B7B5AF",
"#.	c #DCD9D4",
"$.	c #424242",
"%.	c #05090E",
"&.	c #203753",
"*.	c #224675",
"=.	c #1D4274",
"-.	c #1E3D5F",
";.	c #3B556A",
">.	c #B1AFA9",
",.	c #C9C7C2",
"'.	c #E4E2DF",
").	c #132236",
"!.	c #1D3756",
"~.	c #415A6C",
"{.	c #A7A7A7",
"].	c #C0BEB9",
"^.	c #EBEAE6",
"/.	c #9A9998",
"(.	c #000000",
"_.	c #292A2A",
":.	c #D7D5CF",
"<.	c #E7E5E1",
"[.	c #FFFFFF",
"}.	c #232322",
"|.	c #646362",
"1.	c #6B6A6A",
"2.	c #575857",
"3.	c #5C5C5C",
"4.	c #363636",
"                                ",
"          . + @ # $             ",
"      % & * = - ; > ,           ",
"    ' ) ! ~ { ] ^ / ( _         ",
"    : < ! ~ ! [ } | 1 2 3       ",
"  % : 4 5 6 7 8 9 ^ 0 a b c     ",
"  d e f g h i j k l m m n o o   ",
"  p q q r s t l 2 u v w x } y   ",
"  z A B C D 1 E F q G H x I J K ",
"  L M N O P Q R S T J v U V H W ",
"    X Y Z `  ...m +.x U @.#.y $.",
"    %.&.*.=.X -.;.U v >.,.'.y $.",
"      %.).!.X &.~.{.J ].V ^./.$.",
"          (.%.%._.,.:.'.<.[.{.$.",
"              (.}.|.1.# 2.3.4.$.",
"                      3.K $.$.  "};
