/* XPM */
static char * mutt8_xpm[] = {
"52 52 51 1",
" 	c None",
".	c #FFFFFF",
"+	c #EFFBFF",
"@	c #FFFBFF",
"#	c #EFEBEF",
"$	c #FFEFEF",
"%	c #EFDBEF",
"&	c #E7E3E7",
"*	c #DFEBDF",
"=	c #DFDBDF",
"-	c #EFDBDF",
";	c #DFCBDF",
">	c #E7CFC7",
",	c #CFD7CF",
"'	c #CFCBCF",
")	c #595551",
"!	c #EFEBFF",
"~	c #714159",
"{	c #DFBACF",
"]	c #BEBEAE",
"^	c #DFEBEF",
"/	c #000000",
"(	c #494549",
"_	c #383430",
":	c #CF5D59",
"<	c #202828",
"[	c #413849",
"}	c #FF9A71",
"|	c #9E5961",
"1	c #202020",
"2	c #103020",
"3	c #C79AAE",
"4	c #AEAAAE",
"5	c #9EA2B6",
"6	c #797161",
"7	c #716171",
"8	c #303441",
"9	c #617161",
"0	c #AE9AAE",
"a	c #808080",
"b	c #616979",
"c	c #9E9AAE",
"d	c #C0C0C0",
"e	c #BFBF00",
"f	c #616161",
"g	c #BF00BF",
"h	c #FF00FF",
"i	c #FF0000",
"j	c #201020",
"k	c #BF0000",
"l	c #595961",
"                                                    ",
"                                                    ",
"                                                    ",
"                                                    ",
"    .+@+@+@+@+@+@+@+@+@+@+@+@+@+@+@+@+@+@+@+@       ",
"    #$#$###%#%&%&%*%=%=-===-===;=;>;>;,;';'>+)      ",
"    !~~{~]~~#^#^#*%*%*&*==&*=====,=,=;,;';>,+/(     ",
"    #$######&%&%*%*%*-=-=-======>;>;,,_:::<>+/[(    ",
"    !~~~#~#~~^#*%*%*&*&=&*=====,=,=,;;}>)|:'+/1[    ",
"    ######&%&%*%*%*-=-=-======>;>;,;,,}<~:_>+/1(    ",
"    #~~~#~#~~~~*%*&*&*&*=====,=,=,;,;;:<<(:,+/1[    ",
"    #$##&%&%&%&%*-=-=-======>;>;>;>;,,<<<<2'+/1(    ",
"    !######^%^%*%*%*&*==&======,;,;,,,;,,,''+/1[    ",
"    ###%#%&%&%*%=%=-=======;=;>;>;,;';'>''';+/1[    ",
"    #^###^#^#]3*%4&4=5&*=,===,=,=,;,,,,,'''=+/1[    ",
"    ####&%&%*/67,>689/'7_7==>;>;,;,;,>'>'>'=+/1[    ",
"    ###^#^#*&*&*&*&*&*&*&==,=,=,;,;,,,,',''=+/1[    ",
"    ##&%&%*%*79-=840_==_=0>/>a,;,;,>'''>''';+/1[    ",
"    #^#^#*%*%b,b85/,8_7/=90/=/c,;,,,',,,']'=+/1[    ",
"    &%&%*%*%=-=-=-=-=-=-=-=/=/a;,>'>'>'''',=+/1[    ",
"    #^#*%*%*&b;/4,8,4,75/,/ded/_,9;_,,'''';=+/1[    ",
"    &%*%*%*-=79>9497_7,a/;/ded/_fff_''']'',;+/1[    ",
"    #*%*%*&*&*&*&====,=//,/ded/a,,,,'''''],=+/1[    ",
"    &%&%*-=-=-======>;>a//adada/'>'''''']],=+/1[    ",
"    %^%*%*%*&*==&======/ddddddd/a,''''']'];=+/18    ",
"    &%*%=%=-=======;=;,;/d/dddda/'''';,;';,;+/18    ",
"    #*%*%*&*===*=,===,==/d/ddddd/a===,===,==+/18    ",
"    +++++++++++++++a////dddddddda/+++++++++++/1[    ",
"    ////////////////g///ddddddddda////////////18    ",
"     (1111111111111/ghd/ddddddddaai/1111111j1j[8    ",
"       (((((((((([(//gg/dddddddaaik///a[[8[8[8[l    ",
"                   a///ddddddaaaikad/kk//a          ",
"                    /a/////aaa/ikadda//kk//a        ",
"                    /d/ddda///kkadddda///ad/a       ",
"                    /a/dddddda/adddddddddddd/a      ",
"                     //ddddddddddddddddddddddd/     ",
"                      a/ddddadddddddddddddda/dd/    ",
"                       /dadd///adddaddddddaa//dd//a ",
"                        //dd/aa//ad/aaddddaa/ /a    ",
"                         a//aaaa///aaaadddaa/       ",
"                          a/aaaa/    a/ddda/a       ",
"                           a//aa/     a/dda/        ",
"                             a//       a/adaa       ",
"                                         /dd/a      ",
"                                       a//dda/      ",
"                                      addddda/      ",
"                                   a a/ddddda/a a   ",
"                                a a a /ddadaa/ a a  ",
"                               a a a aa///////a a a ",
"                                                    ",
"                                                    ",
"                                                    "};
