/* XPM */
static char * mutt2_xpm[] = {
"52 52 51 1",
" 	c None",
".	c #FFFFFF",
"+	c #EFFBFF",
"@	c #FFFBFF",
"#	c #EFEBEF",
"$	c #FFEFEF",
"%	c #EFDBEF",
"&	c #E7E3E7",
"*	c #DFEBDF",
"=	c #DFDBDF",
"-	c #EFDBDF",
";	c #DFCBDF",
">	c #E7CFC7",
",	c #CFD7CF",
"'	c #CFCBCF",
")	c #595551",
"!	c #EFEBFF",
"~	c #714159",
"{	c #DFBACF",
"]	c #BEBEAE",
"^	c #DFEBEF",
"/	c #000000",
"(	c #494549",
"_	c #383430",
":	c #CF5D59",
"<	c #202828",
"[	c #413849",
"}	c #FF9A71",
"|	c #9E5961",
"1	c #202020",
"2	c #103020",
"3	c #C79AAE",
"4	c #AEAAAE",
"5	c #9EA2B6",
"6	c #797161",
"7	c #716171",
"8	c #303441",
"9	c #617161",
"0	c #AE9AAE",
"a	c #808080",
"b	c #616979",
"c	c #9E9AAE",
"d	c #C0C0C0",
"e	c #BFBF00",
"f	c #616161",
"g	c #BF00BF",
"h	c #FF0000",
"i	c #FF00FF",
"j	c #201020",
"k	c #BF0000",
"l	c #595961",
"                                                    ",
"                                                    ",
"                                                    ",
"                                                    ",
"    .+@+@+@+@+@+@+@+@+@+@+@+@+@+@+@+@+@+@+@+@       ",
"    #$#$###%#%&%&%*%=%=-===-===;=;>;>;,;';'>+)      ",
"    !~~{~]~~#^#^#*%*%*&*==&*=====,=,=;,;';>,+/(     ",
"    #$######&%&%*%*%*-=-=-======>;>;,,_:::<>+/[(    ",
"    !~~~#~#~~^#*%*%*&*&=&*=====,=,=,;;}>)|:'+/1[    ",
"    ######&%&%*%*%*-=-=-======>;>;,;,,}<~:_>+/1(    ",
"    #~~~#~#~~~~*%*&*&*&*=====,=,=,;,;;:<<(:,+/1[    ",
"    #$##&%&%&%&%*-=-=-======>;>;>;>;,,<<<<2'+/1(    ",
"    !######^%^%*%*%*&*==&======,;,;,,,;,,,''+/1[    ",
"    ###%#%&%&%*%=%=-=======;=;>;>;,;';'>''';+/1[    ",
"    #^###^#^#]3*%4&4=5&*=,===,=,=,;,,,,,'''=+/1[    ",
"    ####&%&%*/67,>689/'7_7==>;>;,;,;,>'>'>'=+/1[    ",
"    ###^#^#*&*&*&*&*&*&*&==,=,=,;,;,,,,',''=+/1[    ",
"    ##&%&%*%*79-=840_==a=/>;>8,;,;,>'''>''';+/1[    ",
"    #^#^#*%*%b,b85/,8_7/=/0/=_c,;,,,',,,']'=+/1[    ",
"    &%&%*%*%=-=-=-=-=-a/=/=-=-,;,>'>'>'''',=+/1[    ",
"    #^#*%*%*&b;/4,8,4,/ded/*/,7_,9;_,,'''';=+/1[    ",
"    &%*%*%*-=79>9497_7/ded/_/a__fff_''']'',;+/1[    ",
"    #*%*%*&*&*&*&====a/ded/,//,,,,,,'''''],=+/1[    ",
"    &%&%*-=-=-======>/adada//a'>'>'''''']],=+/1[    ",
"    %^%*%*%*&*==&===a/ddddddd/;,,,''''']'];=+/18    ",
"    &%*%=%=-=======;/adddd/d/;'>''''';,;';,;+/18    ",
"    #*%*%*&*===*=,=a/ddddd/d/,===,===,===,==+/18    ",
"    +++++++++++++++/adddddddd////a+++++++++++/1[    ",
"    ///////////////addddddddd///g/////////////18    ",
"     (11111111111/haadddddddd/dig/111111111j1j[8    ",
"       (((((((a///khaaddddddd/gg//[[[[[[[8[8[8[l    ",
"           a//kk/dakhaaadddddd///a                  ",
"         a//kk//addakh/aaa/////a/                   ",
"        a/da///addddakk///addd/d/                   ",
"       a/dddddddddddda/adddddd/a/                   ",
"      /ddddddddddddddddddddddd//                    ",
"     /dd/addddddddddddddadddd/a                     ",
"  a//dd//aaddddddaddda///ddad/                      ",
"     a/ /aaddddaa/da//aa/dd//                       ",
"        /aadddaaaa///aaaa//a                        ",
"        a/addd/a    /aaaa/a                         ",
"         /add/a     /aa//a                          ",
"        aada/a       //a                            ",
"       a/dd/                                        ",
"       /add//a                                      ",
"       /addddda                                     ",
"    a a/addddd/a a                                  ",
"   a a /aadadd/ a a a                               ",
"  a a a///////aa a a a                              ",
"                                                    ",
"                                                    ",
"                                                    "};
