/* XPM */
static char * mutt3_xpm[] = {
"52 52 51 1",
" 	c None",
".	c #FFFFFF",
"+	c #EFFBFF",
"@	c #FFFBFF",
"#	c #EFEBEF",
"$	c #FFEFEF",
"%	c #EFDBEF",
"&	c #E7E3E7",
"*	c #DFEBDF",
"=	c #DFDBDF",
"-	c #EFDBDF",
";	c #DFCBDF",
">	c #E7CFC7",
",	c #CFD7CF",
"'	c #CFCBCF",
")	c #595551",
"!	c #EFEBFF",
"~	c #714159",
"{	c #DFBACF",
"]	c #BEBEAE",
"^	c #DFEBEF",
"/	c #000000",
"(	c #494549",
"_	c #383430",
":	c #CF5D59",
"<	c #202828",
"[	c #413849",
"}	c #FF9A71",
"|	c #9E5961",
"1	c #202020",
"2	c #103020",
"3	c #C79AAE",
"4	c #AEAAAE",
"5	c #9EA2B6",
"6	c #797161",
"7	c #716171",
"8	c #303441",
"9	c #617161",
"0	c #AE9AAE",
"a	c #616979",
"b	c #9E9AAE",
"c	c #BFBF00",
"d	c #C0C0C0",
"e	c #616161",
"f	c #808080",
"g	c #BF00BF",
"h	c #FF0000",
"i	c #FF00FF",
"j	c #201020",
"k	c #BF0000",
"l	c #595961",
"                                                    ",
"                                                    ",
"                                                    ",
"                                                    ",
"    .+@+@+@+@+@+@+@+@+@+@+@+@+@+@+@+@+@+@+@+@       ",
"    #$#$###%#%&%&%*%=%=-===-===;=;>;>;,;';'>+)      ",
"    !~~{~]~~#^#^#*%*%*&*==&*=====,=,=;,;';>,+/(     ",
"    #$######&%&%*%*%*-=-=-======>;>;,,_:::<>+/[(    ",
"    !~~~#~#~~^#*%*%*&*&=&*=====,=,=,;;}>)|:'+/1[    ",
"    ######&%&%*%*%*-=-=-======>;>;,;,,}<~:_>+/1(    ",
"    #~~~#~#~~~~*%*&*&*&*=====,=,=,;,;;:<<(:,+/1[    ",
"    #$##&%&%&%&%*-=-=-======>;>;>;>;,,<<<<2'+/1(    ",
"    !######^%^%*%*%*&*==&======,;,;,,,;,,,''+/1[    ",
"    ###%#%&%&%*%=%=-=======;=;>;>;,;';'>''';+/1[    ",
"    #^###^#^#]3*%4&4=5&*=,===,=,=,;,,,,,'''=+/1[    ",
"    ####&%&%*/67,>689/'7_7==>;>;,;,;,>'>'>'=+/1[    ",
"    ###^#^#*&*&*&*&*&*&*&==,=,=,;,;,,,,',''=+/1[    ",
"    ##&%&%*%*79-=840_==_=0>;>8,;,;,>'''>''';+/1[    ",
"    #^#^#*%*%a,a85/,8_7/=9//=_b,;,,,',,,']'=+/1[    ",
"    &%&%*%*%=-=-=-=-=-=-=-=-//,;,>'>'>'''',=+/1[    ",
"    #^#*%*%*&a;/4,8,4,75=,7*cd/_,/;_,,'''';=+/1[    ",
"    &%*%*%*-=79>9497_7,/e;9/dcd/e/f_''']'',;+/1[    ",
"    #*%*%*&*&*&*&====,=,&,f/dcd/,//,'''''],=+/1[    ",
"    &%&%*-=-=-======>;>;>;/fdfdf//f''''']],=+/1[    ",
"    %^%*%*%*&*==&======,;f/ddddddd/'''']'];=+/18    ",
"    &%*%=%=-=======;=;,;>/fdddd/d/''';,;';,;+/18    ",
"    #*%*%*&ff/f*=,===,==f/ddddd/d/===,===,==+/18    ",
"    ++++++ffdddf++++++++/fdddddddd////f++++++/1[    ",
"    /////ff//fdd////////fddddddddd///g////////18    ",
"     (1111111/fddf1111/hffdddddddd/dig/1111j1j[8    ",
"       ((((((f/dd//////khffddddddd/gg//[[8[8[8[l    ",
"            ///ddf/kkk/fkhfffdddddd///f             ",
"           /ff/fddf//fddfkh/fffdddf/f/              ",
"          /fdfffdddddddddfkh/fffff/d/f              ",
"         /fdddfdddddddddddfk//f////f/               ",
"        /ffddddddddddddddddfk//fdd///               ",
"       ffdddddddddfdddddddf///fdf/ ///f             ",
"        /fdddfddddffdddddddf/fdd/d /f /             ",
"        f///f/fddf/ffddffdddfddff f/d /             ",
"         /fffd/ff///ffff//fdddd/ d// d/             ",
"          /dddf///f/////f f/ddff /ff /f             ",
"           /// fffd/       f/f/dd// d/              ",
"                ///f        f// /f/ /f              ",
"                             f/ff //f               ",
"                                                    ",
"                                                    ",
"                                                    ",
"        f f f f f f f f f f                         ",
"       f f f f f f f f f f f                        ",
"                                                    ",
"                                                    ",
"                                                    "};
