/* XPM */
static char * muttC_xpm[] = {
"52 52 52 1",
" 	c None",
".	c #FFFFFF",
"+	c #EFFBFF",
"@	c #FFFBFF",
"#	c #EFEBEF",
"$	c #FFEFEF",
"%	c #EFDBEF",
"&	c #E7E3E7",
"*	c #DFEBDF",
"=	c #DFDBDF",
"-	c #EFDBDF",
";	c #DFCBDF",
">	c #E7CFC7",
",	c #CFD7CF",
"'	c #CFCBCF",
")	c #595551",
"!	c #EFEBFF",
"~	c #714159",
"{	c #DFBACF",
"]	c #BEBEAE",
"^	c #DFEBEF",
"/	c #000000",
"(	c #494549",
"_	c #383430",
":	c #CF5D59",
"<	c #202828",
"[	c #413849",
"}	c #FF9A71",
"|	c #9E5961",
"1	c #202020",
"2	c #103020",
"3	c #C79AAE",
"4	c #AEAAAE",
"5	c #9EA2B6",
"6	c #797161",
"7	c #716171",
"8	c #303441",
"9	c #617161",
"0	c #AE9AAE",
"a	c #808080",
"b	c #616979",
"c	c #9E9AAE",
"d	c #C0C0C0",
"e	c #616171",
"f	c #BFBF00",
"g	c #616161",
"h	c #BF00BF",
"i	c #201020",
"j	c #FF00FF",
"k	c #FF0000",
"l	c #595961",
"m	c #BF0000",
"                                                    ",
"                                                    ",
"                                                    ",
"                                                    ",
"    .+@+@+@+@+@+@+@+@+@+@+@+@+@+@+@+@+@+@+@+@       ",
"    #$#$###%#%&%&%*%=%=-===-===;=;>;>;,;';'>+)      ",
"    !~~{~]~~#^#^#*%*%*&*==&*=====,=,=;,;';>,+/(     ",
"    #$######&%&%*%*%*-=-=-======>;>;,,_:::<>+/[(    ",
"    !~~~#~#~~^#*%*%*&*&=&*=====,=,=,;;}>)|:'+/1[    ",
"    ######&%&%*%*%*-=-=-======>;>;,;,,}<~:_>+/1(    ",
"    #~~~#~#~~~~*%*&*&*&*=====,=,=,;,;;:<<(:,+/1[    ",
"    #$##&%&%&%&%*-=-=-======>;>;>;>;,,<<<<2'+/1(    ",
"    !######^%^%*%*%*&*==&======,;,;,,,;,,,''+/1[    ",
"    ###%#%&%&%*%=%=-=======;=;>;>;,;';'>''';+/1[    ",
"    #^###^#^#]3*%4&4=5&*=,===,=,=,;,,,,,'''=+/1[    ",
"    ####&%&%*/67,>689/'7_7==>;>;,;,;,>'>'>'=+/1[    ",
"    ###^#^#*&*&*&*&*&*&*&==,=,=,;,;,,,,',''=+/1[    ",
"    ##&%&%*%*79-=840_==_=0>;>8,;,;,>'''>''';+/1[    ",
"    #a//#*%*%b,b85/,8_7/=90/=_c,;,,,',,,']'=+/1[    ",
"    &%&%//*%=-=-=-=-=-=-=-=-=-,;,>'>'>'''',=+/1[    ",
"    #^aadd/*&b;/4,8,4,75=,7*e,7_,9;_,,'''';=+/1[    ",
"    &%*/dfd/=79>9497_7,/g;9_g;__ggg_''']'',;+/1[    ",
"  ///*%/dfd/&*&*&====,/,&,;,;,,,,,,,'''''],=+/1[    ",
"   aa/&/dfd/a-======>;>/>;>;,>'>'>'''''']],=+/1[    ",
"   ad///dada/*==&======,/a;,;,;,,,''''']'];=+/18    ",
"    /ddddddd/a=====;=;,ad/,;';'>''''';,;';,;+/18    ",
"    #/d/dddda/=*=,===,=/d/===,===,===,===,==+/18    ",
"    +/d/ddddd/a++++++++/d/+++++++++++++++++++/1[    ",
" ////dddddddda////////a/d/////////////////////18    ",
" h  /ddddddddd/a111111/ad/11111111111111111i1i[8    ",
" hjd/ddddddddaak///////dd/([([([[[[[[[[[[8[8[8[l    ",
" /hh/dddddddaakma/mmm/adaa                          ",
" ///ddddddaaakmada///add/                           ",
" /a/ddddaaa/kmaddddddddd/                           ",
" /d/dddaa//kmadddddddddaaa                          ",
" /a/adaa//mmaddddddddddaa/                          ",
"  / /////mmadddddddddddaa/                          ",
"         /addddddddddddaa/                          ",
"          /addddadaddddaa/                          ",
"          //adddaaa/adda/a                          ",
"          /a/add/aaa/add/                           ",
"          /aa/da//////adaa                          ",
"          /da/da/ /aaa/dd/a                         ",
"       a/aa//dda///a///dda/                         ",
"      ada/ddddda/aa/ddddda/                         ",
"      /da/ddddda/aa/ddddda/a a                      ",
"      /da/ddadaa/aa/ddadaa/ a a                     ",
"      a//a//////a//a//////aa a                      ",
"                                                    ",
"                                                    ",
"                                                    ",
"                                                    "};
