/* XPM */
static char * mutt4_xpm[] = {
"52 52 52 1",
" 	c None",
".	c #FFFFFF",
"+	c #EFFBFF",
"@	c #FFFBFF",
"#	c #EFEBEF",
"$	c #FFEFEF",
"%	c #EFDBEF",
"&	c #E7E3E7",
"*	c #DFEBDF",
"=	c #DFDBDF",
"-	c #EFDBDF",
";	c #DFCBDF",
">	c #E7CFC7",
",	c #CFD7CF",
"'	c #CFCBCF",
")	c #595551",
"!	c #EFEBFF",
"~	c #714159",
"{	c #DFBACF",
"]	c #BEBEAE",
"^	c #DFEBEF",
"/	c #000000",
"(	c #494549",
"_	c #383430",
":	c #CF5D59",
"<	c #202828",
"[	c #413849",
"}	c #FF9A71",
"|	c #9E5961",
"1	c #202020",
"2	c #103020",
"3	c #C79AAE",
"4	c #AEAAAE",
"5	c #9EA2B6",
"6	c #797161",
"7	c #716171",
"8	c #303441",
"9	c #617161",
"0	c #AE9AAE",
"a	c #616979",
"b	c #9E9AAE",
"c	c #616171",
"d	c #616161",
"e	c #BFBF00",
"f	c #C0C0C0",
"g	c #808080",
"h	c #201020",
"i	c #BF00BF",
"j	c #FF0000",
"k	c #FF00FF",
"l	c #595961",
"m	c #BF0000",
"                                                    ",
"                                                    ",
"                                                    ",
"                                                    ",
"    .+@+@+@+@+@+@+@+@+@+@+@+@+@+@+@+@+@+@+@+@       ",
"    #$#$###%#%&%&%*%=%=-===-===;=;>;>;,;';'>+)      ",
"    !~~{~]~~#^#^#*%*%*&*==&*=====,=,=;,;';>,+/(     ",
"    #$######&%&%*%*%*-=-=-======>;>;,,_:::<>+/[(    ",
"    !~~~#~#~~^#*%*%*&*&=&*=====,=,=,;;}>)|:'+/1[    ",
"    ######&%&%*%*%*-=-=-======>;>;,;,,}<~:_>+/1(    ",
"    #~~~#~#~~~~*%*&*&*&*=====,=,=,;,;;:<<(:,+/1[    ",
"    #$##&%&%&%&%*-=-=-======>;>;>;>;,,<<<<2'+/1(    ",
"    !######^%^%*%*%*&*==&======,;,;,,,;,,,''+/1[    ",
"    ###%#%&%&%*%=%=-=======;=;>;>;,;';'>''';+/1[    ",
"    #^###^#^#]3*%4&4=5&*=,===,=,=,;,,,,,'''=+/1[    ",
"    ####&%&%*/67,>689/'7_7==>;>;,;,;,>'>'>'=+/1[    ",
"    ###^#^#*&*&*&*&*&*&*&==,=,=,;,;,,,,',''=+/1[    ",
"    ##&%&%*%*79-=840_==_=0>;>8,;,;,>'''>''';+/1[    ",
"    #^#^#*%*%a,a85/,8_7/=90/=_b,;,,,',,,']'=+/1[    ",
"    &%&%*%*%=-=-=-=-=-=-=-=-=-,;,//>'>'''',=+/1[    ",
"    #^#*%*%*&a;/4,8,4,75=,7*c,7_,9;//,'''';=+/1[    ",
"    &%*%*%*-=79>9497_7,/d;9_d;__dddef/']/',;+/1[    ",
"    #*%*%*&*&*&*&====,=,&,;,;,,,,,/fef/'/g,=+/1[    ",
"    &%&%*-=-=-======>;>;>;>;,>'>'g/fef/'//,=+/1[    ",
"    %^%*%*%*&*==&======,;,;,;,;,,/gfgfg//g;=+/18    ",
"    &%*%=%=-=======;=;,;>;,;';'>g/fffffff/,;+/18    ",
"    #*%*%*&*===*=,gg/g===,===,==/gffff/f/,==+/18    ",
"    +++++++++++++gffffg++++++++g/fffff/f/++++/1[    ",
"    ////////////g///gff/////////gffffffff////g18    ",
"     (11111111111111/gffg11111/gfffffffff/1hi/[8    ",
"       (((((((((([((/gffg[([(/jggffffffff/fki/[l    ",
"                    g/ff//////mjggfffffff/ii//      ",
"                   ///ffg/mmm/gmjgggffffff///g      ",
"                  /gg/gffg//gffgmj/gggfffg/g/       ",
"                 /gfgggfffffffffgmj/gggfg/f/g       ",
"                /gfffgfffffffffffgm//g////g/        ",
"               /ggffffffffffffffffgm//              ",
"              ggfffffffffgfffffffg// fg//g          ",
"               /gfffgffffggfffffffg/f/gff//g        ",
"               g///g/gffg/ggffggfffg/gff/f//g       ",
"                /gggf/gg///gggg//gffgff/g /f/       ",
"                 /fffg///g/////g /gfffgg gg /       ",
"                  /// gggf/       /gfg/f / gg       ",
"                       ///g       g/g/f /f /        ",
"                                   g/ff/f /         ",
"                                    g//f /          ",
"                                      g/g           ",
"               g g g g g g g g g g g g              ",
"              g g g g g g g g g g g g g             ",
"                                                    ",
"                                                    ",
"                                                    "};
