/* XPM */
static char * mutt_nomail_xpm[] = {
"52 52 17 1",
" 	c None",
".	c #000000",
"+	c #DFDBDF",
"@	c #808080",
"#	c #CFD7CF",
"$	c #716171",
"%	c #9EA2B6",
"&	c #C0C0C0",
"*	c #BFBF00",
"=	c #DFEBDF",
"-	c #202020",
";	c #494549",
">	c #413849",
",	c #BF00BF",
"'	c #FF0000",
")	c #FF00FF",
"!	c #BF0000",
"                                                    ",
"                                                    ",
"                                                    ",
"                                                    ",
"                                                    ",
"                                                    ",
"                                                    ",
"                                                    ",
"                                                    ",
"                                                    ",
"                                                    ",
"                                                    ",
"                                                    ",
"                                                    ",
"                                                    ",
"                                                    ",
"                                                    ",
"                                                    ",
"                       .+                           ",
"                      ..@                           ",
"                   #..$%                            ",
"                   .&&@                             ",
"                  .&*&.                             ",
"       .          .&*&.  ...                        ",
"      .=          .&*&. .@@                         ",
"    @.=          .@&@&...&@                         ",
"    .&@          .&&&&&&&.                          ",
"    .&.         .@&&&&.&.                           ",
"    .&.        @.&&&&&.&.. .                        ",
"    .&.       -.@&&&&&&&&....@                      ",
"    .&@.      @.&&&&&&&&&.;>,.;                     ",
"    .&&..   ..'@@&&&&&&&&.&),.                      ",
"    @@&@.!!!.@!'@@&&&&&&&.,,..                      ",
"     .&&@...@&@!'@@@&&&&&&...@                      ",
"     .&&&&&&&&&@!'.@@@&&&&.@.                       ",
"    @@@&&&&&&&&&@!'..@@&&&.&.                       ",
"    .@@&&&&&&&&&&@!!..@@&@.@.                       ",
"    .@@&&&&&&&&&&&@!!..... .                        ",
"    .@@&&&&&&&&&&&&@.                               ",
"    .@@&&&&@&@&&&&@.                                ",
"    @.@&&@.@@@&&&@..                                ",
"     .&&@.@@@.&&@.@.                                ",
"    @@&@......@&.@@.                                ",
"   @.&&.@@@. .@&.@&.                                ",
"   .@&&...@...@&&..@@.@                             ",
"   .@&&&&&.@@.@&&&&&.@&@                            ",
"@ @.@&&&&&.@@.@&&&&&.@&.                            ",
" @ .@@&@&&.@@.@@&@&&.@&.                            ",
"@ @@......@..@......@..@                            ",
"                                                    ",
"                                                    ",
"                                                    "};
