/* XPM */
static char * mutt7_xpm[] = {
"53 52 51 1",
" 	c None",
".	c #FFFFFF",
"+	c #EFFBFF",
"@	c #FFFBFF",
"#	c #EFEBEF",
"$	c #FFEFEF",
"%	c #EFDBEF",
"&	c #E7E3E7",
"*	c #DFEBDF",
"=	c #DFDBDF",
"-	c #EFDBDF",
";	c #DFCBDF",
">	c #E7CFC7",
",	c #CFD7CF",
"'	c #CFCBCF",
")	c #595551",
"!	c #EFEBFF",
"~	c #714159",
"{	c #DFBACF",
"]	c #BEBEAE",
"^	c #DFEBEF",
"/	c #000000",
"(	c #494549",
"_	c #383430",
":	c #CF5D59",
"<	c #202828",
"[	c #413849",
"}	c #FF9A71",
"|	c #9E5961",
"1	c #202020",
"2	c #103020",
"3	c #C79AAE",
"4	c #AEAAAE",
"5	c #9EA2B6",
"6	c #797161",
"7	c #716171",
"8	c #303441",
"9	c #617161",
"0	c #AE9AAE",
"a	c #616979",
"b	c #9E9AAE",
"c	c #808080",
"d	c #616171",
"e	c #616161",
"f	c #C0C0C0",
"g	c #BFBF00",
"h	c #201020",
"i	c #BF00BF",
"j	c #FF00FF",
"k	c #FF0000",
"l	c #BF0000",
"                                                     ",
"                                                     ",
"                                                     ",
"                                                     ",
"    .+@+@+@+@+@+@+@+@+@+@+@+@+@+@+@+@+@+@+@+@        ",
"    #$#$###%#%&%&%*%=%=-===-===;=;>;>;,;';'>+)       ",
"    !~~{~]~~#^#^#*%*%*&*==&*=====,=,=;,;';>,+/(      ",
"    #$######&%&%*%*%*-=-=-======>;>;,,_:::<>+/[(     ",
"    !~~~#~#~~^#*%*%*&*&=&*=====,=,=,;;}>)|:'+/1[     ",
"    ######&%&%*%*%*-=-=-======>;>;,;,,}<~:_>+/1(     ",
"    #~~~#~#~~~~*%*&*&*&*=====,=,=,;,;;:<<(:,+/1[     ",
"    #$##&%&%&%&%*-=-=-======>;>;>;>;,,<<<<2'+/1(     ",
"    !######^%^%*%*%*&*==&======,;,;,,,;,,,''+/1[     ",
"    ###%#%&%&%*%=%=-=======;=;>;>;,;';'>''';+/1[     ",
"    #^###^#^#]3*%4&4=5&*=,===,=,=,;,,,,,'''=+/1[     ",
"    ####&%&%*/67,>689/'7_7==>;>;,;,;,>'>'>'=+/1[     ",
"    ###^#^#*&*&*&*&*&*&*&==,=,=,;,;,,,,',''=+/1[     ",
"    ##&%&%*%*79-=840_==_=0>;>8,;,;,>'''>''';+/1[     ",
"    #^#^#*%*%a,a85/,8_7/=90/=_b,;,,,',,,']'=+/1[     ",
"    &%&%*%*%=-=-=-=-=-=-=-=c//,;,>'>'>'''',=+/1[     ",
"    #^#*%*%*&a;/4,8,4,75=,7*d,//,9;_,,'''';=+/1[     ",
"    &%*%*%*-=79>9497_7,/e;9_ccff/ee_''']'',;+/1[     ",
"    #*%*%*&*&*&*&====,=,&,;,;/fgf/,,'''''],=+/1[     ",
"    &%&%*-=-=-======>;>;///;,/fgf/'''''']],=//1[     ",
"    %^%*%*%*&*==&======,;cc/;/fgf/c'''']'];=+/18     ",
"    &%*%=%=-=======;=;,;>cf///fcfc/'';,;';,;+//c     ",
"    #*%*%*&*===*=,===,===,/fffffff/c=,===,==+cf/     ",
"    +++++++++++++++++++++++/f/ffffc/+++++++++/f/     ",
"    ////////////////////////f/fffff/c/////////f/     ",
"     (1111111111111111c////ffffffffc/111111hc/f/     ",
"       (((((((((([((([/i([/fffffffff/c[[[8[8/cf/     ",
"                      /ijf/ffffffffcck///////ff/     ",
"                      //ii/fffffffccklc/lll/cfcc     ",
"                      c///ffffffcccklcfc///cff/      ",
"                       /c/ffffccc/klcfffffffff/      ",
"                       /f/fffcc//klcfffffffffccc     ",
"                       /c/cfcc//llcffffffffffcc/     ",
"                        / /////llcfffffffffffcc/     ",
"                               /cffffffffffffcc/     ",
"                                /cffffcfcffffcc/     ",
"                                //cfffccc/cffc/c     ",
"                                /c/cff/ccc/cff/      ",
"                                /cc/fc//////cfcc     ",
"                                /fc/fc/ /ccc/ff/c    ",
"                             c/cc//ffc///c///ffc/    ",
"                            cfc/fffffc/cc/fffffc/    ",
"                            /fc/fffffc/cc/fffffc/c c ",
"                            /fc/ffcfcc/cc/ffcfcc/ c c",
"                            c//c//////c//c//////cc c ",
"                                                     ",
"                                                     ",
"                                                     "};
