/* XPM */
static char * amusement_xpm[] = {
"16 16 99 2",
"  	c None",
". 	c #6A602B",
"+ 	c #8A7D38",
"@ 	c #BDAA4C",
"# 	c #72652B",
"$ 	c #4E431D",
"% 	c #AC9943",
"& 	c #998B3E",
"* 	c #978035",
"= 	c #847332",
"- 	c #322E15",
"; 	c #A09748",
"> 	c #A5913F",
", 	c #94853B",
"' 	c #88742E",
") 	c #6A5A24",
"! 	c #6A5E2A",
"~ 	c #725F26",
"{ 	c #BBA447",
"] 	c #917B32",
"^ 	c #877528",
"/ 	c #695E33",
"( 	c #2F2C1C",
"_ 	c #191902",
": 	c #463E1A",
"< 	c #77692E",
"[ 	c #3A3A3B",
"} 	c #364686",
"| 	c #3554AA",
"1 	c #2F263D",
"2 	c #451C1B",
"3 	c #4E5F3E",
"4 	c #747036",
"5 	c #7A7033",
"6 	c #5E5324",
"7 	c #1235B1",
"8 	c #365AD8",
"9 	c #353B75",
"0 	c #A0372F",
"a 	c #DB6D6D",
"b 	c #C87473",
"c 	c #778966",
"d 	c #529763",
"e 	c #72976A",
"f 	c #57603B",
"g 	c #0E1F60",
"h 	c #2A4AC5",
"i 	c #3259C3",
"j 	c #632B45",
"k 	c #B82B28",
"l 	c #B75051",
"m 	c #CD6E6F",
"n 	c #C26B71",
"o 	c #6C9866",
"p 	c #96EDA2",
"q 	c #87BD8D",
"r 	c #122C88",
"s 	c #3255B5",
"t 	c #761C29",
"u 	c #B84647",
"v 	c #BE5D5C",
"w 	c #D9787C",
"x 	c #9C816B",
"y 	c #61BD6D",
"z 	c #73B076",
"A 	c #163199",
"B 	c #3354CF",
"C 	c #7B0F11",
"D 	c #B1201F",
"E 	c #B53A3A",
"F 	c #C24E4E",
"G 	c #9A7572",
"H 	c #7F9784",
"I 	c #999B99",
"J 	c #09143B",
"K 	c #2F48A8",
"L 	c #7E1010",
"M 	c #BE1919",
"N 	c #A72727",
"O 	c #954F4F",
"P 	c #968B8A",
"Q 	c #A3A4A4",
"R 	c #B3B2B3",
"S 	c #C4C4C4",
"T 	c #C7C8C7",
"U 	c #060C18",
"V 	c #320605",
"W 	c #550707",
"X 	c #422E2E",
"Y 	c #7B8383",
"Z 	c #8C8E8E",
"` 	c #BCBCBC",
" .	c #626161",
"..	c #969696",
"+.	c #ABABAB",
"@.	c #D5D5D5",
"#.	c #575757",
"$.	c #BEBEBE",
"%.	c #6A6A6A",
"                                ",
"    . +                         ",
"    . @ #             $ % &     ",
"        * = - ; =   # > ,       ",
"          ' ) @ . ) !           ",
"  ~ { ] ^ / ( _ : + <           ",
"      [ } | 1 2 3 4 5 & ' 6     ",
"      7 8 9 0 a b c d e f       ",
"    g h i j k l m n o p q       ",
"    r h s t k u v w x y z       ",
"    A B | C D E F m G H I [     ",
"    J K | L M N O P Q R S T [   ",
"        U V W X Y Z I Q R S `   ",
"                 .Z ..I +.` @.  ",
"                  #.$.I R R %.  ",
"                                "};
