/* XPM */
static char * calculator_xpm[] = {
"16 16 75 1",
" 	c None",
".	c #DAD6CA",
"+	c #B2B6A9",
"@	c #AAA99E",
"#	c #94928A",
"$	c #8D8B82",
"%	c #B6BDAE",
"&	c #4E6E5B",
"*	c #678271",
"=	c #6E8474",
"-	c #7A897B",
";	c #8B9386",
">	c #928E84",
",	c #99968C",
"'	c #E1DDD1",
")	c #C8C6BC",
"!	c #B1B3A6",
"~	c #A7AEA0",
"{	c #939B8E",
"]	c #63746B",
"^	c #506256",
"/	c #5E6C62",
"(	c #AEABA3",
"_	c #474641",
":	c #F0EDE5",
"<	c #838E88",
"[	c #BDBAAE",
"}	c #B3AEA2",
"|	c #A5A39A",
"1	c #9B9B93",
"2	c #3C3B36",
"3	c #E6E4DD",
"4	c #BBBFB9",
"5	c #A5A5A0",
"6	c #A5A196",
"7	c #A29E93",
"8	c #777772",
"9	c #7C8D87",
"0	c #9D998E",
"a	c #312F2C",
"b	c #F3F1E9",
"c	c #79827E",
"d	c #BBB6AD",
"e	c #777F78",
"f	c #6D6F68",
"g	c #2C2B29",
"h	c #EFEADE",
"i	c #B0B6B0",
"j	c #5B6D68",
"k	c #85827B",
"l	c #7C7A72",
"m	c #817F78",
"n	c #1B1A18",
"o	c #807D75",
"p	c #131312",
"q	c #868B82",
"r	c #78756D",
"s	c #0C0C0B",
"t	c #C8C3B7",
"u	c #B0AFAA",
"v	c #6D6A63",
"w	c #010100",
"x	c #211F1D",
"y	c #353431",
"z	c #52514B",
"A	c #716F67",
"B	c #AAA69B",
"C	c #88857D",
"D	c #626059",
"E	c #080807",
"F	c #191917",
"G	c #33312E",
"H	c #4D4C46",
"I	c #8C887E",
"J	c #5A5751",
"                ",
"     .+@#       ",
"    $%&*=-;#>,  ",
"    ')!~{-]^/(_ ",
"   >:<;[@}@|112 ",
"   34]56$78910a ",
"  ,b<cd#6,8ef$g ",
"  hij1},@kk,lmn ",
" 739ed##6k>>lop ",
" 3dq1},}7l7,lrs ",
" [[t[(7,$m(umvsw",
" xyzA>7B|7>CmDEw",
"  wwwEFGHvoI>JEw",
"    wwwwwwsnygw ",
"        wwwwwww ",
"                "};
