/* XPM */
static char * choice_no_xpm[] = {
"16 16 5 1",
" 	c None",
".	c #D20000",
"+	c #E67272",
"@	c #E15555",
"#	c #DC3939",
"                ",
"                ",
"                ",
"  ..        ..  ",
"   ..      ..   ",
"   +..    ..@   ",
"    @..  ..@    ",
"     @....@     ",
"      #..#      ",
"     @....@     ",
"    @..  ..@    ",
"   @..    ..@   ",
"   ..      ..   ",
"  ..        ..  ",
"                ",
"                ",
};
