/* XPM */
static char * configuration_xpm[] = {
"16 16 64 1",
" 	c None",
".	c #AEB2AC",
"+	c #778270",
"@	c #2E322B",
"#	c #A9B1A3",
"$	c #7A8473",
"%	c #3C4138",
"&	c #252823",
"*	c #1E211E",
"=	c #0B0C0B",
"-	c #2B2E2A",
";	c #4D544A",
">	c #DBE1D8",
",	c #717C6A",
"'	c #7A7B6E",
")	c #7E8A76",
"!	c #4C3833",
"~	c #3A3C34",
"{	c #6C746C",
"]	c #424A43",
"^	c #B4BCB7",
"/	c #9CA795",
"(	c #818D79",
"_	c #8B6260",
":	c #BD8386",
"<	c #6E3C3A",
"[	c #454442",
"}	c #3B3F41",
"|	c #697363",
"1	c #888D82",
"2	c #6F6555",
"3	c #87877D",
"4	c #B3BCAE",
"5	c #85917C",
"6	c #574541",
"7	c #935A5C",
"8	c #5A2A26",
"9	c #49464C",
"0	c #5C5C66",
"a	c #98978A",
"b	c #716C65",
"c	c #61625A",
"d	c #5B6556",
"e	c #604743",
"f	c #673E3B",
"g	c #807E80",
"h	c #A8A5A2",
"i	c #646C5D",
"j	c #555944",
"k	c #585E51",
"l	c #606451",
"m	c #4A4E3A",
"n	c #4E533E",
"o	c #434634",
"p	c #454837",
"q	c #525744",
"r	c #32352C",
"s	c #8A9582",
"t	c #585F4E",
"u	c #21231C",
"v	c #010101",
"w	c #292D24",
"x	c #171812",
"y	c #26281F",
"                ",
"                ",
"  .+@           ",
"  #$%&*====-;   ",
" >,');   !~{{] ^",
" /$(($~_:<[}|123",
"4$(()5|67890abc~",
"5(((($(defgh'ij ",
"($((((((k''lmno ",
"|)())(55dpmmqqr ",
"i)(()s(5tmqjpuvv",
" (+$(s+(qmqwvv  ",
" i|,,)++noxvv   ",
"    ;d|iyvv     ",
"                ",
"                "};
