/* XPM */
static char * disk_xpm[] = {
"16 16 75 1",
" 	c None",
".	c #636A63",
"+	c #70796F",
"@	c #696E68",
"#	c #5B625A",
"$	c #3D423D",
"%	c #848C83",
"&	c #A1AA9F",
"*	c #B4BBB4",
"=	c #9EAA9D",
"-	c #95A194",
";	c #859185",
">	c #7A8379",
",	c #7D887C",
"'	c #87938A",
")	c #586057",
"!	c #A3A9A3",
"~	c #C5CCC5",
"{	c #9BA49A",
"]	c #BBC2BA",
"^	c #969C95",
"/	c #8C968C",
"(	c #6C736B",
"_	c #808674",
":	c #90988F",
"<	c #2D322D",
"[	c #E1E6E1",
"}	c #CCD1CC",
"|	c #D6DAD6",
"1	c #919590",
"2	c #737972",
"3	c #3D483E",
"4	c #B0B7B0",
"5	c #515651",
"6	c #ADB5AD",
"7	c #585E57",
"8	c #414741",
"9	c #1E221E",
"0	c #575E5A",
"a	c #1A1C1A",
"b	c #3C3E37",
"c	c #4C534C",
"d	c #829984",
"e	c #7B7D68",
"f	c #7C7B63",
"g	c #7E795B",
"h	c #5E5842",
"i	c #3C3A2D",
"j	c #6A7E6D",
"k	c #4E5950",
"l	c #68654F",
"m	c #776E4D",
"n	c #443F2C",
"o	c #333631",
"p	c #444A44",
"q	c #60675F",
"r	c #252A26",
"s	c #27362F",
"t	c #1D2522",
"u	c #161C19",
"v	c #373E3B",
"w	c #567564",
"x	c #263D34",
"y	c #151915",
"z	c #181917",
"A	c #264037",
"B	c #000000",
"C	c #2B2E2A",
"D	c #4E6859",
"E	c #2B483D",
"F	c #16231E",
"G	c #0B0C0B",
"H	c #484E47",
"I	c #4D6456",
"J	c #0E110F",
"                ",
"      .+@.##$   ",
"    %&*=-;>,')  ",
"   !~{]^/(+_:;< ",
"  *[}|1>23{]*45 ",
" %~6=]2785}}[{$ ",
"9(/';'0ab1{*4c88",
"dd(>efghi.-()78c",
"3jklmniop#75q.p7",
"rstutv$5#)))).5)",
"rwxy95p7#))7)() ",
"zwAuBppc)##.cC  ",
"BDEFGrcH)#$z    ",
" IExGB          ",
"  GJ            ",
"                ",
};
