/* XPM */
static char * disk_cd_xpm[] = {
"16 16 107 2",
"  	c None",
". 	c #090709",
"+ 	c #382E37",
"@ 	c #352E3C",
"# 	c #2D2A32",
"$ 	c #000000",
"% 	c #151212",
"& 	c #7F6861",
"* 	c #C1A4A7",
"= 	c #C6A6C1",
"- 	c #B797B5",
"; 	c #A592B4",
"> 	c #BDABC9",
", 	c #9E8E9C",
"' 	c #4C474B",
") 	c #24181A",
"! 	c #B37B77",
"~ 	c #E3AF9C",
"{ 	c #DFBEAE",
"] 	c #C4A5BA",
"^ 	c #A58CAC",
"/ 	c #9D8CB1",
"( 	c #BCAABE",
"_ 	c #A793A2",
": 	c #6E6E77",
"< 	c #0E0F11",
"[ 	c #18120F",
"} 	c #C39085",
"| 	c #D89793",
"1 	c #C58283",
"2 	c #CE988B",
"3 	c #DAB7AD",
"4 	c #C3A8C4",
"5 	c #827D8A",
"6 	c #78828F",
"7 	c #8794A3",
"8 	c #737A84",
"9 	c #070708",
"0 	c #987874",
"a 	c #EBBBB4",
"b 	c #D5A99F",
"c 	c #D5A19A",
"d 	c #D5989C",
"e 	c #CEAAA7",
"f 	c #74696B",
"g 	c #746D75",
"h 	c #A0A1AA",
"i 	c #86929F",
"j 	c #9499A3",
"k 	c #AFAEB7",
"l 	c #5B595D",
"m 	c #1E1718",
"n 	c #DCBDC4",
"o 	c #E0C2C7",
"p 	c #DBC3C3",
"q 	c #DFC6BE",
"r 	c #241D20",
"s 	c #3D3E3F",
"t 	c #CABEC3",
"u 	c #BAAAAF",
"v 	c #BFAEB2",
"w 	c #A6969B",
"x 	c #080606",
"y 	c #292424",
"z 	c #E4C9CA",
"A 	c #DCB8CB",
"B 	c #6A6563",
"C 	c #E6CED1",
"D 	c #D3BCBD",
"E 	c #C3ABB0",
"F 	c #0A090A",
"G 	c #DAB7C4",
"H 	c #DAB2C9",
"I 	c #D5B0C2",
"J 	c #BFB2CC",
"K 	c #999CAB",
"L 	c #C5C7CA",
"M 	c #CBBCBA",
"N 	c #C1A9AD",
"O 	c #9C7C8E",
"P 	c #E6BDD3",
"Q 	c #CBABB6",
"R 	c #AFA2CB",
"S 	c #CBCDE2",
"T 	c #A9AFD0",
"U 	c #9EABC0",
"V 	c #B4B4B5",
"W 	c #EDD5D4",
"X 	c #1B1617",
"Y 	c #BEA0A9",
"Z 	c #A698C2",
"` 	c #BEB7D2",
" .	c #BEC2D5",
"..	c #A3A6C3",
"+.	c #9DA5C4",
"@.	c #A6B1BB",
"#.	c #D4C8C7",
"$.	c #AC9F9C",
"%.	c #9B829F",
"&.	c #BCC3CB",
"*.	c #918E94",
"=.	c #615770",
"-.	c #CDD1E5",
";.	c #B4B8D5",
">.	c #8993AE",
",.	c #393942",
"'.	c #3F4147",
"                                ",
"          . + + @ # $           ",
"      % & * = - ; > , ' .       ",
"    ) ! ~ { ] ^ / ( _ , : <     ",
"  [ } | 1 2 3 4 > _ 5 6 7 8 9   ",
"  0 a b c d e f g h i j j k l   ",
"m n o p q p r     s t u u v w x ",
"y z p n A A ' $ $ B C D D D E F ",
"m G A H I ] J K K L M p p z N 9 ",
"  O P Q - ; R S T U V M D W f   ",
"  X Y ] ; Z `  ...+.@.k #.$.9   ",
"    r %.Z R `  ...+.U &.*.%     ",
"      < =.k -.-.;.+.>.l .       ",
"          . ,.'.,.# $           ",
"                                ",
"                                ",
};
