/* XPM */
static char * disk_floppy_xpm[] = {
"16 16 75 1",
" 	c None",
".	c #0B1213",
"+	c #242525",
"@	c #444443",
"#	c #63635F",
"$	c #94948E",
"%	c #6B8D91",
"&	c #293D3F",
"*	c #353636",
"=	c #555554",
"-	c #888884",
";	c #B0B0A9",
">	c #CECEC7",
",	c #DFDFDB",
"'	c #F2EFEB",
")	c #B6C9C9",
"!	c #406266",
"~	c #7D9499",
"{	c #849B9D",
"]	c #D4D2CB",
"^	c #F1F1EE",
"/	c #F5F5F4",
"(	c #F9F8F7",
"_	c #658B91",
":	c #1D2B2E",
"<	c #9CA8AB",
"[	c #7DA0A4",
"}	c #E2E8E8",
"|	c #FEFEFD",
"1	c #A7BFC2",
"2	c #284246",
"3	c #4E5153",
"4	c #8DABB0",
"5	c #EEF3F4",
"6	c #597E84",
"7	c #8EA3A7",
"8	c #7C9EA1",
"9	c #CEDADB",
"0	c #6A9298",
"a	c #263B3F",
"b	c #636A6D",
"c	c #B8C9CA",
"d	c #EAEFEF",
"e	c #A8BDBF",
"f	c #5D868D",
"g	c #476A70",
"h	c #8AA5AB",
"i	c #568087",
"j	c #6D9094",
"k	c #BEC1C3",
"l	c #879294",
"m	c #4B757C",
"n	c #282F32",
"o	c #727E83",
"p	c #71979C",
"q	c #A9B6B7",
"r	c #819FA7",
"s	c #CDCECF",
"t	c #B2B2B1",
"u	c #3B5B61",
"v	c #34383B",
"w	c #325A60",
"x	c #9FAEB3",
"y	c #DCD5D6",
"z	c #BABAB8",
"A	c #596D6E",
"B	c #598187",
"C	c #6D8489",
"D	c #A1A4A6",
"E	c #788887",
"F	c #454D51",
"G	c #A1B3B7",
"H	c #79878A",
"I	c #27363A",
"J	c #616E71",
"                ",
"          .     ",
"      +@#$%&    ",
"   *=-;>,')!    ",
"  ~{],^//(/_:   ",
"  <[}|///^(12   ",
"  341|//^/|56   ",
"   78//(|||90a  ",
"   b[c||def66g  ",
"   +h89hij7klmn ",
"    opm~qrsstmu ",
"    vhme]wxyzAn ",
"     lB6,C{DE   ",
"     Fr6G<H     ",
"      n!IJ      ",
"                ",
};
