/* XPM */
static char * display_xpm[] = {
"16 16 47 1",
" 	c None",
".	c #636262",
"+	c #B9B9B9",
"@	c #B2B2B2",
"#	c #4E4E4E",
"$	c #ABABAB",
"%	c #9E9E9E",
"&	c #666668",
"*	c #6E6E6E",
"=	c #6F6D72",
"-	c #C3C3C3",
";	c #7B7B7B",
">	c #5E5E5E",
",	c #010101",
"'	c #23221F",
")	c #838074",
"!	c #A8A59D",
"~	c #756A6E",
"{	c #A4A6A6",
"]	c #242322",
"^	c #131315",
"/	c #CBA49A",
"(	c #D8C3AC",
"_	c #757474",
":	c #2F2D30",
"<	c #443E3E",
"[	c #D4B7A5",
"}	c #0D0D0E",
"|	c #3C3334",
"1	c #644F4B",
"2	c #564E52",
"3	c #A37F84",
"4	c #CE9995",
"5	c #AA9296",
"6	c #1C1D22",
"7	c #30272E",
"8	c #57484B",
"9	c #B6AEB6",
"0	c #A3ABA3",
"a	c #DDDDDD",
"b	c #323232",
"c	c #828282",
"d	c #939293",
"e	c #79AC79",
"f	c #1F1F1F",
"g	c #253725",
"h	c #8B8B8B",
"                ",
".+@@@@@++@@@@@+#",
"$%&***=&&****.-;",
"$>,,,,,'',,,,,%;",
"$.,,,,,)!~,,,,{;",
"$>,,,,,.*=],,,%;",
"$.,,,,^/(_:,,,%;",
"$>,,,,,<[~},,,%;",
"$.,,,,|1/2,,,,%;",
"$.,,,}3456,,,,%;",
"$>,,,,786,,,,,%;",
"{-$@99{0$@@@9$a_",
"bc$%dddddddde0c]",
"  fbceccc;c3gf  ",
"   7h=;;;;;_^   ",
"                ",
};
