/* XPM */
static char * file_xpm[] = {
"16 16 49 1",
" 	c None",
".	c #666666",
"+	c #A4A3A3",
"@	c #C3C3C3",
"#	c #BCBCBB",
"$	c #B4B4B4",
"%	c #ACACAC",
"&	c #A99F9E",
"*	c #AAA4A4",
"=	c #494948",
"-	c #E5E4E4",
";	c #878686",
">	c #909090",
",	c #888887",
"'	c #7E7F7E",
")	c #8F8D8D",
"!	c #A29595",
"~	c #A79D9D",
"{	c #444545",
"]	c #979898",
"^	c #B1ABAB",
"/	c #B3A5A4",
"(	c #9E9D9D",
"_	c #565656",
":	c #CBCBCA",
"<	c #BBAEAE",
"[	c #C5BBBA",
"}	c #BCB3B3",
"|	c #393939",
"1	c #DCDBDB",
"2	c #CFC6C6",
"3	c #D2CBCA",
"4	c #D3D3D3",
"5	c #1C1C1C",
"6	c #EAEBEB",
"7	c #DCD4D3",
"8	c #D5C7C7",
"9	c #FEFEFE",
"0	c #141414",
"a	c #727272",
"b	c #F4F5F4",
"c	c #EFF1F1",
"d	c #E2DFDF",
"e	c #0C0C0C",
"f	c #000000",
"g	c #2E2E2E",
"h	c #5F5F5F",
"i	c #6F6F6F",
"j	c #242424",
"                ",
"   .++@@#+      ",
"  $%+#%&*$=     ",
" *-;>*%*&$>     ",
" +,')!&*!~${    ",
" .+]]^$//^/(    ",
" _:$/<@[}/}:_   ",
" |12[[342[[:#5  ",
"  16781822::4;  ",
"  %9677811441$0 ",
"  a9bbc-d66@.ef ",
"  g99bb9b@hefff ",
"   :99b+=effef  ",
"   i:ajffff     ",
"    fffe        ",
"                "};
