/* XPM */
static char * font_xpm[] = {
"16 16 51 1",
" 	c None",
".	c #000000",
"+	c #070505",
"@	c #CC5555",
"#	c #1D2120",
"$	c #242625",
"%	c #82745B",
"&	c #938569",
"*	c #987C5C",
"=	c #0A0C0B",
"-	c #686259",
";	c #C2A27B",
">	c #241E16",
",	c #3A3C3B",
"'	c #C5A983",
")	c #6C5C45",
"!	c #181B1F",
"~	c #665F4F",
"{	c #BCA688",
"]	c #A18662",
"^	c #38342E",
"/	c #453B2F",
"(	c #26211A",
"_	c #C7B093",
":	c #CEB18B",
"<	c #B09470",
"[	c #7A664E",
"}	c #4E4332",
"|	c #776D60",
"1	c #E5CDAF",
"2	c #D8BB99",
"3	c #D9BA94",
"4	c #B89973",
"5	c #0D0A06",
"6	c #A7957A",
"7	c #EFD8BC",
"8	c #E2C6A2",
"9	c #836E51",
"0	c #322B19",
"a	c #DEC29B",
"b	c #E5C8A3",
"c	c #D5B388",
"d	c #B08F68",
"e	c #3C3326",
"f	c #8B7150",
"g	c #705F4A",
"h	c #F6CF9E",
"i	c #CAA579",
"j	c #6E583E",
"k	c #C1A584",
"l	c #937653",
"                ",
"  ..+.    ....  ",
"  .@      #$    ",
"  ...     %+..  ",
"  .@     &*=    ",
"  .@    -;>+    ",
"  +@   ,')!     ",
"      ~{]^/=++  ",
" +.. (_:<[}+    ",
" +   |1234 ++   ",
" +. 56783:9+    ",
" .  0ab2cd +    ",
" +  ebc4f .+    ",
" +  ghij        ",
"     kl         ",
"                "};
