/* XPM */
static char * game_xpm[] = {
"16 16 55 1",
" 	c None",
".	c #83272C",
"+	c #3B080B",
"@	c #261213",
"#	c #8F4447",
"$	c #361518",
"%	c #333336",
"&	c #747C7E",
"*	c #2C3235",
"=	c #2D2C2E",
"-	c #848588",
";	c #363639",
">	c #0A0A0A",
",	c #727276",
"'	c #17191A",
")	c #454549",
"!	c #3C3C3E",
"~	c #424346",
"{	c #262628",
"]	c #101011",
"^	c #0C0000",
"/	c #463E41",
"(	c #45494D",
"_	c #140406",
":	c #C6424D",
"<	c #5D0F14",
"[	c #263032",
"}	c #5C5E62",
"|	c #222224",
"1	c #383638",
"2	c #000000",
"3	c #575859",
"4	c #5D5659",
"5	c #4F2932",
"6	c #2F2024",
"7	c #1E2021",
"8	c #0C1010",
"9	c #0F0F10",
"0	c #4C4A4E",
"a	c #A4A5A8",
"b	c #949C9D",
"c	c #828386",
"d	c #555558",
"e	c #353C3F",
"f	c #55282D",
"g	c #B13038",
"h	c #2F0E11",
"i	c #1E1E20",
"j	c #9C9C9F",
"k	c #5E373F",
"l	c #6B2C36",
"m	c #251D20",
"n	c #7A7A7D",
"o	c #5E686B",
"p	c #4B4D51",
"                ",
"       .+       ",
"      @#$       ",
"      %&*       ",
"      =-;       ",
"     >;,;>      ",
"    ')!,%%~{]   ",
"   ^/(!,;=)))!> ",
"  _:<[;}%]||1%2 ",
" 3456~*7827%~92 ",
" 0abcd)efgh(=22 ",
" 2i0cj-}klm~>2  ",
"   2>7dncop=22  ",
"     22>{0~>2   ",
"       222>2    ",
"                "};
