/* XPM */
static char * ghostview_xpm[] = {
"16 16 25 1",
" 	c None",
".	c #090909",
"+	c #434343",
"@	c #141414",
"#	c #000000",
"$	c #3D3D3D",
"%	c #737373",
"&	c #9A9A9A",
"*	c #BCBCBB",
"=	c #8A8A8A",
"-	c #A5A5A5",
";	c #C1C1C1",
">	c #B5B5B5",
",	c #333333",
"'	c #ACACAC",
")	c #2F2F2F",
"!	c #6C6C6C",
"~	c #CECECD",
"{	c #797979",
"]	c #5C5C5C",
"^	c #D2D2D2",
"/	c #535353",
"(	c #4E4E4E",
"_	c #949494",
":	c #626262",
"                ",
"        .+@     ",
"    #@$%&*+     ",
"   +=-;;>>=     ",
"  ,>;>>>>'-)    ",
"  !>=!!=>=!=    ",
"  $>!>>!=!>~$   ",
"  $>!>>!=!>>{   ",
"  )>!!!=>!!!']  ",
"  .>!>>>;;>!^>@ ",
"  /-!>;;;!!=^;% ",
"  +-=;;;;;;;>(. ",
"   /_;;;;;>/.## ",
"   /__;;_,.#    ",
"    /_:@#       ",
"     #          "};
