/* XPM */
static char * item_xpm[] = {
"16 16 44 1",
" 	c None",
".	c #FEFEFC",
"+	c #FAFAF0",
"@	c #F5ECE2",
"#	c #EADDD7",
"$	c #ECCECB",
"%	c #F4F1E5",
"&	c #F3E8DD",
"*	c #F1E0D6",
"=	c #EBD3CC",
"-	c #E5C2C2",
";	c #7F4444",
">	c #E6E3C4",
",	c #E8DDCB",
"'	c #F2DFD8",
")	c #F1D5D3",
"!	c #793C3E",
"~	c #4A0202",
"{	c #DCCEA8",
"]	c #C4AA8E",
"^	c #C4A38F",
"/	c #CBA69D",
"(	c #DBB6B4",
"_	c #DABA9F",
":	c #BE9C89",
"<	c #B88A7F",
"[	c #AC7471",
"}	c #A86E6E",
"|	c #925556",
"1	c #CA9685",
"2	c #B17976",
"3	c #A36A6B",
"4	c #834445",
"5	c #1C0000",
"6	c #B18182",
"7	c #9F6261",
"8	c #9D5D5D",
"9	c #7B3837",
"0	c #230300",
"a	c #B56562",
"b	c #95595C",
"c	c #682929",
"d	c #A94D46",
"e	c #512020",
"                ",
"                ",
"                ",
"                ",
"     .+@@#$     ",
"   ..%&*=$-;    ",
"   >,&@')-!~    ",
"   {]^/((;~     ",
"   _:<[}|~~     ",
"   1<2}34~5     ",
"    637890      ",
"     ab|c       ",
"       de       ",
"                ",
"                ",
"                "};
