/* XPM */
static char * multimedia_xpm[] = {
"16 16 89 1",
" 	c None",
".	c #796B57",
"+	c #52393E",
"@	c #A39683",
"#	c #B49A75",
"$	c #494641",
"%	c #404144",
"&	c #2F2C2A",
"*	c #886736",
"=	c #3D3529",
"-	c #3A3D41",
";	c #594931",
">	c #131516",
",	c #3D3D3C",
"'	c #88898C",
")	c #999B9B",
"!	c #9F855E",
"~	c #E7EAEA",
"{	c #D7C3A7",
"]	c #AC977B",
"^	c #ACAFB4",
"/	c #BEBEBE",
"(	c #18191A",
"_	c #CECECE",
":	c #DAD8D7",
"<	c #D6D7D8",
"[	c #C3B096",
"}	c #775F3D",
"|	c #949597",
"1	c #B5B4B4",
"2	c #EBEDED",
"3	c #534144",
"4	c #FEFFFF",
"5	c #C3B9A9",
"6	c #D2D7D7",
"7	c #F0F4F4",
"8	c #AEACAD",
"9	c #3B292C",
"0	c #5E1720",
"a	c #A2494A",
"b	c #B5968C",
"c	c #998D85",
"d	c #8C8380",
"e	c #868082",
"f	c #917979",
"g	c #7E5E62",
"h	c #744A51",
"i	c #7C4952",
"j	c #33060E",
"k	c #4D0F15",
"l	c #972C2D",
"m	c #E59186",
"n	c #ECA48D",
"o	c #A37160",
"p	c #520B00",
"q	c #951315",
"r	c #9D2835",
"s	c #AB4B5B",
"t	c #A66A75",
"u	c #2C0A11",
"v	c #010100",
"w	c #7D2224",
"x	c #D6877B",
"y	c #D38E79",
"z	c #894F3E",
"A	c #B73B28",
"B	c #6D1C1D",
"C	c #A73743",
"D	c #743A45",
"E	c #422729",
"F	c #9C5356",
"G	c #C47B6F",
"H	c #8F5848",
"I	c #BA6348",
"J	c #CA3A25",
"K	c #931F20",
"L	c #6B1F28",
"M	c #8E3242",
"N	c #77414B",
"O	c #240D11",
"P	c #7D6C69",
"Q	c #BE4B3A",
"R	c #B73D40",
"S	c #893841",
"T	c #32292B",
"U	c #272728",
"V	c #201F1F",
"W	c #1B1616",
"X	c #050807",
"                ",
" .              ",
" +@         #.  ",
"  $#       #.   ",
"   %#     #.    ",
"    &*=%-;.>    ",
"   ,')!~{]^/(   ",
"  ,_:<_[}|12|   ",
"  3)^~4567289   ",
"  0abcdefghij   ",
"  klmnopqrstuv  ",
"  kwxyzABCsDjv  ",
"  EFGHIJKLMNOv  ",
"   ,PbyQRS+Tvv  ",
"    v>UVWWXv    ",
"                ",
};
