/* XPM */
static char * sound_xpm[] = {
"16 16 87 1",
" 	c None",
".	c #2D2D2D",
"+	c #928E8D",
"@	c #BAB4B2",
"#	c #6C6766",
"$	c #150E0D",
"%	c #7C7C7B",
"&	c #C8C1C0",
"*	c #F4EBEA",
"=	c #FDF3F2",
"-	c #F9ECEA",
";	c #EBDAD7",
">	c #CAB6B4",
",	c #9D8C8B",
"'	c #5D5452",
")	c #0E0C0C",
"!	c #535050",
"~	c #FFF9F7",
"{	c #EDE4E2",
"]	c #E9DCDA",
"^	c #E5D0CD",
"/	c #ECD4D4",
"(	c #FAE4E1",
"_	c #CCA39C",
":	c #1E1210",
"<	c #B6A9A8",
"[	c #908684",
"}	c #DDC7C3",
"|	c #E4CDCC",
"1	c #E5D5D2",
"2	c #AE7E78",
"3	c #472521",
"4	c #615654",
"5	c #B2A4A3",
"6	c #B0B4B5",
"7	c #E2C9C6",
"8	c #DFBAB6",
"9	c #D1B1AB",
"0	c #CEABA4",
"a	c #D3ACA8",
"b	c #DBBCB9",
"c	c #A1716B",
"d	c #713E35",
"e	c #000000",
"f	c #5E5749",
"g	c #877875",
"h	c #897770",
"i	c #9C827D",
"j	c #C7A19C",
"k	c #D0A39E",
"l	c #CB9B95",
"m	c #83544E",
"n	c #493E3D",
"o	c #5A4F4A",
"p	c #322C25",
"q	c #444232",
"r	c #4F4C3C",
"s	c #6D594D",
"t	c #2B2625",
"u	c #524D3E",
"v	c #8E8674",
"w	c #938D79",
"x	c #6D6A53",
"y	c #796459",
"z	c #BE8883",
"A	c #895551",
"B	c #381F1C",
"C	c #615B49",
"D	c #9B9583",
"E	c #757060",
"F	c #7B7563",
"G	c #9D6C65",
"H	c #643B36",
"I	c #0D0807",
"J	c #563F3D",
"K	c #8E7469",
"L	c #7B755E",
"M	c #ADA994",
"N	c #988274",
"O	c #A69D84",
"P	c #653F3B",
"Q	c #0C0607",
"R	c #452F2C",
"S	c #774F49",
"T	c #A6655E",
"U	c #AA695F",
"V	c #462B26",
"                ",
"       .+@#.$   ",
"    .%&*=--;>,')",
"   !~~=*{]^^/(_:",
"   #<[}}|11/|23 ",
"   4567890abcd$ ",
" e fbghijklim3  ",
" e nopqrsilcd$  ",
"e  truvwxyzAB   ",
"   pfCDEFhGHI   ",
"   JKxLEMNAB  e ",
"   $JshOvGPe e e",
"  e  QRSTU$ e  e",
"   e    V3  e e ",
"   e  ee     ee ",
"      e         "};
