/* XPM */
static char * network_xpm[] = {
"16 16 129 2",
"  	c None",
". 	c #1B3A5B",
"+ 	c #486267",
"@ 	c #596A5C",
"# 	c #5A6652",
"$ 	c #3C4637",
"% 	c #5382AF",
"& 	c #B6C5C1",
"* 	c #8BA6A8",
"= 	c #8C9D91",
"- 	c #9EA584",
"; 	c #8D9677",
"> 	c #8B8E62",
", 	c #3F3D26",
"' 	c #83AED1",
") 	c #EBEDD2",
"! 	c #FEFEE0",
"~ 	c #E6E9CD",
"{ 	c #A8BABB",
"] 	c #A2A8A2",
"^ 	c #D1C298",
"/ 	c #CDC498",
"( 	c #C6BB7A",
"_ 	c #4D462B",
": 	c #4E7EAA",
"< 	c #EDF1DA",
"[ 	c #FFFFE8",
"} 	c #FDFDDA",
"| 	c #DEDEA3",
"1 	c #E2DDA4",
"2 	c #ACA376",
"3 	c #9B9263",
"4 	c #1C1C17",
"5 	c #5E93C5",
"6 	c #BEC59F",
"7 	c #DDE1B2",
"8 	c #EFF3CD",
"9 	c #F8F6D1",
"0 	c #FDFBD1",
"a 	c #F9F5C3",
"b 	c #ACAE92",
"c 	c #F5ECA4",
"d 	c #9E9B76",
"e 	c #6D6F57",
"f 	c #484734",
"g 	c #2C527B",
"h 	c #4D85BE",
"i 	c #5B8DB9",
"j 	c #6E95AB",
"k 	c #9AB890",
"l 	c #95B78A",
"m 	c #C1C290",
"n 	c #DCC791",
"o 	c #C8B78C",
"p 	c #ABAC8C",
"q 	c #3A5161",
"r 	c #3E474E",
"s 	c #73726A",
"t 	c #343434",
"u 	c #2B4F75",
"v 	c #4C82B7",
"w 	c #ABB399",
"x 	c #BDBA8C",
"y 	c #B6AF86",
"z 	c #BEB184",
"A 	c #CDB781",
"B 	c #607477",
"C 	c #243B51",
"D 	c #3D3C3C",
"E 	c #98989B",
"F 	c #B3B3B2",
"G 	c #24496E",
"H 	c #467AB1",
"I 	c #4B79A4",
"J 	c #C7C5AE",
"K 	c #E6CB93",
"L 	c #A89C76",
"M 	c #3C596F",
"N 	c #12386A",
"O 	c #485661",
"P 	c #2F2E2C",
"Q 	c #4B4C4C",
"R 	c #89898A",
"S 	c #000000",
"T 	c #15314B",
"U 	c #3B6898",
"V 	c #537593",
"W 	c #D9CFA2",
"X 	c #D0C892",
"Y 	c #A7A879",
"Z 	c #7C8270",
"` 	c #2D4B65",
" .	c #979796",
"..	c #515152",
"+.	c #464646",
"@.	c #111C29",
"#.	c #295482",
"$.	c #33608D",
"%.	c #2E5984",
"&.	c #C9C6A3",
"*.	c #EBD490",
"=.	c #82866E",
"-.	c #545B5B",
";.	c #A0A4A3",
">.	c #C4C3C4",
",.	c #838384",
"'.	c #101F31",
").	c #204872",
"!.	c #597282",
"~.	c #898479",
"{.	c #274155",
"].	c #7D8183",
"^.	c #5B5C5D",
"/.	c #151515",
"(.	c #224263",
"_.	c #193F75",
":.	c #1D3E60",
"<.	c #21415C",
"[.	c #1E3D55",
"}.	c #A4A8AB",
"|.	c #686767",
"1.	c #060C13",
"2.	c #17273A",
"3.	c #1D3652",
"4.	c #1C354B",
"5.	c #102537",
"6.	c #1B232A",
"7.	c #585857",
"8.	c #282827",
"                                ",
"        . + @ # $               ",
"      % & * = - ; > ,           ",
"    ' ) ! ~ { ] ^ / ( _         ",
"  : < [ ! } ! ) | 1 2 3 4       ",
". 5 6 7 8 9 0 a b c d e f       ",
"g h i j k l m n o p q r s t     ",
"u h v % w x y z A B C D E F t   ",
"G H I I J K z L M N O P Q R Q S ",
"T U U V W X Y Z ` C Z  ...+.@.S ",
"  #.$.%.&.*.=.q -.C ;.>.,.t S S ",
"  '.g ).!.~.` . {.T ].F ^./.S   ",
"    @.(._.N :.<.(.[.}.|.S S S   ",
"      1.2.3.3.4.5.6. .P S S     ",
"        S S S S S D 7.S S       ",
"              S   ..8.S         ",
};
