/* XPM */
static char * news_xpm[] = {
"16 16 32 1",
" 	c None",
".	c #F5F5F5",
"+	c #DCDCDC",
"@	c #A3A3A3",
"#	c #5A5A5A",
"$	c #949494",
"%	c #BDBDBD",
"&	c #C5C5C5",
"*	c #AAAAAA",
"=	c #D6D6D6",
"-	c #FFFFFF",
";	c #E2E2E2",
">	c #535353",
",	c #7C7C7C",
"'	c #838383",
")	c #626262",
"!	c #6C6C6C",
"~	c #3C3C3C",
"{	c #434343",
"]	c #4C4C4C",
"^	c #737373",
"/	c #CCCCCC",
"(	c #8C8C8C",
"_	c #232323",
":	c #343434",
"<	c #9C9C9C",
"[	c #ECECEC",
"}	c #B5B5B5",
"|	c #191919",
"1	c #141414",
"2	c #0A0A0A",
"3	c #010101",
"                ",
"                ",
" .+@      #$%&+ ",
" *+=-;  >,#'@)' ",
"  %$=%;'!~~{]^$ ",
"  +@/(%!_:{!,(< ",
"  [/-/;':]>!,!^ ",
"  .}++.@{]]),,* ",
"  .&=&.@{{>!^<< ",
"  -+;*[@{]]>!@< ",
"  [-.&;<]]>^'*} ",
"   ~$;-@!)>)!^! ",
"     |$$~_12333 ",
"      323333    ",
"       33       ",
"                "};
