/* XPM */
static char * application_xpm[] = {
"16 16 84 1",
" 	c None",
".	c #F4F4F4",
"+	c #E5E5E5",
"@	c #EDECEB",
"#	c #D5D5D5",
"$	c #DEDEDE",
"%	c #9C9C9C",
"&	c #ACACAD",
"*	c #FFFFFF",
"=	c #B6B6B6",
"-	c #8E8E8E",
";	c #A7A8A9",
">	c #B0AFAD",
",	c #A1A09F",
"'	c #202020",
")	c #767C84",
"!	c #9FACBE",
"~	c #A0AAB9",
"{	c #B3BAC5",
"]	c #CCCED0",
"^	c #BCBCBB",
"/	c #000000",
"(	c #0A0C0C",
"_	c #72726C",
":	c #AAAA98",
"<	c #ABACA4",
"[	c #9BA2A4",
"}	c #86929C",
"|	c #818EA3",
"1	c #98A4B6",
"2	c #91959B",
"3	c #6A6A6A",
"4	c #121314",
"5	c #9E9E97",
"6	c #C4C3B3",
"7	c #8B8B7A",
"8	c #918F7E",
"9	c #93927F",
"0	c #B1B1A2",
"a	c #737474",
"b	c #737F90",
"c	c #8B9AB0",
"d	c #8C98A9",
"e	c #5A5B5C",
"f	c #141619",
"g	c #CFCEBE",
"h	c #8C8C76",
"i	c #9C9C89",
"j	c #828272",
"k	c #71715F",
"l	c #BDBCAD",
"m	c #615E55",
"n	c #5F6976",
"o	c #454E59",
"p	c #060909",
"q	c #0E1111",
"r	c #A4B1C0",
"s	c #5D6467",
"t	c #7F7F73",
"u	c #888673",
"v	c #78786A",
"w	c #5E5D4C",
"x	c #373A3C",
"y	c #B5C1CE",
"z	c #CFDDE9",
"A	c #6D6E65",
"B	c #787762",
"C	c #3B3D3C",
"D	c #262A31",
"E	c #0D0F11",
"F	c #181D20",
"G	c #343941",
"H	c #7B848E",
"I	c #BECAD4",
"J	c #C5D3E1",
"K	c #94A0B1",
"L	c #616973",
"M	c #474946",
"N	c #687384",
"O	c #31373F",
"P	c #161A1B",
"Q	c #4A535F",
"R	c #2B3135",
"S	c #21252A",
"                ",
"                ",
"       ..+@#    ",
"      $%&+@*=   ",
"    -;>,;#=#'   ",
"    )!~{]^@-/(  ",
"   _:<[}|1{2;34 ",
"  567890<abcdef ",
" aghi79jklmnopq ",
" rsthu7v<wxnfq4 ",
" yzdsAj9BCbDEFE ",
" GHIJKLAMNO(PE/ ",
"  4OL}dnQREPE/  ",
"    (fSSfEE//   ",
"                ",
"                "};
