/* XPM */
static char * wm_stop_xpm[] = {
"16 16 78 1",
" 	c None",
".	c #D32B15",
"+	c #BC2713",
"@	c #BE2817",
"#	c #C22A19",
"$	c #AB2B1B",
"%	c #E33116",
"&	c #C22512",
"*	c #A41D13",
"=	c #9C1C17",
"-	c #9C2112",
";	c #A22414",
">	c #A52A1C",
",	c #B32A1C",
"'	c #A83225",
")	c #A22C23",
"!	c #CF2414",
"~	c #941511",
"{	c #A72622",
"]	c #A2231D",
"^	c #951C17",
"/	c #9D221D",
"(	c #7A231B",
"_	c #C84D18",
":	c #C7791C",
"<	c #C7731D",
"[	c #C87826",
"}	c #C87E33",
"|	c #C6782D",
"1	c #BE7328",
"2	c #B96D28",
"3	c #B9612F",
"4	c #942722",
"5	c #D5771D",
"6	c #E8C328",
"7	c #E2B62C",
"8	c #E1B828",
"9	c #DFB52D",
"0	c #D8AE39",
"a	c #DBB139",
"b	c #D5B13A",
"c	c #C58B37",
"d	c #23100D",
"e	c #CF6F1F",
"f	c #DDAD2F",
"g	c #DEB233",
"h	c #DAAD31",
"i	c #D5A733",
"j	c #D0A538",
"k	c #D3AB41",
"l	c #C38538",
"m	c #160806",
"n	c #B9351C",
"o	c #AD421D",
"p	c #AA4424",
"q	c #A44426",
"r	c #A94C30",
"s	c #AC4430",
"t	c #792722",
"u	c #010000",
"v	c #9C2B25",
"w	c #A23631",
"x	c #36120F",
"y	c #50130D",
"z	c #A4352C",
"A	c #9D3127",
"B	c #9D332A",
"C	c #5D211C",
"D	c #3C110E",
"E	c #94281E",
"F	c #933129",
"G	c #4E1C19",
"H	c #130604",
"I	c #441510",
"J	c #651E18",
"K	c #71221B",
"L	c #6A231E",
"M	c #491815",
"                ",
"                ",
"     ..+@#$     ",
"   %&*=-;>>,    ",
"  %+-$>;;$')>   ",
"  !~**{]=^/){(  ",
"  _:<<[}|12134  ",
" ~5678990a0bc4d ",
" ~e8fghiijkkl4m ",
"  noopppqqqrstu ",
"  $]]/vv44vvwx  ",
"  y$>vvzvABzCu  ",
"   DE''zwzFGu   ",
"    HIJKLMHu    ",
"       uu       ",
"                "};
