/* XPM */
static char * science_xpm[] = {
"16 16 116 2",
"  	c None",
". 	c #C0A3A3",
"+ 	c #BCBBBC",
"@ 	c #BAB8B7",
"# 	c #B4B3B4",
"$ 	c #AFACB0",
"% 	c #D4D4D4",
"& 	c #DCDCDC",
"* 	c #E4E4E4",
"= 	c #EAF6F6",
"- 	c #EBE4E4",
"; 	c #949393",
"> 	c #CAC6CA",
", 	c #FCFCFC",
"' 	c #F4F4F4",
") 	c #F3EDF3",
"! 	c #E8EAE7",
"~ 	c #EAA6A6",
"{ 	c #E0DEDE",
"] 	c #D7DBD7",
"^ 	c #9F9E9E",
"/ 	c #EEF0EE",
"( 	c #C2EBBD",
"_ 	c #BBF1BF",
": 	c #EFC1CB",
"< 	c #F15250",
"[ 	c #D1BFC2",
"} 	c #DCDBE3",
"| 	c #CBCCCC",
"1 	c #CED3D3",
"2 	c #ADB2B2",
"3 	c #E2DEE2",
"4 	c #EBECEB",
"5 	c #BCE8B6",
"6 	c #92F696",
"7 	c #EDACB4",
"8 	c #E6827F",
"9 	c #E2A5A9",
"0 	c #A9D9A6",
"a 	c #CBD0CA",
"b 	c #C8C2C7",
"c 	c #CFA6A3",
"d 	c #C59191",
"e 	c #EAE2EA",
"f 	c #89EC7E",
"g 	c #63FD65",
"h 	c #DEBBB8",
"i 	c #E1A0A0",
"j 	c #E2B8C5",
"k 	c #94C46C",
"l 	c #88EB94",
"m 	c #B7A985",
"n 	c #ED424D",
"o 	c #E56260",
"p 	c #EBDBEA",
"q 	c #81F482",
"r 	c #69B91C",
"s 	c #D79A91",
"t 	c #B49763",
"u 	c #7BCD5A",
"v 	c #B18045",
"w 	c #BBA599",
"x 	c #C4ADAF",
"y 	c #A7B4A6",
"z 	c #E7D7E4",
"A 	c #9CF0A4",
"B 	c #88A731",
"C 	c #818E09",
"D 	c #78CB4E",
"E 	c #7CE77C",
"F 	c #98BC70",
"G 	c #EC3533",
"H 	c #8EA746",
"I 	c #7ADC85",
"J 	c #C5B3C6",
"K 	c #81EF7B",
"L 	c #9CF0A9",
"M 	c #D1866E",
"N 	c #98A244",
"O 	c #50FD59",
"P 	c #77DB67",
"Q 	c #77E378",
"R 	c #C28B78",
"S 	c #ACA88A",
"T 	c #77D76E",
"U 	c #ADB1AC",
"V 	c #A8C1A5",
"W 	c #7CE464",
"X 	c #9A9B3D",
"Y 	c #D57765",
"Z 	c #D7C3D5",
"` 	c #73DF68",
" .	c #79DA70",
"..	c #98C998",
"+.	c #96C292",
"@.	c #6BB465",
"#.	c #5AAF41",
"$.	c #C98459",
"%.	c #B37E3E",
"&.	c #AFA26A",
"*.	c #B1C6AE",
"=.	c #A6BFA5",
"-.	c #9C949C",
";.	c #7C837B",
">.	c #68AC4E",
",.	c #C5A487",
"'.	c #BFC7B7",
").	c #AFD4B9",
"!.	c #766170",
"~.	c #DA8989",
"{.	c #C9BBBB",
"].	c #D0CDD2",
"^.	c #848684",
"/.	c #AC999B",
"(.	c #B7ADB8",
"_.	c #707879",
"                                ",
"                . + @ # @ @     ",
"  $ % & * & & * = - * & & & ;   ",
"  > , ' ' ' ) ! ~ { & % % ] ^   ",
"    ! / ) ( _ : < [ } % | 1 2   ",
"    3 4 4 5 6 7 8 9 0 a b c d   ",
"    | 4 e f g h i j k l m n o   ",
"    + ! p q r s s 0 t u v w x   ",
"    y { z A B C D E F G H I J   ",
"      | K L M N O P Q R S T U   ",
"      V W X Y Z `  .T ..J +.@.  ",
"      #.$.%.&.> *.@ *.=.-.;.    ",
"      >.,.'.).b > + ; !.        ",
"        ~.{.].# ^.              ",
"        /.(.&.                  ",
"        _.                      "};
