/* XPM */
static char * todo_xpm[] = {
"16 16 25 1",
" 	c None",
".	c #222222",
"+	c #4D4D4D",
"@	c #3B3B3B",
"#	c #A5A5A5",
"$	c #EFEFEF",
"%	c #D3D3D3",
"&	c #B3B3B3",
"*	c #6E6E6E",
"=	c #2C2C2C",
"-	c #CCCCCC",
";	c #C4C4C4",
">	c #858585",
",	c #5A5A5A",
"'	c #BCBCBC",
")	c #363636",
"!	c #555555",
"~	c #898989",
"{	c #1B1B1B",
"]	c #DEDEDE",
"^	c #ACACAC",
"/	c #7B7B7B",
"(	c #646464",
"_	c #434343",
":	c #9E9E9E",
"                ",
"      .+@       ",
"      #$%&*     ",
"     =*%-;%>    ",
"    .>,>';';)   ",
"    !;#!+*~~{   ",
"    >;]^,@{     ",
"   .^;-;^/+     ",
"   {^-;&(!_     ",
"    +-':__      ",
"     )>~*.      ",
"     _= {       ",
"    =>          ",
"   _*=          ",
"   ),(          ",
"    .           ",
};
