/* XPM */
static char * terminal_special_xpm[] = {
"16 16 99 2",
"  	c None",
". 	c #828177",
"+ 	c #8C8982",
"@ 	c #898680",
"# 	c #83827D",
"$ 	c #857D7A",
"% 	c #7B7B7A",
"& 	c #7D7B75",
"* 	c #73726C",
"= 	c #6C6A65",
"- 	c #EFECE4",
"; 	c #B7B5B2",
"> 	c #AFAEAA",
", 	c #A5A7A8",
"' 	c #9F9F99",
") 	c #979893",
"! 	c #94938D",
"~ 	c #797572",
"{ 	c #716E68",
"] 	c #C0BCB8",
"^ 	c #8F8E90",
"/ 	c #717372",
"( 	c #6B6B69",
"_ 	c #646562",
": 	c #5B5C5B",
"< 	c #4C4B4C",
"[ 	c #39363A",
"} 	c #312E34",
"| 	c #C4C2BD",
"1 	c #8E8E8C",
"2 	c #6F706F",
"3 	c #535253",
"4 	c #3D3E3D",
"5 	c #333533",
"6 	c #696668",
"7 	c #575959",
"8 	c #474A47",
"9 	c #2A2B2A",
"0 	c #5E615F",
"a 	c #4F524D",
"b 	c #484648",
"c 	c #242424",
"d 	c #AEB0AA",
"e 	c #65635E",
"f 	c #A8A9A5",
"g 	c #474547",
"h 	c #505050",
"i 	c #868786",
"j 	c #A6ADA2",
"k 	c #799D6B",
"l 	c #40663A",
"m 	c #1F411A",
"n 	c #283724",
"o 	c #434341",
"p 	c #3A3A3A",
"q 	c #ABA9A9",
"r 	c #D8E3D3",
"s 	c #A3BA99",
"t 	c #ACD69D",
"u 	c #609350",
"v 	c #235716",
"w 	c #14440D",
"x 	c #565458",
"y 	c #5B5D5B",
"z 	c #A7B0A4",
"A 	c #DBDFD7",
"B 	c #9ABF8D",
"C 	c #B2DEA5",
"D 	c #216416",
"E 	c #1D5016",
"F 	c #615D5A",
"G 	c #C0BEB6",
"H 	c #938F8D",
"I 	c #988483",
"J 	c #7A9C65",
"K 	c #81B971",
"L 	c #7EB271",
"M 	c #84C776",
"N 	c #4F8745",
"O 	c #143D0F",
"P 	c #565855",
"Q 	c #928780",
"R 	c #8D827B",
"S 	c #74726C",
"T 	c #61994C",
"U 	c #3D992A",
"V 	c #3BA52B",
"W 	c #22691A",
"X 	c #465730",
"Y 	c #3F4A3E",
"Z 	c #45433F",
"` 	c #6D6B67",
" .	c #5D6A55",
"..	c #2E9824",
"+.	c #375435",
"@.	c #53524E",
"#.	c #504F4A",
"$.	c #4B4947",
"%.	c #0E2E0B",
"                                ",
"    . + + @ @ # $ % & & * * =   ",
"  = - ; ; > , ' ) ! @ # % ~ & ! ",
"  { ] , ^ / / ( _ : : < < [ } & ",
"  = | 1 % % % 2 _ : : 3 < 4 5 & ",
"  = ; % % 2 6 _ 7 7 < 3 8 5 9 ~ ",
"  = ; ( 2 _ 0 0 7 a < b 4 9 c { ",
"  _ d 0 ( ( 0 7 3 < b 4 5 9 c = ",
"  e f 7 _ : 7 g h i j k l m n 6 ",
"  e ' < a 8 o p q r s t u v w _ ",
"  e ! < : x x y z A B C u D E F ",
"  < G 1 H @ $ I J K L M N w O ( ",
"    P . . Q R S S T U V W X Y   ",
"        Z ( * ( ` `  ...+.      ",
"    4 a F P @.#.$.$.$.%.Z 4 4   ",
"                                "};
