/* XPM */
static char * unknown_xpm[] = {
"16 16 48 1",
" 	c None",
".	c #625942",
"+	c #B2A275",
"@	c #D2C7A5",
"#	c #958462",
"$	c #BAAA86",
"%	c #C5B799",
"&	c #716445",
"*	c #9B8F72",
"=	c #7E6B51",
"-	c #8A7D65",
";	c #D1BE99",
">	c #63503F",
",	c #A98C6D",
"'	c #8F7B5C",
")	c #ADA294",
"!	c #997961",
"~	c #9D8065",
"{	c #AC9179",
"]	c #A79784",
"^	c #95735E",
"/	c #7D6B5A",
"(	c #926D5C",
"_	c #A88974",
":	c #DDCCBF",
"<	c #5D4239",
"[	c #845D4B",
"}	c #B79A8C",
"|	c #8B5A4F",
"1	c #DFD0CA",
"2	c #2A1B19",
"3	c #66433C",
"4	c #8C6154",
"5	c #D9C8C4",
"6	c #4A2C29",
"7	c #89544D",
"8	c #7A4942",
"9	c #CCB4B0",
"0	c #824B47",
"a	c #9F7976",
"b	c #997676",
"c	c #B69B9A",
"d	c #311A1A",
"e	c #6F3434",
"f	c #8D6868",
"g	c #5B3232",
"h	c #773535",
"i	c #B49595",
"      .+@       ",
"      #$%&*     ",
"      =$ -;     ",
"      >,=  ')   ",
"     >,!~{ ]    ",
"     ^!!^{  /   ",
"      ^(^_  :   ",
"      <([}      ",
"      <|(1      ",
"    23|45       ",
"    6789        ",
"     08a        ",
"      bc        ",
"                ",
"    def         ",
"    ghi         "};
