/* XPM */
static char * viewer_xpm[] = {
"16 16 96 2",
"  	c None",
". 	c #8A7726",
"+ 	c #98883A",
"@ 	c #B2A44A",
"# 	c #8A843A",
"$ 	c #887432",
"% 	c #B9AA73",
"& 	c #BEB694",
"* 	c #BBBAB5",
"= 	c #C6C3A9",
"- 	c #DBD696",
"; 	c #DECE5C",
"> 	c #222223",
", 	c #928143",
"' 	c #ADA99A",
") 	c #AAACB4",
"! 	c #ADADAD",
"~ 	c #A7A8B1",
"{ 	c #BCA13B",
"] 	c #A29974",
"^ 	c #AA9850",
"/ 	c #9D9DA6",
"( 	c #AAA8A5",
"_ 	c #B2A679",
": 	c #978126",
"< 	c #262933",
"[ 	c #AB9D63",
"} 	c #A59966",
"| 	c #A1A3AA",
"1 	c #B3B3B2",
"2 	c #B3B0A4",
"3 	c #01030E",
"4 	c #A79B5D",
"5 	c #BAB285",
"6 	c #BAAC54",
"7 	c #BBB276",
"8 	c #D6C981",
"9 	c #B4B5BC",
"0 	c #BCBCBB",
"a 	c #C5BEA7",
"b 	c #AB9839",
"c 	c #8E8C7D",
"d 	c #EEE378",
"e 	c #C5C3B3",
"f 	c #C3C6D2",
"g 	c #C4C4C2",
"h 	c #C6B87F",
"i 	c #101119",
"j 	c #707179",
"k 	c #EEE8B5",
"l 	c #C1AD49",
"m 	c #D0D1D5",
"n 	c #CDCED5",
"o 	c #CDCCCA",
"p 	c #C7BB8D",
"q 	c #B79D39",
"r 	c #D3D3C7",
"s 	c #737577",
"t 	c #383736",
"u 	c #FEFEFF",
"v 	c #D8D0AA",
"w 	c #B59F49",
"x 	c #C3AE5D",
"y 	c #D2C574",
"z 	c #C8B558",
"A 	c #C5B36C",
"B 	c #111211",
"C 	c #D9D9D9",
"D 	c #EEEEEB",
"E 	c #E2DCBA",
"F 	c #E0D9B4",
"G 	c #E7E3D1",
"H 	c #EDF2FB",
"I 	c #AF7F6B",
"J 	c #694748",
"K 	c #9E9E9E",
"L 	c #F7F7F6",
"M 	c #F2F3F8",
"N 	c #595958",
"O 	c #07080A",
"P 	c #582E31",
"Q 	c #BA8A86",
"R 	c #6D4544",
"S 	c #4E4E4E",
"T 	c #E6E6E5",
"U 	c #989796",
"V 	c #000000",
"W 	c #110001",
"X 	c #723738",
"Y 	c #B78B86",
"Z 	c #858585",
"` 	c #666666",
" .	c #2C0405",
"..	c #763A3C",
"+.	c #460F11",
"@.	c #412525",
"                                ",
"            . + @ #             ",
"        $ % & * = - ;           ",
"    > , ' ) ! ! ! ~ ' {         ",
"    ] ^ / ( ! ! ! ! ) _ :       ",
"  < [ } | ! ! 1 1 ! ! 2 @       ",
"  3 4 5 ~ 1 1 1 1 1 ) * 6       ",
"    7 8 9 * 0 0 0 * 9 a b       ",
"    c d e f e g g g f h [ i     ",
"    j k l a m n n o p q r s     ",
"    t u v w x y y z A z % / B   ",
"      C u D E E F G H _ I J     ",
"      K u L u u M 0 N O P Q R   ",
"      S u u T U t V V V W X Y R ",
"        Z ` B V V V        ...Q ",
"                            +.@."};
