/* XPM */
static char * window_destroy_xpm[] = {
"16 16 97 2",
"  	c None",
". 	c #C58280",
"+ 	c #DA5B55",
"@ 	c #D3504A",
"# 	c #B6504B",
"$ 	c #9E6F6C",
"% 	c #E6655E",
"& 	c #FF4A41",
"* 	c #F7534C",
"= 	c #D8403C",
"- 	c #BF302A",
"; 	c #921C16",
"> 	c #84514F",
", 	c #FF6157",
"' 	c #FD6D66",
") 	c #B2332D",
"! 	c #A1342E",
"~ 	c #76241F",
"{ 	c #B18C8D",
"] 	c #E05650",
"^ 	c #982F2B",
"/ 	c #83565B",
"( 	c #B5B089",
"_ 	c #937763",
": 	c #7D595D",
"< 	c #61443B",
"[ 	c #A58C40",
"} 	c #B4AA68",
"| 	c #B6B296",
"1 	c #BDAF67",
"2 	c #E5CA3D",
"3 	c #EACF3F",
"4 	c #868467",
"5 	c #61656A",
"6 	c #3C3F3E",
"7 	c #AB9B39",
"8 	c #C9B026",
"9 	c #B1A14C",
"0 	c #CAC47A",
"a 	c #F2D835",
"b 	c #E7CC35",
"c 	c #DEC851",
"d 	c #9D9A9A",
"e 	c #737078",
"f 	c #54525D",
"g 	c #978A4B",
"h 	c #C4AD2D",
"i 	c #BEA82D",
"j 	c #A4985C",
"k 	c #B2AC7B",
"l 	c #F1DD3B",
"m 	c #E0CA51",
"n 	c #B9AA5C",
"o 	c #C4AD32",
"p 	c #BCA73A",
"q 	c #92822C",
"r 	c #A39D7E",
"s 	c #CBBB59",
"t 	c #CEB843",
"u 	c #CDB52F",
"v 	c #B7A22D",
"w 	c #A5932D",
"x 	c #877825",
"y 	c #73651D",
"z 	c #9F9B86",
"A 	c #DCC53C",
"B 	c #D6C752",
"C 	c #B5A445",
"D 	c #A8973B",
"E 	c #86792E",
"F 	c #837528",
"G 	c #7B6D20",
"H 	c #7B6D1E",
"I 	c #746825",
"J 	c #9C9A92",
"K 	c #C6B038",
"L 	c #BAA42C",
"M 	c #827323",
"N 	c #7E7021",
"O 	c #685D21",
"P 	c #AC9C44",
"Q 	c #8A7B28",
"R 	c #5B521D",
"S 	c #989062",
"T 	c #6F631E",
"U 	c #3A3828",
"V 	c #969387",
"W 	c #AB982B",
"X 	c #8E7E22",
"Y 	c #484329",
"Z 	c #3F3D36",
"` 	c #454649",
" .	c #626365",
"..	c #756F4E",
"+.	c #44402B",
"@.	c #42413D",
"#.	c #4F4F53",
"                                ",
"            . + @ # $           ",
"          % & * = - ; >         ",
"          % , ' + ) ! ~         ",
"          { ] = ) ^ ; /         ",
"            ( _ : < [ }         ",
"      | 1 2 3 4 5 6 7 8 9       ",
"      0 a b c d e f g h i j     ",
"      k l b b m n 9 o o p q     ",
"      r l s t b u v w q x y     ",
"      z A B C D E F G G H I     ",
"      J K L E E M N G G H O     ",
"        P i Q N H H H H H R     ",
"        S L x H H H H T R U     ",
"        V W X H T R Y Z `  .    ",
"          ..R +.@.#.            "};
