/* XPM */
static char * identify_xpm[] = {
"16 16 46 1",
" 	c None",
".	c #000000",
"+	c #564B32",
"@	c #B1965E",
"#	c #997E48",
"$	c #4F4125",
"%	c #958050",
"&	c #FFE69D",
"*	c #B99859",
"=	c #DCB155",
"-	c #FED478",
";	c #9B7D40",
">	c #483E28",
",	c #503E19",
"'	c #000514",
")	c #413A2C",
"!	c #E6B75B",
"~	c #F0C366",
"{	c #44371E",
"]	c #AD9251",
"^	c #E5BA60",
"/	c #64625E",
"(	c #C59F53",
"_	c #261A01",
":	c #212120",
"<	c #2F230B",
"[	c #ECC77A",
"}	c #AE8C46",
"|	c #444445",
"1	c #AC8C4C",
"2	c #EFC673",
"3	c #06090D",
"4	c #6C5831",
"5	c #856F46",
"6	c #9D824A",
"7	c #251C0D",
"8	c #927946",
"9	c #A78541",
"0	c #0C0E11",
"a	c #0C0C0C",
"b	c #4B412E",
"c	c #5C523C",
"d	c #C8B575",
"e	c #E3BC68",
"f	c #816A3C",
"g	c #7B612E",
"                ",
"     .+@#$.     ",
"     %&*=-;.    ",
"    >&,')!~{    ",
"    ]^. /(^_    ",
"    {{: <[}.    ",
"       |12<3    ",
"       4[5.     ",
"       627      ",
"       89.      ",
"       0a       ",
"       bc|      ",
"       de.      ",
"       fg.      ",
"        .       ",
"                "};
