/* XPM */
static char * window_shade_xpm[] = {
"16 16 80 1",
" 	c None",
".	c #131512",
"+	c #35372B",
"@	c #1F211A",
"#	c #262922",
"$	c #657349",
"%	c #353A2B",
"&	c #39432D",
"*	c #76925A",
"=	c #546642",
"-	c #010101",
";	c #829D76",
">	c #7AA665",
",	c #749E5F",
"'	c #769F61",
")	c #100E10",
"!	c #656464",
"~	c #928D8A",
"{	c #766767",
"]	c #544F4D",
"^	c #99B593",
"/	c #393E2D",
"(	c #5D5C5B",
"_	c #747271",
":	c #4A4B48",
"<	c #8B8783",
"[	c #6D6E6D",
"}	c #5B6659",
"|	c #51544F",
"1	c #0B0D0B",
"2	c #26291F",
"3	c #718B65",
"4	c #898C8B",
"5	c #F9F7F9",
"6	c #FEFEFE",
"7	c #F4F5F4",
"8	c #E7E9E8",
"9	c #ABAAAB",
"0	c #648059",
"a	c #617C56",
"b	c #7DAC69",
"c	c #81A479",
"d	c #909490",
"e	c #B0AFB0",
"f	c #537549",
"g	c #86A470",
"h	c #363A27",
"i	c #748C56",
"j	c #77A161",
"k	c #6DA55E",
"l	c #F1EFF2",
"m	c #828381",
"n	c #4B7541",
"o	c #6E8D54",
"p	c #4D593C",
"q	c #5B7C4A",
"r	c #5B6E54",
"s	c #DEDEDF",
"t	c #527342",
"u	c #6A8555",
"v	c #21221C",
"w	c #2F342C",
"x	c #CBCACB",
"y	c #B1B1B1",
"z	c #6A6E66",
"A	c #A1A0A1",
"B	c #507D45",
"C	c #7B7D79",
"D	c #DEDBE0",
"E	c #979C98",
"F	c #181916",
"G	c #222523",
"H	c #79AB66",
"I	c #282E25",
"J	c #6A7961",
"K	c #5C714A",
"L	c #3E4138",
"M	c #899B6D",
"N	c #718650",
"O	c #464F37",
"      .++@      ",
"      #$$%      ",
"      &**=-     ",
"     #;>,'%)    ",
"   !~{]^>/(_(-  ",
"   :~<_[}[_;|1  ",
".2&3456786690a+.",
"+$*bcd5656efbg3h",
"+$ijk}l656mnboih",
"@&pqrs66666[tupv",
"  -wx66ym665z1- ",
"   !88AfBCD7E-  ",
"   FG#abHqI)1-  ",
"     -JgoK.-    ",
"      LMNO-     ",
"      F/h@      "};
