/* XPM */
static char * word_processor_xpm[] = {
"16 16 69 1",
" 	c None",
".	c #9D8165",
"+	c #CAB5A0",
"@	c #6E6E6E",
"#	c #A59B90",
"$	c #C0A890",
"%	c #A68668",
"&	c #574637",
"*	c #939393",
"=	c #B4B3B3",
"-	c #BCBCBC",
";	c #C5C5C5",
">	c #B7A797",
",	c #B29A83",
"'	c #A78D74",
")	c #927F6C",
"!	c #13100D",
"~	c #CCCCCC",
"{	c #ADADAD",
"]	c #B3AFAB",
"^	c #B8ACA1",
"/	c #B39D89",
"(	c #947B63",
"_	c #A59280",
":	c #423E39",
"<	c #010101",
"[	c #BEBEBE",
"}	c #898785",
"|	c #8F7B68",
"1	c #AA937D",
"2	c #AB9784",
"3	c #87796B",
"4	c #0C0B0B",
"5	c #8B8B8B",
"6	c #9B8A7A",
"7	c #9C8671",
"8	c #8E765E",
"9	c #9B836D",
"0	c #A28F7C",
"a	c #3D3A37",
"b	c #242424",
"c	c #BEBFC0",
"d	c #AB9B8D",
"e	c #685E54",
"f	c #64615E",
"g	c #494949",
"h	c #8A7E73",
"i	c #2D2D2D",
"j	c #BCA58F",
"k	c #8F7963",
"l	c #9C9C9B",
"m	c #9F8873",
"n	c #BCAD9D",
"o	c #434343",
"p	c #DBDBDB",
"q	c #1F1F1F",
"r	c #846950",
"s	c #988D84",
"t	c #3B3A3A",
"u	c #636363",
"v	c #604D3A",
"w	c #261F18",
"x	c #525252",
"y	c #A5A5A5",
"z	c #221B14",
"A	c #2E251C",
"B	c #3F4040",
"C	c #2F3030",
"D	c #131313",
"                ",
"           .+   ",
"        @#$%&   ",
"    *=-;>,')!   ",
"   ~{*]^/(_:<<  ",
"   ;[}|,1234<   ",
"   *567890ab4   ",
"   cd$17debfg   ",
"   ]1()dhig}{i  ",
"   #jk9|ag5{;l  ",
"   'mn6ao}{~p=q ",
"   r6sot[-p-u4< ",
"  vwgox*-yx4<<  ",
" zA B*}@C<<<    ",
"    Dt4<<       ",
"                "};
