/* XPM */
static char * AquaGreenX_xpm[] = {
"17 19 178 2",
"  	c None",
". 	c #F1F1F1",
"+ 	c #F0F0F0",
"@ 	c #EFEFEF",
"# 	c #EAEAEA",
"$ 	c #E9E9E9",
"% 	c #E8E8E8",
"& 	c #9B9B9B",
"* 	c #595959",
"= 	c #262626",
"- 	c #090909",
"; 	c #D6D6D6",
"> 	c #6B6B6B",
", 	c #3D3D3D",
"' 	c #8C8C8C",
") 	c #BABABA",
"! 	c #CCCDCC",
"~ 	c #FFFFFE",
"{ 	c #FCFCFC",
"] 	c #F8F8F8",
"^ 	c #6D6D6D",
"/ 	c #3F3F3F",
"( 	c #909D90",
"_ 	c #C9D5C9",
": 	c #E4ECE4",
"< 	c #E6EEE6",
"[ 	c #949494",
"} 	c #232A23",
"| 	c #547A54",
"1 	c #73A573",
"2 	c #9EC695",
"3 	c #7EA06E",
"4 	c #476836",
"5 	c #749664",
"6 	c #E7E7E7",
"7 	c #DBDBDB",
"8 	c #4B4B4B",
"9 	c #326032",
"0 	c #3A8935",
"a 	c #539B2D",
"b 	c #6BAB2F",
"c 	c #427F0A",
"d 	c #094800",
"e 	c #387500",
"f 	c #6AAA2F",
"g 	c #398835",
"h 	c #EAEAE9",
"i 	c #D3D3D3",
"j 	c #1D381D",
"k 	c #348234",
"l 	c #47951D",
"m 	c #5AA51B",
"n 	c #69AD2A",
"o 	c #468A0A",
"p 	c #0E5200",
"q 	c #3D8100",
"r 	c #6BB12B",
"s 	c #5BA71C",
"t 	c #489A1D",
"u 	c #F3F3F3",
"v 	c #D2D2D2",
"w 	c #074007",
"x 	c #4D9A34",
"y 	c #5FAB20",
"z 	c #0A5200",
"A 	c #195D00",
"B 	c #246700",
"C 	c #276700",
"D 	c #246800",
"E 	c #1B6100",
"F 	c #0B5300",
"G 	c #62AE20",
"H 	c #4E9B34",
"I 	c #074207",
"J 	c #E1E1E1",
"K 	c #BCBCBC",
"L 	c #175917",
"M 	c #5FA832",
"N 	c #76BD37",
"O 	c #206700",
"P 	c #307000",
"Q 	c #3C7A00",
"R 	c #3D7A03",
"S 	c #3D7B01",
"T 	c #317400",
"U 	c #206800",
"V 	c #77BF37",
"W 	c #5FAB32",
"X 	c #D8D8D9",
"Y 	c #B2B2B2",
"Z 	c #2E622E",
"` 	c #63AD2B",
" .	c #87CA48",
"..	c #97DC59",
"+.	c #A5E569",
"@.	c #84C549",
"#.	c #529015",
"$.	c #7CBD41",
"%.	c #A7EA6B",
"&.	c #98DC59",
"*.	c #89CF4B",
"=.	c #63AE2B",
"-.	c #2E632E",
";.	c #DFDFDF",
">.	c #526D52",
",.	c #51A31C",
"'.	c #91D255",
").	c #A6E76A",
"!.	c #B8F97A",
"~.	c #92D054",
"{.	c #619923",
"].	c #8BC64C",
"^.	c #B9FD7B",
"/.	c #A7EC6C",
"(.	c #94D657",
"_.	c #52A61C",
":.	c #EEEEEE",
"<.	c #CECECE",
"[.	c #909090",
"}.	c #42732B",
"|.	c #84CE43",
"1.	c #ADEF73",
"2.	c #C2FE88",
"3.	c #A0D062",
"4.	c #709931",
"5.	c #98C65A",
"6.	c #C6FE89",
"7.	c #B2F574",
"8.	c #88D343",
"9.	c #44752B",
"0.	c #E2E2E2",
"a.	c #CDCDCD",
"b.	c #9F9F9F",
"c.	c #60685F",
"d.	c #4B7C23",
"e.	c #92E14B",
"f.	c #BDF97B",
"g.	c #D0FD92",
"h.	c #D8FD9B",
"i.	c #D4FD95",
"j.	c #C0F97E",
"k.	c #98E84D",
"l.	c #4D8024",
"m.	c #60695F",
"n.	c #DEDEDE",
"o.	c #B4B4B4",
"p.	c #878787",
"q.	c #5C5C5C",
"r.	c #47672E",
"s.	c #689E33",
"t.	c #91CD47",
"u.	c #AAE955",
"v.	c #6A9E34",
"w.	c #496A2F",
"x.	c #E4E4E3",
"y.	c #D1D1D1",
"z.	c #B1B1B1",
"A.	c #8A8A8A",
"B.	c #666666",
"C.	c #515151",
"D.	c #454545",
"E.	c #424242",
"F.	c #F1F1EF",
"G.	c #EDEDED",
"H.	c #DADADA",
"I.	c #C2C2C2",
"J.	c #A4A4A4",
"K.	c #7B7B7B",
"L.	c #777776",
"M.	c #C7C7C7",
"N.	c #BBBBBB",
"O.	c #AEAEAE",
"P.	c #D9D9D9",
"Q.	c #D8D8D8",
"R.	c #D7D7D7",
"S.	c #D0D0D0",
"T.	c #DDDDDE",
"U.	c #DDDDDD",
". . . . . + + @ @ @ + + . . . . . ",
"# # # $ % & * = - = * & % $ # # # ",
". . @ ; > , ' ) ! ) ' , > ; @ . . ",
"~ { ] ^ / ( _ : < : _ ( / ^ ] { ~ ",
"@ # [ } | 1 2 3 4 5 2 1 | } [ # @ ",
"6 7 8 9 0 a b c d e f a g 9 8 7 6 ",
"h i j k l m n o p q r s t k j i h ",
"u v w x y z A B C D E F G H I v u ",
"J K L M N O P Q R S T U V W L K J ",
"X Y Z `  ...+.@.#.$.%.&.*.=.-.Y X ",
";.) >.,.'.).!.~.{.].^./.(._.>.) ;.",
":.<.[.}.|.1.2.3.4.5.6.7.8.9.[.<.:.",
"0.a.b.c.d.e.f.g.h.i.j.k.l.m.b.a.0.",
"n.v o.p.q.r.s.t.u.t.v.w.q.p.o.v n.",
"x.n.y.z.A.B.C.D.E.D.C.B.A.z.y.n.x.",
"F.G.# H.I.J.' K.L.K.' J.I.H.# G.F.",
"J J ;.7 i M.N.Y O.Y N.M.i 7 ;.J J ",
"P.P.P.Q.R.i S.a.a.a.S.i R.Q.P.P.P.",
"T.n.U.n.U.n.U.n.T.n.U.n.U.n.U.n.T."};
