/* XPM */
static char * AquaGreen_xpm[] = {
"17 19 175 2",
"  	c None",
". 	c #F1F1F1",
"+ 	c #F0F0F0",
"@ 	c #EFEFEF",
"# 	c #EAEAEA",
"$ 	c #E9E9E9",
"% 	c #E8E8E8",
"& 	c #9B9B9B",
"* 	c #595959",
"= 	c #262626",
"- 	c #090909",
"; 	c #D6D6D6",
"> 	c #6B6B6B",
", 	c #3D3D3D",
"' 	c #8C8C8C",
") 	c #BABABA",
"! 	c #CCCDCC",
"~ 	c #FFFFFE",
"{ 	c #FCFCFC",
"] 	c #F8F8F8",
"^ 	c #6D6D6D",
"/ 	c #3F3F3F",
"( 	c #909D90",
"_ 	c #C9D5C9",
": 	c #E4ECE4",
"< 	c #E6EEE6",
"[ 	c #949494",
"} 	c #232A23",
"| 	c #547A54",
"1 	c #73A573",
"2 	c #9EC695",
"3 	c #ACCE9C",
"4 	c #ADCE9C",
"5 	c #E7E7E7",
"6 	c #DBDBDB",
"7 	c #4B4B4B",
"8 	c #326032",
"9 	c #3A8935",
"0 	c #539B2D",
"a 	c #6BAB2F",
"b 	c #70AD38",
"c 	c #6FAE3A",
"d 	c #6AAA2F",
"e 	c #398835",
"f 	c #EAEAE9",
"g 	c #D3D3D3",
"h 	c #1D381D",
"i 	c #348234",
"j 	c #47951D",
"k 	c #5AA51B",
"l 	c #69AD2A",
"m 	c #74B838",
"n 	c #75B938",
"o 	c #6BB12B",
"p 	c #5BA71C",
"q 	c #489A1D",
"r 	c #F3F3F3",
"s 	c #D2D2D2",
"t 	c #074007",
"u 	c #4D9A34",
"v 	c #5FAB20",
"w 	c #70B82F",
"x 	c #7FC343",
"y 	c #8ACD50",
"z 	c #8DCD52",
"A 	c #8ACE50",
"B 	c #81C744",
"C 	c #71B92F",
"D 	c #62AE20",
"E 	c #4E9B34",
"F 	c #074207",
"G 	c #E1E1E1",
"H 	c #BCBCBC",
"I 	c #175917",
"J 	c #5FA832",
"K 	c #76BD37",
"L 	c #86CD47",
"M 	c #96D65A",
"N 	c #A2E065",
"O 	c #A3E069",
"P 	c #A3E167",
"Q 	c #97DA5C",
"R 	c #86CE47",
"S 	c #77BF37",
"T 	c #5FAB32",
"U 	c #D8D8D9",
"V 	c #B2B2B2",
"W 	c #2E622E",
"X 	c #63AD2B",
"Y 	c #87CA48",
"Z 	c #97DC59",
"` 	c #A5E569",
" .	c #B2F377",
"..	c #B8F67B",
"+.	c #B4F579",
"@.	c #A7EA6B",
"#.	c #98DC59",
"$.	c #89CF4B",
"%.	c #63AE2B",
"&.	c #2E632E",
"*.	c #DFDFDF",
"=.	c #526D52",
"-.	c #51A31C",
";.	c #91D255",
">.	c #A6E76A",
",.	c #B8F97A",
"'.	c #C0FE82",
").	c #C7FF89",
"!.	c #C3FE84",
"~.	c #B9FD7B",
"{.	c #A7EC6C",
"].	c #94D657",
"^.	c #52A61C",
"/.	c #EEEEEE",
"(.	c #CECECE",
"_.	c #909090",
":.	c #42732B",
"<.	c #84CE43",
"[.	c #ADEF73",
"}.	c #C2FE88",
"|.	c #CEFE90",
"1.	c #D6FF97",
"2.	c #D0FE92",
"3.	c #C6FE89",
"4.	c #B2F574",
"5.	c #88D343",
"6.	c #44752B",
"7.	c #E2E2E2",
"8.	c #CDCDCD",
"9.	c #9F9F9F",
"0.	c #60685F",
"a.	c #4B7C23",
"b.	c #92E14B",
"c.	c #BDF97B",
"d.	c #D0FD92",
"e.	c #D8FD9B",
"f.	c #D4FD95",
"g.	c #C0F97E",
"h.	c #98E84D",
"i.	c #4D8024",
"j.	c #60695F",
"k.	c #DEDEDE",
"l.	c #B4B4B4",
"m.	c #878787",
"n.	c #5C5C5C",
"o.	c #47672E",
"p.	c #689E33",
"q.	c #91CD47",
"r.	c #AAE955",
"s.	c #6A9E34",
"t.	c #496A2F",
"u.	c #E4E4E3",
"v.	c #D1D1D1",
"w.	c #B1B1B1",
"x.	c #8A8A8A",
"y.	c #666666",
"z.	c #515151",
"A.	c #454545",
"B.	c #424242",
"C.	c #F1F1EF",
"D.	c #EDEDED",
"E.	c #DADADA",
"F.	c #C2C2C2",
"G.	c #A4A4A4",
"H.	c #7B7B7B",
"I.	c #777776",
"J.	c #C7C7C7",
"K.	c #BBBBBB",
"L.	c #AEAEAE",
"M.	c #D9D9D9",
"N.	c #D8D8D8",
"O.	c #D7D7D7",
"P.	c #D0D0D0",
"Q.	c #DDDDDE",
"R.	c #DDDDDD",
". . . . . + + @ @ @ + + . . . . . ",
"# # # $ % & * = - = * & % $ # # # ",
". . @ ; > , ' ) ! ) ' , > ; @ . . ",
"~ { ] ^ / ( _ : < : _ ( / ^ ] { ~ ",
"@ # [ } | 1 2 3 4 3 2 1 | } [ # @ ",
"5 6 7 8 9 0 a b c b d 0 e 8 7 6 5 ",
"f g h i j k l m m n o p q i h g f ",
"r s t u v w x y z A B C D E F s r ",
"G H I J K L M N O P Q R S T I H G ",
"U V W X Y Z `  ...+.@.#.$.%.&.V U ",
"*.) =.-.;.>.,.'.).!.~.{.].^.=.) *.",
"/.(._.:.<.[.}.|.1.2.3.4.5.6._.(./.",
"7.8.9.0.a.b.c.d.e.f.g.h.i.j.9.8.7.",
"k.s l.m.n.o.p.q.r.q.s.t.n.m.l.s k.",
"u.k.v.w.x.y.z.A.B.A.z.y.x.w.v.k.u.",
"C.D.# E.F.G.' H.I.H.' G.F.E.# D.C.",
"G G *.6 g J.K.V L.V K.J.g 6 *.G G ",
"M.M.M.N.O.g P.8.8.8.P.g O.N.M.M.M.",
"Q.k.R.k.R.k.R.k.Q.k.R.k.R.k.R.k.Q."};
