/* XPM */
static char * Ball_bronze_xpm[] = {
"18 20 176 2",
"  	c None",
". 	c #444434342F2F",
"X 	c #78786E6E5D5D",
"o 	c #6E6E69696363",
"O 	c #666667676060",
"+ 	c #6D6D6B6B6464",
"@ 	c #6A6A67676161",
"# 	c #606065655252",
"$ 	c #63635F5F4E4E",
"% 	c #6B6B67675858",
"& 	c #767674745F5F",
"* 	c #6A6A66665B5B",
"= 	c #696966666060",
"- 	c #6F6F6A6A6262",
"; 	c #6E6E67675D5D",
": 	c #666665655B5B",
"> 	c #5F5F5F5F5353",
", 	c #606060604B4B",
"< 	c #61615D5D4444",
"1 	c #6A6A65655D5D",
"2 	c #7C7C73737373",
"3 	c #A1A192929E9E",
"4 	c #C6C6ADADC3C3",
"5 	c #CBCBC3C3C0C0",
"6 	c #CCCCC3C3BFBF",
"7 	c #C8C8B5B5C4C4",
"8 	c #B5B5A1A1B6B6",
"9 	c #909087878585",
"0 	c #72726E6E6363",
"q 	c #5B5B59594444",
"w 	c #8C8C7A7A6767",
"e 	c #73736B6B6868",
"r 	c #B7B7A3A3BCBC",
"t 	c #F7F7E0E0F4F4",
"y 	c #FDFDFDFDFCFC",
"u 	c #FDFDFCFCFDFD",
"i 	c #FCFCFCFCF5F5",
"p 	c #FBFBFAFAF4F4",
"a 	c #FFFFFFFFFFFF",
"s 	c #FDFDFAFAFAFA",
"d 	c #FAFAEFEFF6F6",
"f 	c #C0C0A9A9B7B7",
"g 	c #808070706969",
"h 	c #6E6E6D6D5959",
"j 	c #94947F7F6161",
"k 	c #E2E2D3D3D3D3",
"l 	c #F6F6F6F6DFDF",
"z 	c #F5F5F4F4D8D8",
"x 	c #F3F3F3F3D2D2",
"c 	c #F3F3F2F2D0D0",
"v 	c #F4F4F3F3D5D5",
"b 	c #F8F8F8F8E5E5",
"n 	c #E4E4CFCFD2D2",
"m 	c #66665C5C4B4B",
"M 	c #89897F7F7474",
"N 	c #86867A7A6565",
"B 	c #D3D3D6D69999",
"V 	c #B8B8D3D38E8E",
"C 	c #A2A2ADAD8282",
"Z 	c #9D9DA6A67D7D",
"A 	c #95959E9E7575",
"S 	c #99999D9D7676",
"D 	c #9A9A9D9D7878",
"F 	c #A5A5ACAC7F7F",
"G 	c #B7B7CECE9393",
"H 	c #CDCDDADA9F9F",
"J 	c #D9D9DADAA1A1",
"K 	c #EAEAE9E9AFAF",
"L 	c #98988C8C7575",
"P 	c #848483837B7B",
"I 	c #76766B6B5F5F",
"U 	c #666664645D5D",
"Y 	c #7B7B73736E6E",
"T 	c #7F7F73737272",
"R 	c #76766E6E6D6D",
"E 	c #6E6E65656868",
"W 	c #61615E5E6363",
"Q 	c #63635F5F6464",
"! 	c #626261616262",
"~ 	c #787871716D6D",
"^ 	c #7E7E77777171",
"/ 	c #676767676060",
"( 	c #71716F6F6464",
") 	c #90908B8B7373",
"_ 	c #8D8D87876E6E",
"` 	c #6F6F6B6B6262",
"' 	c #727269695F5F",
"] 	c #686863635F5F",
"[ 	c #767672726565",
"{ 	c #8F8F86866A6A",
"} 	c #868680806767",
"| 	c #8C8C81816B6B",
" .	c #83837B7B6C6C",
"..	c #7E7E78786969",
"X.	c #7A7A73736767",
"o.	c #80807B7B6969",
"O.	c #7C7C7A7A6767",
"+.	c #77776E6E6464",
"@.	c #7E7E78786565",
"#.	c #787872726565",
"$.	c #6F6F6D6D6262",
"%.	c #656563635E5E",
"&.	c #6B6B66665C5C",
"*.	c #6B6B67675F5F",
"=.	c #636361615E5E",
"-.	c #626262625F5F",
";.	c #616162625D5D",
":.	c #656565655E5E",
">.	c #6B6B6A6A6060",
",.	c #6D6D6B6B6060",
"<.	c #6D6D69696060",
"1.	c #696966665E5E",
"2.	c #666666665D5D",
"3.	c #616161615E5E",
"4.	c #5C5C5D5D5A5A",
"5.	c #5F5F5E5E5E5E",
"6.	c #5D5D5E5E5B5B",
"7.	c #5D5D5C5C5A5A",
"8.	c #777774747070",
"9.	c #6C6C62625B5B",
"0.	c #6B6B65656060",
"q.	c #646462625F5F",
"w.	c #656561615E5E",
"e.	c #676764646060",
"r.	c #676763635E5E",
"t.	c #626261615F5F",
"y.	c #5F5F5F5F5C5C",
"u.	c #5E5E5C5C5B5B",
"i.	c #5F5F5E5E5C5C",
"p.	c #545454545353",
"a.	c #767674747373",
"s.	c #575751514848",
"d.	c #666663635F5F",
"f.	c #5E5E5D5D5B5B",
"g.	c #5F5F60605B5B",
"h.	c #5D5D5F5F5A5A",
"j.	c #5B5B5B5B5B5B",
"k.	c #3F3F40403D3D",
"l.	c #5B5B5A5A5454",
"z.	c #797972725C5C",
"x.	c #696962625E5E",
"c.	c #585857575A5A",
"v.	c #60605F5F5B5B",
"b.	c #6C6C63636363",
"n.	c #5C5C5B5B5959",
"m.	c #5C5C5C5C5B5B",
"M.	c #535353535252",
"N.	c #4C4C4C4C4B4B",
"B.	c #5B5B55554242",
"V.	c #87877A7A6767",
"C.	c #848473736B6B",
"Z.	c #6E6E63636161",
"A.	c #61615E5E5C5C",
"S.	c #656560605C5C",
"D.	c #94947E7E7575",
"F.	c #5C5C5B5B5B5B",
"G.	c #5A5A5A5A5A5A",
"H.	c #585857575555",
"J.	c #3D3D3D3D3C3C",
"K.	c #4F4F4F4F4040",
"L.	c #808075756161",
"P.	c #909081816B6B",
"I.	c #6D6D66666060",
"U.	c #646461615F5F",
"Y.	c #BBBBA1A18E8E",
"T.	c #7A7A69696565",
"R.	c #545453535353",
"E.	c #3F3F3D3D3C3C",
"W.	c #535352524A4A",
"Q.	c #636364645B5B",
"!.	c #636364645F5F",
"~.	c #646463635F5F",
"^.	c #4F4F4E4E4848",
"/.	c #555554545050",
"(.	c #606060605D5D",
").	c #606061615E5E",
"            . . . . . .             ",
"        . . X o O + @ # . .         ",
"      . $ % & * = - ; : > , .       ",
"    . < 1 2 3 4 5 6 7 8 9 0 q .     ",
"  . w e r t y u i p a s d f g h .   ",
"  . j k a l z x x c v b a a n m .   ",
". M N B V C Z A S D F G H J K L P . ",
". I U Y T R E W Q ! ~ ^ / ( ) _ ` . ",
". ' ] [ { } |  ...X.o.O.+.@.#.$.%.. ",
". &.*.=.-.;.:.>.,.<.1.2.3.4.5.6.7.. ",
". 8.9.0.q.=.w.e.r.%.t.3.y.u.i.p.a.. ",
". . s.d.6.f.%.U g.h.g.6.4.f.j.k.. . ",
"  . l.z.x.c.4.v.f.b.n.4.m.f.M.N..   ",
"  . . B.V.C.Z.A.S.D.F.G.j.H.J.. .   ",
"    . . K.L.P.I.U.Y.T.F.R.E.. .     ",
"      . . M.W.Q.u.!.~.^./.. .       ",
"        . . . 3.(.).).. . .         ",
"            . . . . . .             ",
"                                    ",
"                                    "};
