/* XPM */
static char * bimetal_mid_xpm[] = {
"9 15 17 1",
" 	c #F3F3EDEDE6E6",
".	c #B6B68F8F6767",
"X	c #000000000000",
"o	c #CDCDCDCDCDCD",
"O	c #BDBDBDBDBDBD",
"+	c #B5B5B5B5B5B5",
"@	c #ADADADADADAD",
"#	c #9D9D9D9D9D9D",
"$	c #959595959595",
"%	c #858585858585",
"&	c #7D7D7D7D7D7D",
"*	c #757575757575",
"=	c #656565656565",
"-	c #5D5D5D5D5D5D",
";	c #4D4D4D4D4D4D",
":	c #454545454545",
">	c #FAFAEBEBD7D7",
"         ",
".........",
"XXXXXXXXX",
"oO++@#$$%",
"O++@#$$%&",
"++@#$$%&&",
"+@#$$%&&*",
"@#$$%&&*=",
"#$$%&&*=-",
"$$%&&*=--",
"$%&&*=--;",
"%&&*=--;:",
">>>>>>>>>",
".........",
"XXXXXXXXX"};
