/* XPM */
static char * E_menu_xpm[] = {
"15 15 76 1",
" 	c None",
".	c #FFFFFF",
"+	c #F3EDE6",
"@	c #EFE8DF",
"#	c #ECE3D9",
"$	c #E9DED2",
"%	c #E6DACC",
"&	c #E3D5C6",
"*	c #E0D0BF",
"=	c #DDCBB9",
"-	c #DAC7B3",
";	c #D7C2AC",
">	c #D4BDA6",
",	c #D1B99F",
"'	c #CEB499",
")	c #000000",
"!	c #EFE7DF",
"~	c #ECE3D8",
"{	c #E6D9CC",
"]	c #E3D5C5",
"^	c #DDCBB8",
"/	c #DAC6B2",
"(	c #D4BDA5",
"_	c #D1B89F",
":	c #CBAF92",
"<	c #E5D8CA",
"[	c #E2D3C4",
"}	c #DFCFBD",
"|	c #DCCAB7",
"1	c #D9C5B0",
"2	c #D6C0AA",
"3	c #D3BCA4",
"4	c #D0B79D",
"5	c #CDB297",
"6	c #CAAE91",
"7	c #C7A98A",
"8	c #C4A484",
"9	c #C19F7E",
"0	c #E2D3C3",
"a	c #BE9A77",
"b	c #DCC9B5",
"c	c #ADADAD",
"d	c #9D9D9D",
"e	c #959595",
"f	c #858585",
"g	c #7D7D7D",
"h	c #757575",
"i	c #656565",
"j	c #FAEBD7",
"k	c #B79069",
"l	c #D8C4AE",
"m	c #5D5D5D",
"n	c #B48B62",
"o	c #D5BFA7",
"p	c #B1865B",
"q	c #D2B9A1",
"r	c #4D4D4D",
"s	c #AD8154",
"t	c #CEB49A",
"u	c #454545",
"v	c #AA7C4D",
"w	c #CBAF93",
"x	c #A77746",
"y	c #C8AA8C",
"z	c #C5A586",
"A	c #C2A17F",
"B	c #BF9C79",
"C	c #BC9772",
"D	c #B9936C",
"E	c #B68E66",
"F	c #B3895F",
"G	c #B08459",
"H	c #AD8053",
"I	c #AA7B4C",
"J	c #A77646",
"K	c #A47240",
"...............",
".+@#$%&*=-;>,')",
".!~${]*^/;(_':)",
")))))))))))))))",
"...............",
".<[}|123456789)",
".0)))))))))))a)",
".b)cdeefgghijk)",
".l)deefgghimjn)",
".o)eefgghimmjp)",
".q)efgghimmrjs)",
".t)fgghimmrujv)",
".wjjjjjjjjjjjx)",
".yzABCDEFGHIJK)",
")))))))))))))))"};
