/* XPM */
static char * E_min_xpm[] = {
"15 15 41 1",
" 	c None",
".	c #F3EDE6",
"+	c #EFE7DF",
"@	c #ECE2D8",
"#	c #E9DDD1",
"$	c #E5D8CA",
"%	c #E2D3C3",
"&	c #DFCEBC",
"*	c #DBC9B5",
"=	c #D8C4AE",
"-	c #D5BEA7",
";	c #D2B9A0",
">	c #CEB499",
",	c #CBAF93",
"'	c #000000",
")	c #C8AA8C",
"!	c #CDCDCD",
"~	c #BDBDBD",
"{	c #B5B5B5",
"]	c #ADADAD",
"^	c #9D9D9D",
"/	c #959595",
"(	c #858585",
"_	c #FAEBD7",
":	c #C4A585",
"<	c #7D7D7D",
"[	c #C1A07E",
"}	c #BE9B77",
"|	c #757575",
"1	c #BB9570",
"2	c #656565",
"3	c #B79069",
"4	c #5D5D5D",
"5	c #B48B62",
"6	c #B1865B",
"7	c #4D4D4D",
"8	c #AD8154",
"9	c #454545",
"0	c #AA7C4D",
"a	c #A77746",
"b	c #A47240",
"...............",
"..+@#$%&*=-;>,'",
".+''''''''''')'",
".@'!~{{]^//(_:'",
".#'~{{]^//(<_['",
".$'{{]^//(<<_}'",
".%'{]^//(<<|_1'",
".&'....'<<|2_3'",
".*'.;>,'<|24_5'",
".='.>,)'|244_6'",
".-'.,):'2447_8'",
".;''''''4479_0'",
".>___________a'",
".,):[}135680ab'",
"'''''''''''''''"};
