/* XPM */
static char * blank_wood_xpm[] = {
"24 24 113 2",
"  	c None",
". 	c #805E45",
"+ 	c #926A51",
"@ 	c #9E7155",
"# 	c #9E7455",
"$ 	c #926D51",
"% 	c #88664D",
"& 	c #8A6B51",
"* 	c #9C6F51",
"= 	c #88634D",
"- 	c #927151",
"; 	c #8A6851",
"> 	c #836650",
", 	c #87715A",
"' 	c #8F755A",
") 	c #977B5A",
"! 	c #97785A",
"~ 	c #846D55",
"{ 	c #846755",
"] 	c #8D6956",
"^ 	c #956F56",
"/ 	c #7E6154",
"( 	c #80655B",
"_ 	c #74584F",
": 	c #694C40",
"< 	c #63473E",
"[ 	c #58443F",
"} 	c #5E4641",
"| 	c #5E4941",
"1 	c #584239",
"2 	c #53443C",
"3 	c #594D42",
"4 	c #58473F",
"5 	c #5F504A",
"6 	c #534232",
"7 	c #584839",
"8 	c #514336",
"9 	c #7B5E48",
"0 	c #7D614E",
"a 	c #81604A",
"b 	c #8A6451",
"c 	c #8F6E5A",
"d 	c #786051",
"e 	c #7E6454",
"f 	c #97705A",
"g 	c #846555",
"h 	c #7D5D4E",
"i 	c #755446",
"j 	c #705343",
"k 	c #634838",
"l 	c #534340",
"m 	c #5A4847",
"n 	c #5A4A47",
"o 	c #735E5A",
"p 	c #544A45",
"q 	c #403327",
"r 	c #483C33",
"s 	c #4D443C",
"t 	c #5D4B3C",
"u 	c #63503E",
"v 	c #634D3E",
"w 	c #705543",
"x 	c #765C4B",
"y 	c #705849",
"z 	c #76594B",
"A 	c #7C625D",
"B 	c #796256",
"C 	c #725A4F",
"D 	c #826B61",
"E 	c #87675A",
"F 	c #7E5E54",
"G 	c #876A5A",
"H 	c #755B46",
"I 	c #755640",
"J 	c #81634A",
"K 	c #846A55",
"L 	c #8D6D56",
"M 	c #8A6E51",
"N 	c #957256",
"O 	c #7B5A48",
"P 	c #755946",
"Q 	c #785C51",
"R 	c #97745A",
"S 	c #7D634E",
"T 	c #7B6148",
"U 	c #836250",
"V 	c #8F695A",
"W 	c #8F684E",
"X 	c #806545",
"Y 	c #866847",
"Z 	c #886A4D",
"` 	c #927451",
" .	c #8D6E4C",
"..	c #90705F",
"+.	c #705449",
"@.	c #5D4336",
"#.	c #63493E",
"$.	c #695440",
"%.	c #725D4F",
"&.	c #655044",
"*.	c #5D473C",
"=.	c #6B5246",
"-.	c #7E6759",
";.	c #6B5546",
">.	c #956C56",
",.	c #AC7A59",
"'.	c #8F6B4E",
").	c #9E7955",
"!.	c #755340",
"~.	c #A87553",
"{.	c #9C7451",
"].	c #986D4D",
"^.	c #9E6D55",
". + @ # $ + $ $ % & $ * * * $ = % - - ; > > > > ",
", ' ) ! ' ~ ~ ~ > { ] & ^ ^ ^ ; / / ( _ : : : < ",
"[ } } | } [ [ 1 2 3 4 4 3 5 5 5 6 7 8 8 3 3 3 3 ",
"9 9 0 0 > > > > a a a a b ] ] b c { { { { { / d ",
"0 / e / 0 0 0 0 ; ] ] ] ] f ] ] g h i i i j : k ",
"l m n n m m n o l p p p p p n 2 q q 6 6 r s s s ",
"6 6 t t t u v u w x w w y z z z A A ( ( B _ C D ",
"E / F / G g / h { e / x 0 { { g H 0 { { 9 I 9 { ",
"J > K L L c { { 0 0 g > ; > ] ] & M $ - N ^ & ; ",
"& & L L L { 0 O { { { { 0 0 O P F F F F / F Q Q ",
"L L f f R c { > j w H S { { { e ; J J J a J T 9 ",
"U U > > ] > ] U K ] L L N ^ L L V V V { g g / 0 ",
"L ] > ] ; ] ] L ^ ^ & $ * - + + f f f f R c c K ",
"f L ] ] L f R R ; ; % W $ $ $ + X Y Z - ` ` -  .",
"U U U U > ; ; > ..c c f R f > U +.+.y Q F E g g ",
"] ] ] ] ] ; a a @.#.$.x e G / z e e { { c ^ @ ^ ",
"%.Q C &.*.@.*.&.z 0 g 0 0 0 U 0 U ; & U 9 a ; ; ",
"@.k v =.C d -.D x U U 0 h U ] { & ^ ^ ^ ; ; ^ ^ ",
";.y y Q / g / z 0 U > U > ; ] L ^ N # N N # # N ",
"y Q d / { U U a O U ] ] >.^ >.; $ * * # # ,.# # ",
"y Q / 0 0 h U U U ; ; ; + $ $ + W '.$ $ # ,.).- ",
"/ e { / z i !.O ] ] U U = + @ >.; + $ $ # ~.~.{.",
"i P h 0 h 0 0 0 { g U a b L ^ >.; + ^ $ $ # {.].",
"0 0 0 0 0 h z y P 0 U > ] f ] > + ^.>.+ $ $ * '."};
