/* XPM */
static char * swirl_xpm[] = {
"34 34 384 2",
"  	c None",
". 	c #6385B2",
"+ 	c #6183B0",
"@ 	c #5F81AE",
"# 	c #6082AF",
"$ 	c #698BB9",
"% 	c #6587B5",
"& 	c #5E80AE",
"* 	c #587AAA",
"= 	c #5475A8",
"- 	c #5576A9",
"; 	c #5879AE",
"> 	c #5B7CB1",
", 	c #5576AB",
"' 	c #6F91BE",
") 	c #7496C3",
"! 	c #5375A5",
"~ 	c #5476A4",
"{ 	c #5375A2",
"] 	c #5173A0",
"^ 	c #4F719E",
"/ 	c #52759F",
"( 	c #5C7FA9",
"_ 	c #6184AE",
": 	c #5D80AA",
"< 	c #597CA6",
"[ 	c #5F82AC",
"} 	c #6486B3",
"| 	c #6585AE",
"1 	c #6282AC",
"2 	c #5E7DA9",
"3 	c #6181AD",
"4 	c #6887B4",
"5 	c #6786B3",
"6 	c #6281AF",
"7 	c #6583B4",
"8 	c #607EB0",
"9 	c #5A79AA",
"0 	c #5677A7",
"a 	c #5779A8",
"b 	c #587BA9",
"c 	c #577BAA",
"d 	c #587DAB",
"e 	c #5E82B0",
"f 	c #6386AE",
"g 	c #6B8EB6",
"h 	c #6688B6",
"i 	c #6486B4",
"j 	c #5D7FAD",
"k 	c #587AA7",
"l 	c #597CA7",
"m 	c #5A7CA9",
"n 	c #597AA7",
"o 	c #5A78A4",
"p 	c #5E7EAA",
"q 	c #5F7EAA",
"r 	c #5A79A3",
"s 	c #5C7DA6",
"t 	c #6484AB",
"u 	c #6181A8",
"v 	c #57779E",
"w 	c #6383AA",
"x 	c #6383AC",
"y 	c #6182AB",
"z 	c #5F80AA",
"A 	c #6383AF",
"B 	c #6786B4",
"C 	c #6484B1",
"D 	c #5F7EAD",
"E 	c #5E7DAD",
"F 	c #5B7AAA",
"G 	c #5877A6",
"H 	c #5676A5",
"I 	c #5578A5",
"J 	c #5577A4",
"K 	c #5377A4",
"L 	c #5478A4",
"M 	c #577AA6",
"N 	c #587BA3",
"O 	c #6083AB",
"P 	c #6688B4",
"Q 	c #6587B3",
"R 	c #5B7DAA",
"S 	c #597BA6",
"T 	c #587AA6",
"U 	c #5A7AA4",
"V 	c #5D7CA7",
"W 	c #5C7CA7",
"X 	c #5C7CA5",
"Y 	c #607FA9",
"Z 	c #6484AC",
"` 	c #6181A9",
" .	c #5A7AA0",
"..	c #6080A7",
"+.	c #6080A9",
"@.	c #6282AE",
"#.	c #6484B0",
"$.	c #6384B1",
"%.	c #6181AE",
"&.	c #5D7CAB",
"*.	c #5876A7",
"=.	c #5978A8",
"-.	c #5778A7",
";.	c #5577A5",
">.	c #5578A6",
",.	c #587CA8",
"'.	c #5578A2",
").	c #6486B2",
"!.	c #6385B3",
"~.	c #6184B1",
"{.	c #5D7FAB",
"].	c #5578A4",
"^.	c #5F80AD",
"/.	c #5D7DA8",
"(.	c #5A7AA5",
"_.	c #5A79A5",
":.	c #6181AA",
"<.	c #6584AE",
"[.	c #6485AD",
"}.	c #6080A8",
"|.	c #607FA6",
"1.	c #5C7CA3",
"2.	c #5E7EA7",
"3.	c #6282AB",
"4.	c #6484AF",
"5.	c #5E7FAC",
"6.	c #5D7DAA",
"7.	c #5A7AA8",
"8.	c #5272A3",
"9.	c #5C7BAC",
"0.	c #5B7BAC",
"a.	c #5476A5",
"b.	c #5377A5",
"c.	c #5679A7",
"d.	c #597CAB",
"e.	c #5274A2",
"f.	c #597BA9",
"g.	c #5F81B0",
"h.	c #5F81AF",
"i.	c #5F80AF",
"j.	c #5A7CAA",
"k.	c #5374A2",
"l.	c #5475A3",
"m.	c #6385B1",
"n.	c #5E7DAA",
"o.	c #5676A2",
"p.	c #5776A4",
"q.	c #6282AD",
"r.	c #6787B1",
"s.	c #6081AA",
"t.	c #5D7DA6",
"u.	c #6281A8",
"v.	c #5A7AA1",
"w.	c #6081AB",
"x.	c #6483B1",
"y.	c #6081AE",
"z.	c #5B7BAA",
"A.	c #5777A7",
"B.	c #5374A4",
"C.	c #5373A5",
"D.	c #5C7AAD",
"E.	c #5F7DB1",
"F.	c #5E7EB0",
"G.	c #5A7CAD",
"H.	c #5778AA",
"I.	c #5577A9",
"J.	c #5677AA",
"K.	c #5678AA",
"L.	c #5779A9",
"M.	c #5B7CAD",
"N.	c #5A7DAD",
"O.	c #5C7EAE",
"P.	c #597BAB",
"Q.	c #5678A6",
"R.	c #6484B3",
"S.	c #5574A2",
"T.	c #5776A5",
"U.	c #6584B1",
"V.	c #5E7EA8",
"W.	c #5B7BA4",
"X.	c #6182A9",
"Y.	c #6080AA",
"Z.	c #6181AF",
"`.	c #597AA9",
" +	c #5172A2",
".+	c #5071A2",
"++	c #5A7AAD",
"@+	c #5E7EB1",
"#+	c #607FB3",
"$+	c #5F80B3",
"%+	c #5E80B2",
"&+	c #5B7DB0",
"*+	c #5779AD",
"=+	c #5678AB",
"-+	c #5475AA",
";+	c #5678A8",
">+	c #5879AA",
",+	c #597AAA",
"'+	c #5B7CAC",
")+	c #597CAA",
"!+	c #5C7EAC",
"~+	c #6384B3",
"{+	c #607EAC",
"]+	c #5A79A8",
"^+	c #5978A7",
"/+	c #607FAD",
"(+	c #5E7EA9",
"_+	c #6282A9",
":+	c #5D7DA4",
"<+	c #5F7FA8",
"[+	c #607FAC",
"}+	c #5E7EAC",
"|+	c #5677A6",
"1+	c #4E6F9F",
"2+	c #5F80B2",
"3+	c #5F7EB1",
"4+	c #5F80B1",
"5+	c #5F81B2",
"6+	c #5E7FB0",
"7+	c #597BAD",
"8+	c #5779A7",
"9+	c #587BA8",
"0+	c #5A7CAB",
"a+	c #6081B0",
"b+	c #5B7AA9",
"c+	c #5C7BA8",
"d+	c #5E7DAB",
"e+	c #5D7DA9",
"f+	c #5E7DA7",
"g+	c #5F80A7",
"h+	c #5E7FAB",
"i+	c #5C7BA9",
"j+	c #5373A2",
"k+	c #4F709F",
"l+	c #5475A5",
"m+	c #6080B1",
"n+	c #5D7DAE",
"o+	c #5C7CAD",
"p+	c #5B7DAD",
"q+	c #5679A9",
"r+	c #5477A7",
"s+	c #5376A5",
"t+	c #5679A4",
"u+	c #5A7DA8",
"v+	c #5C7FAB",
"w+	c #5D7FAA",
"x+	c #5D80AC",
"y+	c #5E81AC",
"z+	c #5D7FAC",
"A+	c #5F7FAC",
"B+	c #5978A5",
"C+	c #5979A5",
"D+	c #5C7DA7",
"E+	c #5B7DA4",
"F+	c #5F7EAC",
"G+	c #5A7BA9",
"H+	c #5676A3",
"I+	c #597AA8",
"J+	c #5E7FAE",
"K+	c #5D7EAD",
"L+	c #5A7AAA",
"M+	c #5274A3",
"N+	c #5172A1",
"O+	c #5273A2",
"P+	c #52759D",
"Q+	c #54779F",
"R+	c #5679A2",
"S+	c #5B7EA7",
"T+	c #5C80A9",
"U+	c #5C80A8",
"V+	c #5C7FA7",
"W+	c #5D7FA8",
"X+	c #5F7FAA",
"Y+	c #5C7BA7",
"Z+	c #5777A3",
"`+	c #5474A0",
" @	c #5677A2",
".@	c #597BA5",
"+@	c #5B7FA7",
"@@	c #5D7CAA",
"#@	c #5979A8",
"$@	c #5777A6",
"%@	c #5A7AA7",
"&@	c #5C7DAD",
"*@	c #5476A6",
"=@	c #4F71A0",
"-@	c #4D6E9E",
";@	c #5F80B0",
">@	c #5779A6",
",@	c #5B7EAB",
"'@	c #5C7FAC",
")@	c #5D7EAB",
"!@	c #5A7DA9",
"~@	c #587AA5",
"{@	c #5779A4",
"]@	c #5C7CA8",
"^@	c #5F7EAB",
"/@	c #5B7CA9",
"(@	c #5879A5",
"_@	c #5A7CA7",
":@	c #5B7EA8",
"<@	c #5677A4",
"[@	c #5474A3",
"}@	c #5373A1",
"|@	c #5575A3",
"1@	c #5879A6",
"2@	c #5C7EAA",
"3@	c #597BA8",
"4@	c #597BA7",
"5@	c #5A7CA8",
"6@	c #5577A3",
"7@	c #5274A1",
"8@	c #5778A5",
"9@	c #5F80AE",
"0@	c #5C7EAB",
"a@	c #5879A4",
"b@	c #5476A2",
"c@	c #6180AE",
"d@	c #5A7BA8",
"e@	c #587AA8",
"f@	c #5A7BA7",
"g@	c #5B7CA7",
"h@	c #5879A7",
"i@	c #5677A5",
"j@	c #5476A3",
"k@	c #5678A5",
"l@	c #5E80AD",
"m@	c #5E81AE",
"n@	c #597CA8",
"o@	c #597AA6",
"p@	c #5878A4",
"q@	c #5677A3",
"r@	c #5F7FAD",
"s@	c #5B7CA8",
"t@	c #5E7FAD",
"u@	c #5C7CAB",
"v@	c #5978A9",
"w@	c #5B7BAB",
"x@	c #5C7CAA",
"y@	c #587AA9",
"z@	c #5B7DAC",
"A@	c #6586B4",
"B@	c #6586B3",
"C@	c #5F82AE",
"D@	c #5E80AC",
"E@	c #5A7DAA",
"F@	c #5B7EAA",
"G@	c #5F80AB",
"H@	c #6282AF",
"I@	c #6383B1",
"J@	c #5E7EAD",
"K@	c #5E7EAB",
"L@	c #557AA6",
"M@	c #5578A7",
"N@	c #5D80AB",
"O@	c #5E82AB",
"P@	c #5C80AA",
"Q@	c #587BA6",
"R@	c #587BA5",
"S@	c #5A7EA8",
"T@	c #5C7DAA",
"U@	c #6082AE",
"V@	c #6282B0",
"W@	c #6485B2",
"X@	c #607FB2",
"Y@	c #5C7BAD",
"Z@	c #5979AC",
"`@	c #6080AF",
" #	c #577CA8",
".#	c #4E70A0",
"+#	c #4D6F9F",
"@#	c #5173A1",
"##	c #5E81AB",
"$#	c #5A7DA7",
"%#	c #577AA4",
"&#	c #6284B1",
"*#	c #6183B1",
"=#	c #6284B2",
"-#	c #6284B4",
";#	c #5E7FB2",
">#	c #597AAD",
",#	c #5677AC",
"'#	c #5A7BB0",
")#	c #5A7FAB",
". + @ @ # + . $ % & * = - ; > , ' ) = ! ! ~ { ] ^ / ( _ : < ( [ [ } ",
"| 1 2 3 4 5 6 7 8 9 0 a b c d e f g h i j k l m n o p q r s t u v w ",
"x y z A B C D E F G H I J K L M N O P Q + R S T S U V W X Y Z `  ...",
"+.y @.#.$.%.&.H *.=.-.;.;.K >.,.'.( ).!.~.{.J ].^./.(._.:.<.[.}.|.1.",
"2.3.4.@.5.6.7.8.=.9.0.a a.b.c.d.e.f.g.h.i.j.k.l.m.n.o.p.q.r.s.t.u.v.",
"t.w.x.y.z.A.B.C.D.E.F.G.H.I.J.K.! L.M.N.O.P.a.Q.R.6.S.T.A U.V.W.X.v.",
"t.Y.A Z.`. +.+++@+#+$+%+&+*+=+-+;+L.>+,+N.'+)+!+~+{+]+^+/+@.(+s _+:+",
"<+z [+}+|+1+8.2+3+3+4+5+6+7+K.= 8+8+a 9+0+j j h.a+Z./+b+c+d+e+f+g+u ",
"+.V.h+i+j+k+l+m+n+o+o+p+P.q+r+s+'.'.t+u+v+w+x+y+z+A+n.B+o.C+D+f+E+t ",
"F+d+G+H+{ ~ I+g.J+K+L+|+M+N+N+O+P+Q+R+S+T+: U+V+W+X+q Y+Z+`+ @.@+@/+",
"@@b+#@$@H G %@m &@P.;+*@=@-@B.;@>@k f.,@'@)@!@~@{@]@^@A+/@(@n _@:@F+",
"i+]+<@[@}@|@1@2@2@3@4@5@6@7@8@9@R 0@0@& ^.0@5@a@b@Y+A+c@)@d@e@f@g@@@",
"n h@i@~ j@J k@v+2@d@4@m m m R l@@ @ m@@ l@n@o@p@q@n.[+r@&.I+7.I+s@d@",
">@f.j.j h.9@m n@v+5@l !@v+y+x+2@@ @ t@l@5./@f@W [+6 [+u@v@^+w@x@6.k@",
"k@y@z@a+A@B@C@n@D@x+R !@E@v+F@m z+0@R !@F@)@h+G@H@I@6 J@L+9 0.&.K@j@",
"L@;+s+M@j.m@@ v+N@O@P@Q@R@S@( T+0@0@F@R T@D@U@A 5.V@W@R.X@Y@Z@v@`@L@",
" #= .#+#@#J >@k R@##[ $#%#:@##: # @ l@z+l@@ &#. *#=#!.-#;#>#,#-+'#)#",
") = ! ! ~ { ] ^ / ( _ : < ( [ [ } . + @ @ # + . $ % & * = - ; > , ' ",
"g h i j k l m n o p q r s t u v w | 1 2 3 4 5 6 7 8 9 0 a b c d e f ",
"O P Q + R S T S U V W X Y Z `  ...x y z A B C D E F G H I J K L M N ",
"( ).!.~.{.J ].^./.(._.:.<.[.}.|.1.+.y @.#.$.%.&.H *.=.-.;.;.K >.,.'.",
"f.g.h.i.j.k.l.m.n.o.p.q.r.s.t.u.v.2.3.4.@.5.6.7.8.=.9.0.a a.b.c.d.e.",
"L.M.N.O.P.a.Q.R.6.S.T.A U.V.W.X.v.t.w.x.y.z.A.B.C.D.E.F.G.H.I.J.K.! ",
"L.>+,+N.'+)+!+~+{+]+^+/+@.(+s _+:+t.Y.A Z.`. +.+++@+#+$+%+&+*+=+-+;+",
"8+a 9+0+j j h.a+Z./+b+c+d+e+f+g+u <+z [+}+|+1+8.2+3+3+4+5+6+7+K.= 8+",
"'.t+u+v+w+x+y+z+A+n.B+o.C+D+f+E+t +.V.h+i+j+k+l+m+n+o+o+p+P.q+r+s+'.",
"Q+R+S+T+: U+V+W+X+q Y+Z+`+ @.@+@/+F+d+G+H+{ ~ I+g.J+K+L+|+M+N+N+O+P+",
"k f.,@'@)@!@~@{@]@^@A+/@(@n _@:@F+@@b+#@$@H G %@m &@P.;+*@=@-@B.;@>@",
"0@0@& ^.0@5@a@b@Y+A+c@)@d@e@f@g@@@i+]+<@[@}@|@1@2@2@3@4@5@6@7@8@9@R ",
"@ m@@ l@n@o@p@q@n.[+r@&.I+7.I+s@d@n h@i@~ j@J k@v+2@d@4@m m m R l@@ ",
"@ t@l@5./@f@W [+6 [+u@v@^+w@x@6.k@>@f.j.j h.9@m n@v+5@l !@v+y+x+2@@ ",
"0@R !@F@)@h+G@H@I@6 J@L+9 0.&.K@j@k@y@z@a+A@B@C@n@D@x+R !@E@v+F@m z+",
"0@F@R T@D@U@A 5.V@W@R.X@Y@Z@v@`@L@L@;+s+M@j.m@@ v+N@O@P@Q@R@S@( T+0@",
"@ l@z+l@@ &#. *#=#!.-#;#>#,#-+'#)# #= .#+#@#J >@k R@##[ $#%#:@##: # "};
