/* XPM */
static char * bluegray_edge_xpm[] = {
"20 19 81 1",
" 	c None",
".	c #7E8896",
"+	c #7D8896",
"@	c #7E8895",
"#	c #7D8796",
"$	c #7D8795",
"%	c #7C8695",
"&	c #7C8694",
"*	c #647286",
"=	c #788392",
"-	c #798493",
";	c #798492",
">	c #7F8996",
",	c #7B8694",
"'	c #7B8594",
")	c #7A8594",
"!	c #7A8494",
"~	c #788493",
"{	c #788292",
"]	c #707C8E",
"^	c #657286",
"/	c #6D7B8B",
"(	c #757F8F",
"_	c #768191",
":	c #74818F",
"<	c #778190",
"[	c #7F8A97",
"}	c #778392",
"|	c #6E7B8D",
"1	c #667386",
"2	c #687588",
"3	c #737F8F",
"4	c #778291",
"5	c #788492",
"6	c #758290",
"7	c #808A98",
"8	c #7D8897",
"9	c #7B8695",
"0	c #798392",
"a	c #758190",
"b	c #727F8F",
"c	c #758091",
"d	c #778391",
"e	c #7A8493",
"f	c #7C8795",
"g	c #7E8997",
"h	c #818A98",
"i	c #828C99",
"j	c #7E8797",
"k	c #7A8492",
"l	c #768090",
"m	c #737F90",
"n	c #738090",
"o	c #7A8694",
"p	c #798393",
"q	c #7A8593",
"r	c #7C8593",
"s	c #7F8997",
"t	c #838C99",
"u	c #808998",
"v	c #7C8794",
"w	c #798592",
"x	c #768292",
"y	c #768291",
"z	c #7B8595",
"A	c #7E8897",
"B	c #88919C",
"C	c #7F8896",
"D	c #7D8695",
"E	c #798494",
"F	c #7E8796",
"G	c #7B8593",
"H	c #86909B",
"I	c #9298A2",
"J	c #7B8696",
"K	c #828A98",
"L	c #858E9B",
"M	c #9197A1",
"N	c #778292",
"O	c #788291",
"P	c #7E8795",
".+..@#$%&**==---;=-.",
">%,')!~{]*^/(_:_<_%[",
"[$'!-~=}|12345=_6}.7",
"789)-0=4abbcd=e,0fgh",
"ij9$$k-{lmn}op=qr9si",
"tu.@$vw00_x-eyy0'zAt",
"BC@CDz,qE==DFG0'ff>H",
"I$$J,zqGq=e$fGD..KLM",
"INN4======,,'&%&),!I",
"=ON=;====,+%&#P$f&'e",
"*==---;=-..+..@#$%&*",
"^/(_:_<_%[>%,')!~{]*",
"2345=_6}.7[$'!-~=}|1",
"bcd=e,0fgh789)-0=4ab",
"n}op=qr9siij9$$k-{lm",
"x-eyy0'zAttu.@$vw00_",
"=DFG0'ff>HBC@CDz,qE=",
"e$fGD..KLMI$$J,zqGq=",
",,'&%&),!IINN4======"};
