/* XPM */
static char * brusheddust_xpm[] = {
"256 64 40 1",
" 	c None",
".	c #817B72",
"+	c #807A71",
"@	c #7F7970",
"#	c #827C73",
"$	c #837D74",
"%	c #847E75",
"&	c #857F74",
"*	c #857F76",
"=	c #868077",
"-	c #878178",
";	c #7E786F",
">	c #7D776E",
",	c #7C766D",
"'	c #7B756C",
")	c #7A746B",
"!	c #79736A",
"~	c #787269",
"{	c #777168",
"]	c #767067",
"^	c #756F66",
"/	c #736D64",
"(	c #726C63",
"_	c #746E65",
":	c #6F6960",
"<	c #6C665D",
"[	c #69635A",
"}	c #666057",
"|	c #6E685F",
"1	c #635D54",
"2	c #888279",
"3	c #89837A",
"4	c #8B857A",
"5	c #8C867D",
"6	c #8D877E",
"7	c #8F897F",
"8	c #908A7F",
"9	c #8B857C",
"0	c #716B62",
"a	c #706A61",
".++@@+@@@..#..$$%%&*&*****=-------*&&%%$%%$.##%#..##$$$%&&&%$#..#.++;;;;>>>,,'')')!~~~~~{{{]]~~~)~~!'','!)'!~^/(_(:<:[}<[|:1[{_~~..++;;;>;@@.@++;;@........++@;;;',''',;''''))!~~~!'''''~~~~{~~~)!)''))!''!'''!!~~)!~~!~!)!)';;,)))',,,;>,;;;;>;;;@@+.$%%$...+;;",
"2--2--=3444434-2-***&*%%.$#%*%&$%%%%$%$%%&%====&&$$%$$$#$$#...+;;;;;;>>>,;;;@;;;;@+...@;@@...@.$..++;;>,'!)!,'))~~^_///](^'#%.%&$#%.....@+.@++@@+@++.++@..........$.$%$%%%%%%%$*****-24444555566555776778787655466666787878878887665945949444422=-2222232-------",
"...#$###.#..+@.++.$$%%$$#%$%&**===--=*%%&%$$%$$&*%%&&&%%%*%&%%#..@;;@#...+++.@+@;@;@;;;,;,>>>'''>;>,;+;;;>,,>,)'),,)~!~),;>..*.;;;;;@++;;;;;;;;;>;;;;;;;;;;;;;;;;;;@..$##%%#$#.$%&&&--=-=-=&&==*-2-232--=*-333322344343---2222---*%%%%%%%%%%&#%##..+@;@+.;+@++..",
"%&%%&$..#.......+@.+;;;++...@....@@;.+++@...$##.###%%%%%&**=*===343222-333343334444322-33333494444444422-3432---*%#.+@;.+>,~~!{{^{{]]^^]^^]]{]{~~~{~~))'''>>,,>>;+.+..#....#%%%&***=***&&&*&%%%$#$#.#.....+......+++.....#%$$#####@+...+.+.+@@;;;++@@+.++;.###%%",
"##%.#@+@;;@@++@.+.++.+..$$#.+..#####.#...##%$##$.$%%&&*=-==****=-------==**&%&*&%%&&&*=&%%%%$#.##$%%%%%$%*=--=&&%##.+@##..#.;,,','',;;;@;;@@@+@@@@+@@@@..##.####+...##$#$..%%%%$$$$$$..#.##...@;>;;,''''',,''>,,,>',>>;;>;;;;>>,;;;;;;;;++@+..@+@+.+;@@;;@.#..#%",
",;;;.#$%%%##%$$...@@@;;;;>>;;;;;;;@;@;>;,,,;;;;+.#.#...+....@;;;;>>>>;>>;;;;;;;;+;;++@+;@@++;;;;+.+.@;;,'''')'!))~~{{{]!~~{^~]{^^^]]{{~~~{~~~!~~^{^^^^]~~]^^^^^]^^]]{~~!~~~~{~~~~~~~~!~~!)!!!~~)''','>'''!)'))',>,''',>;;>'>,>>;,;>>;>;;;;;;;+.+;@.;>',,','''>',",
"+@.#+.#.#..##.+...+@...###$%%%%%%%.#.$###.#.++.......++....+.++@+;@+@@@@++@+;@@@++@.+;;@;;;;;@;;;;;@;;;++@;;;;;;..+;;;;>,';;+@;;;>''''''))!~~!)''''')'')!)!!''!)))',>>;;>;;;;;;;;;;;;;@;;;;@@+@+;;;;;;@;;;>;;>;;;;+.......++;;;;>'>>;;;;@@;;;;@@@;@.+@;;;;;;;@+@",
"$$%%...$$%%#%%&%%%%%%$$#.+@+++@@@;;;,>,,',>>,>,'',',''''''''''>;>>''''''''''!')''''!''''))!)'''>',',''',''''!'''>';',')!~~~~~''''>>;;@@+.+;@;;@;@@+.#.#..+;;@@@..++.++@.+....++......@.++.+...+@;;;;;;;;>;;;;>'',''',,,'')'',>;;;;;@;;;;;@;;@++.$..#$%$#$$%%$$#$",
">,,,;;;..$..$%*&*%&&&*&**%$$.$%%%%*%%&%%%$###$$%%%%$%%%%%&%#$$%%%%%%$$$$...#%%$..##%%=*-**%**&%%%%%$$%%%#$#..+#..##.$%&$#...@++#%%%%%%&&&&**-=*&%&*****==***%%$.##.$###%%$%##..++##$#.#$#........####.#..+@+.+@+..+@@;;;@++.;@;;@@;>;;;;;;;;;;;+@+@;@@@.+@;;;;,,",
"~~~~~~))'))!!',>>;>>;;;;++@;.+@@.;@@;@+@@;;>;;;;@@;;>;;;;;,;;;;;;;;;;;;;;;;;;;;>',>,''')))!)')','''''>;;,;>>>;@;,',,>@@@;;>,@+..@;@@;;;+..#$$%%&%%&=&&%%%#.#.$$#$#.$$#.#%$%&%##...#..#.@.+..#........+;;;;;>;>>,,>>>'>'>,,>',''',''''~!)''')!)',''>,'')!)))!)~~~",
"~{{]{~!!~)''''''))'!~)~''))!!''';;;;;+@@@@;>;;@@@;@.+..++.#..#$#.+...#..#.#%%%&&&*&*=--==-2-2322=-2--2442--244222349434433344442------=-===&%%%$##...+;;;;;;;@;;@@+.+;++++...@@@++.+..#..@+@;;@.++@@@++@.#...#.+......@@@@;;>,,>;;,')!~~~~{~~~!!!!~))','~~~{~~~]",
"22--2233-*%%#...$$%%#+....+....+++++++.#..@+..@..++@;;;>'',!!~!!))))''',;,>,',',>,',>,''))''',,,,'!~!!'')'')''',',;++;$%&%%#.$$$......$$$.#@+@@@+..+..+@+..##$$#$%$#%$%###%$$#$%$#...;+@++++.;@;@;@+..%%%%%%$$%&%&&*&%$%%%%&&%&%%%*&*&**&&*%%&*==&=-*=--33433323",
"*%##$#%%$$##..##.#.+@@@;;.+.;;;;;;;@@@++++;;;;>>;;>>,;;;;;>;;+@;@;;;;;;@;;;;@;+@;;@;;;;;@@;;>;>,>,>;>;;;@..#.##..+@...+@@+..#%.##....%%%$..#.++@;;;;;+@@;;;;;;@++@+@;;,;;+@+;;;;@+@@@;;;;@@++@;;;;,>>>;;;;@++@+.@;++;+@@;@@@.$++..$$###%%#%$$$%%%&%*%&&&&&*%%---",
">,'',;;;;@+@;;;@.....+.;;+.#...#.$%%%%*&===-------33334333444944444444433222---22-332--&%%&%%%%##..+.+;;;;;;@;;;;>;>,'>,';;;>''''',')'!'!'!)))'','>;;;;;;;;+......#...@@@@@++++@+@@@;;;;+..##.$#$.+...@;@@@;;;>>>,>>''','>'',')!'';;;;>,,'>,'',,;;;,>''',,,>;@@;",
"~!!!)';>;@;;@;@++++.$$$$$%%%%$$%%&&%*%*&*=--===*----==33432222-=**=&&=*&*&&%**&%%%$#.$$%$#....#.#.....@+;@@+....+@@@;@@@;++...#$$#+;;;;;;@;;@@@;>;;>>;;;;>;>;;;;;;;;;;;;;>>;;;;;;@;;;;;;,,'''''>,,''';>>>>>>;>;;;>>,>,,'')')''''''''',,''))!~~~~~~~!'!'',,'')')~",
"-=--=*&%%%%%$$..$$%$$$$..#$#$#.#$%%%%$$%%#$##..+@...#..$...#+..##.$$$%%$%%%%%%&&&&**%%&*&%%%$$$..#+....#.$%%$#$##.+..#..+...#++;;;;>;;;;;;>>;,,;;;>>>>'',,;,,;;;;;>;>>,>'>'','''',',''))!!)''!''',,,';;;;;>>',,,,;,,,'>''''''>;;;;;@;++.#%%$.##$%%&=-3-=2=-----2",
",;;;;;;;;@;;@;@;;;;;;;;;,>;;;;>;,''''')'''','>,',)!~!)'')!!)!!')''')~)))'))''''',,;;;;;>;;;@++@@..#.+;@+@;.#%.$$##.%$$$%*%%%%%&&&&%%%&%&&&***&%%$.$#$$$$%%$##.#.$##.##$$%%&$&%%%$$%#$#......###...++@@;;>;>;;;;;;;;>;;;;@@@;;;@@@;@;;;....@++@.+@@@;;>,,;,'~)',,",
"$#%$%%%%%%$$##.##...$$$#%%%%%%%$#..#%$%&&*&&%%%%%$%..+.+..+++@@@..#.#....#..##.+......+@+....+.@@;;;>>>')'''')',,''!)',)),''''))'''>>,',>,','))))'',,>;;;,>;>;;;;+...#...@@@++.......#....##..+......###%#$$$%$$$%$#$$$$$$$######$%&-*&&%%%&&=*%$&%%##.##$$%*%%%",
";;@;;;;;@@@;;@;;;;;;;;;;;;;,>;;;;@;;;.#...#.##$$#####.$%%$$#...##..$#$#$$%$$%$##..$$$%%%%&*&%=----2-222332-2232432-444494949423322==**=*%%&%%%###$##....+.++@;++.@;@@;;;;;>;;>>>>''''''''''))))~~~{~!~)!!))!)!!')!''',',,,'),>;;;;;;;>>,,'!~~''''!~)!''''';;;@+;",
";;;+;>>;@@+..#.+.##......$......++++......@;+....+.+@@@;+.+@@;@@+........#....###++;@;;;;;;>,,>>,>'',>>>,'',;;;;;;+;;;@@.@;;;;;;;;>;',''!,''>>;;;@@;;;++..#.$%%%$%%%&%%$##.#....#$#.$#.......##%##%%$$$$$.#...$...+++@;;;;;;;;>;;;;.+....#.+@+@+#.$#%$..+@;@+;;;",
";;;;;>;>;>;;;;;;>,,,''))'''',',,'')''')'')!!~~!)~)'''''''''''')''''',,;>,;;;;;;;;;@@@..;+@;@+;;;;+;++.#$%%%&%&%&%%*==-2---2--4--2--=**=*&=--=*%&%%&%$&&%=-==%&%%%%*&$$$%$.+@;@@;@;;;;;;>',>',,>>',;;;;;;;;;@;;;;;>;;>,'>>;;;,'),,'''>;..+@;;;;@+..##.....+@#.+;;",
"-2---2-2334322==--=*=&%%%%%......++++;;.++;@@;;>;;;;;;;;;@;;;;>;+;;;;;;;;;@;;;;;;@++#.$#.##$...#%$$$%&%%=-2-=--***-===-222------2--2232-2-----=***%&%$%%#$..##...##......+..+@;;@;;;>>;;+@+..+++.+..+..++..........#%$$$.#$##.....$.#$%%*-=*=-=--=&&*-=--22-===-",
"+...;;;>>>>;;;;>;;;;;;;;>;;;;;;;;>,,>;;;;;;@+@@@+...###++@;@;;+@+@+..@@@@@@;;;>;>;>;;>;@;>;;;;;;>;;;'''>;;','')!!~!~''''!!'''''',''')~!',;;;;,;,,')),>',','>,,,;;;;;>>>;,'',>>;;;;;;;;;@@;;>;;+@@;;;;;;@@+....##$%%%%%%%%%&%$##%%$%&---2----=*=%%.+@+@.+;;;@+@..",
";+@@;;;;>>>;+.+.....$#$#..#..$..+..#$.#$$%$$#..$#$#%$##$$#$.#.......+;;;++@+;..+...+..@@@+...++@++@+;;;;@+@@;;;..##....##$##.#%%*%###$#.+;;;,',,',>>,'''>,')))~)))!~~~~!~~~~~~~{{~{~{~{{]{~~{~!~))~)'''',,,>>,>,,''))'''',''';;;;;;;+@;;;;@@;;;@@+..@@..+;>>,@@.",
"@;;;;;;@;;;;;@;;;@@;;@;@@;;;;;;;;;;;@@@...##$$##$.$$.......+.+.+..@@+++.++.+..#.....##.+..+++@;+@@+;;;;>'''~)!~!''''!!'!','!~!'''''))!!~~~!!!!!!!)))!)'),''')!!)))!'''',,''''''>,''))'',,''''''''','!'))''''''>>,,'''))',,>>,;>>;;>>>;;>>;>>;;;;;;>;;>;;;>;;;;@+",
"##$#%#.+@+;;;;@++;@@@++;+;;;;;@;;;;;,'>>',,;>,)!'',,,,,''',','')')))!'!)!)!)')''~~)!!'',,;;;@;;.+;;;;@;;;@;;@;;;;;>>,,>';;;@+@@@@@;;++.+@@;@@;>;;>;;>;;>,''>;;@;;;@@@;;>;;;@......#$#$.....$$%%#..+@+@@@++++++@;;@;;@@+@;;;@@;;@.####.+@+;;;@;;>>;;@+;;>'!'>';+.",
"--&&%%%%$%%%###....+.##...+......+..@+....@+;@;;@@+..@;;;@;;;;+++@+.+++@;;;,;>;;;;;;@+@@;;;;;;;;;>''>;;;>;;;;>;;;@@;;;@++@@@..+++..$#.$$#....+@;;>;;;;;,;;;,>;;;@+;@;;;;+@;;;;;>>'''!)!!~~~~!!~~!{{^^_^^^^]^^^]^^^]^^^^]^]^^_^_^^^/__^]^^]{~~~~!!~~!)!!~~''>..%-",
"%#%$%%%$$#...#$#%..#$$###$##..####$$#$$$$#..#.##.#.....+;;@@+;@@;;@+@;;;;;;;;@;@;;+@@;;;,>>,>'''>'>>,>''>;;@@+..+;@+;.+.#$$&&&*==*=*&%%%%%$&%%%%%*&-----2-32---------****&&*==--=*=&%%%#$$$%%#%%%%%%$%$##.##$#......+@+..++....+...++..++@@+.+.#..$$....#.%#.@.#",
";;;+@++#$..$#.....#..#$%$.$$$%%%%%%%%%%%**===-*&&&%%&&&=**&%%%%$##..#$#$%&&&&%%%$%%$%$$..###$#.#.@;;;;;;;;;;;;@@@;;;;+...+...##$$##$..$#%%%%%%%%%&&%&%&%%%%=---====--2-2--==-----=------==&***%***=*&*&&&&*=&&*&&%&&==*%&&&%*%%%$$$%$%$%#...#..+++@+..@;;.##@;;>",
";>,,',,,>>;;;;;;>>'')!!)!)!!)'''>>''',',>>'','>>>'')!~)~)~~))!!~~~~{{^^^^^^{~'',;;;;;;;>;;;;;;;;',,,,,',','>;';;>;;;;;;;;@+@@@+..@@+@..@;;@;;;;>>>;;+;;;;;;;@;;+.+@.@+@+#++.+;;@;;;>;;>,'>,>;;',',>'''''''>;>,'',;;@@@;;;;>>>>'>,>'';;;>@;,,';;,'>@;',''~>+,)'';",
"*&%$$##...@@;;;;@.....##$$$$$.....$$%%%%%$...+++.+;;''',,''',>,,',;;,>;@.@;;;>;;>,>',''';;>;;,,')~)!''>>;;;;>;;+@;>;;;;>''!)~~~~~~~~~))!~~{~~~~{~~~{~~~~~~~~!!!)'!''',,;;;;@.#.@;;;@++@@;;;@;;;;;;;;;;;;;>;;;;;;;;>;;;;;;;;>;>,>')~~~~^__^~))>@;@.@*%=%=&$**--4&",
"~;;;;;;;;@+....++;;;;;;;;>','''>,'''!~~~~~!'',>'';;;>'))!~~~!~~~~~~~{~~{^_/^{^^]^^^{{~~{{{^^^]^^{^]]^^/((/(0aa0(//^^{{{^]]]]^^^~{^^]~!~~!'!!'''!'~!!!'!)!''))!~''',''>;;@@@;;;;;;;;++.#...@@..#..#.+.......+.$$#.%$#..#%&&%%&*---=&%#.$%&=-*%%.@>@%=%42&-$=.~)2~",
"~..++;;;>;@@.@++;;@........++@;;;',''',;''''))!~~~!'''''~~~~{~~~)!)''))!''!'''!!~~)!~~!~!)!)';;,)))',,,;>,;;;;>;;;@@+.$%%$...+;;.++@@+@@@..#..$$%%&*&*****=-------*&&%%$%%$.##%#..##$$$%&&&%$#..#.++;;;;>>>,,'')')!~~~~~{{{]]~~~)~~!'','!)'!~^/(_(:<:[}<[|:1[{_~",
"$#%.....@+.@++@@+@++.++@..........$.$%$%%%%%%%$*****-24444555566555776778787655466666787878878887665945949444422=-2222232-------2--2--=3444434-2-***&*%%.$#%*%&$%%%%$%$%%&%====&&$$%$$$#$$#...+;;;;;;>>>,;;;@;;;;@+...@;@@...@.$..++;;>,'!)!,'))~~^_///](^'#%.%&",
";;;;@++;;;;;;;;;>;;;;;;;;;;;;;;;;;;@..$##%%#$#.$%&&&--=-=-=&&==*-2-232--=*-333322344343---2222---*%%%%%%%%%%&#%##..+@;@+.;+@++.....#$###.#..+@.++.$$%%$$#%$%&**===--=*%%&%$$%$$&*%%&&&%%%*%&%%#..@;;@#...+++.@+@;@;@;;;,;,>>>'''>;>,;+;;;>,,>,)'),,)~!~),;>..*.;",
"^{{]]^^]^^]]{]{~~~{~~))'''>>,,>>;+.+..#....#%%%&***=***&&&*&%%%$#$#.#.....+......+++.....#%$$#####@+...+.+.+@@;;;++@@+.++;.###%%%&%%&$..#.......+@.+;;;++...@....@@;.+++@...$##.###%%%%%&**=*===343222-333343334444322-33333494444444422-3432---*%#.+@;.+>,~~!{{",
",'',;;;@;;@@@+@@@@+@@@@..##.####+...##$#$..%%%%$$$$$$..#.##...@;>;;,''''',,''>,,,>',>>;;>;;;;>>,;;;;;;;;++@+..@+@+.+;@@;;@.#..#%##%.#@+@;;@@++@.+.++.+..$$#.+..#####.#...##%$##$.$%%&&*=-==****=-------==**&%&*&%%&&&*=&%%%%$#.##$%%%%%$%*=--=&&%##.+@##..#.;,,'",
"^^]]{{~~~{~~~!~~^{^^^^]~~]^^^^^]^^]]{~~!~~~~{~~~~~~~~!~~!)!!!~~)''','>'''!)'))',>,''',>;;>'>,>>;,;>>;>;;;;;;;+.+;@.;>',,','''>',,;;;.#$%%%##%$$...@@@;;;;>>;;;;;;;@;@;>;,,,;;;;+.#.#...+....@;;;;>>>>;>>;;;;;;;;+;;++@+;@@++;;;;+.+.@;;,'''')'!))~~{{{]!~~{^~]{^",
";>''''''))!~~!)''''')'')!)!!''!)))',>>;;>;;;;;;;;;;;;;@;;;;@@+@+;;;;;;@;;;>;;>;;;;+.......++;;;;>'>>;;;;@@;;;;@@@;@.+@;;;;;;;@+@+@.#+.#.#..##.+...+@...###$%%%%%%%.#.$###.#.++.......++....+.++@+;@+@@@@++@+;@@@++@.+;;@;;;;;@;;;;;@;;;++@;;;;;;..+;;;;>,';;+@;;",
"'>>;;@@+.+;@;;@;@@+.#.#..+;;@@@..++.++@.+....++......@.++.+...+@;;;;;;;;>;;;;>'',''',,,'')'',>;;;;;@;;;;;@;;@++.$..#$%$#$$%%$$#$$$%%...$$%%#%%&%%%%%%$$#.+@+++@@@;;;,>,,',>>,>,'',',''''''''''>;>>''''''''''!')''''!''''))!)'''>',',''',''''!'''>';',')!~~~~~'''",
"%%%%%%&&&&**-=*&%&*****==***%%$.##.$###%%$%##..++##$#.#$#........####.#..+@+.+@+..+@@;;;@++.;@;;@@;>;;;;;;;;;;;+@+@;@@@.+@;;;;,,>,,,;;;..$..$%*&*%&&&*&**%$$.$%%%%*%%&%%%$###$$%%%%$%%%%%&%#$$%%%%%%$$$$...#%%$..##%%=*-**%**&%%%%%$$%%%#$#..+#..##.$%&$#...@++#",
"@;@@;;;+..#$$%%&%%&=&&%%%#.#.$$#$#.$$#.#%$%&%##...#..#.@.+..#........+;;;;;>;>>,,>>>'>'>,,>',''',''''~!)''')!)',''>,'')!)))!)~~~~~~~~~))'))!!',>>;>>;;;;++@;.+@@.;@@;@+@@;;>;;;;@@;;>;;;;;,;;;;;;;;;;;;;;;;;;;;>',>,''')))!)')','''''>;;,;>>>;@;,',,>@@@;;>,@+..",
"------=-===&%%%$##...+;;;;;;;@;;@@+.+;++++...@@@++.+..#..@+@;;@.++@@@++@.#...#.+......@@@@;;>,,>;;,')!~~~~{~~~!!!!~))','~~~{~~~]~{{]{~!!~)''''''))'!~)~''))!!''';;;;;+@@@@;>;;@@@;@.+..++.#..#$#.+...#..#.#%%%&&&*&*=--==-2-2322=-2--2442--244222349434433344442",
"......$$$.#@+@@@+..+..+@+..##$$#$%$#%$%###%$$#$%$#...;+@++++.;@;@;@+..%%%%%%$$%&%&&*&%$%%%%&&%&%%%*&*&**&&*%%&*==&=-*=--3343332322--2233-*%%#...$$%%#+....+....+++++++.#..@+..@..++@;;;>'',!!~!!))))''',;,>,',',>,',>,''))''',,,,'!~!!'')'')''',',;++;$%&%%#.$$$",
"#....%%%$..#.++@;;;;;+@@;;;;;;@++@+@;;,;;+@+;;;;@+@@@;;;;@@++@;;;;,>>>;;;;@++@+.@;++;+@@;@@@.$++..$$###%%#%$$$%%%&%*%&&&&&*%%---*%##$#%%$$##..##.#.+@@@;;.+.;;;;;;;@@@++++;;;;>>;;>>,;;;;;>;;+@;@;;;;;;@;;;;@;+@;;@;;;;;@@;;>;>,>,>;>;;;@..#.##..+@...+@@+..#%.#",
"'',')'!'!'!)))'','>;;;;;;;;+......#...@@@@@++++@+@@@;;;;+..##.$#$.+...@;@@@;;;>>>,>>''','>'',')!'';;;;>,,'>,'',,;;;,>''',,,>;@@;>,'',;;;;@+@;;;@.....+.;;+.#...#.$%%%%*&===-------33334333444944444444433222---22-332--&%%&%%%%##..+.+;;;;;;@;;;;>;>,'>,';;;>'''",
"$#+;;;;;;@;;@@@;>;;>>;;;;>;>;;;;;;;;;;;;;>>;;;;;;@;;;;;;,,'''''>,,''';>>>>>>;>;;;>>,>,,'')')''''''''',,''))!~~~~~~~!'!'',,'')')~~!!!)';>;@;;@;@++++.$$$$$%%%%$$%%&&%*%*&*=--===*----==33432222-=**=&&=*&*&&%**&%%%$#.$$%$#....#.#.....@+;@@+....+@@@;@@@;++...#$",
";;;>;;;;;;>>;,,;;;>>>>'',,;,,;;;;;>;>>,>'>'','''',',''))!!)''!''',,,';;;;;>>',,,,;,,,'>''''''>;;;;;@;++.#%%$.##$%%&=-3-=2=-----2-=--=*&%%%%%$$..$$%$$$$..#$#$#.#$%%%%$$%%#$##..+@...#..$...#+..##.$$$%%$%%%%%%&&&&**%%&*&%%%$$$..#+....#.$%%$#$##.+..#..+...#++;",
"&&%%%&%&&&***&%%$.$#$$$$%%$##.#.$##.##$$%%&$&%%%$$%#$#......###...++@@;;>;>;;;;;;;;>;;;;@@@;;;@@@;@;;;....@++@.+@@@;;>,,;,'~)',,,;;;;;;;;@;;@;@;;;;;;;;;,>;;;;>;,''''')'''','>,',)!~!)'')!!)!!')''')~)))'))''''',,;;;;;>;;;@++@@..#.+;@+@;.#%.$$##.%$$$%*%%%%%&&",
"'''>>,',>,','))))'',,>;;;,>;>;;;;+...#...@@@++.......#....##..+......###%#$$$%$$$%$#$$$$$$$######$%&-*&&%%%&&=*%$&%%##.##$$%*%%%$#%$%%%%%%$$##.##...$$$#%%%%%%%$#..#%$%&&*&&%%%%%$%..+.+..+++@@@..#.#....#..##.+......+@+....+.@@;;;>>>')'''')',,''!)',)),''''))",
"22==**=*%%&%%%###$##....+.++@;++.@;@@;;;;;>;;>>>>''''''''''))))~~~{~!~)!!))!)!!')!''',',,,'),>;;;;;;;>>,,'!~~''''!~)!''''';;;@+;;;@;;;;;@@@;;@;;;;;;;;;;;;;,>;;;;@;;;.#...#.##$$#####.$%%$$#...##..$#$#$$%$$%$##..$$$%%%%&*&%=----2-222332-2232432-4444949494233",
";;>;',''!,''>>;;;@@;;;++..#.$%%%$%%%&%%$##.#....#$#.$#.......##%##%%$$$$$.#...$...+++@;;;;;;;;>;;;;.+....#.+@+@+#.$#%$..+@;@+;;;;;;+;>>;@@+..#.+.##......$......++++......@;+....+.+@@@;+.+@@;@@+........#....###++;@;;;;;;>,,>>,>'',>>>,'',;;;;;;+;;;@@.@;;;;;;",
"2--=**=*&=--=*%&%%&%$&&%=-==%&%%%%*&$$$%$.+@;@@;@;;;;;;>',>',,>>',;;;;;;;;;@;;;;;>;;>,'>>;;;,'),,'''>;..+@;;;;@+..##.....+@#.+;;;;;;;>;>;>;;;;;;>,,,''))'''',',,'')''')'')!!~~!)~)'''''''''''')''''',,;>,;;;;;;;;;@@@..;+@;@+;;;;+;++.#$%%%&%&%&%%*==-2---2--4--",
"2--2232-2-----=***%&%$%%#$..##...##......+..+@;;@;;;>>;;+@+..+++.+..+..++..........#%$$$.#$##.....$.#$%%*-=*=-=--=&&*-=--22-===--2---2-2334322==--=*=&%%%%%......++++;;.++;@@;;>;;;;;;;;;@;;;;>;+;;;;;;;;;@;;;;;;@++#.$#.##$...#%$$$%&%%=-2-=--***-===-222------",
",''')~!',;;;;,;,,')),>',','>,,,;;;;;>>>;,'',>>;;;;;;;;;@@;;>;;+@@;;;;;;@@+....##$%%%%%%%%%&%$##%%$%&---2----=*=%%.+@+@.+;;;@+@..+...;;;>>>>;;;;>;;;;;;;;>;;;;;;;;>,,>;;;;;;@+@@@+...###++@;@;;+@+@+..@@@@@@;;;>;>;>;;>;@;>;;;;;;>;;;'''>;;','')!!~!~''''!!''''''",
"*%###$#.+;;;,',,',>>,'''>,')))~)))!~~~~!~~~~~~~{{~{~{~{{]{~~{~!~))~)'''',,,>>,>,,''))'''',''';;;;;;;+@;;;;@@;;;@@+..@@..+;>>,@@.;+@@;;;;>>>;+.+.....$#$#..#..$..+..#$.#$$%$$#..$#$#%$##$$#$.#.......+;;;++@+;..+...+..@@@+...++@++@+;;;;@+@@;;;..##....##$##.#%%",
"'''))!!~~~!!!!!!!)))!)'),''')!!)))!'''',,''''''>,''))'',,''''''''','!'))''''''>>,,'''))',,>>,;>>;;>>>;;>>;>>;;;;;;>;;>;;;>;;;;@+@;;;;;;@;;;;;@;;;@@;;@;@@;;;;;;;;;;;@@@...##$$##$.$$.......+.+.+..@@+++.++.+..#.....##.+..+++@;+@@+;;;;>'''~)!~!''''!!'!','!~!''",
"@@;;++.+@@;@@;>;;>;;>;;>,''>;;@;;;@@@;;>;;;@......#$#$.....$$%%#..+@+@@@++++++@;;@;;@@+@;;;@@;;@.####.+@+;;;@;;>>;;@+;;>'!'>';+.##$#%#.+@+;;;;@++;@@@++;+;;;;;@;;;;;,'>>',,;>,)!'',,,,,''',','')')))!'!)!)!)')''~~)!!'',,;;;@;;.+;;;;@;;;@;;@;;;;;>>,,>';;;@+@@@",
"+..$#.$$#....+@;;>;;;;;,;;;,>;;;@+;@;;;;+@;;;;;>>'''!)!!~~~~!!~~!{{^^_^^^^]^^^]^^^]^^^^]^]^^_^_^^^/__^]^^]{~~~~!!~~!)!!~~''>..%---&&%%%%$%%%###....+.##...+......+..@+....@+;@;;@@+..@;;;@;;;;+++@+.+++@;;;,;>;;;;;;@+@@;;;;;;;;;>''>;;;>;;;;>;;;@@;;;@++@@@..++",
"=*=*&%%%%%$&%%%%%*&-----2-32---------****&&*==--=*=&%%%#$$$%%#%%%%%%$%$##.##$#......+@+..++....+...++..++@@+.+.#..$$....#.%#.@.#%#%$%%%$$#...#$#%..#$$###$##..####$$#$$$$#..#.##.#.....+;;@@+;@@;;@+@;;;;;;;;@;@;;+@@;;;,>>,>'''>'>>,>''>;;@@+..+;@+;.+.#$$&&&*=",
"$##$..$#%%%%%%%%%&&%&%&%%%%=---====--2-2--==-----=------==&***%***=*&*&&&&*=&&*&&%&&==*%&&&%*%%%$$$%$%$%#...#..+++@+..@;;.##@;;>;;;+@++#$..$#.....#..#$%$.$$$%%%%%%%%%%%**===-*&&&%%&&&=**&%%%%$##..#$#$%&&&&%%%$%%$%$$..###$#.#.@;;;;;;;;;;;;@@@;;;;+...+...##$",
".@@+@..@;;@;;;;>>>;;+;;;;;;;@;;+.+@.@+@+#++.+;;@;;;>;;>,'>,>;;',',>'''''''>;>,'',;;@@@;;;;>>>>'>,>'';;;>@;,,';;,'>@;',''~>+,)'';;>,,',,,>>;;;;;;>>'')!!)!)!!)'''>>''',',>>'','>>>'')!~)~)~~))!!~~~~{{^^^^^^{~'',;;;;;;;>;;;;;;;;',,,,,',','>;';;>;;;;;;;;@+@@@+.",
"~~~~~))!~~{~~~~{~~~{~~~~~~~~!!!)'!''',,;;;;@.#.@;;;@++@@;;;@;;;;;;;;;;;;;>;;;;;;;;>;;;;;;;;>;>,>')~~~~^__^~))>@;@.@*%=%=&$**--4&*&%$$##...@@;;;;@.....##$$$$$.....$$%%%%%$...+++.+;;''',,''',>,,',;;,>;@.@;;;>;;>,>',''';;>;;,,')~)!''>>;;;;>;;+@;>;;;;>''!)~~~~",
"{^^]~!~~!'!!'''!'~!!!'!)!''))!~''',''>;;@@@;;;;;;;;++.#...@@..#..#.+.......+.$$#.%$#..#%&&%%&*---=&%#.$%&=-*%%.@>@%=%42&-$=.~)2~~;;;;;;;;@+....++;;;;;;;;>','''>,'''!~~~~~!'',>'';;;>'))!~~~!~~~~~~~{~~{^_/^{^^]^^^{{~~{{{^^^]^^{^]]^^/((/(0aa0(//^^{{{^]]]]^^^~"};
