/* XPM */
static char * dream_bar_xpm[] = {
"75 22 29 1",
" 	c #2B2B3D3D4B4B",
".	c #2C2C2E2E2C2C",
"X	c #2C2C2A2A2C2C",
"o	c #4C4C4E4E4C4C",
"O	c #5C5C5E5E5C5C",
"+	c #444446464444",
"@	c #747476767474",
"#	c #3C3C3E3E3C3C",
"$	c #545456565454",
"%	c #BCBCBABABCBC",
"&	c #949492929494",
"*	c #9C9C9E9E9C9C",
"=	c #ACACAAAAACAC",
"-	c #ACACAEAEACAC",
";	c #646466666464",
":	c #D4D4D6D6D4D4",
">	c #9C9C9A9A9C9C",
",	c #8C8C8E8E8C8C",
"<	c #FCFCFEFEF4F4",
"1	c #6C6C6E6E6C6C",
"2	c #343436363434",
"3	c #C4C4C6C6C4C4",
"4	c #FCFCFEFEFCFC",
"5	c #141416161414",
"6	c #848486868484",
"7	c #F4F4F2F2F4F4",
"8	c #F4F4F6F6F4F4",
"9	c #E4E4E2E2E4E4",
"0	c #CCCCCECECCCC",
"                                                                           ",
"                                                                           ",
"                                                    .                      ",
"                         Xo                         O+                     ",
"           @             O#                        $%%$                    ",
"          #&        #O  .*.                         =-                     ",
"          ;:         O&O@>                         ....                    ",
"          ,<          1*>*Oo2                                              ",
"          34$  5  5   2*>>*61$.  .         O                               ",
"    $-3,,$74*@,-36.  2,&&&       $+        @o2;.           $1              ",
"      ,8<4444443#    6O.o*       66       o*3-.            #+              ",
"       .-44449;     #.   62  .2  --  2. .o@-0,                             ",
"         9444@           #+   ;997799;     @@;@                            ",
"        @47%49            .     *<8*       1   .                           ",
"        97+ -4@                 -:9-                                       ",
"       ;:o   ,3                2:..:2                                      ",
"       &      @$               @.  .;                                      ",
"       .       2                                                           ",
"                                                                           ",
"                                                                           ",
"                                                                           ",
"                                                                           "};
