/* XPM */
static char * dream_bar_vert_xpm[] = {
"22 75 30 1",
" 	c None",
".	c #2B3D4B",
"+	c #6C6E6C",
"@	c #444644",
"#	c #545654",
"$	c #3C3E3C",
"%	c #2C2E2C",
"&	c #BCBABC",
"*	c #ACAEAC",
"=	c #5C5E5C",
"-	c #ACAAAC",
";	c #646664",
">	c #747674",
",	c #343634",
"'	c #8C8E8C",
")	c #4C4E4C",
"!	c #C4C6C4",
"~	c #CCCECC",
"{	c #9C9E9C",
"]	c #E4E2E4",
"^	c #D4D6D4",
"/	c #848684",
"(	c #F4F2F4",
"_	c #F4F6F4",
":	c #FCFEF4",
"<	c #2C2A2C",
"[	c #9C9A9C",
"}	c #949294",
"|	c #141614",
"1	c #FCFEFC",
"......................",
"......................",
"......................",
"......................",
"......................",
"......................",
"......................",
"......................",
"......................",
"......................",
"......................",
"......................",
"......................",
"......................",
".........+@...........",
".........#$...........",
"......................",
"......................",
"......................",
"......................",
"....#.%...............",
"...@&*%...............",
"..%=&-%...............",
"....#.%...............",
"......................",
"......................",
"......................",
".........%...%........",
".........;%.>.........",
".........,*';.........",
".........)!~>.........",
"........=>{*>+........",
"..........)>..........",
"...........)..........",
"...........%..........",
"......................",
"...........%..........",
"...........,;.........",
"............]..,;.....",
"............]{*^%.....",
".........@/*(_]%......",
"........%#/*(:^%......",
"............]{*^%.....",
"............]..,>.....",
"........%..,;.........",
"........#..%..........",
".......,+.............",
".......)/.............",
"...)$%.={..,@%........",
"...<={[{[}{/$.........",
".....%>[[})...........",
"......={{}%...........",
"......}+,'=...........",
".....==..,/%..........",
".....$.....$..........",
"......................",
"........|%............",
"........./............",
".........!$...........",
"........|*!.....#,....",
".........'1;..>!>.....",
".........>1]>]1'......",
"........#{1111*.......",
"....>}^:11111&........",
".....$;'!(111(@.......",
".........#11]1()......",
".........':*.>]^......",
".........'_%...;}%....",
".........!'...........",
".........*............",
".........#............",
"......................",
"......................",
"......................",
"......................"};
