/* XPM */
static char * Emerald_max_xpm[] = {
"16 16 75 1",
" 	c None",
".	c #FFFFFF",
"+	c #F3EDE6",
"@	c #EFE8DF",
"#	c #ECE3D9",
"$	c #E9DED2",
"%	c #E6DACC",
"&	c #E3D5C6",
"*	c #E0D0BF",
"=	c #DDCBB9",
"-	c #DAC7B2",
";	c #D7C2AC",
">	c #D4BDA6",
",	c #D1B89F",
"'	c #CEB499",
")	c #CBAF93",
"!	c #000000",
"~	c #C8AA8C",
"{	c #004919",
"]	c #08602B",
"^	c #045C27",
"/	c #136B44",
"(	c #0F8732",
"_	c #24824B",
":	c #178C38",
"<	c #196952",
"[	c #00452C",
"}	c #C5A686",
"|	c #03391D",
"1	c #C2A17F",
"2	c #003522",
"3	c #BF9C79",
"4	c #BC9773",
"5	c #034C25",
"6	c #1C664B",
"7	c #277B55",
"8	c #256B45",
"9	c #5C9469",
"0	c #579465",
"a	c #043F31",
"b	c #B9936C",
"c	c #247653",
"d	c #1A6A4B",
"e	c #2C7B54",
"f	c #2F8D57",
"g	c #469561",
"h	c #B68E66",
"i	c #035323",
"j	c #1C783C",
"k	c #135939",
"l	c #3A935B",
"m	c #3A8B5D",
"n	c #00311C",
"o	c #B3895F",
"p	c #066425",
"q	c #1E7C49",
"r	c #227343",
"s	c #2F845B",
"t	c #258152",
"u	c #012C1B",
"v	c #B08459",
"w	c #1C7544",
"x	c #1B8633",
"y	c #196D3A",
"z	c #308961",
"A	c #2A8555",
"B	c #AD8053",
"C	c #00220A",
"D	c #015F18",
"E	c #0A6332",
"F	c #0E6A37",
"G	c #003E10",
"H	c #AA7B4C",
"I	c #A77646",
"J	c #A47240",
"................",
".+@#$%&*=-;>,')!",
".@!!!!!!!!!!!!~!",
".#!{]^/(_/:<[.}!",
".$!.........|.1!",
".%&*=-;>,')!2.3!",
".&!!!!!!!!~![.4!",
".*!567890.}!a.b!",
".=!5cdefg.1!2.h!",
".-!ijk7lm.3!n.o!",
".;!pq6rst.4!u.v!",
".>!5wxyzA.b!|.B!",
".,!C{D|EF.h!G.H!",
".'!.......o!..I!",
".)~}134bhovBHIJ!",
"!!!!!!!!!!!!!!!!"};
