/* XPM */
static char * Emerald_min_xpm[] = {
"16 16 76 1",
" 	c None",
".	c #FFFFFF",
"+	c #F3EDE6",
"@	c #EFE8DF",
"#	c #ECE3D9",
"$	c #E9DED2",
"%	c #E6DACC",
"&	c #E3D5C6",
"*	c #E0D0BF",
"=	c #DDCBB9",
"-	c #DAC7B2",
";	c #D7C2AC",
">	c #D4BDA6",
",	c #D1B89F",
"'	c #CEB499",
")	c #CBAF93",
"!	c #000000",
"~	c #C8AA8C",
"{	c #004919",
"]	c #08602B",
"^	c #045C27",
"/	c #136B44",
"(	c #0F8732",
"_	c #24824B",
":	c #178C38",
"<	c #196952",
"[	c #00452C",
"}	c #C5A686",
"|	c #08572B",
"1	c #1E744A",
"2	c #146A3D",
"3	c #2C8C4B",
"4	c #379351",
"5	c #278853",
"6	c #367F5E",
"7	c #297554",
"8	c #03391D",
"9	c #C2A17F",
"0	c #0A6332",
"a	c #1C783C",
"b	c #398E53",
"c	c #568A64",
"d	c #277B55",
"e	c #438A60",
"f	c #2C7B54",
"g	c #003522",
"h	c #BF9C79",
"i	c #115B36",
"j	c #267D4E",
"k	c #829B75",
"l	c #529F5A",
"m	c #34835B",
"n	c #247653",
"o	c #BC9773",
"p	c #368C58",
"q	c #3A8B5D",
"r	c #043F31",
"s	c #B9936C",
"t	c #3A935B",
"u	c #2E7E4D",
"v	c #186B37",
"w	c #B68E66",
"x	c #197539",
"y	c #00311C",
"z	c #B3895F",
"A	c #012C1B",
"B	c #B08459",
"C	c #227343",
"D	c #1C7544",
"E	c #AD8053",
"F	c #034625",
"G	c #034C25",
"H	c #003E10",
"I	c #AA7B4C",
"J	c #A77646",
"K	c #A47240",
"................",
".+@#$%&*=-;>,')!",
".@!!!!!!!!!!!!~!",
".#!{]^/(_/:<[.}!",
".$!|123456378.9!",
".%!03abcde7fg.h!",
".&!ij36klmfn[.o!",
".*!.....!pq1r.s!",
".=!.>,')!tuvg.w!",
".-!.,')~!mjxy.z!",
".;!.')~}!davA.B!",
".>!.)~}9!CDv8.E!",
".,!!!!!!!FGFH.I!",
".'............J!",
".)~}9hoswzBEIJK!",
"!!!!!!!!!!!!!!!!"};
