/* XPM */
static char * Emerald_menu_xpm[] = {
"16 16 75 1",
" 	c None",
".	c #FFFFFF",
"+	c #F3EDE6",
"@	c #EFE8DF",
"#	c #ECE3D9",
"$	c #E9DED2",
"%	c #E6DACC",
"&	c #E3D5C6",
"*	c #E0D0BF",
"=	c #DDCBB9",
"-	c #DAC7B2",
";	c #D7C2AC",
">	c #D4BDA6",
",	c #D1B89F",
"'	c #CEB499",
")	c #CBAF93",
"!	c #000000",
"~	c #C8AA8C",
"{	c #C5A686",
"]	c #C2A17F",
"^	c #BF9C79",
"/	c #BC9773",
"(	c #034C25",
"_	c #1C664B",
":	c #277B55",
"<	c #256B45",
"[	c #5C9469",
"}	c #579465",
"|	c #368C58",
"1	c #3A8B5D",
"2	c #1E744A",
"3	c #043F31",
"4	c #B9936C",
"5	c #247653",
"6	c #1A6A4B",
"7	c #2C7B54",
"8	c #2F8D57",
"9	c #469561",
"0	c #3A935B",
"a	c #2E7E4D",
"b	c #186B37",
"c	c #003522",
"d	c #B68E66",
"e	c #035323",
"f	c #1C783C",
"g	c #135939",
"h	c #34835B",
"i	c #267D4E",
"j	c #197539",
"k	c #00311C",
"l	c #B3895F",
"m	c #066425",
"n	c #1E7C49",
"o	c #227343",
"p	c #2F845B",
"q	c #258152",
"r	c #012C1B",
"s	c #B08459",
"t	c #1C7544",
"u	c #1B8633",
"v	c #196D3A",
"w	c #308961",
"x	c #2A8555",
"y	c #03391D",
"z	c #AD8053",
"A	c #00220A",
"B	c #004919",
"C	c #015F18",
"D	c #0A6332",
"E	c #0E6A37",
"F	c #034625",
"G	c #003E10",
"H	c #AA7B4C",
"I	c #A77646",
"J	c #A47240",
"................",
".+@#$%&*=-;>,')!",
".@#$%&*=-;>,')~!",
"!!!!!!!!!!!!!!!!",
"................",
".%&*=-;>,')~{]^!",
".&!!!!!!!!!!!!/!",
".*!(_:<[}|123.4!",
".=!(567890abc.d!",
".-!efg:01hijk.l!",
".;!mn_opq:fbr.s!",
".>!(tuvwxotby.z!",
".,!ABCyDEF(FG.H!",
".'............I!",
".)~{]^/4dlszHIJ!",
"!!!!!!!!!!!!!!!!"};
