/* XPM */
static char *magick[] = {
/* columns rows colors chars-per-pixel */
"16 16 145 2",
"   c #000200",
".  c #000b00",
"X  c #001200",
"o  c #001a00",
"O  c #002400",
"+  c #00220a",
"@  c #002d00",
"#  c #012c1b",
"$  c #003600",
"%  c #003a00",
"&  c #00311c",
"*  c #003e10",
"=  c #03391d",
"-  c #003522",
";  c #013e26",
":  c #043f31",
">  c #282638",
",  c #2f2d3f",
"<  c #223723",
"1  c #312f42",
"2  c #3b3242",
"3  c #3d364d",
"4  c #3d3a4c",
"5  c #004400",
"6  c #004800",
"7  c #00431b",
"8  c #004919",
"9  c #005600",
"0  c #015f18",
"q  c #034625",
"w  c #00452c",
"e  c #034c25",
"r  c #035323",
"t  c #045c27",
"y  c #08572b",
"u  c #1f4120",
"i  c #115b36",
"p  c #135939",
"a  c #006604",
"s  c #00730b",
"d  c #066425",
"f  c #08602b",
"g  c #0a6332",
"h  c #0e6a37",
"j  c #146a3d",
"k  c #186b37",
"l  c #196d3a",
"z  c #197539",
"x  c #1c783c",
"c  c #225828",
"v  c #2a552d",
"b  c #136b44",
"n  c #1c664b",
"m  c #1a6a4b",
"M  c #196952",
"N  c #1c7544",
"B  c #1e744a",
"V  c #1e7c49",
"C  c #3f4752",
"Z  c #256b45",
"A  c #227343",
"S  c #267d4e",
"D  c #2e7e4d",
"F  c #247653",
"G  c #277b55",
"H  c #297554",
"J  c #2c7b54",
"K  c #367f5e",
"L  c #3d7c61",
"P  c #403c4f",
"I  c #423d52",
"U  c #44404d",
"Y  c #414f54",
"T  c #4a425b",
"R  c #484e52",
"E  c #4d4f5b",
"W  c #4c5947",
"Q  c #4e5e4c",
"!  c #4a555a",
"~  c #4d5d5c",
"^  c #4d605d",
"/  c #53695d",
"(  c #586257",
")  c #5d6559",
"_  c #5a6b55",
"`  c #5c6a5a",
"'  c #5e715a",
"]  c #4d6160",
"[  c #516260",
"{  c #566a68",
"}  c #60526d",
"|  c #61715d",
" . c #657060",
".. c #667d63",
"X. c #6e756d",
"o. c #6d7d69",
"O. c #617771",
"+. c #70647a",
"@. c #70697a",
"#. c #0f8732",
"$. c #178c38",
"%. c #1b8633",
"&. c #248044",
"*. c #24824b",
"=. c #2c8c4b",
"-. c #258152",
";. c #278853",
":. c #2a8555",
">. c #2f845b",
",. c #2f8d57",
"<. c #34835b",
"1. c #368c58",
"2. c #398e53",
"3. c #3a8b5d",
"4. c #379351",
"5. c #3a935b",
"6. c #308961",
"7. c #529f5a",
"8. c #438a60",
"9. c #469561",
"0. c #568a64",
"q. c #579465",
"w. c #5c9469",
"e. c #628563",
"r. c #658a66",
"t. c #6b8a67",
"y. c #6d8b6a",
"u. c #638379",
"i. c #658b7c",
"p. c #699067",
"a. c #718a6f",
"s. c #758872",
"d. c #798779",
"f. c #719274",
"g. c #7c937c",
"h. c #689881",
"j. c #7d9f81",
"k. c #829b75",
"l. c #90809d",
"z. c #84a98a",
"x. c #8aad8e",
"c. c #83b488",
"v. c #91c496",
"b. c #91ca9d",
"n. c #9dd0a4",
/* pixels */
"@ O O $ $ $ 6 s a 9 9 5 % % % % ",
"@ v g.j.z.x.v.n.b.v.c.p.e.e.c O ",
". d.l./ O.u.O.i.h.i.i.] Y @.' o ",
"o s.C 8 f t b #.*.b $.M w 1 `   ",
"o s.{ y B j =.4.;.K =.H = I '   ",
"O f.[ g =.x 2.0.G 8.H J - U  .. ",
"O f.] i S =.K k.7.<.J F w U '   ",
"X s.! e n G Z w.q.1.3.B : 4 ' X ",
". X.~ e F m J ,.9.5.D k - 4 )   ",
"X ..! r x p G 5.3.<.S z & 3 ` . ",
"O t.~ d V n A >.-.G x k # 4 ` . ",
"o r.! e N %.l 6.:.A N k = 4 ( . ",
"  _ 1 + 8 0 = g h q e q * > W . ",
"X ` +.U T E ! ~ ~ ~ R 2 2 } Q X ",
". <  ...y.f.f.y.y.y.e._ _ _ u O ",
"      . o @ 5 % @ @ O X o X o O "
};
