/* XPM */
static char * EosCobbleVertTriplet3_xpm[] = {
"18 54 172 2",
"  	c None",
". 	c #5B6046",
"+ 	c #354734",
"@ 	c #242515",
"# 	c #62685A",
"$ 	c #615D57",
"% 	c #4B5238",
"& 	c #4B4B42",
"* 	c #A5AB99",
"= 	c #83857B",
"- 	c #5C5F54",
"; 	c #313626",
"> 	c #919688",
", 	c #555448",
"' 	c #7B7B71",
") 	c #FCFCF5",
"! 	c #ACAF9A",
"~ 	c #7A7B69",
"{ 	c #636464",
"] 	c #332E1D",
"^ 	c #FDFDFC",
"/ 	c #D1D0CB",
"( 	c #443E40",
"_ 	c #898581",
": 	c #6D7167",
"< 	c #1E281C",
"[ 	c #848A80",
"} 	c #87826F",
"| 	c #9F8A62",
"1 	c #715F41",
"2 	c #F8F6DF",
"3 	c #C0C0C0",
"4 	c #1F2725",
"5 	c #343938",
"6 	c #B8BAAD",
"7 	c #C7CEBD",
"8 	c #444C4B",
"9 	c #243522",
"0 	c #747C6C",
"a 	c #837E6F",
"b 	c #89783B",
"c 	c #ECC89C",
"d 	c #A9906A",
"e 	c #3F3D21",
"f 	c #262F18",
"g 	c #93ACA1",
"h 	c #76908D",
"i 	c #B7BE9B",
"j 	c #B8C0AD",
"k 	c #475839",
"l 	c #817F77",
"m 	c #120B00",
"n 	c #7B5F3E",
"o 	c #D1AE6D",
"p 	c #685A3D",
"q 	c #00040B",
"r 	c #809A99",
"s 	c #A1C4B3",
"t 	c #A8C8C8",
"u 	c #748375",
"v 	c #0E0C00",
"w 	c #7A794F",
"x 	c #D5E0B3",
"y 	c #94AA85",
"z 	c #112402",
"A 	c #7C8174",
"B 	c #706F6F",
"C 	c #333414",
"D 	c #2E2208",
"E 	c #7A623F",
"F 	c #5B4A16",
"G 	c #030200",
"H 	c #719098",
"I 	c #8AB1B6",
"J 	c #85A89D",
"K 	c #8FABA9",
"L 	c #ACC9B6",
"M 	c #637252",
"N 	c #1C2106",
"O 	c #9B9C6E",
"P 	c #7A8161",
"Q 	c #2D371A",
"R 	c #777874",
"S 	c #21170F",
"T 	c #37280F",
"U 	c #A4914C",
"V 	c #2C2A19",
"W 	c #567067",
"X 	c #5CA397",
"Y 	c #5A9F8B",
"Z 	c #76A59F",
"` 	c #78B08D",
" .	c #7CB196",
"..	c #99C3B5",
"+.	c #586C52",
"@.	c #181100",
"#.	c #211C05",
"$.	c #3C3A12",
"%.	c #5B623C",
"&.	c #1C1902",
"*.	c #2B1E0C",
"=.	c #574836",
"-.	c #D5CA9F",
";.	c #A5A876",
">.	c #608671",
",.	c #428E83",
"'.	c #4E9887",
").	c #60A88A",
"!.	c #64AD95",
"~.	c #78B8AF",
"{.	c #779885",
"].	c #606131",
"^.	c #8A8338",
"/.	c #37350D",
"(.	c #131704",
"_.	c #434226",
":.	c #57592E",
"<.	c #5B8975",
"[.	c #478D7E",
"}.	c #469585",
"|.	c #4A9787",
"1.	c #6F9A7A",
"2.	c #253014",
"3.	c #7E7D3D",
"4.	c #8B8135",
"5.	c #757674",
"6.	c #071200",
"7.	c #66651B",
"8.	c #7D6D22",
"9.	c #332402",
"0.	c #49542E",
"a.	c #3A6F43",
"b.	c #368A78",
"c.	c #598C54",
"d.	c #606A18",
"e.	c #615338",
"f.	c #5A532B",
"g.	c #6A7569",
"h.	c #252900",
"i.	c #888143",
"j.	c #3A2D0F",
"k.	c #707131",
"l.	c #5A7423",
"m.	c #4A7B5E",
"n.	c #506F4F",
"o.	c #525C20",
"p.	c #59500D",
"q.	c #341800",
"r.	c #6C6C6A",
"s.	c #302816",
"t.	c #B4B25F",
"u.	c #8F9A30",
"v.	c #5C6931",
"w.	c #363405",
"x.	c #45330F",
"y.	c #362313",
"z.	c #6E6C65",
"A.	c #504828",
"B.	c #9AA03B",
"C.	c #626917",
"D.	c #312806",
"E.	c #7A733E",
"F.	c #625F5C",
"G.	c #494620",
"H.	c #49410F",
"I.	c #57585B",
"J.	c #0C0105",
"K.	c #282017",
"L.	c #1C1D0B",
"M.	c #515352",
"N.	c #57584F",
"O.	c #4A4C49",
"              . + @ #               ",
"            $ % # & * =             ",
"          - ; > , ' ) ! ~           ",
"        { ] ^ ^ / ( _ : < [         ",
"      } | 1 2 3 4 5 6 7 8 9 0       ",
"    a b c d e f g h + i . j k '     ",
"  l m n o p q r s t u v w x y z A   ",
"B C D E F G H I J K L M N O P f Q R ",
"G S T U V W X Y Z `  ...+.@.#.$.%.&.",
"m *.=.-.;.>.,.'.X ).!.~.{.].^./.; (.",
"' m S _.:.Q <.[.}.|.).1.2.3.4.$.G 5.",
"  5.6.7.8.9.0.a.b.,.c.d.9.e.f.G 5.  ",
"    g.h.i.j.k.l.m.n.o.p.q.*.G r.    ",
"      r.G s.t.u.v.N w.x.y.m {       ",
"        z.G A.B.C.D.3.E.v {         ",
"          F.G f.G.H.E.v I.          ",
"            $ G J.K.L.M.            ",
"              N.G G O.              ",
"              . + @ #               ",
"            $ % # & * =             ",
"          - ; > , ' ) ! ~           ",
"        { ] ^ ^ / ( _ : < [         ",
"      } | 1 2 3 4 5 6 7 8 9 0       ",
"    a b c d e f g h + i . j k '     ",
"  l m n o p q r s t u v w x y z A   ",
"B C D E F G H I J K L M N O P f Q R ",
"G S T U V W X Y Z `  ...+.@.#.$.%.&.",
"m *.=.-.;.>.,.'.X ).!.~.{.].^./.; (.",
"' m S _.:.Q <.[.}.|.).1.2.3.4.$.G 5.",
"  5.6.7.8.9.0.a.b.,.c.d.9.e.f.G 5.  ",
"    g.h.i.j.k.l.m.n.o.p.q.*.G r.    ",
"      r.G s.t.u.v.N w.x.y.m {       ",
"        z.G A.B.C.D.3.E.v {         ",
"          F.G f.G.H.E.v I.          ",
"            $ G J.K.L.M.            ",
"              N.G G O.              ",
"              . + @ #               ",
"            $ % # & * =             ",
"          - ; > , ' ) ! ~           ",
"        { ] ^ ^ / ( _ : < [         ",
"      } | 1 2 3 4 5 6 7 8 9 0       ",
"    a b c d e f g h + i . j k '     ",
"  l m n o p q r s t u v w x y z A   ",
"B C D E F G H I J K L M N O P f Q R ",
"G S T U V W X Y Z `  ...+.@.#.$.%.&.",
"m *.=.-.;.>.,.'.X ).!.~.{.].^./.; (.",
"' m S _.:.Q <.[.}.|.).1.2.3.4.$.G 5.",
"  5.6.7.8.9.0.a.b.,.c.d.9.e.f.G 5.  ",
"    g.h.i.j.k.l.m.n.o.p.q.*.G r.    ",
"      r.G s.t.u.v.N w.x.y.m {       ",
"        z.G A.B.C.D.3.E.v {         ",
"          F.G f.G.H.E.v I.          ",
"            $ G J.K.L.M.            ",
"              N.G G O.              "};
