/* XPM */
static char * glass_close_xpm[] = {
"16 16 37 1",
" 	c None",
".	c #131B3A",
"+	c #050612",
"@	c #172248",
"#	c #55648E",
"$	c #7984A4",
"%	c #6C7CAF",
"&	c #6978A2",
"*	c #3B4B7E",
"=	c #313C5E",
"-	c #4C556B",
";	c #9DB3D2",
">	c #7B8CB8",
",	c #1C2A57",
"'	c #798CC2",
")	c #3F4D76",
"!	c #000103",
"~	c #5F71A4",
"{	c #536390",
"]	c #848EA7",
"^	c #405181",
"/	c #8891AB",
"(	c #425383",
"_	c #4F5F8E",
":	c #7888B5",
"<	c #ACC4D7",
"[	c #1C2955",
"}	c #A9C3D6",
"|	c #30333B",
"1	c #000000",
"2	c #8791AC",
"3	c #6676AB",
"4	c #334576",
"5	c #5E6F9F",
"6	c #7E8FBF",
"7	c #8DA0CC",
"8	c #596482",
".++.        .++.",
"@#$@.      .@$#@",
"@%&*..    ..*&%@",
"=-;>,..  ..,>;-=",
" =='&).!!.)&'== ",
"  ==~{]!!]{~==  ",
"   ==^{//{^==   ",
"    @@(__(@@    ",
"    @@(>>(@@    ",
"   ..^:<<:^..   ",
"  ..[:}||}:[..  ",
" ..)&'=||='&).. ",
".12_3==  ==3_21.",
"@4&5==    ==5&4@",
"@67@=      =@76@",
"=88=        =88="};
