/* XPM */
static char * glassbrt_arrow_xpm[] = {
"16 16 37 1",
" 	c None",
".	c #34353B",
"+	c #171718",
"@	c #A6A9AF",
"#	c #838790",
"$	c #3D3F46",
"%	c #6E717B",
"&	c #9A9DA5",
"*	c #A1A5B0",
"=	c #56585F",
"-	c #AEB1BB",
";	c #1E1F21",
">	c #A9ABB0",
",	c #7B7E88",
"'	c #8C9099",
")	c #6A6D77",
"!	c #6F737E",
"~	c #90949D",
"{	c #AFB1B6",
"]	c #9398A2",
"^	c #222225",
"/	c #171717",
"(	c #747883",
"_	c #ABAFB8",
":	c #C0C3CB",
"<	c #A2A4AB",
"[	c #90949B",
"}	c #50535F",
"|	c #9498A3",
"1	c #CBCFD4",
"2	c #D5D9DC",
"3	c #C7CBD2",
"4	c #BCBFC7",
"5	c #898D98",
"6	c #6F7176",
"7	c #74767B",
"8	c #454546",
"             .+.",
"            .@#$",
"           .%&*=",
"          .%&-= ",
".;;.     .%&-=  ",
"$>>$    .%&-=   ",
"$,,$   .%&-=    ",
"$''$  .%&-=     ",
"$''$ .)&-=      ",
"$!~&+{#]=       ",
"$!~&{#!=        ",
"$!~&#!$         ",
"$!~&&&&++^/.    ",
"$(_::::<<[}$    ",
"$|122223345$    ",
"=6788888876=    "};
