/* XPM */
static char * glassbrt_button_xpm[] = {
"6 15 7 1",
" 	c None",
".	c #AFB1B6",
"+	c #93959D",
"@	c #9B9EA7",
"#	c #C2C5CD",
"$	c #D6DBDE",
"%	c #444547",
"......",
"++++++",
"@@@@@@",
"@@@@@@",
"@@@@@@",
"@@@@@@",
"@@@@@@",
"@@@@@@",
"@@@@@@",
"@@@@@@",
"@@@@@@",
"@@@@@@",
"######",
"$$$$$$",
"%%%%%%"};
