/* XPM */
static char * glassbrt_close_xpm[] = {
"16 16 40 1",
" 	c None",
".	c #5B5D69",
"+	c #48484C",
"@	c #616473",
"#	c #9FA4B3",
"$	c #BBBDC8",
"%	c #5B5D66",
"&	c #B6BACB",
"*	c #B1B4C4",
"=	c #898EA3",
"-	c #797C8A",
";	c #8F929B",
">	c #D8DDE6",
",	c #C0C4D3",
"'	c #696D7F",
")	c #777B88",
"!	c #C2C6D8",
"~	c #8A8E9E",
"{	c #414141",
"]	c #ACB0C2",
"^	c #9EA3B4",
"/	c #C2C4CD",
"(	c #414142",
"_	c #8E92A5",
":	c #C4C7D0",
"<	c #606471",
"[	c #9095A7",
"}	c #9BA0B2",
"|	c #BEC2D1",
"1	c #E0E5EB",
"2	c #686C7E",
"3	c #DFE5E9",
"4	c #6E6F72",
"5	c #6C6E71",
"6	c #B2B5C8",
"7	c #81869B",
"8	c #AAADBF",
"9	c #C4C8D7",
"0	c #CFD3E0",
"a	c #9EA1AD",
".++.        .++.",
"@#$@%      %@$#@",
"@&*=.%    %.=*&@",
"-;>,'.%  %.',>;-",
" )-!*~.{{.~*!-) ",
"  )-]^/((/^]-)  ",
"   )-_^::^_-)   ",
"    <@[}}[@<    ",
"    <@[,,[@<    ",
"   %._|11|_.%   ",
"  %.2|3443|2.%  ",
" %.~*!-55-!*~.% ",
".{:}6-)  )-6}:{.",
"@7*8-)    )-8*7@",
"@90@)      )@09@",
"-aa-        -aa-"};
