/* XPM */
static char * glass_max_xpm[] = {
"16 16 28 1",
" 	c None",
".	c #131B3A",
"+	c #000000",
"@	c #070918",
"#	c #000103",
"$	c #172248",
"%	c #1B2852",
"&	c #818CA6",
"*	c #848EA7",
"=	c #7480A3",
"-	c #3C4C7F",
";	c #536390",
">	c #627099",
",	c #96A9CF",
"'	c #405181",
")	c #606F9B",
"!	c #6978A2",
"~	c #30333B",
"{	c #5B6B98",
"]	c #435486",
"^	c #7888B5",
"/	c #8D9DC8",
"(	c #5F72A6",
"_	c #9AB0D1",
":	c #A9C3D6",
"<	c #313C5E",
"[	c #4D566E",
"}	c #535B70",
".+@##########@+.",
"$%&*========*&%$",
"$-;>,,,,,,,,>;-$",
"$')!~~~~~~~~!)'$",
"${{$        ${{$",
"${{$        ${{$",
"${{$        ${{$",
"${{$        ${{$",
"${{$        ${{$",
"${{$        ${{$",
"${{$        ${{$",
"${{$        ${{$",
"$')!########!)'$",
"$]^/========/^]$",
"$(_:,,,,,,,,:_($",
"<[}~~~~~~~~~~}[<"};
