/* XPM */
static char * goldleaf_vert_xpm[] = {
"13 540 20 1",
" 	c None",
".	c #E4E2DD",
"+	c #F5F4EE",
"@	c #AB9B7C",
"#	c #635940",
"$	c #A07C37",
"%	c #BCA885",
"&	c #CFB48A",
"*	c #CFC4B6",
"=	c #9C8151",
"-	c #B19158",
";	c #836736",
">	c #D7D2C6",
",	c #433F38",
"'	c #E6D5BD",
")	c #776B58",
"!	c #BA9E6D",
"~	c #FFFFFF",
"{	c #CCCCCC",
"]	c #323232",
".+@##$%&%*.%=",
".+&-=#;%&.+&%",
">+&#,$-%&&'..",
"=..),$!&&&&'&",
"#*~{#;%&=!&*&",
",)>+&!-#=*&&&",
"#,@+.%#,&'%%&",
"-,#>+&,,'&=&*",
"!#,@+.##'=#*&",
"#>{)){.&-,#.&",
",&+{#)..;];.%",
",-'+@#@+@#;*=",
"];&+.##{&!!%,",
",,%++@#).&%!,",
"#,-'~.@#{.&!,",
"-,#%++&-)..%#",
"!,,-'~.&#@.&-",
"!#];&++&##{.&",
"%!#];*+.;-$){",
"%%-,,%+.,>>))",
"!%%#]$..,*+{#",
"#&.{)#&+#%++=",
"#!&'>=).#-+.#",
",=!&'*-.#$.&#",
"#,$!&'&&;#>-#",
"-##;-&&&=#>=#",
"!-@;,=&&@#*=;",
",=&'>*))%=&-;",
",$!%&'>%@=&!;",
"##$-!%*'&-!!;",
"!=,#$$-&'%-%=",
"-##-&!$='*-%!",
",#-%&&*&%'&!=",
"]#!!%%&&*''!-",
"##-!--!!'''&!",
"!-!-;;=-*'&%%",
"#,@'>>&@#$&'-",
",-.{))>>@##>-",
"#>*)=%&-'%;&!",
"@.=;>>%)@.==!",
">.;@>)!*)>!$!",
"..)*.;=*@>==%",
"..,)>@;@*%)%&",
"..,,{.&%;;@&%",
"..#,)*'%;@'&!",
".+@##$%&%*.%=",
".+&-=#;%&.+&%",
">+&#,$-%&&'..",
"=..),$!&&&&'&",
"#*~{#;%&=!&*&",
",)>+&!-#=*&&&",
"#,@+.%#,&'%%&",
"-,#>+&,,'&=&*",
"!#,@+.##'=#*&",
"#>{)){.&-,#.&",
",&+{#)..;];.%",
",-'+@#@+@#;*=",
"];&+.##{&!!%,",
",,%++@#).&%!,",
"#,-'~.@#{.&!,",
"-,#%++&-)..%#",
"!,,-'~.&#@.&-",
"!#];&++&##{.&",
"%!#];*+.;-$){",
"%%-,,%+.,>>))",
"!%%#]$..,*+{#",
"#&.{)#&+#%++=",
"#!&'>=).#-+.#",
",=!&'*-.#$.&#",
"#,$!&'&&;#>-#",
"-##;-&&&=#>=#",
"!-@;,=&&@#*=;",
",=&'>*))%=&-;",
",$!%&'>%@=&!;",
"##$-!%*'&-!!;",
"!=,#$$-&'%-%=",
"-##-&!$='*-%!",
",#-%&&*&%'&!=",
"]#!!%%&&*''!-",
"##-!--!!'''&!",
"!-!-;;=-*'&%%",
"#,@'>>&@#$&'-",
",-.{))>>@##>-",
"#>*)=%&-'%;&!",
"@.=;>>%)@.==!",
">.;@>)!*)>!$!",
"..)*.;=*@>==%",
"..,)>@;@*%)%&",
"..,,{.&%;;@&%",
"..#,)*'%;@'&!",
".+@##$%&%*.%=",
".+&-=#;%&.+&%",
">+&#,$-%&&'..",
"=..),$!&&&&'&",
"#*~{#;%&=!&*&",
",)>+&!-#=*&&&",
"#,@+.%#,&'%%&",
"-,#>+&,,'&=&*",
"!#,@+.##'=#*&",
"#>{)){.&-,#.&",
",&+{#)..;];.%",
",-'+@#@+@#;*=",
"];&+.##{&!!%,",
",,%++@#).&%!,",
"#,-'~.@#{.&!,",
"-,#%++&-)..%#",
"!,,-'~.&#@.&-",
"!#];&++&##{.&",
"%!#];*+.;-$){",
"%%-,,%+.,>>))",
"!%%#]$..,*+{#",
"#&.{)#&+#%++=",
"#!&'>=).#-+.#",
",=!&'*-.#$.&#",
"#,$!&'&&;#>-#",
"-##;-&&&=#>=#",
"!-@;,=&&@#*=;",
",=&'>*))%=&-;",
",$!%&'>%@=&!;",
"##$-!%*'&-!!;",
"!=,#$$-&'%-%=",
"-##-&!$='*-%!",
",#-%&&*&%'&!=",
"]#!!%%&&*''!-",
"##-!--!!'''&!",
"!-!-;;=-*'&%%",
"#,@'>>&@#$&'-",
",-.{))>>@##>-",
"#>*)=%&-'%;&!",
"@.=;>>%)@.==!",
">.;@>)!*)>!$!",
"..)*.;=*@>==%",
"..,)>@;@*%)%&",
"..,,{.&%;;@&%",
"..#,)*'%;@'&!",
".+@##$%&%*.%=",
".+&-=#;%&.+&%",
">+&#,$-%&&'..",
"=..),$!&&&&'&",
"#*~{#;%&=!&*&",
",)>+&!-#=*&&&",
"#,@+.%#,&'%%&",
"-,#>+&,,'&=&*",
"!#,@+.##'=#*&",
"#>{)){.&-,#.&",
",&+{#)..;];.%",
",-'+@#@+@#;*=",
"];&+.##{&!!%,",
",,%++@#).&%!,",
"#,-'~.@#{.&!,",
"-,#%++&-)..%#",
"!,,-'~.&#@.&-",
"!#];&++&##{.&",
"%!#];*+.;-$){",
"%%-,,%+.,>>))",
"!%%#]$..,*+{#",
"#&.{)#&+#%++=",
"#!&'>=).#-+.#",
",=!&'*-.#$.&#",
"#,$!&'&&;#>-#",
"-##;-&&&=#>=#",
"!-@;,=&&@#*=;",
",=&'>*))%=&-;",
",$!%&'>%@=&!;",
"##$-!%*'&-!!;",
"!=,#$$-&'%-%=",
"-##-&!$='*-%!",
",#-%&&*&%'&!=",
"]#!!%%&&*''!-",
"##-!--!!'''&!",
"!-!-;;=-*'&%%",
"#,@'>>&@#$&'-",
",-.{))>>@##>-",
"#>*)=%&-'%;&!",
"@.=;>>%)@.==!",
">.;@>)!*)>!$!",
"..)*.;=*@>==%",
"..,)>@;@*%)%&",
"..,,{.&%;;@&%",
"..#,)*'%;@'&!",
".+@##$%&%*.%=",
".+&-=#;%&.+&%",
">+&#,$-%&&'..",
"=..),$!&&&&'&",
"#*~{#;%&=!&*&",
",)>+&!-#=*&&&",
"#,@+.%#,&'%%&",
"-,#>+&,,'&=&*",
"!#,@+.##'=#*&",
"#>{)){.&-,#.&",
",&+{#)..;];.%",
",-'+@#@+@#;*=",
"];&+.##{&!!%,",
",,%++@#).&%!,",
"#,-'~.@#{.&!,",
"-,#%++&-)..%#",
"!,,-'~.&#@.&-",
"!#];&++&##{.&",
"%!#];*+.;-$){",
"%%-,,%+.,>>))",
"!%%#]$..,*+{#",
"#&.{)#&+#%++=",
"#!&'>=).#-+.#",
",=!&'*-.#$.&#",
"#,$!&'&&;#>-#",
"-##;-&&&=#>=#",
"!-@;,=&&@#*=;",
",=&'>*))%=&-;",
",$!%&'>%@=&!;",
"##$-!%*'&-!!;",
"!=,#$$-&'%-%=",
"-##-&!$='*-%!",
",#-%&&*&%'&!=",
"]#!!%%&&*''!-",
"##-!--!!'''&!",
"!-!-;;=-*'&%%",
"#,@'>>&@#$&'-",
",-.{))>>@##>-",
"#>*)=%&-'%;&!",
"@.=;>>%)@.==!",
">.;@>)!*)>!$!",
"..)*.;=*@>==%",
"..,)>@;@*%)%&",
"..,,{.&%;;@&%",
"..#,)*'%;@'&!",
".+@##$%&%*.%=",
".+&-=#;%&.+&%",
">+&#,$-%&&'..",
"=..),$!&&&&'&",
"#*~{#;%&=!&*&",
",)>+&!-#=*&&&",
"#,@+.%#,&'%%&",
"-,#>+&,,'&=&*",
"!#,@+.##'=#*&",
"#>{)){.&-,#.&",
",&+{#)..;];.%",
",-'+@#@+@#;*=",
"];&+.##{&!!%,",
",,%++@#).&%!,",
"#,-'~.@#{.&!,",
"-,#%++&-)..%#",
"!,,-'~.&#@.&-",
"!#];&++&##{.&",
"%!#];*+.;-$){",
"%%-,,%+.,>>))",
"!%%#]$..,*+{#",
"#&.{)#&+#%++=",
"#!&'>=).#-+.#",
",=!&'*-.#$.&#",
"#,$!&'&&;#>-#",
"-##;-&&&=#>=#",
"!-@;,=&&@#*=;",
",=&'>*))%=&-;",
",$!%&'>%@=&!;",
"##$-!%*'&-!!;",
"!=,#$$-&'%-%=",
"-##-&!$='*-%!",
",#-%&&*&%'&!=",
"]#!!%%&&*''!-",
"##-!--!!'''&!",
"!-!-;;=-*'&%%",
"#,@'>>&@#$&'-",
",-.{))>>@##>-",
"#>*)=%&-'%;&!",
"@.=;>>%)@.==!",
">.;@>)!*)>!$!",
"..)*.;=*@>==%",
"..,)>@;@*%)%&",
"..,,{.&%;;@&%",
"..#,)*'%;@'&!",
".+@##$%&%*.%=",
".+&-=#;%&.+&%",
">+&#,$-%&&'..",
"=..),$!&&&&'&",
"#*~{#;%&=!&*&",
",)>+&!-#=*&&&",
"#,@+.%#,&'%%&",
"-,#>+&,,'&=&*",
"!#,@+.##'=#*&",
"#>{)){.&-,#.&",
",&+{#)..;];.%",
",-'+@#@+@#;*=",
"];&+.##{&!!%,",
",,%++@#).&%!,",
"#,-'~.@#{.&!,",
"-,#%++&-)..%#",
"!,,-'~.&#@.&-",
"!#];&++&##{.&",
"%!#];*+.;-$){",
"%%-,,%+.,>>))",
"!%%#]$..,*+{#",
"#&.{)#&+#%++=",
"#!&'>=).#-+.#",
",=!&'*-.#$.&#",
"#,$!&'&&;#>-#",
"-##;-&&&=#>=#",
"!-@;,=&&@#*=;",
",=&'>*))%=&-;",
",$!%&'>%@=&!;",
"##$-!%*'&-!!;",
"!=,#$$-&'%-%=",
"-##-&!$='*-%!",
",#-%&&*&%'&!=",
"]#!!%%&&*''!-",
"##-!--!!'''&!",
"!-!-;;=-*'&%%",
"#,@'>>&@#$&'-",
",-.{))>>@##>-",
"#>*)=%&-'%;&!",
"@.=;>>%)@.==!",
">.;@>)!*)>!$!",
"..)*.;=*@>==%",
"..,)>@;@*%)%&",
"..,,{.&%;;@&%",
"..#,)*'%;@'&!",
".+@##$%&%*.%=",
".+&-=#;%&.+&%",
">+&#,$-%&&'..",
"=..),$!&&&&'&",
"#*~{#;%&=!&*&",
",)>+&!-#=*&&&",
"#,@+.%#,&'%%&",
"-,#>+&,,'&=&*",
"!#,@+.##'=#*&",
"#>{)){.&-,#.&",
",&+{#)..;];.%",
",-'+@#@+@#;*=",
"];&+.##{&!!%,",
",,%++@#).&%!,",
"#,-'~.@#{.&!,",
"-,#%++&-)..%#",
"!,,-'~.&#@.&-",
"!#];&++&##{.&",
"%!#];*+.;-$){",
"%%-,,%+.,>>))",
"!%%#]$..,*+{#",
"#&.{)#&+#%++=",
"#!&'>=).#-+.#",
",=!&'*-.#$.&#",
"#,$!&'&&;#>-#",
"-##;-&&&=#>=#",
"!-@;,=&&@#*=;",
",=&'>*))%=&-;",
",$!%&'>%@=&!;",
"##$-!%*'&-!!;",
"!=,#$$-&'%-%=",
"-##-&!$='*-%!",
",#-%&&*&%'&!=",
"]#!!%%&&*''!-",
"##-!--!!'''&!",
"!-!-;;=-*'&%%",
"#,@'>>&@#$&'-",
",-.{))>>@##>-",
"#>*)=%&-'%;&!",
"@.=;>>%)@.==!",
">.;@>)!*)>!$!",
"..)*.;=*@>==%",
"..,)>@;@*%)%&",
"..,,{.&%;;@&%",
"..#,)*'%;@'&!",
".+@##$%&%*.%=",
".+&-=#;%&.+&%",
">+&#,$-%&&'..",
"=..),$!&&&&'&",
"#*~{#;%&=!&*&",
",)>+&!-#=*&&&",
"#,@+.%#,&'%%&",
"-,#>+&,,'&=&*",
"!#,@+.##'=#*&",
"#>{)){.&-,#.&",
",&+{#)..;];.%",
",-'+@#@+@#;*=",
"];&+.##{&!!%,",
",,%++@#).&%!,",
"#,-'~.@#{.&!,",
"-,#%++&-)..%#",
"!,,-'~.&#@.&-",
"!#];&++&##{.&",
"%!#];*+.;-$){",
"%%-,,%+.,>>))",
"!%%#]$..,*+{#",
"#&.{)#&+#%++=",
"#!&'>=).#-+.#",
",=!&'*-.#$.&#",
"#,$!&'&&;#>-#",
"-##;-&&&=#>=#",
"!-@;,=&&@#*=;",
",=&'>*))%=&-;",
",$!%&'>%@=&!;",
"##$-!%*'&-!!;",
"!=,#$$-&'%-%=",
"-##-&!$='*-%!",
",#-%&&*&%'&!=",
"]#!!%%&&*''!-",
"##-!--!!'''&!",
"!-!-;;=-*'&%%",
"#,@'>>&@#$&'-",
",-.{))>>@##>-",
"#>*)=%&-'%;&!",
"@.=;>>%)@.==!",
">.;@>)!*)>!$!",
"..)*.;=*@>==%",
"..,)>@;@*%)%&",
"..,,{.&%;;@&%",
"..#,)*'%;@'&!",
".+@##$%&%*.%=",
".+&-=#;%&.+&%",
">+&#,$-%&&'..",
"=..),$!&&&&'&",
"#*~{#;%&=!&*&",
",)>+&!-#=*&&&",
"#,@+.%#,&'%%&",
"-,#>+&,,'&=&*",
"!#,@+.##'=#*&",
"#>{)){.&-,#.&",
",&+{#)..;];.%",
",-'+@#@+@#;*=",
"];&+.##{&!!%,",
",,%++@#).&%!,",
"#,-'~.@#{.&!,",
"-,#%++&-)..%#",
"!,,-'~.&#@.&-",
"!#];&++&##{.&",
"%!#];*+.;-$){",
"%%-,,%+.,>>))",
"!%%#]$..,*+{#",
"#&.{)#&+#%++=",
"#!&'>=).#-+.#",
",=!&'*-.#$.&#",
"#,$!&'&&;#>-#",
"-##;-&&&=#>=#",
"!-@;,=&&@#*=;",
",=&'>*))%=&-;",
",$!%&'>%@=&!;",
"##$-!%*'&-!!;",
"!=,#$$-&'%-%=",
"-##-&!$='*-%!",
",#-%&&*&%'&!=",
"]#!!%%&&*''!-",
"##-!--!!'''&!",
"!-!-;;=-*'&%%",
"#,@'>>&@#$&'-",
",-.{))>>@##>-",
"#>*)=%&-'%;&!",
"@.=;>>%)@.==!",
">.;@>)!*)>!$!",
"..)*.;=*@>==%",
"..,)>@;@*%)%&",
"..,,{.&%;;@&%",
"..#,)*'%;@'&!",
".+@##$%&%*.%=",
".+&-=#;%&.+&%",
">+&#,$-%&&'..",
"=..),$!&&&&'&",
"#*~{#;%&=!&*&",
",)>+&!-#=*&&&",
"#,@+.%#,&'%%&",
"-,#>+&,,'&=&*",
"!#,@+.##'=#*&",
"#>{)){.&-,#.&",
",&+{#)..;];.%",
",-'+@#@+@#;*=",
"];&+.##{&!!%,",
",,%++@#).&%!,",
"#,-'~.@#{.&!,",
"-,#%++&-)..%#",
"!,,-'~.&#@.&-",
"!#];&++&##{.&",
"%!#];*+.;-$){",
"%%-,,%+.,>>))",
"!%%#]$..,*+{#",
"#&.{)#&+#%++=",
"#!&'>=).#-+.#",
",=!&'*-.#$.&#",
"#,$!&'&&;#>-#",
"-##;-&&&=#>=#",
"!-@;,=&&@#*=;",
",=&'>*))%=&-;",
",$!%&'>%@=&!;",
"##$-!%*'&-!!;",
"!=,#$$-&'%-%=",
"-##-&!$='*-%!",
",#-%&&*&%'&!=",
"]#!!%%&&*''!-",
"##-!--!!'''&!",
"!-!-;;=-*'&%%",
"#,@'>>&@#$&'-",
",-.{))>>@##>-",
"#>*)=%&-'%;&!",
"@.=;>>%)@.==!",
">.;@>)!*)>!$!",
"..)*.;=*@>==%",
"..,)>@;@*%)%&",
"..,,{.&%;;@&%",
"..#,)*'%;@'&!",
".+@##$%&%*.%=",
".+&-=#;%&.+&%",
">+&#,$-%&&'..",
"=..),$!&&&&'&",
"#*~{#;%&=!&*&",
",)>+&!-#=*&&&",
"#,@+.%#,&'%%&",
"-,#>+&,,'&=&*",
"!#,@+.##'=#*&",
"#>{)){.&-,#.&",
",&+{#)..;];.%",
",-'+@#@+@#;*=",
"];&+.##{&!!%,",
",,%++@#).&%!,",
"#,-'~.@#{.&!,",
"-,#%++&-)..%#",
"!,,-'~.&#@.&-",
"!#];&++&##{.&",
"%!#];*+.;-$){",
"%%-,,%+.,>>))",
"!%%#]$..,*+{#",
"#&.{)#&+#%++=",
"#!&'>=).#-+.#",
",=!&'*-.#$.&#",
"#,$!&'&&;#>-#",
"-##;-&&&=#>=#",
"!-@;,=&&@#*=;",
",=&'>*))%=&-;",
",$!%&'>%@=&!;",
"##$-!%*'&-!!;",
"!=,#$$-&'%-%=",
"-##-&!$='*-%!",
",#-%&&*&%'&!=",
"]#!!%%&&*''!-",
"##-!--!!'''&!",
"!-!-;;=-*'&%%",
"#,@'>>&@#$&'-",
",-.{))>>@##>-",
"#>*)=%&-'%;&!",
"@.=;>>%)@.==!",
">.;@>)!*)>!$!",
"..)*.;=*@>==%",
"..,)>@;@*%)%&",
"..,,{.&%;;@&%",
"..#,)*'%;@'&!"};
