/* XPM */
static char * goldfleur_down_xpm[] = {
"21 20 129 2",
"  	c None",
". 	c #807565",
"+ 	c #93836E",
"@ 	c #837460",
"# 	c #C5B5A0",
"$ 	c #E9D3B6",
"% 	c #EDD8BA",
"& 	c #EEDABD",
"* 	c #DCC7AB",
"= 	c #D7C9B4",
"- 	c #EEDFBF",
"; 	c #EFE5C4",
"> 	c #F9F9EC",
", 	c #F3F1D2",
"' 	c #C1AB8E",
") 	c #9E9283",
"! 	c #CFBEA8",
"~ 	c #D0BCA1",
"{ 	c #CEC3B1",
"] 	c #BEB4A3",
"^ 	c #CEBB9F",
"/ 	c #EEE0CB",
"( 	c #B2A085",
"_ 	c #C2B7A7",
": 	c #BEAA91",
"< 	c #E1D4C2",
"[ 	c #B7A994",
"} 	c #AF9E88",
"| 	c #BAA78F",
"1 	c #BEA98F",
"2 	c #A6957F",
"3 	c #7C6E5B",
"4 	c #B7AFA2",
"5 	c #AB9A82",
"6 	c #B9B0A2",
"7 	c #E9D8BE",
"8 	c #F1ECCA",
"9 	c #F1EACA",
"0 	c #F0E8C8",
"a 	c #EDD9BC",
"b 	c #D0BDA5",
"c 	c #B19F88",
"d 	c #897A64",
"e 	c #948B7D",
"f 	c #C1B6A4",
"g 	c #BDB1A0",
"h 	c #F3ECD2",
"i 	c #F2F0CD",
"j 	c #F1EECC",
"k 	c #F1E9CA",
"l 	c #E8D8C1",
"m 	c #CDC0AE",
"n 	c #CCBBA3",
"o 	c #9D8E7A",
"p 	c #968773",
"q 	c #F7F3E2",
"r 	c #AD997E",
"s 	c #C6B7A1",
"t 	c #EBDDCA",
"u 	c #DCC9AD",
"v 	c #A0978B",
"w 	c #B7A894",
"x 	c #A2927D",
"y 	c #736A5E",
"z 	c #F1ECCC",
"A 	c #F0E5C5",
"B 	c #D9C2A4",
"C 	c #EBD5B8",
"D 	c #C6B195",
"E 	c #F4ECD7",
"F 	c #E2CDB1",
"G 	c #BFB6A8",
"H 	c #B6A68F",
"I 	c #9C8B75",
"J 	c #C8BEAD",
"K 	c #F2EFCF",
"L 	c #F3F0D2",
"M 	c #F3EFD2",
"N 	c #F0E5C7",
"O 	c #E5D6C0",
"P 	c #B4A795",
"Q 	c #B9A892",
"R 	c #EEDBBF",
"S 	c #EEDBBD",
"T 	c #C8B193",
"U 	c #C2B9AB",
"V 	c #D5C5B0",
"W 	c #B1A08A",
"X 	c #F5EDD8",
"Y 	c #ECDAB7",
"Z 	c #A49685",
"` 	c #E6D8C3",
" .	c #BCAA93",
"..	c #D3BDA0",
"+.	c #EDDAC0",
"@.	c #C8B59D",
"#.	c #C4B6A1",
"$.	c #908371",
"%.	c #F0EAC8",
"&.	c #EEE1C1",
"*.	c #D1BFA6",
"=.	c #D7C6AE",
"-.	c #B4A28B",
";.	c #D2C7B5",
">.	c #A99A86",
",.	c #746857",
"'.	c #F2F0CF",
").	c #F3F2D4",
"!.	c #DCC5A7",
"~.	c #BBAE9C",
"{.	c #F2E4CF",
"].	c #B7A184",
"^.	c #CAC0B1",
"/.	c #D1C2AC",
"(.	c #DFCCB0",
"_.	c #EEDDBD",
":.	c #EDDCBA",
"<.	c #EADDC9",
"[.	c #CAB599",
"}.	c #EBDFCC",
"|.	c #F7F5E0",
"1.	c #F5F3DA",
"2.	c #F4F2D7",
"3.	c #F3E6D0",
"4.	c #EDDAB8",
"5.	c #F0E4C5",
"6.	c #F6F4DD",
"7.	c #F3F1D0",
"8.	c #FAFAEF",
"                                          ",
"        .   + @                           ",
"        # $ % & *                         ",
"        = - ; > , '                       ",
"      ) ! ~     {                         ",
"      ] ^ / (                             ",
"      _ : < [       } | 1 2 3             ",
"      4 5   6     7 8 9 0 a b c d         ",
"      e f   g     h i j k l m n o         ",
"  p     q r s     t u         v w x       ",
"y z A B C 9 D     E F           G H I     ",
"J j K L M N O P Q R S T         U V W     ",
"X Y             Z `  .          ..+.@.I   ",
"                  #.$.        %.&.*.=.-.  ",
"                  ;.>.,.    '.).!.  ~.{.].",
"                  ^./.(._.i , :.      <.[.",
"                    }.|.1.2.8       3.).4.",
"                      5.6.7.          8.%.",
"                                          ",
"                                          "};
