/* XPM */
static char * gold_mwm_max_xpm[] = {
"19 19 19 1",
" 	c None",
".	c #ECDACC",
"+	c #5C4E44",
"@	c #BC926C",
"#	c #BC9A74",
"$	c #C49E7C",
"%	c #C4A27C",
"&	c #BC9E7C",
"*	c #C4A684",
"=	c #CCAA8C",
"-	c #C4AA8C",
";	c #CCAE8C",
">	c #CCB294",
",	c #D4BA9C",
"'	c #CCB694",
")	c #D4B69C",
"!	c #CCB69C",
"~	c #D4C2AC",
"{	c #D4BEA4",
"                   ",
"                   ",
"                   ",
"   ............+   ",
"   .@##########+   ",
"   .##@#@#@#@#@+   ",
"   .$%%%%%%%%%%+   ",
"   .%&&$&&$&&%&+   ",
"   .*=**=-**=**+   ",
"   .**-***=-**;+   ",
"   .>>>>>>;>>>;+   ",
"   .;>;>>>>;>;>+   ",
"   .,',')',!','+   ",
"   .',!,!,!,!,!+   ",
"   .~~~{~~~{~~~+   ",
"   .++++++++++++   ",
"                   ",
"                   ",
"                   "};
