/* XPM */
static char * gold_grad_mid_xpm[] = {
"20 24 23 1",
" 	c None",
".	c #EBE0CC",
"+	c #B8A16F",
"@	c #BCA675",
"#	c #BFAA7B",
"$	c #C2AF81",
"%	c #C6B388",
"&	c #C9B88E",
"*	c #CDBC94",
"=	c #D0C19A",
"-	c #D3C5A0",
";	c #D7CAA6",
">	c #DACEAD",
",	c #DED3B3",
"'	c #E1D7B9",
")	c #E4DCBF",
"!	c #E8E0C5",
"~	c #EBE5CB",
"{	c #EFE9D2",
"]	c #F2EED8",
"^	c #F5F2DE",
"/	c #F9F7E4",
"(	c #5A5142",
"....................",
"....................",
"++@@##$$%%&&**==--;;",
"+@@##$$%%&&**==--;;>",
"@@##$$%%&&**==--;;>>",
"@##$$%%&&**==--;;>>,",
"##$$%%&&**==--;;>>,,",
"#$$%%&&**==--;;>>,,'",
"$$%%&&**==--;;>>,,''",
"$%%&&**==--;;>>,,'')",
"%%&&**==--;;>>,,''))",
"%&&**==--;;>>,,''))!",
"&&**==--;;>>,,''))!!",
"&**==--;;>>,,''))!!~",
"**==--;;>>,,''))!!~~",
"*==--;;>>,,''))!!~~{",
"==--;;>>,,''))!!~~{{",
"=--;;>>,,''))!!~~{{]",
"--;;>>,,''))!!~~{{]]",
"-;;>>,,''))!!~~{{]]^",
";;>>,,''))!!~~{{]]^^",
";>>,,''))!!~~{{]]^^/",
"((((((((((((((((((((",
"(((((((((((((((((((("};
