/* XPM */
static char * gold_max_xpm[] = {
"16 16 29 1",
" 	c None",
".	c #FFFFFF",
"+	c #F3EDE6",
"@	c #EFE7DF",
"#	c #ECE2D8",
"$	c #E9DDD1",
"%	c #E5D8CA",
"&	c #E2D3C3",
"*	c #DFCEBC",
"=	c #DBC9B5",
"-	c #D8C4AE",
";	c #D5BEA7",
">	c #D2B9A0",
",	c #CEB499",
"'	c #CBAF93",
")	c #000000",
"!	c #C8AA8C",
"~	c #FAEBD7",
"{	c #C4A585",
"]	c #C1A07E",
"^	c #BE9B77",
"/	c #BB9570",
"(	c #B79069",
"_	c #B48B62",
":	c #B1865B",
"<	c #AD8154",
"[	c #AA7C4D",
"}	c #A77746",
"|	c #A47240",
"............... ",
".+@#$%&*=-;>,') ",
".@)))))))))))!) ",
".#)         ~{) ",
".$)~~~~~~~~ ~]) ",
".%&*=-;>,') ~^) ",
".&)))))))!) ~/) ",
".*)     ~{) ~() ",
".=)     ~]) ~_) ",
".-)     ~^) ~:) ",
".;)     ~/) ~<) ",
".>)     ~() ~[) ",
".,)~~~~~~_)~~}) ",
".'!{]^/(_:<[}|) ",
"))))))))))))))) ",
"                "};
