/* XPM */
static char * gold_mwm_min_xpm[] = {
"19 19 10 1",
" 	c None",
".	c #ECDACC",
"+	c #5C4E44",
"@	c #C4A27C",
"#	c #C49E7C",
"$	c #C4A684",
"%	c #CCAA8C",
"&	c #C4AA8C",
"*	c #CCB294",
"=	c #CCAE8C",
"                   ",
"                   ",
"                   ",
"                   ",
"                   ",
"                   ",
"      ......+      ",
"      .@@@#@+      ",
"      .$$$$$+      ",
"      .%$&$%+      ",
"      .*=**=+      ",
"      .=**=*+      ",
"      .++++++      ",
"                   ",
"                   ",
"                   ",
"                   ",
"                   ",
"                   "};
