/* XPM */
static char * gold_menu_xpm[] = {
"16 16 66 1",
" 	c None",
".	c #FFFFFF",
"+	c #F3EDE6",
"@	c #EFE8DF",
"#	c #ECE3D9",
"$	c #E9DED2",
"%	c #E6DACC",
"&	c #E3D5C6",
"*	c #E0D0BF",
"=	c #DDCBB9",
"-	c #DAC7B3",
";	c #D7C2AC",
">	c #D4BDA6",
",	c #D1B99F",
"'	c #CEB499",
")	c #000000",
"!	c #EFE7DF",
"~	c #ECE3D8",
"{	c #E6D9CC",
"]	c #E3D5C5",
"^	c #DDCBB8",
"/	c #DAC6B2",
"(	c #D4BDA5",
"_	c #D1B89F",
":	c #CBAF92",
"<	c #E5D8CA",
"[	c #E2D3C4",
"}	c #DFCFBD",
"|	c #DCCAB7",
"1	c #D9C5B0",
"2	c #D6C0AA",
"3	c #D3BCA4",
"4	c #D0B79D",
"5	c #CDB297",
"6	c #CAAE91",
"7	c #C7A98A",
"8	c #C4A484",
"9	c #C19F7E",
"0	c #E2D3C3",
"a	c #BE9A77",
"b	c #DCC9B5",
"c	c #FAEBD7",
"d	c #B79069",
"e	c #D8C4AE",
"f	c #B48B62",
"g	c #D5BFA7",
"h	c #B1865B",
"i	c #D2B9A1",
"j	c #AD8154",
"k	c #CEB49A",
"l	c #AA7C4D",
"m	c #CBAF93",
"n	c #A77746",
"o	c #C8AA8C",
"p	c #C5A586",
"q	c #C2A17F",
"r	c #BF9C79",
"s	c #BC9772",
"t	c #B9936C",
"u	c #B68E66",
"v	c #B3895F",
"w	c #B08459",
"x	c #AD8053",
"y	c #AA7B4C",
"z	c #A77646",
"A	c #A47240",
"............... ",
".+@#$%&*=-;>,') ",
".!~${]*^/;(_':) ",
"))))))))))))))) ",
"............... ",
".<[}|123456789) ",
".0)))))))))))a) ",
".b)         cd) ",
".e)         cf) ",
".g)         ch) ",
".i)         cj) ",
".k)         cl) ",
".mcccccccccccn) ",
".opqrstuvwxyzA) ",
"))))))))))))))) ",
"                "};
