/* XPM */
static char * greenglass_max_xpm[] = {
"16 22 25 1",
" 	c None",
".	c #26472D",
"+	c #0F1E11",
"@	c #172C1B",
"#	c #2C5136",
"$	c #315A3D",
"%	c #84DB94",
"&	c #86DD97",
"*	c #509364",
"=	c #5CB776",
"-	c #6BC480",
";	c #509965",
">	c #6AC582",
",	c #74CD8B",
"'	c #000000",
")	c #51A26A",
"!	c #88DD9E",
"~	c #A2EBB8",
"{	c #6ECB8A",
"]	c #B0F1C2",
"^	c #BDF6CC",
"/	c #41704D",
"(	c #50935B",
"_	c #519C5D",
":	c #315837",
"                ",
"                ",
"                ",
".+@++++++++++@+.",
"#$%&&&&&&&&&&%$#",
"#*=----------=*#",
"#;>,,,,,,,,,,>;#",
"#;>,'''''''',>;#",
"#;>,'''''''',>;#",
"#;>,',,,,,,',>;#",
"#;>,',,,,,,',>;#",
"#;>,',,,,,,',>;#",
"#;>,',,,,,,',>;#",
"#;>,',,,,,,',>;#",
"#;>,'''''''',>;#",
"#;>,,,,,,,,,,>;#",
"#)!~~~~~~~~~~!)#",
"#{]^^^^^^^^^^]{#",
"/(_::::::::::_(/",
"                ",
"                ",
"                "};
