/* XPM */
static char * celtic_knot_xpm[] = {
"19 19 75 1",
" 	c None",
".	c #000000",
"+	c #9DBBDC",
"@	c #97B3D4",
"#	c #91ACCB",
"$	c #90ABCA",
"%	c #8CA6C4",
"&	c #9CB9DB",
"*	c #95B1D1",
"=	c #88A2BF",
"-	c #89A2BF",
";	c #8098B3",
">	c #7F97B2",
",	c #7F96B1",
"'	c #7D94AF",
")	c #7A90AA",
"!	c #7C93AD",
"~	c #9BB8D9",
"{	c #9CB9DA",
"]	c #96B2D2",
"^	c #87A1BE",
"/	c #7B92AC",
"(	c #6B7F96",
"_	c #788EA8",
":	c #8DA7C6",
"<	c #6B7F95",
"[	c #6F849B",
"}	c #7E96B1",
"|	c #6D8299",
"1	c #758AA3",
"2	c #778DA7",
"3	c #677A90",
"4	c #70859C",
"5	c #7D95B0",
"6	c #7990A9",
"7	c #748AA2",
"8	c #70859D",
"9	c #7388A1",
"0	c #768CA5",
"a	c #8199B5",
"b	c #687B91",
"c	c #829AB6",
"d	c #788FA9",
"e	c #697C93",
"f	c #5A6B7E",
"g	c #6D8198",
"h	c #72879F",
"i	c #8BA4C2",
"j	c #758BA4",
"k	c #66798F",
"l	c #849DB9",
"m	c #5E7084",
"n	c #839CB8",
"o	c #7389A2",
"p	c #778DA6",
"q	c #6A7E94",
"r	c #8EA9C7",
"s	c #65788D",
"t	c #99B6D6",
"u	c #89A3C0",
"v	c #92ADCC",
"w	c #94B0CF",
"x	c #607286",
"y	c #6E829A",
"z	c #6E839B",
"A	c #9EBCDD",
"B	c #93AFCE",
"C	c #687C92",
"D	c #859EBA",
"E	c #869FBB",
"F	c #7A91AB",
"G	c #71869E",
"H	c #8EA8C6",
"I	c #8FAAC8",
"J	c #66798E",
".......     .......",
".+@##$%.. ..&&*##$.",
".=-;>,')!.$~{]^;>,.",
".,/....(_,.:....<[.",
".}).   .|12.   .34.",
".56.  .7.18(.  .90.",
".27. .-:a.b(b. .cd.",
" .e(.,$^. .fgh.iij.",
" .k.1cl.   .m./na. ",
"  .o1p.     .41p.  ",
" .5;j.q.   .>>j..  ",
" .r=.e(s. .+tu.es. ",
".vw. .xyz.#AB. .3b.",
".#v.  .Co/.:.  .4_.",
".Dn.   .o12.   .,/.",
".,/....E.18(....uF.",
".}F[G>%Hc.b<[)uIuF.",
".5)G7)d.. ..J1'5/1.",
".......     ......."};
