/* XPM */
static char * c2_min_xpm[] = {
"19 19 66 1",
" 	c None",
".	c #000000",
"+	c #9DBBDC",
"@	c #97B3D4",
"#	c #91ACCB",
"$	c #90ABCA",
"%	c #8CA6C4",
"&	c #9CB9DB",
"*	c #95B1D1",
"=	c #88A2BF",
"-	c #89A2BF",
";	c #8098B3",
">	c #7F97B2",
",	c #7F96B1",
"'	c #7D94AF",
")	c #7A90AA",
"!	c #7C93AD",
"~	c #9BB8D9",
"{	c #9CB9DA",
"]	c #96B2D2",
"^	c #87A1BE",
"/	c #7B92AC",
"(	c #6B7F96",
"_	c #89A3C0",
":	c #8DA7C6",
"<	c #6B7F95",
"[	c #6F849B",
"}	c #7E96B1",
"|	c #6D8299",
"1	c #758AA3",
"2	c #778DA7",
"3	c #677A90",
"4	c #70859C",
"5	c #7D95B0",
"6	c #7990A9",
"7	c #748AA2",
"8	c #7388A1",
"9	c #768CA5",
"0	c #8199B5",
"a	c #687B91",
"b	c #829AB6",
"c	c #788FA9",
"d	c #697C93",
"e	c #5A6B7E",
"f	c #6D8198",
"g	c #72879F",
"h	c #8BA4C2",
"i	c #758BA4",
"j	c #64768C",
"k	c #849DB9",
"l	c #5E7084",
"m	c #839CB8",
"n	c #617387",
"o	c #6E829A",
"p	c #70859D",
"q	c #5A6B7F",
"r	c #697D94",
"s	c #6E839B",
"t	c #6A7E94",
"u	c #66798E",
"v	c #99B6D6",
"w	c #5D6E82",
"x	c #9EBCDD",
"y	c #93AFCE",
"z	c #5E6F83",
"A	c #8BA5C3",
".......     .......",
".+@##$%.. ..&&*##$.",
".=-;>,')!.$~{]^;>,.",
".,/....(.,_:....<[.",
".}).   .|12.   .34.",
".56.  .7/1.(.  .89.",
".27. .-:0.a(a. .bc.",
" .d(.,$^. .efg.hhi.",
" .jg7.k.   .lg/m0. ",
"  .no9.     .47p.  ",
"   .qrd.   .>>s.   ",
"    .qtu. .+v^.    ",
"     .wss.#xy.     ",
"      .zp/-A.      ",
"       .wop.       ",
"        .q.        ",
"         .         ",
"                   ",
"                   "};
