/* XPM */
static char * leftbars_xpm[] = {
"171 22 279 2",
"  	c None",
". 	c #736F6A",
"+ 	c #74706B",
"@ 	c #726E69",
"# 	c #726F6B",
"$ 	c #73706C",
"% 	c #72716B",
"& 	c #71706A",
"* 	c #72706B",
"= 	c #726F69",
"- 	c #73716C",
"; 	c #70706D",
"> 	c #6F706B",
", 	c #70716C",
"' 	c #72726D",
") 	c #71726D",
"! 	c #726E6B",
"~ 	c #716E6A",
"{ 	c #76736D",
"] 	c #77736E",
"^ 	c #777570",
"/ 	c #74736F",
"( 	c #76726D",
"_ 	c #75716C",
": 	c #75726C",
"< 	c #74716B",
"[ 	c #71726B",
"} 	c #71716E",
"| 	c #747471",
"1 	c #737471",
"2 	c #73736E",
"3 	c #72736E",
"4 	c #716F6A",
"5 	c #73706A",
"6 	c #6F6F6A",
"7 	c #707069",
"8 	c #6D6E69",
"9 	c #70716A",
"0 	c #706E69",
"a 	c #716F68",
"b 	c #706B65",
"c 	c #6D6862",
"d 	c #6D6860",
"e 	c #6C6761",
"f 	c #666760",
"g 	c #686861",
"h 	c #646760",
"i 	c #676760",
"j 	c #66665D",
"k 	c #64655C",
"l 	c #65645C",
"m 	c #61615A",
"n 	c #5A5651",
"o 	c #41403A",
"p 	c #2E2E29",
"q 	c #BDC0B9",
"r 	c #BFC1BA",
"s 	c #C1C2BB",
"t 	c #C1C1BA",
"u 	c #C0C1BA",
"v 	c #BFC0B9",
"w 	c #BEC0B9",
"x 	c #BDBFB8",
"y 	c #C2C1B9",
"z 	c #BFBFB8",
"A 	c #C0C0B9",
"B 	c #BEBFB8",
"C 	c #C0BFB9",
"D 	c #C2C2BB",
"E 	c #C4C3BB",
"F 	c #C1C0BA",
"G 	c #C3C1BA",
"H 	c #C3C2BA",
"I 	c #C2C0B9",
"J 	c #BABFB8",
"K 	c #B7BEB9",
"L 	c #BCBFB8",
"M 	c #C1BDB6",
"N 	c #BEBAB5",
"O 	c #AAABA2",
"P 	c #828580",
"Q 	c #645F5B",
"R 	c #4B4744",
"S 	c #33332E",
"T 	c #B3AFA8",
"U 	c #B3B0A8",
"V 	c #B1B0A8",
"W 	c #B1AFA6",
"X 	c #B2AFA7",
"Y 	c #B3B0A6",
"Z 	c #B3AFA6",
"` 	c #B2AEA7",
" .	c #B1ADA6",
"..	c #B4B1A9",
"+.	c #B4B0A9",
"@.	c #B3AEA8",
"#.	c #B5B1AA",
"$.	c #B4B1AB",
"%.	c #B5B2AC",
"&.	c #B3B0AA",
"*.	c #B2AEA9",
"=.	c #B4B0AB",
"-.	c #B5B2AA",
";.	c #B4B2AB",
">.	c #B3B3AC",
",.	c #B2B3AC",
"'.	c #B4B4AD",
").	c #B6B4AD",
"!.	c #B3B2AC",
"~.	c #B3B2AA",
"{.	c #B5B4AE",
"].	c #B5B3AC",
"^.	c #B3B1AA",
"/.	c #B6B3AB",
"(.	c #B1AEA8",
"_.	c #AEACA5",
":.	c #A9A8A2",
"<.	c #A59F98",
"[.	c #999690",
"}.	c #807C73",
"|.	c #605A51",
"1.	c #5B5348",
"2.	c #57473C",
"3.	c #3F2B1E",
"4.	c #5A4C41",
"5.	c #594C42",
"6.	c #5A4D43",
"7.	c #5A4E43",
"8.	c #594D42",
"9.	c #584D43",
"0.	c #594C44",
"a.	c #574B46",
"b.	c #594E46",
"c.	c #594D46",
"d.	c #5D5046",
"e.	c #5D5146",
"f.	c #5B5044",
"g.	c #5C5145",
"h.	c #5B5144",
"i.	c #5E5143",
"j.	c #5C5045",
"k.	c #5E5247",
"l.	c #594D48",
"m.	c #564B47",
"n.	c #5A4F45",
"o.	c #5A5045",
"p.	c #584F45",
"q.	c #574D44",
"r.	c #594E44",
"s.	c #5B4F44",
"t.	c #5B5146",
"u.	c #5B5246",
"v.	c #5A5145",
"w.	c #594C40",
"x.	c #5A5043",
"y.	c #564B43",
"z.	c #574A42",
"A.	c #544941",
"B.	c #554941",
"C.	c #574A40",
"D.	c #584D41",
"E.	c #594E42",
"F.	c #594E40",
"G.	c #584C41",
"H.	c #574C3E",
"I.	c #564A3F",
"J.	c #54493D",
"K.	c #53483C",
"L.	c #52473B",
"M.	c #51473C",
"N.	c #51463C",
"O.	c #55483C",
"P.	c #51473E",
"Q.	c #4F433E",
"R.	c #4D413C",
"S.	c #4C3B35",
"T.	c #513E34",
"U.	c #5C4029",
"V.	c #794B2C",
"W.	c #925B3A",
"X.	c #69462E",
"Y.	c #332010",
"Z.	c #513E2E",
"`.	c #523E2D",
" +	c #513E2C",
".+	c #4F412C",
"++	c #50402D",
"@+	c #503F2F",
"#+	c #504031",
"$+	c #504033",
"%+	c #514134",
"&+	c #514030",
"*+	c #503F2D",
"=+	c #52402F",
"-+	c #51412E",
";+	c #52422F",
">+	c #51402E",
",+	c #514130",
"'+	c #514034",
")+	c #524133",
"!+	c #514230",
"~+	c #524131",
"{+	c #524031",
"]+	c #533F2E",
"^+	c #533F2C",
"/+	c #523F2B",
"(+	c #524233",
"_+	c #54402F",
":+	c #513D2C",
"<+	c #544131",
"[+	c #514132",
"}+	c #4F3F2C",
"|+	c #50412D",
"1+	c #514032",
"2+	c #4F3E2C",
"3+	c #4F3E2E",
"4+	c #4D3D2C",
"5+	c #503E2D",
"6+	c #523C2B",
"7+	c #513C2C",
"8+	c #523D2D",
"9+	c #4A3B2B",
"0+	c #4D3B2A",
"a+	c #4D3C2C",
"b+	c #4C3C2D",
"c+	c #4D3A2C",
"d+	c #503B31",
"e+	c #573F32",
"f+	c #6B4936",
"g+	c #925C3B",
"h+	c #A56C4A",
"i+	c #663C23",
"j+	c #311E0E",
"k+	c #4C3525",
"l+	c #4B3424",
"m+	c #4B3524",
"n+	c #4C3625",
"o+	c #4C3626",
"p+	c #4B3624",
"q+	c #4B3726",
"r+	c #4C3725",
"s+	c #4C3726",
"t+	c #4A3627",
"u+	c #4A3625",
"v+	c #4D3828",
"w+	c #4E3929",
"x+	c #4F392A",
"y+	c #4E3829",
"z+	c #4E3727",
"A+	c #4C3827",
"B+	c #4D3826",
"C+	c #4E3827",
"D+	c #4D3926",
"E+	c #4E3927",
"F+	c #4E3725",
"G+	c #4E3625",
"H+	c #4D3424",
"I+	c #4C3825",
"J+	c #4C3727",
"K+	c #4B3728",
"L+	c #4A3727",
"M+	c #4D3626",
"N+	c #493626",
"O+	c #4A3425",
"P+	c #4B3422",
"Q+	c #4A3323",
"R+	c #483323",
"S+	c #463525",
"T+	c #453526",
"U+	c #453424",
"V+	c #463323",
"W+	c #483324",
"X+	c #463223",
"Y+	c #422B1D",
"Z+	c #402717",
"`+	c #3A2413",
" @	c #292018",
".@	c #21241D",
"+@	c #1B1A10",
"                                                                                                                                                                                                                                                                                                                                                      ",
"  . + @ # $ % & * & = * - - ; ; > , ' ' ) > * ! ~ ~ + { { ] ^ / - ( _ ( : < , [ } | 1 2 3 . + @ # $ % & * & = * - - ; ; > , ' ' ) > * ! ~ ~ + { { ] ^ / - ( _ ( : < , [ } | 1 2 3 . + @ # $ % & * & = * - - ; ; > , ' ' ) > * ! ~ ~ + { { ] ^ / - ( _ ( : < , [ } | 1 2 3 ' $ - * 4 5 5 5 & 6 7 8 & 9 9 6 6 0 0 a a b c d e f g h i j k l l m n o p   ",
"  q q q r s t u v w v x v y v v z v A B B z C C A t D E E t t A F t D G y A t D t A t u t q q q r s t u v w v x v y v v z v A B B z C C A t D E E t t A F t D G y A t D t A t u t q q q r s t u v w v x v y v v z v A B B z C C A t D E E t t A F t D G y A t D t A t u t G t A A F E G t G G y A G A A A A G E H I C B B A B x J K L M N O P Q R S   ",
"    T U V W X Y Z ` `  .T U ..+.U @.#.#.$.$.%.%.+.+.&.T *.=.-.%.$.;.>.>.,.'.).%.-.;.!.~.,.T T U V W X Y Z ` `  .T U ..+.U @.#.#.$.$.%.%.+.+.&.T *.=.-.%.$.;.>.>.,.'.).%.-.;.!.~.,.T T U V W X Y Z ` `  .T U ..+.U @.#.#.$.$.%.%.+.+.&.T *.=.-.%.$.;.>.>.,.'.).%.-.;.!.~.,.{.).).%.].).;.$.$.^.-.%.$.-.-./.-.+.&.&.T U +.#.#.+.(._.:.<.[.}.|.1.2.3.    ",
"    4.5.5.6.7.7.8.9.0.a.b.c.d.e.7.f.g.g.h.i.j.k.d.b.l.m.l.b.n.n.g.o.o.p.q.r.s.r.j.t.u.u.v.w.4.5.5.6.7.7.8.9.0.a.b.c.d.e.7.f.g.g.h.i.j.k.d.b.l.m.l.b.n.n.g.o.o.p.q.r.s.r.j.t.u.u.v.w.4.5.5.6.7.7.8.9.0.a.b.c.d.e.7.f.g.g.h.i.j.k.d.b.l.m.l.b.n.n.g.o.o.p.q.r.s.r.j.t.u.u.v.x.o.7.8.8.y.z.A.B.C.D.E.F.G.E.D.H.I.J.K.L.M.N.O.P.Q.R.R.S.T.U.V.W.X.Y.      ",
"      Z.`. +.+++++@+#+$+%+&+*+&+=+-+;+-+*+*+>+;+,+#+'+'+'+)+>+!+~+{+]+]+^+/+@+(+!+=+_+]+_+:+:+Z.`. +.+++++@+#+$+%+&+*+&+=+-+;+-+*+*+>+;+,+#+'+'+'+)+>+!+~+{+]+]+^+/+@+(+!+=+_+]+_+:+:+Z.`. +.+++++@+#+$+%+&+*+&+=+-+;+-+*+*+>+;+,+#+'+'+'+)+>+!+~+{+]+]+^+/+@+(+!+=+_+]+_+<+(+[+>+>+-+}+|+++*+#+,+1+2+3+4+5+6+7+8+6+9+0+a+b+b+c+d+e+f+g+h+i+j+        ",
"        k+l+m+m+n+n+o+n+p+o+q+r+s+n+n+t+u+v+w+x+y+z+A+B+C+D+E+B+F+F+n+G+H+n+A+I+A+B+J+K+L+G+M+M+k+l+m+m+n+n+o+n+p+o+q+r+s+n+n+t+u+v+w+x+y+z+A+B+C+D+E+B+F+F+n+G+H+n+A+I+A+B+J+K+L+G+M+M+k+l+m+m+n+n+o+n+p+o+q+r+s+n+n+t+u+v+w+x+y+z+A+B+C+D+E+B+F+F+n+G+H+n+A+I+A+B+J+K+L+L+A+u+o+o+N+n+u+m+s+r+u+p+O+n+P+k+k+Q+Q+R+S+T+U+U+V+W+X+Y+Z+`+ @.@          ",
"                                                                                                                                                                                                                                                                                                                                                      ",
"        ' ' ) > * ! ~ ~ + { { ] ^ / - ( _ ( : < , [ } | 1 2 3 ' $ - * 4 5 5 5 & 6 7 8 & 9 ; > , ' ' ) > * ! ~ ~ + { { ] ^ / - ( _ ( : < , [ } | 1 2 3 ' $ - * 4 5 5 5 & 6 7 8 & 9 ; > , ' ' ) > * ! ~ ~ + { { ] ^ / - ( _ ( : < , [ } | 1 2 3 ' $ - * 4 5 5 5 & 6 7 8 & 9 9 6 6 0 0 a a b c d e f g h i j k l l m n o p +@                            ",
"        A B B z C C A t D E E t t A F t D G y A t D t A t u t G t A A F E G t G G y A G A v z v A B B z C C A t D E E t t A F t D G y A t D t A t u t G t A A F E G t G G y A G A v z v A B B z C C A t D E E t t A F t D G y A t D t A t u t G t A A F E G t G G y A G A A A A G E H I C B B A B x J K L M N O P Q R S                               ",
"        #.#.$.$.%.%.+.+.&.T *.=.-.%.$.;.>.>.,.'.).%.-.;.!.~.,.{.).).%.].).;.$.$.^.-.%.$.-.+.U @.#.#.$.$.%.%.+.+.&.T *.=.-.%.$.;.>.>.,.'.).%.-.;.!.~.,.{.).).%.].).;.$.$.^.-.%.$.-.+.U @.#.#.$.$.%.%.+.+.&.T *.=.-.%.$.;.>.>.,.'.).%.-.;.!.~.,.{.).).%.].).;.$.$.^.-.%.$.-.-./.-.+.&.&.T U +.#.#.+.(._.:.<.[.}.|.1.2.3.                                ",
"        g.g.h.i.j.k.d.b.l.m.l.b.n.n.g.o.o.p.q.r.s.r.j.t.u.u.v.x.o.7.8.8.y.z.A.B.C.D.E.F.G.e.7.f.g.g.h.i.j.k.d.b.l.m.l.b.n.n.g.o.o.p.q.r.s.r.j.t.u.u.v.x.o.7.8.8.y.z.A.B.C.D.E.F.G.e.7.f.g.g.h.i.j.k.d.b.l.m.l.b.n.n.g.o.o.p.q.r.s.r.j.t.u.u.v.x.o.7.8.8.y.z.A.B.C.D.E.F.G.E.D.H.I.J.K.L.M.N.O.P.Q.R.R.S.T.U.V.W.X.Y.                                  ",
"        ;+-+*+*+>+;+,+#+'+'+'+)+>+!+~+{+]+]+^+/+@+(+!+=+_+]+_+<+(+[+>+>+-+}+|+++*+#+,+1+2+&+=+-+;+-+*+*+>+;+,+#+'+'+'+)+>+!+~+{+]+]+^+/+@+(+!+=+_+]+_+<+(+[+>+>+-+}+|+++*+#+,+1+2+&+=+-+;+-+*+*+>+;+,+#+'+'+'+)+>+!+~+{+]+]+^+/+@+(+!+=+_+]+_+<+(+[+>+>+-+}+|+++*+#+,+1+2+3+4+5+6+7+8+6+9+0+a+b+b+c+d+e+f+g+h+i+j+                                    ",
"        n+t+u+v+w+x+y+z+A+B+C+D+E+B+F+F+n+G+H+n+A+I+A+B+J+K+L+L+A+u+o+o+N+n+u+m+s+r+u+p+O+r+s+n+n+t+u+v+w+x+y+z+A+B+C+D+E+B+F+F+n+G+H+n+A+I+A+B+J+K+L+L+A+u+o+o+N+n+u+m+s+r+u+p+O+r+s+n+n+t+u+v+w+x+y+z+A+B+C+D+E+B+F+F+n+G+H+n+A+I+A+B+J+K+L+L+A+u+o+o+N+n+u+m+s+r+u+p+O+n+P+k+k+Q+Q+R+S+T+U+U+V+W+X+Y+Z+`+ @.@                                      ",
"                                                                                                                                                                                                                                                                                                                                                      ",
"        - ( _ ( : < , [ } | 1 2 3 ' $ - * 4 5 5 5 & 6 7 8 & 9 9 6 6 0 0 a a b c d e f g h ] ^ / - ( _ ( : < , [ } | 1 2 3 ' $ - * 4 5 5 5 & 6 7 8 & 9 9 6 6 0 0 a a b c d e f g h ] ^ / - ( _ ( : < , [ } | 1 2 3 ' $ - * 4 5 5 5 & 6 7 8 & 9 9 6 6 0 0 a a b c d e f g h i j k l l m n o p +@                                                        ",
"        F t D G y A t D t A t u t G t A A F E G t G G y A G A A A A G E H I C B B A B x J t t A F t D G y A t D t A t u t G t A A F E G t G G y A G A A A A G E H I C B B A B x J t t A F t D G y A t D t A t u t G t A A F E G t G G y A G A A A A G E H I C B B A B x J K L M N O P Q R S                                                           ",
"      %.$.;.>.>.,.'.).%.-.;.!.~.,.{.).).%.].).;.$.$.^.-.%.$.-.-./.-.+.&.&.T U +.#.#.+.(._.=.-.%.$.;.>.>.,.'.).%.-.;.!.~.,.{.).).%.].).;.$.$.^.-.%.$.-.-./.-.+.&.&.T U +.#.#.+.(._.=.-.%.$.;.>.>.,.'.).%.-.;.!.~.,.{.).).%.].).;.$.$.^.-.%.$.-.-./.-.+.&.&.T U +.#.#.+.(._.:.<.[.}.|.1.2.3.                                                            ",
"    n.n.g.o.o.p.q.r.s.r.j.t.u.u.v.x.o.7.8.8.y.z.A.B.C.D.E.F.G.E.D.H.I.J.K.L.M.N.O.P.Q.R.R.b.n.n.g.o.o.p.q.r.s.r.j.t.u.u.v.x.o.7.8.8.y.z.A.B.C.D.E.F.G.E.D.H.I.J.K.L.M.N.O.P.Q.R.R.b.n.n.g.o.o.p.q.r.s.r.j.t.u.u.v.x.o.7.8.8.y.z.A.B.C.D.E.F.G.E.D.H.I.J.K.L.M.N.O.P.Q.R.R.S.T.U.V.W.X.Y.                                                              ",
"  {+>+!+~+{+]+]+^+/+@+(+!+=+_+]+_+<+(+[+>+>+-+}+|+++*+#+,+1+2+3+4+5+6+7+8+6+9+0+a+b+b+c+d+)+>+!+~+{+]+]+^+/+@+(+!+=+_+]+_+<+(+[+>+>+-+}+|+++*+#+,+1+2+3+4+5+6+7+8+6+9+0+a+b+b+c+d+)+>+!+~+{+]+]+^+/+@+(+!+=+_+]+_+<+(+[+>+>+-+}+|+++*+#+,+1+2+3+4+5+6+7+8+6+9+0+a+b+b+c+d+e+f+g+h+i+j+                                                                ",
"  D+E+B+F+F+n+G+H+n+A+I+A+B+J+K+L+L+A+u+o+o+N+n+u+m+s+r+u+p+O+n+P+k+k+Q+Q+R+S+T+U+U+V+W+X+D+E+B+F+F+n+G+H+n+A+I+A+B+J+K+L+L+A+u+o+o+N+n+u+m+s+r+u+p+O+n+P+k+k+Q+Q+R+S+T+U+U+V+W+X+D+E+B+F+F+n+G+H+n+A+I+A+B+J+K+L+L+A+u+o+o+N+n+u+m+s+r+u+p+O+n+P+k+k+Q+Q+R+S+T+U+U+V+W+X+Y+Z+`+ @.@                                                                  ",
"                                                                                                                                                                                                                                                                                                                                                      "};
