/* XPM */
static char * loz_violet_left_xpm[] = {
"28 24 194 2",
"  	c None",
". 	c #1C0587",
"+ 	c #180076",
"@ 	c #160061",
"# 	c #15006E",
"$ 	c #160069",
"% 	c #000000",
"& 	c #150075",
"* 	c #140072",
"= 	c #160086",
"- 	c #35239C",
"; 	c #6F63B6",
"> 	c #DDE4E4",
", 	c #E7ECEC",
"' 	c #EAEFEF",
") 	c #EBF0F0",
"! 	c #F6F9F9",
"~ 	c #FFFFFF",
"{ 	c #170084",
"] 	c #160082",
"^ 	c #5B4DB1",
"/ 	c #857BC2",
"( 	c #8980C2",
"_ 	c #C3CCCC",
": 	c #C4CDCC",
"< 	c #CBD4D3",
"[ 	c #D3DADA",
"} 	c #D8DFDF",
"| 	c #DEE5E5",
"1 	c #DFE6E6",
"2 	c #170093",
"3 	c #25109B",
"4 	c #857AC5",
"5 	c #8D84C7",
"6 	c #9088C8",
"7 	c #B4BDBD",
"8 	c #C0C9C8",
"9 	c #B3BCBC",
"0 	c #D2D9D9",
"a 	c #CFD6D6",
"b 	c #331EA6",
"c 	c #6557B9",
"d 	c #8379C7",
"e 	c #8F86CA",
"f 	c #9289CA",
"g 	c #AAB3B3",
"h 	c #B9C2C1",
"i 	c #C8D0CF",
"j 	c #CBD2D2",
"k 	c #5747B7",
"l 	c #7164C1",
"m 	c #8074C7",
"n 	c #8477C8",
"o 	c #8478C8",
"p 	c #B1BAB9",
"q 	c #C9D0D0",
"r 	c #17008B",
"s 	c #160084",
"t 	c #180094",
"u 	c #230CA1",
"v 	c #3A26AD",
"w 	c #4B39B6",
"x 	c #5A4ABC",
"y 	c #7062C3",
"z 	c #6859C2",
"A 	c #6B5CC2",
"B 	c #6C5DC2",
"C 	c #AFB8B8",
"D 	c #ADB6B6",
"E 	c #97A0A0",
"F 	c #B0B9B8",
"G 	c #A2ABAB",
"H 	c #B8C1C1",
"I 	c #BCC5C5",
"J 	c #190291",
"K 	c #170092",
"L 	c #220CA0",
"M 	c #341EAB",
"N 	c #422EB3",
"O 	c #503DB9",
"P 	c #5947BD",
"Q 	c #6251C0",
"R 	c #6354C2",
"S 	c #6757C3",
"T 	c #6858C3",
"U 	c #838C8C",
"V 	c #A8B1B1",
"W 	c #6352C2",
"X 	c #6353C2",
"Y 	c #6F60C8",
"Z 	c #B5BEBD",
"` 	c #99A2A2",
" .	c #200A9C",
"..	c #311BA9",
"+.	c #412CB3",
"@.	c #4D3BB8",
"#.	c #5B49BF",
"$.	c #6656C4",
"%.	c #6A5BC6",
"&.	c #6D5EC7",
"*.	c #7163CA",
"=.	c #A9B2B2",
"-.	c #BCC3C3",
";.	c #BEC7C6",
">.	c #C6CFCE",
",.	c #D0D7D7",
"'.	c #2711A1",
").	c #3925AF",
"!.	c #4835B7",
"~.	c #5442BB",
"{.	c #5E4DC1",
"].	c #6C5DC7",
"^.	c #7060C9",
"/.	c #CED5D5",
"(.	c #889191",
"_.	c #2812A1",
":.	c #3B27AF",
"<.	c #4A37B8",
"[.	c #5645BC",
"}.	c #F4F7F7",
"|.	c #9AA3A3",
"1.	c #E4E9E9",
"2.	c #2F1C97",
"3.	c #2F19A5",
"4.	c #412DB2",
"5.	c #4F3DBA",
"6.	c #5B4AC1",
"7.	c #6251C3",
"8.	c #6D5EC8",
"9.	c #7364CB",
"0.	c #E8EDED",
"a.	c #A4ADAD",
"b.	c #8E9797",
"c.	c #EDF2F2",
"d.	c #3723AB",
"e.	c #4A36B8",
"f.	c #5745BF",
"g.	c #6352C7",
"h.	c #6A5BC9",
"i.	c #6959C6",
"j.	c #7465CD",
"k.	c #7D6FD4",
"l.	c #7466CC",
"m.	c #7566CC",
"n.	c #DBE2E2",
"o.	c #7263CD",
"p.	c #7C6ED6",
"q.	c #8071D6",
"r.	c #8172D6",
"s.	c #DAE1E1",
"t.	c #3D29B0",
"u.	c #4E3BBC",
"v.	c #5D4CC6",
"w.	c #6B5ACD",
"x.	c #7263D1",
"y.	c #7C6DD7",
"z.	c #8679DF",
"A.	c #8678DE",
"B.	c #897CE0",
"C.	c #897DE0",
"D.	c #4B3B9D",
"E.	c #4C3BA9",
"F.	c #513FBE",
"G.	c #6451CB",
"H.	c #715FD4",
"I.	c #796ADA",
"J.	c #8275E0",
"K.	c #8A84E2",
"L.	c #8D85E3",
"M.	c #8E89E3",
"N.	c #8E8AE3",
"O.	c #B8BFBF",
"P.	c #7D6FDF",
"Q.	c #857CE3",
"R.	c #9192E3",
"S.	c #969BE3",
"T.	c #A1AAAA",
"U.	c #C3CACA",
"V.	c #7461D9",
"W.	c #7F71E2",
"X.	c #8B8BE3",
"Y.	c #959CE3",
"Z.	c #6552CC",
"`.	c #7260D9",
" +	c #8782E3",
".+	c #8C8EE3",
"++	c #5441BF",
"@+	c #6451CD",
"#+	c #7E6EE2",
"$+	c #847EE3",
"%+	c #625A9E",
"&+	c #5F53A5",
"*+	c #6D5BD1",
"=+	c #7465D3",
"                                                  . + @ ",
"                                            . + @ # $ + ",
"                    % % % % % % %         . & * # = - ; ",
"                % % > , ' ) ! ~ %       . & { ] = ^ / ( ",
"              % _ : < [ } | , 1 %     . & { 2 3 ^ 4 5 6 ",
"            % 7 8 9 % % % % 0 a %   . & { 2 b c 4 d e f ",
"          % g h h %       % i j % . & { 2 b k l d m n o ",
"        % g p _ % p %     % _ q % r s t u v w x y z A B ",
"      % C D E % F 7 G %   % H I % J K L M N O P Q R S T ",
"    % F C U %   % C 7 H % D V % . K L M N O W X R Y Y Y ",
"  % C Z ` %       % C j i % V % r  ...+.@.#.$.%.&.*.*.*.",
"% =.-.;.%           % >.,.8 % *.J '.).!.~.{.$.].^.*.*.*.",
"  % F < /.%       % (.% q a < % J _.:.<.[.{.$.].^.*.*.*.",
"    % [ }.~ %   % (.(.|.% } 1.% 2.3.4.5.6.7.$.8.9.*.*.*.",
"      % ' ~ 0.% C a.b.%   % ) c.% d.e.f.g.h.i.j.k.l.m.m.",
"        % | n.,._ p %     % ) ) % J d.e.f.g.h.o.p.k.q.r.",
"          % D ;.: %       % s.n.% 2.t.u.v.w.x.y.z.A.B.C.",
"            % |.Z 7 % % % % ,.a % D.E.F.G.H.I.J.K.L.M.N.",
"              % V O.p p 9 h /.j %   D.E.F.G.H.P.Q.K.R.S.",
"                % % T.=.=.C U.i %     D.E.F.G.V.W.Q.X.Y.",
"                    % % % % % % %       D.E.F.Z.`.W. +.+",
"                                          D.E.++@+`.#+$+",
"                                            D.%+&+@+*+=+",
"                                                  D.%+&+"};
