/* XPM */
static char * loz_white_right_xpm[] = {
"29 24 158 2",
"  	c None",
". 	c #72698E",
"+ 	c #726A91",
"@ 	c #797297",
"# 	c #817B9C",
"$ 	c #9491A4",
"% 	c #746D94",
"& 	c #777095",
"* 	c #B7B6BD",
"= 	c #B4B3BA",
"- 	c #7D789B",
"; 	c #777196",
"> 	c #000000",
", 	c #C1C0C7",
"' 	c #BFBEC5",
") 	c #ABAAB3",
"! 	c #7C769B",
"~ 	c #FFFFFF",
"{ 	c #F6F9F9",
"] 	c #EBF0F0",
"^ 	c #EAEFEF",
"/ 	c #E7ECEC",
"( 	c #DDE4E4",
"_ 	c #C6C6CB",
": 	c #C4C3CA",
"< 	c #C0BFC6",
"[ 	c #8B88A1",
"} 	c #817C9F",
"| 	c #DFE6E6",
"1 	c #DEE5E5",
"2 	c #D8DFDF",
"3 	c #D3DADA",
"4 	c #CBD4D3",
"5 	c #C4CDCC",
"6 	c #C3CCCC",
"7 	c #C7C7CC",
"8 	c #C6C5CC",
"9 	c #B1B0B9",
"0 	c #9593A6",
"a 	c #CFD6D6",
"b 	c #D2D9D9",
"c 	c #B3BCBC",
"d 	c #C0C9C8",
"e 	c #B4BDBD",
"f 	c #B7B6BF",
"g 	c #ABA9B4",
"h 	c #CBD2D2",
"i 	c #C8D0CF",
"j 	c #B9C2C1",
"k 	c #AAB3B3",
"l 	c #B5B4BD",
"m 	c #B4B3BC",
"n 	c #AEACB7",
"o 	c #A5A3B0",
"p 	c #9B99AA",
"q 	c #8C88A3",
"r 	c #7F799C",
"s 	c #C9D0D0",
"t 	c #B1BAB9",
"u 	c #B4B2BD",
"v 	c #B3B1BC",
"w 	c #B1AFBA",
"x 	c #ADABB6",
"y 	c #A8A6B3",
"z 	c #A09EAD",
"A 	c #9693A8",
"B 	c #827D9E",
"C 	c #BCC5C5",
"D 	c #B8C1C1",
"E 	c #A2ABAB",
"F 	c #B0B9B8",
"G 	c #97A0A0",
"H 	c #ADB6B6",
"I 	c #AFB8B8",
"J 	c #B8B7C0",
"K 	c #B2B0BB",
"L 	c #A8B1B1",
"M 	c #838C8C",
"N 	c #B9B8C1",
"O 	c #B6B5BE",
"P 	c #A6A4B1",
"Q 	c #9F9CAD",
"R 	c #9592A7",
"S 	c #8985A2",
"T 	c #99A2A2",
"U 	c #B5BEBD",
"V 	c #B0AEB9",
"W 	c #AAA9B4",
"X 	c #A4A3B1",
"Y 	c #9B98AB",
"Z 	c #8F8BA4",
"` 	c #D0D7D7",
" .	c #C6CFCE",
"..	c #BEC7C6",
"+.	c #BCC3C3",
"@.	c #A9B2B2",
"#.	c #ABAAB5",
"$.	c #9C9AAB",
"%.	c #889191",
"&.	c #CED5D5",
"*.	c #BAB9C2",
"=.	c #AFADB8",
"-.	c #9390A5",
";.	c #908DA2",
">.	c #E4E9E9",
",.	c #9AA3A3",
"'.	c #F4F7F7",
").	c #BBBAC3",
"!.	c #C0BFC8",
"~.	c #B7B5C0",
"{.	c #9996A9",
"].	c #EDF2F2",
"^.	c #8E9797",
"/.	c #A4ADAD",
"(.	c #E8EDED",
"_.	c #C2C1CA",
":.	c #C1C0C9",
"<.	c #DBE2E2",
"[.	c #C8C7D0",
"}.	c #C6C5CE",
"|.	c #C7C6CF",
"1.	c #C1BFCA",
"2.	c #BCBAC5",
"3.	c #B8B6C1",
"4.	c #B0AFBA",
"5.	c #DAE1E1",
"6.	c #CDCCD5",
"7.	c #CCCBD4",
"8.	c #CBCAD3",
"9.	c #C0BFCA",
"0.	c #BBB9C4",
"a.	c #A2A0AD",
"b.	c #9E9CA9",
"c.	c #D2D3D9",
"d.	c #D1D1D8",
"e.	c #D0D0D7",
"f.	c #C8C8D1",
"g.	c #C4C2CD",
"h.	c #B8BFBF",
"i.	c #D3D4DA",
"j.	c #D1D2D8",
"k.	c #CDCDD6",
"l.	c #C4C3CE",
"m.	c #BEBCC7",
"n.	c #C3CACA",
"o.	c #A1AAAA",
"p.	c #CDCED6",
"q.	c #CACAD3",
"r.	c #BCBBC6",
"s.	c #B4B3BE",
"t.	c #CBCBD4",
"u.	c #C9C9D2",
"v.	c #C6C5D0",
"w.	c #BDBBC6",
"x.	c #B9B7C2",
"y.	c #AAA9B0",
"z.	c #ACABB2",
"A.	c #A3A2A7",
". + @ #                                                   ",
"$ @ % & + @ #                                             ",
"* = $ - & ; ; #         > > > > > > >                     ",
", , ' ) - ! ! ; #       > ~ { ] ^ / ( > >                 ",
"_ _ : < ) [ } ! ; #     > | / 1 2 3 4 5 6 >               ",
"7 _ 8 , < 9 0 } ! ; #   > a b > > > > c d e >             ",
", , < ' , f g 0 } ! ; # > h i >       > j j k >           ",
"l l l m f n o p q } ! r > s 6 >     > t > 6 t k >         ",
"u u u v w x y z A q } B > C D >   > E e F > G H I >       ",
"J J J J v K K y z A q } # > L H > D e I >   > M I F >     ",
"N N N N f O u n P Q R S r > L > i h I >       > T U I >   ",
"N N N N J f u V W X Y Z B N > d `  .>           > ..+.@.> ",
"N N N N J f u V #.o $.Z B > 4 a s > %.>       > &.4 F >   ",
"N N N N *.J u K =.y Q -.;.> >.2 > ,.%.%.>   > ~ '.3 >     ",
").).).).!.).l ~.v x X {.> ].] >   > ^./.I > (.~ ^ >       ",
"_._.:.!.:.).~.v x X {.B > ] ] >     > t 6 ` <.1 >         ",
"[.[.[.}.|.1.2.3.4.y $.;.> <.5.>       > 5 ..H >           ",
"6.6.6.7.8.}.9.0.u W a.b.> a ` > > > > e U ,.>             ",
"c.d.e.8.f.g.0.u W a.b.  > h &.j c t t h.L >               ",
"i.j.k.f.l.m.u W a.b.    > i n.I @.@.o.> >                 ",
"e.p.q.l.r.s.W a.b.      > > > > > > >                     ",
"t.u.l.r.s.#.a.b.                                          ",
"v.w.x.s.y.y.b.                                            ",
"z.y.y.b.                                                A."};
