/* XPM */
static char * loz_white_left_xpm[] = {
"28 24 150 2",
"  	c None",
". 	c #817B9C",
"+ 	c #797297",
"@ 	c #726A91",
"# 	c #777095",
"$ 	c #746D94",
"% 	c #000000",
"& 	c #777196",
"* 	c #7D789B",
"= 	c #9491A4",
"- 	c #B4B3BA",
"; 	c #DDE4E4",
"> 	c #E7ECEC",
", 	c #EAEFEF",
"' 	c #EBF0F0",
") 	c #F6F9F9",
"! 	c #FFFFFF",
"~ 	c #7C769B",
"{ 	c #ABAAB3",
"] 	c #BFBEC5",
"^ 	c #C1C0C7",
"/ 	c #C3CCCC",
"( 	c #C4CDCC",
"_ 	c #CBD4D3",
": 	c #D3DADA",
"< 	c #D8DFDF",
"[ 	c #DEE5E5",
"} 	c #DFE6E6",
"| 	c #817C9F",
"1 	c #8B88A1",
"2 	c #C0BFC6",
"3 	c #C4C3CA",
"4 	c #C6C6CB",
"5 	c #B4BDBD",
"6 	c #C0C9C8",
"7 	c #B3BCBC",
"8 	c #D2D9D9",
"9 	c #CFD6D6",
"0 	c #9593A6",
"a 	c #B1B0B9",
"b 	c #C6C5CC",
"c 	c #AAB3B3",
"d 	c #B9C2C1",
"e 	c #C8D0CF",
"f 	c #CBD2D2",
"g 	c #ABA9B4",
"h 	c #B7B6BF",
"i 	c #B1BAB9",
"j 	c #C9D0D0",
"k 	c #7F799C",
"l 	c #8C88A3",
"m 	c #9B99AA",
"n 	c #A5A3B0",
"o 	c #AEACB7",
"p 	c #B4B3BC",
"q 	c #B5B4BD",
"r 	c #AFB8B8",
"s 	c #ADB6B6",
"t 	c #97A0A0",
"u 	c #B0B9B8",
"v 	c #A2ABAB",
"w 	c #B8C1C1",
"x 	c #BCC5C5",
"y 	c #827D9E",
"z 	c #9693A8",
"A 	c #A09EAD",
"B 	c #A8A6B3",
"C 	c #ADABB6",
"D 	c #B1AFBA",
"E 	c #B3B1BC",
"F 	c #B4B2BD",
"G 	c #838C8C",
"H 	c #A8B1B1",
"I 	c #B2B0BB",
"J 	c #B8B7C0",
"K 	c #B5BEBD",
"L 	c #99A2A2",
"M 	c #8985A2",
"N 	c #9592A7",
"O 	c #9F9CAD",
"P 	c #A6A4B1",
"Q 	c #B6B5BE",
"R 	c #B9B8C1",
"S 	c #A9B2B2",
"T 	c #BCC3C3",
"U 	c #BEC7C6",
"V 	c #C6CFCE",
"W 	c #D0D7D7",
"X 	c #8F8BA4",
"Y 	c #9B98AB",
"Z 	c #A4A3B1",
"` 	c #AAA9B4",
" .	c #B0AEB9",
"..	c #CED5D5",
"+.	c #889191",
"@.	c #9C9AAB",
"#.	c #ABAAB5",
"$.	c #F4F7F7",
"%.	c #9AA3A3",
"&.	c #E4E9E9",
"*.	c #908DA2",
"=.	c #9390A5",
"-.	c #AFADB8",
";.	c #BAB9C2",
">.	c #E8EDED",
",.	c #A4ADAD",
"'.	c #8E9797",
").	c #EDF2F2",
"!.	c #9996A9",
"~.	c #B7B5C0",
"{.	c #BBBAC3",
"].	c #C0BFC8",
"^.	c #DBE2E2",
"/.	c #C1C0C9",
"(.	c #C2C1CA",
"_.	c #DAE1E1",
":.	c #B0AFBA",
"<.	c #B8B6C1",
"[.	c #BCBAC5",
"}.	c #C1BFCA",
"|.	c #C7C6CF",
"1.	c #C6C5CE",
"2.	c #C8C7D0",
"3.	c #9E9CA9",
"4.	c #A2A0AD",
"5.	c #BBB9C4",
"6.	c #C0BFCA",
"7.	c #CBCAD3",
"8.	c #CCCBD4",
"9.	c #CDCCD5",
"0.	c #B8BFBF",
"a.	c #C4C2CD",
"b.	c #C8C8D1",
"c.	c #D0D0D7",
"d.	c #D1D1D8",
"e.	c #A1AAAA",
"f.	c #C3CACA",
"g.	c #BEBCC7",
"h.	c #C4C3CE",
"i.	c #CDCDD6",
"j.	c #D1D2D8",
"k.	c #B4B3BE",
"l.	c #BCBBC6",
"m.	c #CACAD3",
"n.	c #CDCED6",
"o.	c #C9C9D2",
"p.	c #AAA9B0",
"q.	c #B9B7C2",
"r.	c #BDBBC6",
"s.	c #ADACB1",
"                                                  . + @ ",
"                                            . + @ # $ + ",
"                    % % % % % % %         . & & # * = - ",
"                % % ; > , ' ) ! %       . & ~ ~ * { ] ^ ",
"              % / ( _ : < [ > } %     . & ~ | 1 { 2 3 4 ",
"            % 5 6 7 % % % % 8 9 %   . & ~ | 0 a 2 ^ b 4 ",
"          % c d d %       % e f % . & ~ | 0 g h ^ ] 2 ^ ",
"        % c i / % i %     % / j % k ~ | l m n o h p q q ",
"      % r s t % u 5 v %   % w x % y | l z A B C D E F F ",
"    % u r G %   % r 5 w % s H % . | l z A B I I E J J J ",
"  % r K L %       % r f e % H % k M N O P o F Q h R R R ",
"% S T U %           % V W 6 % R y X Y Z `  .F h J R R R ",
"  % u _ ..%       % +.% j 9 _ % y X @.n #. .F h J R R R ",
"    % : $.! %   % +.+.%.% < &.% *.=.O B -.I F J ;.R R R ",
"      % , ! >.% r ,.'.%   % ' ).% !.Z C E ~.q {.].{.{.{.",
"        % [ ^.W / i %     % ' ' % y !.Z C E ~.{./.]./.(.",
"          % s U ( %       % _.^.% *.@.B :.<.[.}.|.1.2.2.",
"            % %.K 5 % % % % W 9 % 3.4.` F 5.6.1.7.8.9.9.",
"              % H 0.i i 7 d ..f %   3.4.` F 5.a.b.7.c.d.",
"                % % e.S S r f.e %     3.4.` F g.h.b.i.j.",
"                    % % % % % % %       3.4.` k.l.h.m.n.",
"                                          3.4.#.k.l.h.o.",
"                                            3.p.p.k.q.r.",
"                                                s.3.p.p."};
