/* XPM */
static char * medallion_xpm[] = {
"20 20 252 2",
"  	c None",
". 	c #4B3A24",
"+ 	c #665333",
"@ 	c #B69668",
"# 	c #664D3C",
"$ 	c #291E16",
"% 	c #876C4E",
"& 	c #65503A",
"* 	c #8D724E",
"= 	c #D4B57B",
"- 	c #B28E67",
"; 	c #816451",
"> 	c #56412F",
", 	c #A3885A",
"' 	c #846D51",
") 	c #85653F",
"! 	c #443425",
"~ 	c #CAA77B",
"{ 	c #B48E68",
"] 	c #AE8964",
"^ 	c #C4A779",
"/ 	c #C9A574",
"( 	c #96714C",
"_ 	c #745946",
": 	c #9F7D5E",
"< 	c #C4A878",
"[ 	c #D0B07E",
"} 	c #A38768",
"| 	c #6F553A",
"1 	c #5A4533",
"2 	c #CBA87B",
"3 	c #9B7851",
"4 	c #946F52",
"5 	c #AB865A",
"6 	c #B5885A",
"7 	c #9F7647",
"8 	c #6E5238",
"9 	c #9F7A54",
"0 	c #B38D57",
"a 	c #916F4E",
"b 	c #654B3B",
"c 	c #634A37",
"d 	c #8E734E",
"e 	c #CCAA7D",
"f 	c #9D7851",
"g 	c #98714B",
"h 	c #9A734C",
"i 	c #AF8356",
"j 	c #C09C70",
"k 	c #7F5F43",
"l 	c #9A744C",
"m 	c #A67B4D",
"n 	c #5D432F",
"o 	c #5E4539",
"p 	c #705949",
"q 	c #2C2018",
"r 	c #705938",
"s 	c #B2966B",
"t 	c #D1B077",
"u 	c #CAA671",
"v 	c #A68055",
"w 	c #AF855A",
"x 	c #B98D61",
"y 	c #C8A273",
"z 	c #DFCAAD",
"A 	c #A57F5C",
"B 	c #C19B6C",
"C 	c #8D6C49",
"D 	c #573E2D",
"E 	c #81614B",
"F 	c #BC9870",
"G 	c #B08F68",
"H 	c #8D7454",
"I 	c #604931",
"J 	c #4D3A28",
"K 	c #A7825B",
"L 	c #B5926C",
"M 	c #AD8358",
"N 	c #A47B4D",
"O 	c #A17A4F",
"P 	c #BB9261",
"Q 	c #CFAE7F",
"R 	c #DEC59F",
"S 	c #E4D2BC",
"T 	c #CBA77B",
"U 	c #C4A67E",
"V 	c #7D6049",
"W 	c #876444",
"X 	c #926E4A",
"Y 	c #94704A",
"Z 	c #9C7654",
"` 	c #957258",
" .	c #7C5E42",
"..	c #755841",
"+.	c #987357",
"@.	c #806144",
"#.	c #956F49",
"$.	c #B99265",
"%.	c #D8BB83",
"&.	c #E1C893",
"*.	c #C8A77B",
"=.	c #B28E64",
"-.	c #B0885F",
";.	c #B8936D",
">.	c #C6A77E",
",.	c #A9805D",
"'.	c #7C5D43",
").	c #5A442F",
"!.	c #594130",
"~.	c #5F483C",
"{.	c #33251D",
"].	c #AC8662",
"^.	c #98765B",
"/.	c #846344",
"(.	c #A27A51",
"_.	c #CAAA7E",
":.	c #C7A16F",
"<.	c #9D754B",
"[.	c #8C6846",
"}.	c #816043",
"|.	c #946F50",
"1.	c #937157",
"2.	c #694E40",
"3.	c #523A29",
"4.	c #553D2D",
"5.	c #6A5144",
"6.	c #402E23",
"7.	c #D7BC8A",
"8.	c #C09A6E",
"9.	c #A1784E",
"0.	c #BE9762",
"a.	c #E0CB9F",
"b.	c #CCAB7D",
"c.	c #9C754F",
"d.	c #8C6844",
"e.	c #836141",
"f.	c #8E6B4F",
"g.	c #A98566",
"h.	c #8A6B53",
"i.	c #6F523A",
"j.	c #654B38",
"k.	c #765C50",
"l.	c #4F3A2C",
"m.	c #A38A5B",
"n.	c #D1AE7A",
"o.	c #A37A4E",
"p.	c #9A724B",
"q.	c #9D7855",
"r.	c #9E785D",
"s.	c #BA946C",
"t.	c #9B7554",
"u.	c #89674A",
"v.	c #876549",
"w.	c #916E57",
"x.	c #7B5F4F",
"y.	c #6F5547",
"z.	c #6C503D",
"A.	c #644933",
"B.	c #6E5441",
"C.	c #695246",
"D.	c #31251B",
"E.	c #514128",
"F.	c #B19066",
"G.	c #826447",
"H.	c #694D38",
"I.	c #5C4331",
"J.	c #6A4E37",
"K.	c #A07D5C",
"L.	c #BD9B73",
"M.	c #9C775D",
"N.	c #AA8867",
"O.	c #806251",
"P.	c #98755B",
"Q.	c #654C3F",
"R.	c #513828",
"S.	c #4E3626",
"T.	c #513A2A",
"U.	c #5E4534",
"V.	c #6D5446",
"W.	c #4E3A2C",
"X.	c #322219",
"Y.	c #413025",
"Z.	c #5A4437",
"`.	c #684F40",
" +	c #8D6D4E",
".+	c #95724C",
"++	c #AC8460",
"@+	c #7C5F4A",
"#+	c #7E5F49",
"$+	c #A68263",
"%+	c #654C40",
"&+	c #705645",
"*+	c #684E3E",
"=+	c #4F3625",
"-+	c #574030",
";+	c #694F42",
">+	c #644B3E",
",+	c #533E33",
"'+	c #463325",
")+	c #7A6046",
"!+	c #CDAB7D",
"~+	c #9F784F",
"{+	c #73543B",
"]+	c #543B29",
"^+	c #78593E",
"/+	c #86654E",
"(+	c #523B2C",
"_+	c #543B2A",
":+	c #5B4233",
"<+	c #4F3726",
"[+	c #5C4336",
"}+	c #644F44",
"|+	c #614935",
"1+	c #D5B685",
"2+	c #8A6A4A",
"3+	c #503829",
"4+	c #614838",
"5+	c #7E5F46",
"6+	c #72533B",
"7+	c #4B3627",
"8+	c #553D2E",
"9+	c #523B2B",
"0+	c #5D4437",
"a+	c #6D5348",
"b+	c #463626",
"c+	c #C2A47C",
"d+	c #735847",
"e+	c #61493B",
"f+	c #7F614F",
"g+	c #916D54",
"h+	c #6D4F38",
"i+	c #553E2E",
"j+	c #6C5346",
"k+	c #654E41",
"l+	c #62493C",
"m+	c #644B3D",
"n+	c #5C4334",
"o+	c #1F1611",
"p+	c #745B48",
"q+	c #42332A",
"r+	c #443329",
"s+	c #937055",
"t+	c #83634E",
"u+	c #664D40",
"v+	c #544033",
"w+	c #372921",
"x+	c #47352B",
"y+	c #453224",
"z+	c #483627",
"A+	c #84654F",
"B+	c #5B4436",
"C+	c #3D2D24",
"                  .                     ",
"                + @ #                   ",
"      $ % &   * = - ; >   , ' )         ",
"      ! ~ { ] ^ / ( _ : < [ } |         ",
"      1 2 3 4 5 6 7 8 9 0 a b c         ",
"      d e f g h i j k l m n o p         ",
"q r s t u v w x y z A B C D E F G H I   ",
"J K L M N O P Q R S T U V W X Y Z `  .  ",
"  ..+.@.#.$.%.&.*.=.-.;.>.,.'.).!.~.{.  ",
"    ].^./.(._.:.<.[.}.|.1.2.3.4.5.6.    ",
"    7.8.9.0.a.b.c.d.e.f.g.h.i.j.k.l.    ",
"  m.n.o.p.q.r.s.t.u.v.w.x.y.z.A.B.C.D.  ",
"E.F.G.H.I.J.K.L.M.N.O.P.Q.R.S.T.U.V.W.  ",
"X.Y.Z.`. +.+++@+#+$+%+&+*+=+-+;+>+,+'+  ",
"      )+!+~+{+]+^+/+(+_+:+<+[+}+        ",
"      |+1+2+3+4+5+6+7+8+(+9+0+a+        ",
"      b+c+d+e+f+g+h+i+j+k+l+m+n+        ",
"      o+p+q+  r+s+t+u+v+  w+x+y+        ",
"                z+A+B+                  ",
"                  C+                    "};
