/* XPM */
static char * metal_barleft_xpm[] = {
"6 23 13 1",
" 	c None",
".	c #ECECEC",
"+	c #E8E8E8",
"@	c #AFAFAF",
"#	c #A9A9A9",
"$	c #A2A2A2",
"%	c #9B9B9B",
"&	c #8E8E8E",
"*	c #000000",
"=	c #939393",
"-	c #878787",
";	c #808080",
">	c #787878",
"......",
"+.....",
"+@#$%&",
"+@#$%&",
"+@#$%*",
"+#$$%*",
"+#$%=*",
"+#$%=*",
"+#$%=*",
"+$%==*",
"+$%=&*",
"+$%=&*",
"+%=&-*",
"+%=&-*",
"+%=&-*",
"+%=&-*",
"+=&-;*",
"+=&-;*",
"+=&-;*",
"+=&-;+",
"+&-;>-",
"+&-;>-",
"+*****"};
