/* XPM */
static char * menu_minimalist_dk_xpm[] = {
"15 15 21 1",
" 	c None",
".	c #D2D2D2",
"+	c #C5BEB8",
"@	c #C2BBB2",
"#	c #C0B7AD",
"$	c #BDB3A8",
"%	c #BBAFA2",
"&	c #B8AB9D",
"*	c #B6A798",
"=	c #B4A393",
"-	c #B1A08E",
";	c #AF9C88",
">	c #AC9883",
",	c #AA947E",
"'	c #A79078",
")	c #000000",
"!	c #C8C3BD",
"~	c #C5BFB8",
"{	c #C2BBB3",
"]	c #BDB4A8",
"^	c #BBAFA3",
"...............",
".+@#$%&*=-;>,')",
")))))))))))))))",
"  ........     ",
"  .!~{#]^&     ",
"  .+@#$%&*     ",
"  .+@#$%&*     ",
"  ))))))))     ",
"               ",
"               ",
"               ",
"               ",
"               ",
"               ",
"               "};
