/* XPM */
static char * close_minimalist_dk_xpm[] = {
"16 18 22 1",
" 	c None",
".	c #D2D2D2",
"+	c #D1D0CD",
"@	c #AE9A85",
"#	c #000000",
"$	c #CDCBC6",
"%	c #CAC5BE",
"&	c #A89178",
"*	c #C6C0B7",
"=	c #A78F76",
"-	c #BFB5A9",
";	c #BCAFA1",
">	c #B8AA9A",
",	c #B5A593",
"'	c #A38A6E",
")	c #9C7F60",
"!	c #997A59",
"~	c #957452",
"{	c #926E4A",
"]	c #8B643C",
"^	c #875F35",
"/	c #84592D",
"                ",
"                ",
"  .          .  ",
" .+.        .@@ ",
" #$%.      .@&##",
" ##%*.    .@=## ",
"  ##--.  .@=##  ",
"   ##;>..@=##   ",
"    ##,,@=##    ",
"     #.@=##     ",
"     .@=').     ",
"    .@=#')!.    ",
"   .@=###)~~.   ",
"  .@=##  #~{].  ",
" .@=##    #{]^.#",
" #&##      #]/^#",
"  ##        #/# ",
"                "};
