/* XPM */
static char * min_minimalist_xpm[] = {
"15 15 8 1",
" 	c None",
".	c #F3EDE6",
"+	c #000000",
"@	c #D2B9A0",
"#	c #CEB499",
"$	c #CBAF93",
"%	c #C8AA8C",
"&	c #C4A585",
"               ",
"               ",
"               ",
"               ",
"               ",
"               ",
"               ",
"               ",
"               ",
"               ",
"....+          ",
".@#$+          ",
".#$%+          ",
".$%&+          ",
"+++++          "};
