/* XPM */
static char * menu_minimalist_xpm[] = {
"15 15 28 1",
" 	c None",
".	c #FFFFFF",
"+	c #EFE7DF",
"@	c #ECE3D8",
"#	c #E9DED2",
"$	c #E6D9CC",
"%	c #E3D5C5",
"&	c #E0D0BF",
"*	c #DDCBB8",
"=	c #DAC6B2",
"-	c #D7C2AC",
";	c #D4BDA5",
">	c #D1B89F",
",	c #CEB499",
"'	c #CBAF92",
")	c #000000",
"!	c #E2D4C5",
"~	c #DFD1C0",
"{	c #DBCBBA",
"]	c #D9C7B4",
"^	c #D7C3AE",
"/	c #D4BEA9",
"(	c #D1B9A2",
"_	c #DFCFC0",
":	c #DCCCB9",
"<	c #D7C2AE",
"[	c #D4BFA9",
"}	c #CFB59C",
"...............",
".+@#$%&*=-;>,')",
")))))))))))))))",
"  ........     ",
"  .!~{]^/(     ",
"  ._:]<[(}     ",
"  ._:]<[(}     ",
"  ))))))))     ",
"               ",
"               ",
"               ",
"               ",
"               ",
"               ",
"               "};
