/* XPM */
static char * max_minimalist_dk_xpm[] = {
"15 15 29 1",
" 	c None",
".	c #D2D2D2",
"+	c #C8C3BD",
"@	c #C5BEB8",
"#	c #C2BAB2",
"$	c #C0B6AC",
"%	c #BDB2A6",
"&	c #BAAEA1",
"*	c #B8AA9B",
"=	c #B4A695",
"-	c #B2A18F",
";	c #AF9C8A",
">	c #AD9884",
",	c #AA947E",
"'	c #A79079",
")	c #000000",
"!	c #A58C73",
"~	c #CEC2B1",
"{	c #A1886E",
"]	c #9F8468",
"^	c #9C8062",
"/	c #9A7B5C",
"(	c #977756",
"_	c #947251",
":	c #926E4B",
"<	c #8E6A45",
"[	c #8C663F",
"}	c #8A623A",
"|	c #875E35",
"...............",
".+@#$%&*=-;>,')",
")))))))))))))!)",
"            ~{)",
"            ~])",
"            ~^)",
"            ~/)",
"            ~()",
"            ~_)",
"            ~:)",
"            ~<)",
"            ~[)",
"            ~})",
"            ~|)",
"            )))"};
