/* XPM */
static char * Pearl_darker_xpm[] = {
"128 128 71 1",
" 	c None",
".	c #9D9592",
"+	c #9B989B",
"@	c #A59699",
"#	c #9A9D9A",
"$	c #A49A97",
"%	c #A39AA3",
"&	c #A4A097",
"*	c #A6978F",
"=	c #A6928F",
"-	c #B08E8B",
";	c #A88F87",
">	c #A89487",
",	c #9D9093",
"'	c #A88987",
")	c #9E8B93",
"!	c #9F8B88",
"~	c #968E8B",
"{	c #96898C",
"]	c #959295",
"^	c #939693",
"/	c #92959D",
"(	c #A29FA2",
"_	c #A1A4A1",
":	c #ABA19E",
"<	c #AAA1AA",
"[	c #9D9A92",
"}	c #9C949D",
"|	c #979BA4",
"1	c #AB9C9F",
"2	c #AE9895",
"3	c #AE9E95",
"4	c #A6919A",
"5	c #A78C90",
"6	c #96938B",
"7	c #97A1A4",
"8	c #AF8E97",
"9	c #B0948B",
"0	c #9F9088",
"a	c #AE9396",
"b	c #958E95",
"c	c #9EA1AB",
"d	c #ABA79E",
"e	c #A8A5A8",
"f	c #B3A2A6",
"g	c #B2A8A5",
"h	c #B5A49A",
"i	c #B2AFA5",
"j	c #A7AAA7",
"k	c #AFACAF",
"l	c #AEB1AE",
"m	c #B1A6B1",
"n	c #A596A5",
"o	c #AD98A1",
"p	c #B9AEAA",
"q	c #B59D9A",
"r	c #99A299",
"s	c #9996A5",
"t	c #B49DA7",
"u	c #AE93A2",
"v	c #B5989B",
"w	c #929A9D",
"x	c #929B92",
"y	c #A69D8F",
"z	c #9D909D",
"A	c #A88992",
"B	c #97A6A3",
"C	c #9F9688",
"D	c #A0878A",
"E	c #A98488",
"F	c #988A83",
".+++++@++++#+++....++$$%&%%%%%$$@$$$%$$$@@@*=======-====;>;;,')!!~~~~{~{~~],^,..^.^..^.^,^]^]^/.+#((_:<:::_:_((##+[}[++[+.^.^,^,",
".+[+#+@+@+@#+++.}}.}+|&(((1((1%12%2%3%(%$@@@4======*=-->==;5;,!)!)~~{~{~~~66,..^.],]].].]}]}/].++%&((::<:<:_((7$#+++++#++++[}...",
"+++#@++@++#++#+}[}.+@#%&(((1(1(1(3(&((($%#++===5==8=9=-=5>505;)0!~!~~{~{~!],..,^.]^^,^,^].^^]}/++$((_:<:<_:__($|#+#$$$$$$$+[+[}+",
"$#@#+#%#+$+$#@[+}.++##&((11_1:(1111:(1(((|$@}}====*=a-*--55;555,,,)b~~{~~~00,...]^,^]^]^,/]}^/[+|$(_:_c:_:_((((#$$$&(1(:((&$$@#@",
"$#$#$#+$#@#+++++++}@+$(((:1:::<::<:::c_c(7%+@==5==-9*a9====5555,,0,b,b!~!,],.,^.].]^,^,^].]}^}}+$(&(_::c:c:(($#%((_:::d:d:::(($$",
"($(#%#$#$#+$$#@[+[++#%$((1(:<::eeed<e:<((7%+}4}===4=a9a9-=;5=.==5,,,,,,,,,0,..,.^]^]^]^,^]./.++$#$(:(__(_((((%$(&_:eeffgfgfe<_<(",
"((&#$##$+@$[@#@#@+$+$$%((11::<d<he<d<:c_(%%+@.5====*@@@*4==5=5=5}}}}+.}.,......^]^^.^,^]^]^.}+++%(&(((&(((((&#%((::ffggggiggje<d",
"_((((%#@#$+$#$##+#+$+$$%$(1:<hefefefe:<1(%%@}44=5==49@a@a=====4@4@4@@@@@@4*4.}..].]]].].]..^.++#$#$&$&%$%&%#%#%&__edgggkklkkmgje",
"(((&|&%#$@$$@#@#$#$$@%n$o(1::efeggefd<:1(%@@@=.===4=@@@@4=8=@@@@@+@@n@@+@+@+[+.^^]^.^.]^,^..+++##$$#$$##|#|$#%$((::fegiklplpkkgm",
"__((((#%#%#$#$$#$#$#$@$n%(1<<efjfegfeq:11o%@}4=5=5=@@n@@a@a@a22$$$n@n$%$$$$@@[}./,^]]^,.].^.[+#+##$+$++@+@++$#%&(::dggikplpklkkk",
"_(_((r((%$%$$$#$$|$$@@@%$1(<deefggefh<:11%@@@4,====+@s@n@aaa2o$o%%$%$%$%$$@#@+}}./^]^.].6..++[++#+#+[*+[++#++$#%&1:<fgkklkplpkik",
"<<_(((((7(7(((&7&($%@$@@%o_:<efeefff<qt111o@4====.4@+$%u@u23o313$o$%@%@$%$$$@+[+}^}^.^].,^./[+++++@[++.[.++#@#$$&(::egikkpkkkkkk",
"e:<_((7((&(&(((&(&($$@@$%(1_:eefefeff:t:11%@@4====*@n%@$uooov3o2o$$$$$$$%$$@#@+}+}^/.^..^..}.+++++++.[.}[}[+#$@$%&1:djmgkkkkpgpg",
"f<:<___(_(_(_(_1_(&$@@@@$(_::<:efefdt<q1:1ooa@4===@@@$%n2o312vo32222@$@$@$$$@@+++w+}^}].]./.w++++++.+.^..[+@+$#$$&(:efjmmmgmgmgm",
"fee:<______:_::_:(($$*@$&(1_::eedf:t:q:t11o$@@=44@@@$@$ooo11v2222$$$$@$n$%@@++*++++x+^}^.^./[+[++}/^^^.....+*#@$(3(::efjmmgmgggg",
"jff<<<:<_:_:e:::::1$$@@$&(_::<dq<d::q:q:v1oo$a@@=@@@@@%@$3123222222$2@@@+@+$+@+@#++++w.^]^^.^.+}x}^}^.^].}.[@$$$&(1::<efegmggmgg",
"ggee:<_c:deede<_:_(&$$$$((:_:d:e:q:q:qq::12o2@@@@@@@@@a@oo21oo3o2222@@*@+$+@++@#[+#++^/^^]^..}..}^^]^].]...*@$$11::::fe<fjgmgggg",
"mggeee<d<dedeed<<1((%$%$((:_::e:d<q:q:qqv112%o$a@@@*@@@a@$1o312o2o22@@+*+@+++@++@+++[w.^^^^^.^.^.^}^,^^....[$$&&_1::d::fefefgggg",
"kgjgee_eeeeeeeee:(((#|$7(((::<dqeqdqqqv1v3oo$@$@@@4*4=@@@a$%o(2131$2@*4[++$++[+*++[}^}^^^]^.^..}^.]]/..^..@@@&31:::::tdtefgggggg",
"mmmjeeed<deeeged<_((%7%$%&((_:::eh:q:qqqv13o2on@@@=4===4@@u$$o%(o$2$@@@@@@#@#$++[}.}.^^^^]^]^.+^.///..}.}*+$$&(&:::::q<h:heffgmg",
"mijfedeeeeejjeee:((%|$|%$%(111:d::fqq3v3v31o%$%a@4===4=44@@@%$%$$$$@*@@+$#$#+++.4...^.^]^^^^./.}}}.}++[++@$$&(3_3::::dq:thtffggp",
"mmfjeedeeejeegee<1(7%|$$%$$$&(::d::::qvv3v13oon@@4=4==54=4}@+n+@$@@*@@@@$$$$#@+..}.}.].^.].^^..w++++++#@$#$(&&_31:::d<qdq<hhfggg",
"mgjfedeeeeegjehd:((%$@#@@$@$%2(1::q:vv3v32112%@@4===554}}4.}+++++*[@*+@$#$|$++.}..,].].].^^]/^}+}+#$$$$#$&(((3(3(:::h:h:qhtffggm",
"gmfefedeejejfje<:1%$%+@@@*@a$$&3113v3v3v1v311oa@4==545}5,..}.}.}.}=..**+$$$##+}..,.,..^,^,^.^.^[+#$%7$&%&((:_1&13::d<dt:q:hhffgg",
"gjgeeeeejeeeded::(($@@@[*4*@@@2$31313v33v3v122@@====5,5,},,,]]/.....=}@[$#$#@+.},.].^,.].].^^.}++$%&(((&(&(1&1:11:::d::hqqqhfheg",
"jmefefedefdeehe::1&%$+@@====*@$2$223133v31v2o2a4=4=5=,,,,,0]],]]],,,,.=+@#$++[}..,.,^,^,.^.^.^.+$#%(((((((_3_(1(::<:<q:1::q:hehd",
"fjfeefeeedeede:<:_%$$@}*4*@@@@$$2o2121212v222a@@==5,,,,!!!b!]],,,],.,.=+@+$++.}..,.,.,^,.,^.^}[++$(r%((_(&(((:_::1:::::v:v:qdhef",
"efjegjeeee<e:e<d::(%$@@@@@=@*@@@$2$3o3o22222o2@84==55)!!)!!)~,]],,,,,=.*y@#@[+...,.,^,..}.}.}[[+$#%%((((((&_(&_1_:<:11113:qdtheh",
"eeefegded<d<fd<d:_(&%$@@@@@@@$$$2%3%3o2222222aa@=4=,00)!!!)~,b,,,.,,=}4@+$[@[............+[+[+@#$%#(%(((((((__1_1(11131v3v:qdfhe",
"<eejfeeeee<d<e:e_:((($%$$$$$$$@$$%&1$%$o2222aa@*4=55,5!'!)!)],,/,z.5.=*$@$@+[}...,....}++++[+@#+$#%#(%%(((&_((_((1(121221q:qehef",
"efdeeded:d<ed<d:<_:(&(((((($%%$$%&%&(3$$@2a2@$a==4=.5,0)A!5,,].z..}=4*4@$+*+==.=....[[++#$#$$#$$#$%($|(&((_(__((((2(22213:qfhegg",
":eeeeede<d:d:e::_:_(_(:&(1(($(%%$%&(((%$2$@2@a*@==45=55;,5,,,}^}}@.4[@*@*$@@@.=.5.=.*@#$$$&$#$@#$$#$|(%%(((_(1((%$%$&o311qqehfhf",
"efdjed<:::e:::::_:_:_:_:((1((((&((1&(&$$@$a@a@=4=4=4=.45,5,,.}}++[@=@@@@$@y@=4.4.=}@+@$%r((&$$#$#$7$|&|((((((((%2%$o$131v:hfggjg",
"djgeeedd:::d:::::_<c(::_:1((1(((%&((($%$a@$a@@*==4=@4@=4==5.}.+}+@@@***@*@*4*4*=}=@@@$&(_(((&%$@$#$$#&%$|((_(((%%%$%3o1:qqhghggf",
"gjjjded<:::::::_:c(:<_<1:(:(((((((%($($@@@@@*4==@*@@@@@@44.4}}+++@*4=@*@*@*@=@=@=@@@$((:_:(1($$#$$#r%#%(%|(((((%$o$(1(1q:hffgggg",
"eejfjde::::::::<(:c<_<::::1:(1_(((((%%$%@@@@@*4==4a2@@@4*@4@.+}+@}*@=.=[*=*=4=*.@[$$&(::d::1($|$@#$#$&#%#((7_(((((1%111:qqhfffgf",
"gjfjfefd:::_::_::_1c1<::1:<_:___((7%%%%@@$@a=4-=aa$2o$%@@@@@@++4+=4===+==4==*=4**@$$1::ed<d:(%$##@#$|$(#%$|((_(&1(3(1111:hfhgfff",
"eegejgede::1:1::(:c_<_<:<:::(c(__B(7(%%n%n@@@@*a*a22o$an@@@@+@+@+@==.=.=.==4====*@$&::heffq1:((|$+$#$#$#$|((((_(_1(1(11::qqhfhfh",
"eeeffehe::::1_1_(_:<_<<:<:c:___cB(B((%%%@%a@@a@aaa222o@$%@$@$+@+@=@.=,,=.========@21:eefheh::(&%##$#%$7$%$(((__:_(:(1(1:q:qtqhtq",
"<teedf:e:<::111&1(_c:c:<c:<_<__(B_B(7%%%%%@n$@@a@222a2oa$n$%@%+@@@===.5.5.5=5===*221:dfefff<<:_&7$+$#$$(&%(((_((:__1_3:3::q:qqqq",
"<d:fdf:f:::11&1&((:(<:c<<<_<__c_B7(7(((%%n%a$a2222a22$a$%$@s@+@@@+=}=..5=5=;==5=-a2:<fehf:f::__(r#%#$%#%&((((((_1(1((1&1:3:v:::v",
":t::::::::11(1$%&&(:_c<dc<e:<__7(c77((%%n%@na$a2a222a2u$$@%@@n4+@@@@=45.,=,=5>==a$21:tdfeq<qe<_(7&#$#$%&((((_(((1((3(3(313133333",
":3:1:::::::11$$$%&((::c<eec<_c_(777(|%%%%o@%@a2222a2@2@$n$@n}4@44*@=@.=,5,=5>5==-a21q:<q:qeq:d__&|$#%$%$((&_&(3(3(1(&(&2&%3$3&3&",
"1313111::11&o$o$$(1(__dcd<e_<(c((7||%|%%%$n$a$a$ao2u2a@a$@@@4}44+=@====5=5;=5=5==a2ov:q::q::<:_((&|$##&%(&(&(((2%&o&o&$$$2$$$$$$",
"&$&$1&1&1_3($$$%&((_:_::e:<c:__(|||||%%%@%$2%2%o2%a2@a$@@@@444z==4==4=5,5,=5==5=-@a21v1:v:q:::(_(%#$|$%&$(&(&$$%2o&o$$$$$$$*$*y*",
"2$2$&2&&&o&o$o$%&((_(:_c:cd_<c((7||s|s%n$@%@$u$u$u@aa@aa@@@}4,=z.=.====5>55>5=5==9-v22v113111::(($n#$$$($($%&%(2&2%3($$$@@[@****",
"$$$$@$$$2&%2&$$&%((:__:_:_<:_(((|||ssn@@@@$2%$o%@a@a*a*@@4===}5.5.5=,5555;=5==5=-=89a2231v31:1((($|$#%&$($$(2&2$%23%2$$+@[+.*+*@",
"@@@@$$@$$2$$%&%&(&(((___<_:(<(((||s|s@+n@@@@$%%2%@@4-=8=@=44,=,.5.5.5=55>5;=5>5===-9a2o232333::((%$+$#$($($%&%&2&o&1$%@@[@..*.=@",
"@2$$@@@@$$$$$o((2((&(1(__:_:(1((||#+@+@@@@@%n%%@@@=9==@=8====,=,.5=,=5,;55=5=5=>5-=-8a2222o311:_&$|$$%&$$%$$$$$2$3%&%$@+[}.*}@*@",
"@$@@$@$*@@$$%&%&%&%$(&(((_1_1((%|n+@+4444@@@n$n@@4=5====4=45==,=5.=5.55=5>5==5=5=5-=9=9@$22o3_3((%$+##$7&%$%$$$2$$1$%$@@@*++*+@@",
"$$$$@$+@#$$$%%(%$%$$%$(3((_1(((%$|++=4==44@n%n@@44===5===5==.5=.5.5=5=555=5>5->5>5>5=4*a@2$111:(&$|@|$7%r%$$$$@y$$$%$%$+@@@@@@$$",
"$n$@$@$#@#$$$2&%$$%@$$$((&((11(%$@4+4..4.4@+@+n@44=45==5=4==5===,==,=5,=5=5=-5==========@@2o&1(3(%$#%#%r%#$$$@*@*@$$%$$%$$$@$@$%",
"$%$@$+$[#$#$%($%$%@$@$%$&%3%&($%@@[==.=.}}+@s@4}4==5==5=5=5=4=.==.5=5=5=5=5-5-5-5====4=8*a@2(1_1($%$%r(#&%$@@@*@**+@@$%o%%%%%%$%",
"%@$$+$+#@#$$$&%&%$$#@$$$$$$$&2%$@@4=}=},=}4}+4}4445=5===5=4===4.=,======5====-=====4====4a$2(13(3((&%r%r%#$@@@*=4**+@$2%312%$$%$",
"$#%+$+$+#$#%&%&$#$|@#$+$$$$%$$$@@4=.=,.z.}}}4}}4.}=4=5=4===4=4==4=4=4=5===5-==-5==4*44a@9@2%3(1(((&%(%$|$$$@@===..=+*$%3o($%$%$%",
"#$+$+$+$+#$$(&%&%#$#$#$$#$$$$$$@@==5=4,=z,=}}}4}z555=5=55=4*4*4====4====5===-4===@=4@=@a@a$21&:::1(($(#%#$+@[@==5=,=@a$2%2o@$a$$",
"+++++#+#@#$$%&($#$#@#+#+$@#@@@@*==4==,4,=z},4..,=4}=5=5=54======4=48=a-=-=4a4*4===4@@a@a$22%3(1_(((&%|$$|$#@=.5..,=.=*@$2$@@n@@@",
"[[+*+++#+$#$&($(%$$#$#$##$#$@@@=4==54==45}5=z,4,4,=5.5=5=5===4===4=@-4=-=*8*a@94==@*@@2@22$o&:(::(((%$%#$+@+=.5050,=.@*@@@@@@@@@",
"+[+[+#$+$#@$%%7&#|$@#@#+#+@+@[===4=4=55}5=z.5.,4.54,55,5=5=5====-=8-49-=--@a@@4=-4*8@2$2$@2%(1(_((($%#$#@#@.=.,0,>,,===*@*@@+@+@",
".^.}[++#+#$#&7$%%@$#$@#@#@#[@.+=}===444=445=z=5.5=,55,5,55=5=55=5-==-=-=-=a*aaa8@=*@a$$o$o$$%&(1(&(|$$+$+@+=.5,!,05,.,..=.4}}}++",
"^.^[}[+@#$|#%&|$|$|@+$++++[@..=.==4==4=54=545=,==,50,;05;=5=5=5===-====-=-=aa*a*8*a@$$o$$$%$%((&(($$#%$+@[=..,!0!,0,,,,5.}.}.}.+",
"^^^.[++++#$#7$|$%$@$+@[@[.[....=.=.=}=4454=.==45}==,;,!50555=5=5-=555-5-==-@*a@a@a@$a$n$%%$%$$($(&|$#$#*@=4,,0,!)0),0,0,,,..}./.",
"^^.^}}+@#|##$|$%+%#@@+...=......4.=4==}===5=4=54=,5,;)',;5==5=5>5;=>==55=-4=a@9@*a@@%n$nn@%@%#$%$#$$#$@+*..,5,!),),!,!,,,.z,^.^/",
"]^]..++#@#$|#$+%$$n+@}=.,.0,0,,,5.=*.@=45====44=5==,5!5!,5,5=5=;=;=;5=5====8*@@a@@@@@nn@%@#@#@#$#$#$#@+*+==,,,,),!,)0,,,],^]^]^]",
"^^^}.+@@|$|$#|$$@%@+@..,000,C0=.5.=}=@=@=======@=.=50,',5055=5>5;;>5>====4=@*4@@4@a@n@n@+@+@+++@#$$#$+y+=.,.,,,0,),,,,6,],],]]]6",
"].^^}+s$%$%#%@$s$@@+4},,0)000,0;,5.=@.@=@=*=*4*=4===5,5),5.5,=;5;;5>5====4@4@4*=@4@@@n@}}}+[++[+*+@@#@+}..,.,,,,,,,,],],]]]]6]6]",
"^^^++$$(%(($%#n$@@@@..5,,!,0,0,.;===[4*4*=@*=*=*==.,5,;,;,,=.55;5;5;=>==44944=44=@4@@}}}4...}.[}@[@[@[+[...,,.,,,,,,],]6]6]~]~~~",
"]/^++#%((&%(%%$@@@*+4.,,,0,,0,;,5.==4*4*@@*@*4*=*.==,=05,5.,5505'A;555==*44@44==4=4+4}4.,.,.....+*+@++[4..5.,,.,...^.],]bb~b~~]~",
"^^++#((%&((%$%@n@@@=.4.,05,5,0,;.5==*4*@@*@**=*4*4=.=,5=C5.5,,A'!'A05.=4=4=44=4=.4.}.z,,,,,,,.}.+[+*+=}..,.,.,,.,,},]]]6]~~6~b~~",
"^^+##(&((($($%@@@@.+=.=,=,.5,5,5,=.====4*a@@*@=@**@===C=5.5.,50A'!A05,5===4.44=}=..=,,,),),,,].[}[@++}.},.,,,5,5.,...,,]]~]b~b~b",
"+++#%7(&%&$$$$@@@4*+=.==.=5.5.5,=55===4*@@*@=@*@*@*@======5.5,)'!D'!);,=,4.4}=}5.5,,,,!))))],,,.[+.+=}.}.5.,.,=,.z.z].]6,]6~]6]]",
"++##$%$(&2$$$@$@@@}*.@.4====5=5.;.5.5===**@@@@@*a@@@@@=45.45,5,'!ED!',,5,=}=}4}4},,)!!)!!)!),,,..+=+.}.z.},.5,,,,,,..]..]6]]]]b]",
"#+#@|&%$$$$@@$@@+*}*}*4@4=====0=5=5=5==4=@@*@@@a$2$2*@@444=5=5'!ED'D!;5,=..+4@.4,,,!!!DD!Db)),,.,..}.4.4}.,.,.5.,..,.,^,^^]]],^,",
"@$@#$#$#$@+@@+@+4@+=}=+@@@==5===5=,=,4===*@@@@$2@22$2$@@@444=5;'''D'!A0==4=+@}44,5!A!E!DD!!!),,,...=}=+}=}4.,.,,,,,,^.../,^.^}.}",
"$@$@s$#@#[*.+@+@+==}*@@@@@4===5===454=,=4=@@$2$22222$2$@@@44==50'!E''A5=.*@@@@+=.5,'!E!D!!!)!),,......4=}4,.,,,,,,^..^.}.}}.++++",
"$$#$@#@[+.[}.[++@+*==44@@@@@=====545}5=4==@@$2$2@2$22$o%2na@4==5;;'!'5=4=@@+@4@4=,;!''''!'!',,,,,5..4.@}4.},.,,0,,,].}.+++++@+@%",
"$$$$++++[+..++[@[4=.=*@@@@*=4==5=45}54.5=4@@$2$22222(2%2%2aa@a===;5;55=4@*@@@@*4=5;;'!'!'!;,5,,...5..@}}=}.=,0,,6],..}++#$#$#%%$",
"%($$#@[+[+.+[[@+}*====4*@@@4====5=4=4,=4=4*@2$22$2$3212o2%222@aa9=-===4*@@*@*@@*.==0;;'';;55,=5}=4.@.}*+}}.,,,00,].^.+[$$$$$%$%(",
"(&($#$+@+[+++@#@*@======4=====4=4=.5}5=.=@@@$2$2$222(2(2o22222@a@9====@@@@@@@@*4*=;=;;;;5;====4=4.44+[}}.}..0]0b,],.+[+$#%$(((((",
"_(((%#$#+#+$+#$#@*==>====*=4=4==4=44.4.==**a$2$2$2&2o3o2$o2o222$aa@9*=*==4=4*@@*==>=;=5=5=4=44[4@4@*}4++}}.]0,]0,].^.+@+@$%$(&((",
":1_&$($$$#$##%$@$*==>====4===4=@4@*}=..4=@@2$2$1$12o3$o222222aaa@9@94*4=@=@4@@*@*==>=5===4=4@*4@@@@@@[+.+...,],,].^}.+++$#$&$(&_",
":_:1((((&((|(%&$$@*==>==9==4=44*@@}@.}=.*$*$2&3(&1&o2o22$a2a2@2@2aa*9=======*4*====5>==4=4@@@@@@@@@@+@@[}.}^,,],.]..x}[++@#%&(&(",
"::::_1_&((&(((($$@*====444@=@*@@+@*+*+.@}*$$$o(1&1$2%a$aaa@aa9a9a*9*=====4=4===@========4@a$$$@@@$$$@+}}...,.,].].]..^+++#$#$(&(",
":::::::_1((_(_((&@*@==@*@*@@4@@@@@+@[+*[@@@$$$&(1(3%22aa@a9@9@9@9a98-===5=55=4========-@aa%2$2$$@@@$@@@[}}^,.].,.,^.^.}[++#+$$%&",
":<:::<::::_:__&($$@@4@@a@@@@@@@@@[@*+*++*$@$%((&(2%22@a@99@94989-99====5=5=4==4====@aaaa2$222$@2@$%$#@+@.}...,^,^,..^.[+[#+@+$$(",
"::::<::<:::1:(:(1%@@@@@@@@@@@@$@@@$$++*+@+$$$&$($($2n229a=-=8--9-a-9-===5=5==4=4=@9@9a@2ao2122$2$$%$%$$+@+}}^.....^..[}[+[++@+$$",
":_::d<:<:1:111(1%$o@@$@$@@@$@$$@@@#[$[++$#$#$$%$&$2%22a@9=-=9=9---9=-==5=5=544=@=@@a222222o2322%$%%$%#%#$+@[}...^.}./..+[}+.+$$%",
"1_:::::1:1111(1&(%$%n$@$@@@@$@$$#$$@#+$+$++@#$$$$$$$2$2*--=-=------9--==.=54=@44@@a$$22o2o3222$o2%(%(((&(#$+@}}.}}.}[^+.+[}@+@#$",
"(3(o(11111o1(1$%%$%$%$@@@@@@@$$@$$###*#+++#++$$$$$2$2@9*-==>==-=-9--=-==5=.=44*@9@y22222222%2232(1(((((_(&%$+$+$+[++++[}[}+[@#$$",
"$$$$2$a$o$o$a$%2$%n%@%%@@4*@@@$$$+$+y#+$+@++@++@@$@$@*a=-;-;-;-=---9-94==45=4*4@*@@a$2222$2$22$13(1_(___((($%$$#####+[++[}*++#$#",
"@$@*@=@@@@@a@@$@%@$%%$@$@+4*@@@$$#$#$+*+[++++#@$$@$@*@==55;;;5;-=-=8*a*@@=44=@4*@**@a2@2@a$a$21&1:(:_(_(_(((&%$$###+#++[}+[@+@#$",
"}*}=.=====@=@@@@@n$n@%%n@@*4**@@|@$+$#@+++}[+[+#@#@@*==5;-A;;;;5-=---4@@@@@*@@*@=4=a*@a@9@9$2$$31_1_(_(1((&(((&7$###++[++*}+#[$#",
"=.=}=}===.=.*@@@@$n%$%@$@.=*=@$@%$|$$#[@[}[+@++*+@[@.=55A''';;5;55=4@@9@@@@+@[4*====@-**@9@$2$1(&1(1(((&((($($$#&##+#++}.++@++#@",
"}[}..=..5.,...*+@@@$n$%$@@@*@@@$%%%$$$@++[@+[+[++[+...5,;);'''';;5-==4@@@@@@@@@}=4=======*@2$&&&(3(&(3(%($%&%#(##+#[+.}[}}}+++@#",
".}.+}.,.,,,..}}@+|$n$%@%@$*@@$%%(($&|#+++}[+[+[+.}.4.,.,5!'!''''5;5===@4@@@@@+==.=5======@*$$2($3(&$($%$%$($#$###++++[+4}[}++@+@",
"}[4}}.},,C,,..++++#+%@%@@@@@$$(((((($$#@[@+[+++...}.}..,,,,'!''!'00,=5==4*@+@+@}}5=55=====@$$$&%$$$$$%$$%$#%###@+++[+}=}.}.}[}+@",
".}}.}.,.,]6,]}}++++@+@@@@@@$$o(1_(&(&|$++++++[.}.}.}......05!!!!!!!!,55,=.@[@+..=,=5=5==4=@@$$$$$$$$$$$%$#$###++[+[+=+.}.}.}.4}4",
"4.}.}},,]0],,/}/+++@+@@@@@@$%&:(___(($|$#++[++}.}.}.}}+..=,,0'!!!!!!'),5==.4+}}}z.5..=,.==*@@$@$@$@@$@$$#$###+++}+4++=}=....}..}",
",,z,z,],])!],}/}}}++@4@@@@$$%1(_:_(_((&#$+@++++}}}.}+.+[[..;,!)!!{!D!!5,..}.}.}..5.,=,=.5.=4[@+@@@@$@$+$+#|+#+[+[++[4.=..,....}.",
".,.,,,,6)~,,,]z}/.}=}.44@@@$$$(_(__&_((|$##$[+++[}++[+[++[.,,,!!~!{!)!,,5,=..}.},},.,.,...=.4.4++[++++$+$#+#++++}+}+[4.=.,,,,.,.",
",,,,,]b,~,),,z.]},..5==}*@@@$$1&1(_(__&(r$#+@+@+++[+++++[...0,bb!~D~)0,,,,,,z,.,}.,}.,..,,.,.....}[[@[+#+#+++[}[}[+@..=,,,50,,,,",
"))))~)0),!),,,.z.,.,..=.4[@@@$$%&(((__((%%%$$##$#+#[+[+[+...,,]0b)b)!,),0,,,,,,z.,.,.,.,..,,5,,,.....+*++++[+[}.}+.}.=,,,!,0,000",
")0~!0b!])b,,,,z.,.,=,=..4.4[@@$$((&((_(&(#$|$@$#$$#$@++[}.^,^,]])6)],!,!)!)!,,,,,},..,..,.,,0)0,,,,,...+[+++.}..[.}*.,=0)0!!!0'0",
"!b)~!~!b,0),,.,},},,.,,..4.4[*@@$$%((((((((%$|$%$#$$#*++...^,^,]]]]],]0)!!')!)),,,,,.,.,.,,0!0)!0!6,,^..[}[..^..}.=,.50)'D!D!!!!",
"b!~!{!)6)b,,,z.z.,,.,.5.,...=}@$@%$(((_((&($($(#(&$+@@+[+.^.^,^],,,,0)!!!D!D!!!),,,,,,,,,000)!!!!)!!b,....^}^......505!'!!DD!D!!",
")bD~D!~),),,,.z.z},,,,.,=,.,..[+@$%$(&((((($(%r%$r$$$+@}[}...].,^],],,)!!'DDD!!!)!,,,,,,0,0!!D!D!D~!!6,,^..^,^,.,,;,;,'!DE!DDDD!",
"!)~){)D)b,,,,z4}}.},.5.,,,5,..=@+$$$%(&(&&%&|&|&7$$#$@+@+[.}...^.,.,00!!!D!D!DD!!)0,,,,0,!0!!DD{D{D~b!],,]],],,0,C5;0''!'DDE!D!D",
"~)D~!!b))),,}.}}}}.,.,,5,,,,,,.[@@@$$$&(&($$%#(|$%$$$+$[@[}..}.}...,,),!!!D!DD!!!!))))!)!!!!!DDD{D{{D~!b],]]]],0,0505A!''!'DDDD!",
"!)!)b)!),,,.}}++}}.=,5.,)),),..}++@$$$$$$$#$#%#$#$$#@+@++*}++++[}....,,0!!!!!!D'!0)!)!)!!~!FDFDFD{{~~b~b]b])b!)0,0505;A'!EDD'!!!",
")!b!!b)],,.}.@++++4..,,,,))],,..}*++@+@$%$#$#$|$%#$@#@+.+=+*@+@$@*+==.=.50;!!!'0!0)0)!)!!!!DFDFD{{D{{{b!bbbb)]!,,=,=55;;;'D'D!'0",
"!b!),,,,,..=++@#@}.=.5,)))!,],.}.}.+.@+++$++#+$@#@@#++@}=+@+$$$%$$@$@@=4=.;0;!0'05!)!)!!!!{DD{DFDFF~F~{bbbbb)),,.=====.50''!'!00",
"~)!b,],^,}.}@#@#++=},,,,0,b0,^,]..}=..[*++#@++@+@#@+@+}[}.@$$(1((1&o$2$@@==5C5;,;,,,,)!)!!!!DDD{FDFF{{~{b~b)b,.}*+@@@4==;;;''0;0",
",0,,,]}./.}++@#@+@...,,))),,]0],,,.,..+[++++#@++@+[#+[+}@+@$(1:::11:1112$$@*===,5,;,0;,!,!!!D~FDFF{~F~{bb)b,,}.@@$@$@@@==;0;0;C;",
")0)0,.}^+}[}@++@+[}.,,,0]!~!!~,~,],].^..[[+++#+++[@++++[+@$(&:::q:hth::1122@@4===.5,5,,;,0)!!DDDFDFD{!{!b)],}++#|%$%$%@@@*=>>;>.",
",0,0,^}++w+}++@+[+...,0)!)!~)~!~!!,0,]..+[+[++@[++++[+@@*$$1:::dtefefdf::13$2**=.=,=;5505,!)!~!{DF{F~{)b)]z}}+@|((|(%%$%@@===..5",
",0,,...w+++}+}+}+.}.,,b!~!~!!~~D~!~)].^^..[+[#+#+#+#+@[+@$(&(::<:ffhgfdd::1o$@@@===5=.==55,,))D!D{D~{)~),z.}++#%#(((((($$@*@.==4",
";,0,,.w+w+++}+.+}...,,0!)D~D{FFFD~!~,].^..[+[@[+++++@+@@$$$11:::<fefeheh::3&1$$*@====5===,5,0,)~)b~bbb),,}}+@+|#(|$(%(((($@@44}.",
"0,0,.}[w#+w}+}+.+}}},]!b!~D~F~F~D{!)6]].^...[[+[#+#@++@+$$$$$&1:::edgedd:::1$$$@@*=========5,,))~)bbbb,]..}}++@##&%(((((&%$+@}44",
",;,,,x++#w++}+}+++..].]0~)~!{DFDF!~0],^...+.[.[+[+++@@@@@@$$2%11:<dtdd:::_(&($$@*@*===4===.=,,,,b]b]]],,.}[@}+++#|&%((&(|&|@+4.4",
"0),,..+w+#++[+++++}}.],],~b~)~~!~!~0]0^,]....}..+[*+*}*+***@*$$$11::::::(13%2$$$$*@*@**=@*=.=,),,],],],...+.+.++##$|$&%(#%++@.4,",
",0,,,}++#+#++++++++/.}^,]b)b~DD{!!),],.6,.,.,....}.}.=@==4===@2$231:::(1&&$$$$@$@$*@==4=*4*.=,,0],^/.}.}.}.+.}.++$#$|%r%#|@+.4,.",
",,,...[#+|##+@+$+++++^.^,]]])b!)!)0,C,6.,0,0C,....=.=..==.====*9$$$3(&($$$%@2@$$$$@*@=*====}.,,,,,..}.}.=[=}.[}[+++#$#$##++}.,5,",
",,,..}++###@#@$+$++w+}/./],]b0)!b!,,,0.0,00=05.,....=,5,555.===**a@$$$$$$@@@@$$2$$@*@===.4[..,,,,].}+}[4.4[}[}[+++#+#+++++[.,00!",
"]...[++##+##$@#@###++[/}].],])b!)!)0.,,,0,0;,0=,=z5,;,;;,;,;,>.====*@@@[@+*@@$@$$$$@*====.},...0,..}[@[@*@=+@+++++#+[+[+w.^..],,",
"...}@+$+$#@+*+y+#++++++}}/,],0!D!),,,.,>5;;0>5,=,=,5,;,',;,0,;,;,.=....}..+[@@$$@@@*4.*}.....],....+++@@@}@@++####+++^w^.x.^,0]0",
"}^+[@[$+#+#+[+[#@##+++}[}...]!b!)!0,0,.,>,5;,>5=z=555!;'!A0A0000;0,,,],^,..}[@#$$@@*[=[.[}},/.,...+[#$$$@$@%$%|#|w++^}^^^^^,^,],",
"^+[++$+#y+*+[+[[#+++++}+}.}],0!!!),,,=5=5;5;;5=.=5,5;A;);0'0!'!!,!,0],]]]..+[+@+$+[}=[}*}[}.}].^..[+#@#@%%%%(7(7#|+w}^^^^^^^.]C]",
"}[+@+*#*#+#[.[[@[#++}+[@[}..0))D!!,0.,.,5=;5;;=5===55!;'5!5)0)0!!!0)6]6]]]^.[+$+@+=[}.[[+[}}/.,..+[#$#%$%$%&((r77w+/}]]]^].].].."};
