/* XPM */
static char * Pearl_tmp_xpm[] = {
"18 18 113 2",
"  	c None",
". 	c #7B7B75756969",
"X 	c #A5A590908585",
"o 	c #A9A991918686",
"O 	c #A9A992928989",
"+ 	c #AAAA96968D8D",
"@ 	c #A9A994949595",
"# 	c #AAAA93939A9A",
"$ 	c #A5A58C8C9B9B",
"% 	c #B1B19696A5A5",
"& 	c #ADAD9595A2A2",
"* 	c #ACAC9C9C9B9B",
"= 	c #AEAE9C9C9D9D",
"- 	c #B0B099999F9F",
"; 	c #AAAA99999191",
": 	c #B2B2A3A39A9A",
"> 	c #A6A695959696",
", 	c #B1B19D9DAAAA",
"< 	c #BCBCAAAAC2C2",
"1 	c #D9D9C7C7E1E1",
"2 	c #DDDDCACAE5E5",
"3 	c #E3E3D2D2E4E4",
"4 	c #CFCFC2C2C4C4",
"5 	c #CCCCBABAC6C6",
"6 	c #BDBDACACB0B0",
"7 	c #AEAE9D9D9595",
"8 	c #B1B19D9D9191",
"9 	c #B9B9ABABA5A5",
"0 	c #E4E4D7D7DBDB",
"q 	c #F5F5F1F1FCFC",
"w 	c #F0F0FAFAEDED",
"e 	c #F2F2FAFAEEEE",
"r 	c #F5F5EAEAEEEE",
"t 	c #B1B1A0A0A2A2",
"y 	c #B2B2AAAA9999",
"u 	c #CACAC3C3B2B2",
"i 	c #F4F4EEEEE3E3",
"p 	c #F5F5FAFAEEEE",
"a 	c #EDEDF9F9EDED",
"s 	c #EBEBF8F8E4E4",
"d 	c #EAEAF3F3E3E3",
"f 	c #EEEEF5F5E9E9",
"g 	c #F3F3F5F5ECEC",
"h 	c #BCBCAAAAB9B9",
"j 	c #B4B4A0A0AEAE",
"k 	c #A3A3A3A3A3A3",
"l 	c #C0C0ACAC9F9F",
"z 	c #D7D7D5D5C8C8",
"x 	c #F1F1F2F2F0F0",
"c 	c #EEEEF6F6F1F1",
"v 	c #EDEDF8F8F2F2",
"b 	c #ECECE4E4E7E7",
"n 	c #CACABCBCBEBE",
"m 	c #ACACA2A28E8E",
"M 	c #D1D1BBBBADAD",
"N 	c #DEDEC8C8BABA",
"B 	c #F5F5F3F3E6E6",
"V 	c #F1F1F1F1E7E7",
"C 	c #D0D0C6C6B9B9",
"Z 	c #B4B4A9A99494",
"A 	c #B1B19C9C8B8B",
"S 	c #C2C2B8B8ADAD",
"D 	c #BFBFC7C7B0B0",
"F 	c #C4C4B7B7ACAC",
"G 	c #BBBBA5A59999",
"H 	c #AAAA94948585",
"J 	c #B6B6ACAC9C9C",
"K 	c #BBBBB3B3A4A4",
"L 	c #B6B6B4B4A4A4",
"P 	c #B5B5B2B2AAAA",
"I 	c #AFAFB7B7A0A0",
"U 	c #B2B2B3B39D9D",
"Y 	c #C0C0B3B3A3A3",
"T 	c #B1B19A9A8D8D",
"R 	c #ABABA3A39494",
"E 	c #B4B4A4A48D8D",
"W 	c #A5A58D8D8484",
"Q 	c #A4A494948A8A",
"! 	c #A6A69D9D8A8A",
"~ 	c #A3A39C9C8C8C",
"^ 	c #A4A49B9B9393",
"/ 	c #A5A5A3A39292",
"( 	c #A2A28D8D8585",
") 	c #A9A98F8F8484",
"_ 	c #A2A28D8D7E7E",
"` 	c #A6A684848181",
"' 	c #A1A18E8E8383",
"] 	c #A3A398988484",
"[ 	c #9D9D93938A8A",
"{ 	c #A2A299998E8E",
"} 	c #A1A195958B8B",
"| 	c #9C9C8C8C8585",
" .	c #A3A382827E7E",
"..	c #9B9B84847D7D",
"X.	c #98988E8E7C7C",
"o.	c #A2A292928181",
"O.	c #9F9F8D8D8181",
"+.	c #9D9D89897E7E",
"@.	c #999986867B7B",
"#.	c #AEAE8A8A8A8A",
"$.	c #93937F7F6D6D",
"%.	c #89898B8B7A7A",
"&.	c #9A9A86867474",
"*.	c #959580806F6F",
"=.	c #9E9E8C8C7C7C",
"-.	c #ABAB9B9B8282",
";.	c #9A9A89897575",
":.	c #9A9A85857474",
">.	c #969681817070",
",.	c #A1A190907E7E",
"<.	c #ACACA1A18787",
"1.	c #AFAF96967474",
"2.	c #9B9B83836969",
"            . . . . . .             ",
"        . . X o o O + + . .         ",
"      . @ # $ $ % & # # # * .       ",
"    . = # $ $ & % % = - = ; : .     ",
"  . & > , < 1 2 3 2 4 5 6 : 7 8 .   ",
"  . > 9 0 q q w w w e e r 5 t t .   ",
". : y u i p a s d f g g w 0 h j k . ",
". l z i w w p x x c v v c x b n m . ",
". M z i d N B V V f w w f g N C Z . ",
". A S N z N N N N N N D N N F G Z . ",
". H J K L P N N N N I I U K Y T R . ",
". E H W O Q ! ~ ^ / ^ ~ ^ Q ( O L . ",
"  . ) _ ` ' ] [ { ~ } } Q | ( + .   ",
"  . O )  ...X.o.o.O.O.+.+.@.' Q .   ",
"    . #.#.$.%.&.&.*.*.$.*.=.-..     ",
"      . #.| X.;.:.>.$.$.:.,..       ",
"        . . <.<.1.1.2.2.. .         ",
"            . . . . . .             "};
