/* XPM */
static char * max_pearl_xpm[] = {
"21 21 59 1",
" 	c None",
".	c #7B7B75756969",
"X	c #FFFFFFFFFFFF",
"o	c #E4E4D7D7DBDB",
"O	c #F5F5F1F1FCFC",
"+	c #F0F0FAFAEDED",
"@	c #F2F2FAFAEEEE",
"#	c #F5F5EAEAEEEE",
"$	c #F4F4EEEEE3E3",
"%	c #F5F5FAFAEEEE",
"&	c #EDEDF9F9EDED",
"*	c #EBEBF8F8E4E4",
"=	c #EAEAF3F3E3E3",
"-	c #EEEEF5F5E9E9",
";	c #F3F3F5F5ECEC",
":	c #F1F1F2F2F0F0",
">	c #EEEEF6F6F1F1",
",	c #EDEDF8F8F2F2",
"<	c #ECECE4E4E7E7",
"1	c #DEDEC8C8BABA",
"2	c #F5F5F3F3E6E6",
"3	c #F1F1F1F1E7E7",
"4	c #D7D7D5D5C8C8",
"5	c #BFBFC7C7B0B0",
"6	c #C4C4B7B7ACAC",
"7	c #B6B6B4B4A4A4",
"8	c #B5B5B2B2AAAA",
"9	c #AFAFB7B7A0A0",
"0	c #B2B2B3B39D9D",
"q	c #BBBBB3B3A4A4",
"w	c #C0C0B3B3A3A3",
"e	c #A9A992928989",
"r	c #A4A494948A8A",
"t	c #A6A69D9D8A8A",
"y	c #A3A39C9C8C8C",
"u	c #A4A49B9B9393",
"i	c #A5A5A3A39292",
"p	c #A2A28D8D8585",
"a	c #A6A684848181",
"s	c #A1A18E8E8383",
"d	c #A3A398988484",
"f	c #9D9D93938A8A",
"g	c #A2A299998E8E",
"h	c #A1A195958B8B",
"j	c #9C9C8C8C8585",
"k	c #A3A382827E7E",
"l	c #9B9B84847D7D",
"z	c #98988E8E7C7C",
"x	c #A2A292928181",
"c	c #9F9F8D8D8181",
"v	c #9D9D89897E7E",
"b	c #999986867B7B",
"n	c #AEAE8A8A8A8A",
"m	c #93937F7F6D6D",
"M	c #89898B8B7A7A",
"N	c #9A9A86867474",
"B	c #959580806F6F",
"V	c #9E9E8C8C7C7C",
"C	c #ABAB9B9B8282",
"                     ",
"                     ",
"                     ",
"   ..............    ",
"   .XXXXXXXXXXXX.    ",
"   .XoOO+++@@###.    ",
"   .X$%&*=-;;+o#.    ",
"   .X++%::>,,>:<.    ",
"   .X=1233-++-;1.    ",
"   .X41111115116.    ",
"   .X781111990qw.    ",
"   .Xertyuiuyurp.    ",
"   .Xasdfgyhhrjp.    ",
"   .Xklzxxccvvbs.    ",
"   .Xklzxxccvvbs.    ",
"   .XnmMNNBBmBVC.    ",
"   ..............    ",
"                     ",
"                     ",
"                     ",
"                     "};
