/* XPM */
static char * min_pearl_xpm[] = {
"21 21 63 1",
" 	c None",
".	c #7B7B75756969",
"X	c #F5F5EAEAEEEE",
"o	c #E4E4D7D7DBDB",
"O	c #F5F5F1F1FCFC",
"+	c #F0F0FAFAEDED",
"@	c #F2F2FAFAEEEE",
"#	c #F4F4EEEEE3E3",
"$	c #F5F5FAFAEEEE",
"%	c #EDEDF9F9EDED",
"&	c #EBEBF8F8E4E4",
"*	c #EAEAF3F3E3E3",
"=	c #EEEEF5F5E9E9",
"-	c #F3F3F5F5ECEC",
";	c #F1F1F2F2F0F0",
":	c #EEEEF6F6F1F1",
">	c #EDEDF8F8F2F2",
",	c #ECECE4E4E7E7",
"<	c #DEDEC8C8BABA",
"1	c #A9A994949595",
"2	c #A5A58C8C9B9B",
"3	c #B1B19696A5A5",
"4	c #AAAA93939A9A",
"5	c #BFBFC7C7B0B0",
"6	c #C4C4B7B7ACAC",
"7	c #ADAD9595A2A2",
"8	c #B1B19D9DAAAA",
"9	c #D9D9C7C7E1E1",
"0	c #E3E3D2D2E4E4",
"q	c #CFCFC2C2C4C4",
"w	c #BDBDACACB0B0",
"e	c #AEAE9D9D9595",
"r	c #AFAFB7B7A0A0",
"t	c #B2B2B3B39D9D",
"y	c #BBBBB3B3A4A4",
"u	c #C0C0B3B3A3A3",
"i	c #B2B2AAAA9999",
"p	c #BCBCAAAAB9B9",
"a	c #A3A39C9C8C8C",
"s	c #A4A49B9B9393",
"d	c #A4A494948A8A",
"f	c #A2A28D8D8585",
"g	c #D7D7D5D5C8C8",
"h	c #F5F5F3F3E6E6",
"j	c #F1F1F1F1E7E7",
"k	c #A1A195958B8B",
"l	c #9C9C8C8C8585",
"z	c #B6B6ACAC9C9C",
"x	c #B6B6B4B4A4A4",
"c	c #9D9D89897E7E",
"v	c #999986867B7B",
"b	c #A1A18E8E8383",
"n	c #A9A98F8F8484",
"m	c #A6A684848181",
"M	c #A3A398988484",
"N	c #A2A299998E8E",
"B	c #AEAE8A8A8A8A",
"V	c #89898B8B7A7A",
"C	c #9A9A86867474",
"Z	c #959580806F6F",
"A	c #93937F7F6D6D",
"S	c #9E9E8C8C7C7C",
"D	c #ABAB9B9B8282",
"                     ",
"                     ",
"                     ",
"   ..............    ",
"   .XXXXXXXXXXXX.    ",
"   .XoOO+++@@XXX.    ",
"   .X#$%&*=--+oX.    ",
"   .X++$;;:>>:;,.    ",
"   .X.....<<+=-<.    ",
"   ..12344.<5<<6.    ",
"   .7890qwe.rtyu.    ",
"   .i#%*-+p.asdf.    ",
"   .g*hj+=<.kdlf.    ",
"   .zx<<rtu.ccvb.    ",
"   .nmMNkdf.ccvb.    ",
"   ..BVCZZ..AZSD.    ",
"   ..............    ",
"                     ",
"                     ",
"                     ",
"                     "};
