/* XPM */
static char * pyramid_taskbar_xpm[] = {
"17 17 68 1",
" 	c None",
".	c #A09084",
"+	c #F4E3D9",
"@	c #C2B1A7",
"#	c #C1B0A6",
"$	c #C1AFA6",
"%	c #C4B3A8",
"&	c #C6B7AB",
"*	c #C6B7AD",
"=	c #C8B6AD",
"-	c #C5B5AA",
";	c #C3B2A8",
">	c #C8B9AD",
",	c #E2D1C7",
"'	c #C5B4A8",
")	c #C5B6AC",
"!	c #C7B8AC",
"~	c #C4B6AB",
"{	c #AA9B8F",
"]	c #BCAEA5",
"^	c #CBBCAF",
"/	c #C7B6AC",
"(	c #CAB8AD",
"_	c #A6998C",
":	c #A79A8D",
"<	c #BCAEA6",
"[	c #CBB9AE",
"}	c #A5948A",
"|	c #A19289",
"1	c #A1938A",
"2	c #A8998C",
"3	c #A7958A",
"4	c #9E8F84",
"5	c #A9988E",
"6	c #A99A8D",
"7	c #AC9A8F",
"8	c #AB9A8E",
"9	c #A5988B",
"0	c #A9958A",
"a	c #A9968B",
"b	c #A3958B",
"c	c #A7968B",
"d	c #BDAEA5",
"e	c #A49489",
"f	c #BAADA2",
"g	c #BCAEA2",
"h	c #A1968A",
"i	c #9F8F87",
"j	c #A69A8C",
"k	c #9C8D81",
"l	c #9B8E83",
"m	c #A09288",
"n	c #A08F84",
"o	c #9F9187",
"p	c #A8998E",
"q	c #9B9183",
"r	c #9A9083",
"s	c #9A8F81",
"t	c #A09284",
"u	c #9C8F84",
"v	c #9D9083",
"w	c #9D9285",
"x	c #9F9287",
"y	c #A99A8E",
"z	c #9F9387",
"A	c #9D9183",
"B	c #9D9287",
"C	c #9F9489",
".................",
".+@#$@%&*=-;#>,,+",
".++')@-&!=~%#,,{+",
".]++^'-/>(!',,_:+",
".]<++-&=[(),,}|1+",
".<<<++!([(,,234.+",
".<<<<++([,,5624.+",
".<<<<<++,,7866||+",
".<<<<<<++7785699+",
".<<<<<,,<<00aab9+",
".<<<<,,52<<33cb9+",
".d<<,,2c}}<<e3__+",
".fg,,1h1||i<<1j:+",
".f,,klmin..o<<:p+",
".,,qrstuvqwtx<<y+",
".,xzttAvqAvBCz<<+",
".++++++++++++++++"};
