/* XPM */
static char * redglass_close_xpm[] = {
"16 22 25 1",
" 	c None",
".	c #4E1F1F",
"+	c #250908",
"@	c #340F0F",
"#	c #582526",
"$	c #602B2D",
"%	c #FD6262",
"&	c #FD6666",
"*	c #A43F46",
"=	c #D24148",
"-	c #EA4549",
";	c #AB3E43",
">	c #E9464A",
",	c #FA474B",
"'	c #000000",
")	c #B53E43",
"!	c #FD686F",
"~	c #FD9097",
"{	c #EF4A52",
"]	c #FDA4A8",
"^	c #FDB6B6",
"/	c #78393B",
"(	c #A83B3B",
"_	c #B43939",
":	c #612928",
"                ",
"                ",
"                ",
".+@++++++++++@+.",
"#$%&&&&&&&&&&%$#",
"#*=----------=*#",
"#;>,,,,,,,,,,>;#",
"#;>,'',,,,'',>;#",
"#;>,,'',,'',,>;#",
"#;>,,,'''',,,>;#",
"#;>,,,,'',,,,>;#",
"#;>,,,,'',,,,>;#",
"#;>,,,'''',,,>;#",
"#;>,,'',,'',,>;#",
"#;>,'',,,,'',>;#",
"#;>,,,,,,,,,,>;#",
"#)!~~~~~~~~~~!)#",
"#{]^^^^^^^^^^]{#",
"/(_::::::::::_(/",
"                ",
"                ",
"                "};
