/* XPM */
static char * close_rock_ruddy_xpm[] = {
"21 21 22 1",
" 	c None",
".	c #694434",
"+	c #613C2C",
"@	c #61412E",
"#	c #69472E",
"$	c #694936",
"%	c #714C3C",
"&	c #694D36",
"*	c #79573E",
"=	c #593926",
"-	c #71513E",
";	c #61452E",
">	c #714F36",
",	c #B37154",
"'	c #694A3C",
")	c #593D26",
"!	c #292522",
"~	c #613F26",
"{	c #795444",
"]	c #614234",
"^	c #795946",
"/	c #71553E",
".+.@.#$%%&*..=#+@+$-%",
"#;>-,,'>%%$@++;,,#%--",
"+$$,,,,-%$.+)@,,,,-*-",
"+$,,$%,,>;.$>,,;#,,-%",
"@,,>$*$,,+$%,,%.$$,!-",
"$!!..%$~,,>,,$-.>{!!-",
"-$!!-$.+],,,-$>.'!!{%",
"{>$!!+.;>.,,-$$.!!^-$",
"-%%>!!%$%>$,,$@!!$>.+",
"-%%$%!!.>@.$,,!!%%$@+",
"-%$@$$!!.@>$$,,#'>.==",
"-$#+#,,!!.%%>$,,-.@+~",
"%.@@,,+.!!>>$.$,,@~+@",
".;+,,@+$.!!%$#$-,,+@$",
"@#,,@.@$+!!!$%%-%,,.$",
"+,,.+.#&!!*!!%%/>$,,>",
";,!$#.+!!%'*!!{-%$!!@",
"+@!!@$!!.*%{$!!$%!!.$",
"...!!!!.+$%-$>!!!!.$#",
"$$>$!!.@)..%.$%!!..@'",
">$%$.@+~=#.#$$-$>@+#."};
