/* XPM */
static char * rock_ruddy_xpm[] = {
"128 128 35 1",
" 	c None",
".	c #694434",
"+	c #613C2C",
"@	c #61412E",
"#	c #69472E",
"$	c #694936",
"%	c #714C3C",
"&	c #694D36",
"*	c #79573E",
"=	c #593926",
"-	c #71513E",
";	c #714F36",
">	c #61452E",
",	c #795444",
"'	c #613F26",
")	c #593424",
"!	c #795946",
"~	c #694A3C",
"{	c #593A2C",
"]	c #614234",
"^	c #593D26",
"/	c #59371E",
"(	c #51311E",
"_	c #815F46",
":	c #715244",
"<	c #815C4C",
"[	c #71553E",
"}	c #51351E",
"|	c #593E2E",
"1	c #523625",
"2	c #512C1C",
"3	c #614636",
"4	c #513224",
"5	c #694E3E",
"6	c #81614E",
".+.@.#$%%&*..=#+@+$-%;$%>@@;,,%$-,-@@+#.%;-$@+'))=$$#@.%&;%%&%-%.$%;..$$.@$-*-.@.%;%-$.@$%;-$%$%>+=+@#@+@.$$;$$.$@%-!-$@..%%$$%-",
"#>;-%;~;%%$@++>++#%--%%$+@.%!-;$%-$@'@>.$.@+='{+=+;$.+];%$%--%$#@.&.@+@@@#$%%$#>.-$;%$.@;&%%;$$..'@+%$$.#]#....@.#-,!%#+@$$$..$;",
"+$$$$$--%$.+^@.+@$-*--%$#.%,*%$$%;++)@...@+=/)('{#$$#@;--%&;.#++@#.@@#....%.>..$$%.$%$$+$%-%$#.$@@+#@.@.@#+@@@.@$%,_,%+@$-$#$;$$",
"+$.%$%,$;>.$;..>#.--%%%%;--:-$%%-$+^=@#.>==))+@..@.+.$%%%$..@@^@.@@++.$;$;$#+#$%%$@#%$#+$%*$$@%-%;$$.$$%.+=@.$$;%!!!$$@$;$#.$$..",
"@;@;$*$.@+$%,$%.$$-,-$;-%-%;..$%%.'++..$.@'+>$;$@@@.$%%$&.#@@#++.@@+@$$-$$$...&%$.@]$.@'.$%..@-%$@@]@+#$@+^.$;%%&,--#.@;@.@...#]",
"$%@..%$'+=;$,$-.;,_!-;$$#.+>.#$$#]=@@$.$$.$&%*~.++;--;$.$.++..]'@+@#.$;$.@.~-%$#..##@'+=@.$..@$..@$$.]$$]'+.$%$$@.;$+@@.@+.$;$$.",
"-$%$-$.+]#%$-$;.~!<,%.]#={)@$$;.@++@#.$$%$;%--;.@.%,-$+@#$@@.$$++'$..>+++@$%-%$.>$@@+{++.#.#@#@=)(+{+^;..@#.$;.#+@.%$+.@+=>%-%#+",
",;$@$+.>;.%--$$.-,!-$..@)''.%%%]#+'@.@@;----,%@@@%-;%$@.%;@+>%%.>+$.$%.@+@$;-&.#.$++'=+'.$$$@+++=+^+=.$%%$$$$$>++@&%;@.$@#$,!%.@",
"-%%;-.%$%$$%%$@+;$;.+@'@@.$%;$$..@@@.'+%-%;$.#@;.%$$%$;.$@@#$*-$.#]@#.@+.-%;$$+@..@+@+@@$%$$++'{'=)'=@.$$$;%%$$$$$%$$$;$@..!-$@@",
"-%%$%.-.$@.$;.@+%%$@+>++.$$$$.##]#+$+@=%-,%$@@.%%%-;%$$#$@@.%*$.@.#@.#.@;-%-%;@@;$;@.'..;$.@+==+@#@..;$%$;$$$..%$;$.#.++).@;.$..",
"-%$@$$-#.@;$$.@#~;.==+=@.;@.$..]#++.@@#~;%&.+.$[;$$.%$.+.+.#%$+++$.$$.$$,--,$...$@.@.^.@$@@'=+'=@@.@$..$;$$..#&%%....@===.@.@#$$",
"-$#+##$@..%%;$.$-.@+'@+@.$.@#]#@@+@@@@.;&..@#-%,$$.@$>+=@@@@$@^+#$$%;$$%*%-%;@..$.$..@$.@')=++++$%%$%-%-%%@#>.%-.]#$$+=@.;$.>..$",
"%.@@+@+.$$;%$.$%%@'+@#+#$$.@.#@++@@@++#@.#..%,;~..@+.@'='@@.#+++..#].$;$$$-..@.@@@@'{'+'@===@@@@.$@#.$$;.]+@.;$;.@@.@'+$-%%$$;$.",
".>+.@@+$.$$%$#$-;++@$$.$%;@@..@+@+#='=++@.$-[-$#.#@+.#++=.#.@@'^@@'+@>.+@.;$@.@@+#$.;@.+.+++@#..$;..$%$@'+#.$$..@#@@@@.;-%-$;%%%",
"@#@$@.@$+#$-$%%-%.>.$%%-$@++.@.'.+@)+=+@.%;,-..@%$.'.@@=)@@.+++==+=+@#++@..$@.@+=+.@$@@^@@+'.$.@#+='@.+==+.$...$#@.$%%;$-$%$--*:",
"+...+.#&+.*!-%%[;$..;&$%.+{#.@.@~@#(+@;$>..%;@+=$@+^>+{(}+@{^=+)='@$..@#$$..#+='+@@#$..+@@+@$%;.@=)+]#++)^.@#@$..$*,,--%-;%$,,!!",
">..$#.+.^%~*%[,-%$$.@..#==+#@+$;%..@..$$.&%;~+@@&.|^+1(2)|@^==^==+.$#$.~$.$@@'++@#++@#=+'@@$%$$@@)/{#++'=++$$%-%$$-,;.$.;.%;,--;",
"+@#@@$$;.*%,$$$$%$;.$@.@'=+@@$;-$.@@@+.%$;-$.@$$;3'=^=}=^>.>{=^{4++.>%%$#+@+'+{#@@+@.#+@+.#%%.@#@)'@.@>@=+.--%%#..%%..@@.%[%-%$.",
"...$.$..+$%-$;%%%&.$#.@@+@@.%-%.+@@;@+'@.%-*-;%&%3>|^=|@>@>>{^|@=@']#$.@==++@.#.{+@@@@+@#$$%;]+=+=+@#@..+@-,*%&.@@@@'{'+@%%-$.+'",
"$$;$$$.@^..%.$%--..@~#.+.#.$%;.=/@.$@@.$$%@$+$%&$>.>^={@@|@>^@@$@@@%$@')'=#@@$>.+#@+@.@@.%$$.#')=+@.@@+'+#%--$$.@@#@==+@.%$;]#+@",
";$%$.@+'=#.#$$-$;@+#.@+^..$;$.@==@...@$.#$.-.$#@+@]@^=^|^{>>@|>>#.%%$===...>.;..@.@#@......#@@+)+#$.@@'{+>;%$%.#@.@+++@#.$@$#.@@",
"%$$@'===+@$.%$%+.@@=+==/+@$$.>@+++$#$+@.%-.@@.$]@@|^}(^>{^@]@^@{@.&#+++@,-%.#$.#@.$$$$$$>@{++===+>%$++=@@$.$;$.+@++@#$$@#@+@@.@@",
"@..+)/+@$%%$-;@=+@++==))=+@#@@+='+@+@#@.@#.@$#@+{>+1((|>+^@3@|@=@@.=+=.;,[%.@.$.>.;$.$.#+'='{'+^#@.@+'=..%$$.@.=@+>.%%$@.#$.$;.@",
"-%&+()=#$%--!%$+@'@)@=)(@.@@.$@/)=@..$#@@].+@+#@@|^=}4@>^}^>@^{=@#$+@#$~*-%$$$.#.@..#@+@+#=+=+=+@++'++@;$$#@.@@=+@.$$$$'.];@...#",
"$.#+==+$%-;$$#@+$++=#+==$;.+..#4='@#@..@.#.@++{+@^^{=^>@|=>]@|'^{'@+@..;$%$#@$%$..$@+')+@$.@#..$$@=+++@$%%.@.$$#@.#@.@+)@;%$.#].",
";.@'='@%%-$.@+#+$+#=#=++$..+$@+()+$%.@@#$.#@+@.#@==@|@]@@@>$>@|===@@+@$%-;.+'+.@.@.#@@^+'.@.+]#$.@#>#@@..@+'.#.$.;@@.#@)@@.@===+",
"$@==)++-!-.#@@@@.>$$.@#.%#]+$+'()@%-....>@++$$#@@|@>@>>@]3$]>>@==)='=+$%%@+=+@$.$@.@@.++=@#.#%;.....]#..$$$];$%$$@+@.@+=@.#+=+'@",
"%@++@.$,!;.@.....$-,$.+$.{'/=2))+$%-%&$#++^.;$+=+>3@|@>>3>@|@@|)^=++@.$$$@++>$;$$.>+++'++@+@.$..@@.@#..$$@#+@+#@.@+#$.@+@+=(/=+@",
";@@@.&%*-.@@.$$$#.%!.#{$;..+@+#$%;-%;.@@@@#$$.@^@>@^^@]>>@^^@|@=+@#.$$$#.@#..;~;$.@@+@@@>.%$.#]#+@@...$;%$%.$.$.$@..$#@#.@@+@.$%",
".@#@.;$%$.@+#$$$@#@;+@'.$.>'.$-%-$$%$+=+$.%$.@@$$3@@>$3$]@{^@3@^@@...#.$%$$$.$$%;$.$.@..%;%>@@.$@+@$$$..$#.@$.&.;$$$>++@'+@..$.#",
"$$..$%$.#..@@.;.+==.+@@@;.~.[,<-;.&$#{@.$%-%#+@%;&$~&~$3>@^+$&>@++@.>..-*%&$.#.%&%$;$@#]$$.@++#]+@.;&$#.$$.#%;%$-%-;@.@.+$$-*%-$",
".$$.#.#]@$.+#.$#=)+@^+@.$.$;-,*.]#%$.#.$.%-%@@.$$$~&$&$#@==|$&.^)'@.;$*-%$.$..$---;.#+@.;@#^++#@+@.$;%$$$$.@~%-%%;$++'=@@;%;-$;.",
"$%--%%&;$$.>.$.@))+..+@@$$;$$$.@#.%;.$%$$%-$+@#.$$;.>++^===@$$@=(=@.~;%.>.$#@.%*,-%.+@#.@@+@#++'+#$.@.$%%$.#$$%$.+.@+@@%%-%%$$.]",
";$%$$$%%,%#.$$+@)=+#.>+#.$...#@..$$$$$$$;-%;.;%%$.@+{/))==@..@+)/+.%;].@@#.@+@%-,-%>++@..@.@.>++$$.#.$%-&.+.$$%$$+]#+++$.&.%%&.;",
"$;$$$.;-,.@.$$'++@@$$..]...@++>$%%.@.$;.$$;.$$~.#@@@')=='=+@'=)))@>;@+'+@..@+#-,[.@'=@.$.@@.%&@@@$$...;%..@@#.;@@'..+#$*%$.$@.@.",
".$%$...;&.@@.@+@>$...$;;$.#+>@;%-$@+@..@.#~.$#$+.@#=)=^++'=)==(==@+@++@@.$$@@$-*%.=)){#$$@#$%%.+.$$$$&%$$.#^+..++.$>{.$$.++{@#%-",
"$$;$.@+@$.@+'@@.#.>#.~%$$.$@..%-%.@@#@@+#.%#.+@'..@)=+@++=))==')@@#+@#.#.$.#.%--~#+='+@..+@.$$@'@.%;%%;$.$.@@#]+@$.#+#$%$$#+@.]@",
"....@+@#$.#=)+@.@@@]$;;.@#$.$$-%$.@.@#@.$%&.]@@+>.#+@@+^+==^+'++.@%@;~$.@$..$%-%;$.@@@.#@@@'@@=)'.;%%$..#$.;$$;#..#@.$$.@#@$$-$;",
"+@@#@.$$%#@+'@.$.'+.;$$$@.$%;%;$$$.#++@%%;..#$@.@.@..+'@#+++@+>.%$$$%%.$@;%;$.$%%%;.@#.]#+'='+)'@~%$$.$$$%$$%$%&$..;-$#+..$-;.@.",
"+#$..$%$.@++.$$.@+>....$.$$-$%$..#.+^+.&$$++@.@.@@@@#@@..@@...;--.#..-;$..$$..$;-$]+=.$..=+)+==+@.$.#@'@.-%;%&%.@#>%%$.@#@....$%",
".$.$#%%;]@.&-$.#$.#.@$%%@$;%.>$...@=)+@..#+^@%$.@#@.@+#$$#@.>@$%$#@]#.>.$$%%;$.$-%#==@..>++=++#$-;.+{#@%%%$@@.+'@..%$$+@@@#+@>@.",
"&%$$@$.$.#$%.#@%--].@;.$+..;$.$.&@@=='+>$$#+@.#@+@.@+@..++]#++@.@@.$...>%;$$~%$.;.@'++@@.@#@$.$$%@@++@@$$$$..@==@#]@#$@+@@.@@;.$",
"%$@.;$$@#.%&.@$%*%#@.%$$@#$%$#.$$@+@'=+$;@++@$@@.;.@@$&@+=+=='@@+..$#@+#$%%-*%#@.@@++@@@@.@$;$%$$.$.#$%-;.@.@')+$@#@$%#@...>...$",
".@;@$.$@$$%$.$-;.@@.@$#.>.%&.@+.#+@++++%%@==+@+.%$@@;%%@+='++@+@+$#.@>.$%--%-$.@>.+#@@'#@.@%@$+.#.;&$%%,$@#.@=)@.@+@%$%@.#$.@#.$",
";@@.-%%@..$#@.%.@@@.+>@.#.%$.@@++@#@@+@$$.)='+@;%>+$%$#+@=+@..'@#%.@#.$$%&%;$#+@@.@]@#=++$#.+#+]#$$%.$--..@@+/)+@'+.*.$@.@.@.@>#",
"%$%%-.$.>+@++=@$$.+@'.@.+@$%$@.>#.$$+>+.@+'={#.&..@;$@+@#='@$#=@.-$.@@.@#.$$.+==#@#++=++@..%$$$;.$..#$%;.++=)2(==+.--.@++@@@@@.@",
"%%$-%;..#@@++'@%%#=+=.+#+$$%;.$$-%-%$.@#.$@+@.@..$$..+@..@@.@@+@$%.@@#@..$#@++)+@.@+'=+'@@$.;$%@=++.$..@+^)/((=++$%[%.@@@.#.@+$$",
"$;$%;$@>..#>@.;%-.+@@#@.@%$;%;%%--%-.$#$.$.#@.>%;-%.@.$$#@.@#@@@.$@=+.@@@@++@'=)'@+)==+@#@.$%$@+=+#$-&$'+')4))'@@%-,%@#.$$++#@.#",
"..>..$...$.$;$~$#+@.+@+@$;$..$$$%%-;$$.$$.@@@.+;%-$#.$;$@@++==+.$#@+@...$++)@++^+@@+'..~#$.$@')(=+@.%$.+{'=='@.+@$-;.@.$;%$$.@.+",
"%$.$--.@']#.....@'+@+@@.%%$.$$;..#.@.@@@#@$..$$:-;.^+@.@+'+@..#.$.#.$$@'.'@=#@@+..#.@%.;.,$;.++@$$$@$@@'++)+.@@=@.*~#@+@+.@@.@@@",
"-*-%$;.@@...>#+'{+^@'.>$;~.@#..@#@$@@+@+++.@$.%%%]'=+'=+@=+=@#]$;$%%;.@@$@@@%#.+&.$$&%$%.&.@+@@.;$.+@'=+^@=+...+#$$;+@'@@;.$.#$.",
"-%;.$$@'+$.#@@+++@@.+#.$$.@@.]#+@+.+@++'^+#+.$;$.@++++='.@..$%%$;~%;.@+@@.@.$@>+$#$.$#.$;$+@@.#$$..'@=+'=++>.##>...$@]+.@$.$..$.",
"%%$$#+@.$$#{+@@@@#.$@@@..>.$$$.^+@@#+@==+@+#.$.#>#.@@#@++@#@@.$$..$$@==+=#@.@#@++@.@.@$..>+@+@@$.@@+@+@+='+>.....$@.#.@.@.#.#.@@",
"%.@.$&..;%@==@.@+@.$+@#$.#.$;$.@'@.$@++.#@@%$-@@.$.@.%$$$$$.$;%;$+#>+/)+'.@.+@++}++#...^+='+=++..#@+.@.@++=#$$$.$$@..$.#@.$]@@+@",
"%&$.%%;%%$@'++#@+'+.+@.-;.>$%.@@+$$$@@@@$.%--%#$$$.@;-%$.#@.%$$@++@.@+@.].@.@.=@/+^$$#+=@+@+=@#$.@.@#+.>@+=.$$@@$;$#.$#@.#.'+@'+",
"%;.#$$$$..@+@@#+'==@=@@%.@+@+'+.$%-..#$.@#$%%-@%$;.$--%$.@@@.$$#@@@.@#.;$$#$.$'+4+.$$@.+#+^+=#@$.@@+@'.@#.$%-#@+#.%$&...%$..>.@@",
"%$...%$$$$@'@#@+@@+@#@.$@++@@@.$%-*...$#+@.&;;....>...@'++@$%$.=@.$..$$$$..$&$+'+#$$%@.@.@+++..$.@@+@+@+++&%-..@$.$;$.>$%.>.$;.#",
"%$%&$$#%;$@=+.$...@...#.++#$$.;%;%$.@@.@@@#...+@>%.#]#.+@@.$;$@+#.@@#.@++#.$.+=+^].$$#$@+'==+>.;.#@@#@^+^+$.;+.#$.$$....#@#.$@@.",
"%-,*%$@%$$+++.>.@@@.#]$;.@+$---%&%#$.$#@.@$.]'@..$@+'=@+@.$$%.@+@..@+^++@@#@+^=@@;..+==+^=)'@.$&...#@++@'+@.$.&..@$$.#]#]..$$.$;",
"-*!,$.+$..'@@@'+'+@@@#$%$@.$%%$;.@+@.$+@@;%$@+>%%;+=++@+.#.#@.@+#@'==#@@@@++='=#@;@@('=+'+^+#$...@@+='@..>.$$.$'+@$%;&%$..;$..%,",
"*-,-$@@.@@=$.@)=+@+@+@%$%@.$$$.@@+'@$#++.$$.#+$-$#=+@@$.&.@++@@=++@+==.$$@==+++...+@=++@+=+..$#@@#@@+@..>#.$$$.@@#.$%%-;.$%%$;-!",
",-;.@@@.#++.@+'@.>+'@.&.%@#@#.@+==...++@++.@.@-.@)('.;-;%$.@@+')=+^++.@+#@+'+@.$$..$#+@$.@#>..@@.....@#+=++;$$$.$...$$.]$;%;%-,-",
"!%$+'@.#]'@@#+@..>+=@.%#$@.++@+'==$.@=+@=@'.$.$@+=+]%-%$%#+++==/)+$;@+@..@.@@.$#.@&...$;.@.$$.@@.;~$$@+=)'{$+@+@.$$;$.@#$-~.$-;$",
"<[%#]@>@@@$@@^+@@@@.#..@$'+=@#.@@.&${'@@=+=$$.#+=)+;%%$.@+='==)(+@;%$.;$$.@#.$>.&%*$$.$>+..;$..@%$;.#+=))@..#@#.$$%$.@@.%-$#$;~%",
"-$]@>..@]#.>@)^^@#+@=+'@%+@=+>.@@@'{^^==}+^$>>{'^@$-%$@@+^))('=+@;%$..$%.#+$.$+.$.@+$;$#+#$.$.##$%$@+=+@#$$$.++>;.-;%#%$-%.#.%;$",
"~&;3$@3@@|@{1^@@@@+@=+=.$$@++.@@+'{^+=1=|@@3$]@=)+.;$.#@==))(+#.$~.]#$$+'^+.='=$%.#>..@+]..$%$.@.@++==+@@@$.@^.%-.$+.@;..@@.&%$.",
"$>3^{=^|}(}4}1{@@@=)/+@.$#+'=@@@@{@>>@=1=^|#~&@^=@.@@'==')=/=@$$$;@#@$.^++@@)+>%;@+++@@+@#$%-%@..$+@+#@@'+.;@.%-%#$@&$$.$$$;%-$.",
"[--$>^>^4(}4}=4='+))=..#@+=^+@@.$>3$3@^^@3$5&@==@@$++)=)()=+@+$....@.@.@.@#@+.;%$#@@'+@++@%-%#.#$.@+@.@+)+@$+$;%$.$.%$..$%$$%%%$",
"~$3^=4^)=}====}4=+=/@.>++'++@+..$>.3>@^1=@3$3@>@]@.'@=+=+=++.=.@.@$#..;.$..@.$&.@@.@@.#>#.%;>+@$$@@'.#]+=#@$.%~$@.;$..>.;%.$%--;",
"5$]=^=>@|^=|>{^+>+'=.@@=@@$@$#$#]|>@@^=^>&$>^1=^'+>+@++@'+@>.=#.$#+.$%%$$@>+#@.+@+>...$$$$$.+^..#+#.$@@@.%$-;%;$@..%@#+#.$.$---%",
"3@>1^^]>@|@>>]#3$#.];@.+;$%.$$~@@=>>>{1+3&>@@@>@@#+@+@=@+@.%$.@$;$..&-$#@+=)+=@+..;$$$;%$$.@='.$@=@..+'+#.%%-$..@>@;..@]$.#$%%$#",
"$>>^@>$>|@>]$&3$$.@@++#]%%%%;%.^=^$]|=^>&$]@|^{@]@+='+='=.;-$;$.$.$$*%$++)))#@$#$.$%;%$%%;>+++$.@+@$@@@$$&%;$.$.#..-$$#.;$..;%$.",
"$3@@|$@]>@3@>@@>+>+@@.$%--%&.$@+^|@>@^{@$>>]@=|@$+'=@++=+$;%$%...$%$%@+/=)=@$%;$%$;$%..>..@.>.#@#+@@'+@.$$$@.'@@.$$%$$.>@.#$$$$+",
"$>+|=3@$$@>=@|@@{@'.#%;-%;.#@.+=^@@|@@>@>{^^=1==@=++>+++'.@.;$&..#.$$+@=='@.$$$@@+$]$+#@.@+#$$$.@=#@..#..$.#++.$;.$.@#.+'@$%;]#@",
">@^^^@>3$]3=@^@^'+@.$-%&.%@]+>@+@^{@$$>{@@^^^{|^>+@+.'@@@..%~..@@..#.'{/+];%%%$+@#$#@){'@@++...@@@..$$@@@$.@@@%&$+'=+{'=+.~%.'@@",
"]|@{^|>$&$$>>@>+@@.>.%$;>.#$#.+'^{@>&3^=}14={^^@$..@@=@+@>%-;.#=#@$@$'+(+@.%-;.@@..+@)'+$@==>.>+++#.+'+@..#+@$-%=))=='+@.%$#=+.$",
">>@|+>$&3$$>@|>{>.#+>$%%.$.$.@={+>$3.>4=^@|@>>$~%#]+.'+=..%-%.@+@..+$+@)@@.-%$@..$..^+@..@+@.$@=)@.@=()+$%$@#$%@')=+++@$--;++@.;",
">@@@3$~3$>3{|^3@.+.@.$*-%;]#+@='@>$3>@=|@]'1=+>$$@#+$].@;$;$$%@@#$@+@@>+@#$-%.@$%-#.'.].#@#.;.+))'@+=+@#.;%.@#.+==.@#]#%*-%..>.%",
"@^{>*$&>$>]^@@5#]'@@-%,&%.+^)'=@{@>$>@|$#&>@^3-&$@.@%;$.%~.$;%.$@.@@#@$@.@.;$@#.;$@@=$.$...@@@@'=@@@#$--$$$..@.+#.-%$%%-,-;$..#~",
"{^>$,3.+@>@@]$:$#{.$*%$#.$@')+..+@$$3@@#3$@{@.$$;$.#-,-$%;-$%@@@++'@.$%..@%-$#.%$$+.$$#.>$+==+@++@$$%!!,%.;.$$;].$%;.$%,!-$]#$$;",
"@@.&-$#@@#@.&$$@+=;-,.@@@@+==@>@@@..>@+>@@@#$&$$..%$%$$#=+.;.^+++@].;..=@@;%.]#$$.@$%$..$$'=@..#@.$%%%%$#@$$-%-$$;%$$--*-$+'@.$.",
"%$-$%$]'={+.;;$+=+%,$.$%$++'++.$.>$$..$.$.#].%$$$%$#.$.+)+$.#=+'@$+$.$@='.%&.#..;$$%-%%*,%@#.#.@@#.$$$#+=@$*-%%$..%&.;%-$#+@.$$$",
"%;$.-;$+@+$$%@@/)+-%.#&;.=+@@#%$.+#.$#@.@.+@$$;.%$.@@@+=)'.@+)=@$;$.&@#)@$%$.]$%%%%$$$$*-%@@.@@@.@....@@=.%-%.##.>%..%%%@++@#@..",
"-%%.-.@'+$$%#.+{'.--&%%.+@@@.$-%#@.&;]'@+@'@.$~.%%.+@@+='];]^)+$-%$$%..@$;%$.$$;%-$;$$%$.++='++=+#$$$$>..%-*.>..$@#@@$-%.@>...>.",
",%-;%@++@;%#.@.'@@.#@@@'=#.@#$%$@.$;.@++^.@.%;%$-$#@#.@+@$..+@#$,~~>-$;.%%%&;.$%--%..$.@@^==++==+].$;;$$;,-%@.$%%$.+@;%-#..$$..$",
"-;-$$+^..-@.@$..@;&%$.@+@@.@+@.@@+.+@.@@'.$%*-$.;$.@..>++#@$#%&%-;$.$-%%&%-%%$$%-%$$.#+@+#+++@'+#$..$%%%%%$$+&%%-;$.$---..$$$#.$",
"%$$.@=+@;..@.$;$.@.+'))=+.#++@$.#@+@#$%.$$--%;@.$%.@.$.@+@+&%-%$*..@%%%-%-%;$.$.$.#@.>@...^++^+#$$;$%-,;~$#+.;-%-$%;%*%-$;%$..#$",
"@@.@.+.$%;.$$%@.@#@..@@@#.@@@.;$$+@@.$$$$.$;$@+$%%#@#@.@#$$,,%;$%..-$&#%--%$.$$#.$.@@.#.+')@++@$%;$%---$$.$$%-,--$-%%&%%%&$.#@.$",
"..$;$.#.$$$#@...+=)^+@@#.$@+#$%$.#@$$;%$;.....$;%&.+@@;.$%%*$$.$$$%*-;.&%$$@#@..@#@#.$..^+=@#>.%%..;%%$%;%%$-%!-%.-;$.$$;%;.>.$;",
"$;%,-%>.$%$@+@>')(=#....$$.@.@@+>+.#+.%$.@@#$.%$%@@+$.%;~;-%%$.$$;%-%$$..#..@#$$$$$$.@'+=+#$;$%%$>@.$~;,$-%%;%,-;$,$$#$.$.$...~%",
"--%;$.+@;%$+'@#@=)=+@@.$;$$$#@@#+@+@@$$;@.@.$$%$$@#$$%%-;$-&$%$..~;$%-%.'..#+.%-;...@@+^@.%$%+$#$.#$-%%-%%;~&%-%%$%$-.$$;.$$$$;;",
"-%;]@'+@%$.]..@=()@$%;$...$..#.@..#@..#+.$$.;$$+#+.%$;$%.%-*%%$$.$%-%%$.@$.%@&%-$.@++#@+=#%$.@.+.@%-,-$;%----%*%;.*--.;~%$%-%$.%",
"-$.'@+>#$.$$$$++=+@#.$%&$.$$.@.$$;.@..@@#.$%~$$++@$-.$#$.&,%$$$.#%-;$.$#@$$;.%%-;.@@>$$@+..&.#.@#$*,-%#$%[%%*%-$$.-%-..;$%-*%$$%",
"..=@.%$.;$$#@+==='.$%-.#@.%$+@$%.].@@#.@.$$;%$.'@@#$..@.@%&.+#$$$;$.@$$$@;&%.$$%$$$$%%$@'.$%$%$$$-,*%$.$;%$%&%$.@@%.;@].$-,-;$$%",
"++@;%-$.@.@')='@..@@$$..@;$#+#$$@+@#@.$$..$%;$.@@.@.$#..$;$.+@$-%%.@.$$.$%-%$#$%%-%%;.#+=.&-%;:--,--$.$%$%.$%$.'@.$..+#.;%%$.@$;",
"'@$--%.+@@+)'=++@.$;%;@@.$@+@$$@'@$.#.$..#.%-%;$...$%$;&%%$$$.;%%$$.$.;$$%-%$.$%-*-%~%@.@%,*-;%%%%-%---,$;$%%;$^..$#@@$&%%$@@+++",
"$$-%%>@+#++=..@.$%%$$.@.@.@@.%.+=#..]#.$>.$%;%$.#.$;-$%%%&%%%%%*-%;%;.$%%#%@$.-%,%%$#$@.'$$%~.$;%$..$;%&.$#$%~%@;~*$..%-%$#+@@@=",
"-,%;@+'@$%-$.@@#.$---.@@#%.;.$'=).>.@@@.@%$-$&.#{@.%%$$%$$.;&;----%$]$%$..$;----,&$.;%>%@%%*%$;%-;@@.$%$...%-;-.;%%$.;%%;@.@;.$@",
"--%$+=+.%;$.@#@$$-;%@#+.@>@$..=+=@@.'+'@.$$$#@++)'.&%$..$.$$$%%,%-$$+#$-%$-$-*!--#++@.+#{.&%;..$%@+'++@#@>.%-%%$%--%$$$&%@.>,-*%",
";%$.'^.$;~.#+..-*-%$$=@.$;+@)=2==#$.@=@@#.$.+.@@+>.;$.#>.#.$%$&-;$+'+$%-$;,<<!%..@@+]#+.@*!,%&,%&.@.>..$.$;-*--%*-%%$...;>..,,-$",
"$$.@+@;$%.>.@%$,%-;%@.@$.+=+='=...$..@..$.$#..>.@$...@.#..$%%$%%$@@+$;-*%-----;.#@@#.$@@@%%;..%;$$$;$$;%%----%--,-;.@@@#$.$$!-%.",
"@#@@@.$..#..$-.$.%$+#@%%-;%#+==#.$@.#.@#.$$]%$.@#.@@>.$$$$--%$;$$@#.--%$.%$~%$@++@@.$.+.#%&%%&--;....$$---*%%%%--%.>++@@%.;$*%&#",
"@@+#..$@.$*-%;.>.$..]%;$$.%+@+...#@.>$$%$$;$,%.@@.+#.;-$%%;%$#...+];-%.$.%@@=.+>@#.$$.@@@$@..$;.@..$..$-%,-%;%*,%$#+=@#.%$$.%..@",
"#@.$$..+>$%;%$@@#.@=@$-%*$$={='+@.$$.$;&...%!;>'+@@$%%-%%~;$..@>+@#..$@#+$+@#@++@.@.@'=+@...&$.]@.$.^+@%--*%~;---..@@..$$..@$#$.",
"@.+@$$;>%%,-$..$.$@.;%%$.++/'+>@.$%;%.$$$;~%-.+=+#$-%$$.$;.%$$.$#.@%#$.$>%@$.~#.$%$#@++@.#@#%$.@#$$.#@;%-,%~%%!%%>.@#.@-;$@.$..$",
"+@+.;$.@$%-%.$..@'+@.$$..>+=)+@$$%-,-$.$.%%;$++=+@%%$@#$$~;-$-.%@$.%$&.%%*.$;%$@;$.@+^+#$.$--;$.%$#@.%-,!!!;-;-$%.$@'+@-$.#.%&$;",
"@@@.$;.@$;%$$#.@#@.$$.#@#@+=+.;.$$--;.+.$-$$$#.+@.-$+=#.;%%%$%$-.$$%;$%-[%$$--%$%$$...$$$..%$.#$$$.@;%,%---%%$;@;.@)(+@-$....$%%",
"#..$%%$@%&,$;@.@.%$;@=+].@+@#$$@.-,%$;$-%-$;%&$+@$$#=+$$%.;$@;$%$%$$.$$%-..$%,$;$.$.$$%$$#.;$$.;%$.$$%--%$;&,$.+$.'2(@.$+]#@>%%&",
".$;%;~%.%;-..=@.$$$.++#@@++@@@.'.;&.@$$%%*%%-$+=+...+#$.$.%.#$.;>;$.+#$;.@#.%-;$..$$$$$#+{@@.@.]#.@;$%%%$...-.@)>#=('$%$+#@..&;.",
"@;&%$;%$;$$@='];$..;$$.++='=)'@$-,%;%%-*-[%;.+'='@$$$@@+$$*$$.]..@;@@+%$>+.&%%$$#.$;.#@+#.;%-;$.@@@.-;-#.@#@.@+'@++=.$%%;$%-%;$%",
".%$$.$;....@++#$.=.$$#++@@@+=+.-,%$.@.%-%-%%>=+=+=#%.@@.--,-%+#..@%..{$$$.$%;]@+=+.#@+++>$%$;.@@#.$$-$.@$..@$.$..>@..$%-%%-*%$%,",
"$$%$..@@@@@#+.$..#$..@$.#+@+#$$,&;.>.>%;$&%%#+^+'@];@+.*-*~;.#>.$#]+#@.;$.$;.@+'++@.$$#.%*%-..+@@%--%.]$.#@@$$%$$.#.$&%;~;-~%%!6",
"$.#@@.$;...$.&.$...@=)^.$.#$%$$;..@+@.$$%;$.@=)==#@.@.&,-%..>+@@$..@.#$%%&$.+@#+==+@.$$$@.+%>%@.$%%%$#.;$.@#%%;@.+++@.$.#.-;%;-!",
"$.@#.%%%.'+@$;%$&$@)=@$$$@@.@.@%$$+@#.$$%%.=)}))+@..$;-%%..#@+++@@#..$%%;.+'@...@#$$%$;$@.@%@@+..$>#@#]$+.@;-%$++=@@#.>..$,-%-$%",
"$@+@%[-%@@+$%%-%%.+'..#@$.#..#.%$.+@$%%-!%^)4='+@@$.-%%;$.#@./==#@$$$;--$@+@.&$$@$%;.$.$+#>$.@#$$#+++@@.@;%--$@)=@#.>.@$$--,$%@.",
"$#.$*-$>++#%-$-%*$@@$$$@.$$]..>..>+#%--,*$=)=++++#$$;$$$-].@@=)'@.$.$%-%$..$$%.+.$%$$%$$$%;.$@#@.]#.>.$;$--%.#+^'.$%$..$;,%$#.@#",
"%%&,-%@+^+]-%$;%%#@...$#.;%#@.>#@..$%%--;+='+'+>.$.;.$.%$;@.@+==..$$%;$$$%;%;$#@#$%$%--%$%$.%#$@.#.$%%%%--%>@@++@$--%;$%%&;..@.@",
"%-%%$@++'+#;%$$..>+@@@.@..@@++@.$#$$$.$$@+++@+@.$;.$$%#.;~#]+@+.>.;,-$..;%&$$$..%-%$-,*$.@..-$%.$.;---%-,-.+#.='+%--%%%$$%$.$.%$",
"&%.#.+@=+@$%&;.@+@@+@;%$+@@#@#$$$.$.@#@.@@#.>@@..$.$.$@.$%@+@#.@.$%-%..&%$..@..$;%&;%%%.@+$$%..>.$-,%$$;-;@+..=@@*-,-$;$;%$%$&*%",
".$+>@@+=@.%$..>.#.##.~.#^+.$%%-%%$;$@+.$$%$$@.#>$..@>+++..@'@..@#.$#@#.$;$@+@#..$%$%$$#@@#$;&$%;%-,,%;$%-$.@.@+..,--;.$$%[%;.%-[",
"#@+.#@@#$$-%$..#$$.@#%.@#$-%&$%.$$-%.;$%;@%..++#.>$+@='@>@@+@'@+@@.@@$$$.$.@.]@>..#.$$$%.$;$%$%;$%[*~$%%%#@@$#$;-%-$$@$%%,,!%-%%",
".#@@.@...$$$.@.@$$@@+]#@.$%$.#%$$.%-%%%$$#$.#@@%$$.@+@...#.$@+]+@+$..%$.%%;#$;.@..>.$%%;%$%%-%--%$$%%$;-%@++%$-$%.;.%$%.&---.;$%",
"$@.@.#~#.$%;$.$;%.#+@+.#.$%.@+$.$#$;--%...~;$.@$.;..@#;~..#@+@.@+@.$$.$.-$.@@#+#.@#.;$$$$.%,*~%$$.;%;.$$$@=@$%%.$.$.%%-@.;-,%~$$",
"$$.@#~;..$$;$$%--..@$@$.@#.$@.#%;%$$%%&.$-*-;.@@+.#$@%$$@@+='.;.+#>.#@;$,&..@..$&.$%$.+@;&%-~;$.#.%-$..#++=@@;.@@#>.*-$+#$%&;$.#",
"$;@..-;];%%$.;%%&.$.$.%$.$.$']@%%-$.;%$.$*%$.@++@#@$.%#+==+=@..>@.....%%-.@'+@>%;$$%.@@$%;%$#.#]@.&;.@@@+@'..%#.@..$,;.=.%%$.#@@",
".@.>%%$.,,-%$%$.#+$.;$&;$-$.'@.%;$.$%%$;$-$.+'+@]..%;.{/)=@.$$#+@$;-~;-,*-$.$%*,%$..#$%%%$%$.@+.@@.@@+.$;$.;--$..$$&,&.+$&;..=#@",
".@.$*%%$!-;@$;@@@#@.$%%$$..@@.--%$$;&$.$$-..@+>#$.&$$@')'+.%-;.@..%----%&..#$-,!$$$$.%--#@$;.@#.@@#+++$%-%%--%$#$$;.%.$+;.]=++.]",
"@@$%--%%_%$.%%+]..'.%!%;%#$+$$*-%;%$%$#%%-.$$@..$.;..==+=@#$$..#.];-%-&%;$$.%!!,%$;$%-;.+..$.@.#.@.>+@;--;---..@$..@.#$@$.#+$.$#"};
