/* XPM */
static char * rose_violet_left_xpm[] = {
"15 18 12 1",
" 	c None",
".	c #D877B0",
"+	c #C13688",
"@	c #9F2C7A",
"#	c #7E2370",
"$	c #CF5497",
"%	c #E198CA",
"&	c #C136AC",
"*	c #2F5C19",
"=	c #709E59",
"-	c #9FBF90",
";	c #417E23",
"               ",
"               ",
"               ",
"    ...        ",
"   .+@#$.      ",
"  .+#%$@&$     ",
"   @%@#.@&     ",
"   #$%%%$@.    ",
"  @#@$.$%&@    ",
" ++@#$$..%@    ",
" &&&@#$$$&@    ",
" ...&@###@*    ",
"    ..@@@  *   ",
"            *  ",
"    ==--     * ",
"     ;;===;; * ",
"       ;;;  ;;*",
"              ;"};
