/* XPM */
static char * silvknot_min_xpm[] = {
"19 19 55 1",
" 	c None",
".	c #000000",
"+	c #E6EBEB",
"@	c #DEE5E5",
"#	c #D6DDDD",
"$	c #D4DBDB",
"%	c #CED5D5",
"&	c #E5EAEA",
"*	c #DBE2E2",
"=	c #C6CDCD",
"-	c #C8D0CF",
";	c #B4BDBD",
">	c #B3BABA",
",	c #AFB8B8",
"'	c #A7B0B0",
")	c #ABB4B4",
"!	c #E4E9E9",
"~	c #DDE4E4",
"{	c #C4CDCC",
"]	c #A9B2B2",
"^	c #7C8585",
"/	c #CFD6D6",
"(	c #899292",
"_	c #B0B9B8",
":	c #848D8D",
"<	c #9AA3A3",
"[	c #A0A9A9",
"}	c #6E7978",
"|	c #8B9494",
"1	c #A4ADAD",
"2	c #97A0A0",
"3	c #959E9E",
"4	c #9CA5A5",
"5	c #B8C1C1",
"6	c #707B7A",
"7	c #BAC3C2",
"8	c #A2ABAB",
"9	c #767F7F",
"0	c #4B5655",
"a	c #818A8A",
"b	c #909999",
"c	c #CBD2D2",
"d	c #667170",
"e	c #BDC6C5",
"f	c #566160",
"g	c #BCC3C3",
"h	c #5D6867",
"i	c #868F8F",
"j	c #798282",
"k	c #6C7575",
"l	c #E0E7E7",
"m	c #525D5D",
"n	c #D8DFDF",
"o	c #545F5F",
"p	c #CBD4D3",
".......     .......",
".+@##$%.. ..&&*##$.",
".=-;>>,').$!&~{;>>.",
".>]....^.>-/....^(.",
"._'.   .:<[.   .}|.",
".,1.  .2]<.^.  .34.",
".[2. .-/5.6^6. .78.",
" .9^.>${. .0ab.cc<.",
" .db2.e.   .fb]g5. ",
"  .hi4.     .|2|.  ",
"   .099.   .>>i.   ",
"    .0jk. .+l{.    ",
"     .mii.#+n.     ",
"      .o|]-p.      ",
"       .mi|.       ",
"        .0.        ",
"         .         ",
"                   ",
"                   "};
