/* XPM */
static char * silvknot_menu_xpm[] = {
"19 19 56 1",
" 	c None",
".	c #000000",
"+	c #FFFFFF",
"@	c #F6F9F9",
"#	c #EBF0F0",
"$	c #EAEFEF",
"%	c #E7ECEC",
"&	c #DDE4E4",
"*	c #DFE6E6",
"=	c #DEE5E5",
"-	c #D8DFDF",
";	c #D3DADA",
">	c #CBD4D3",
",	c #C4CDCC",
"'	c #C3CCCC",
")	c #CFD6D6",
"!	c #D2D9D9",
"~	c #B3BCBC",
"{	c #C0C9C8",
"]	c #B4BDBD",
"^	c #CBD2D2",
"/	c #C8D0CF",
"(	c #B9C2C1",
"_	c #AAB3B3",
":	c #C9D0D0",
"<	c #B1BAB9",
"[	c #BCC5C5",
"}	c #B8C1C1",
"|	c #A2ABAB",
"1	c #B0B9B8",
"2	c #97A0A0",
"3	c #ADB6B6",
"4	c #AFB8B8",
"5	c #A8B1B1",
"6	c #838C8C",
"7	c #99A2A2",
"8	c #B5BEBD",
"9	c #D0D7D7",
"0	c #C6CFCE",
"a	c #BEC7C6",
"b	c #BCC3C3",
"c	c #A9B2B2",
"d	c #889191",
"e	c #CED5D5",
"f	c #E4E9E9",
"g	c #9AA3A3",
"h	c #F4F7F7",
"i	c #EDF2F2",
"j	c #8E9797",
"k	c #A4ADAD",
"l	c #E8EDED",
"m	c #DBE2E2",
"n	c #DAE1E1",
"o	c #B8BFBF",
"p	c #C3CACA",
"q	c #A1AAAA",
".......            ",
".+@#$%&..          ",
".*%=-;>,'.         ",
".)!....~{].        ",
".^/.   .((_.       ",
".:'.  .<.'<_.      ",
".[}. .|]1.234.     ",
" .53.}]4. .641.    ",
" .5./^4.   .784.   ",
"  .{90.     .abc.  ",
" .>):.d.   .e>1.   ",
" .f-.gdd. .+h;.    ",
".i#. .jk4.l+$.     ",
".##.  .<'9m=.      ",
".mn.   .,a3.       ",
".)9....]8g.        ",
".^e(~<<o5.         ",
"./p4ccq..          ",
".......            "};
