/* XPM */
static char * silvfleur_l_xpm[] = {
"21 20 79 1",
" 	c None",
".	c #DCDCDC",
"+	c #F4F4F4",
"@	c #E1E1E1",
"#	c #E9E9E9",
"$	c #DADADA",
"%	c #D2D2D2",
"&	c #E3E3E3",
"*	c #DDDDDD",
"=	c #E5E5E5",
"-	c #E7E7E7",
";	c #EBEBEB",
">	c #DBDBDB",
",	c #B1B1B1",
"'	c #D9D9D9",
")	c #D3D3D3",
"!	c #E2E2E2",
"~	c #DFDFDF",
"{	c #D5D5D5",
"]	c #C7C7C7",
"^	c #BEBEBE",
"/	c #BDBDBD",
"(	c #9D9D9D",
"_	c #E0E0E0",
":	c #ABABAB",
"<	c #C1C1C1",
"[	c #656565",
"}	c #979797",
"|	c #C3C3C3",
"1	c #9F9F9F",
"2	c #C2C2C2",
"3	c #BBBBBB",
"4	c #D7D7D7",
"5	c #808080",
"6	c #B2B2B2",
"7	c #888888",
"8	c #D6D6D6",
"9	c #B9B9B9",
"0	c #A7A7A7",
"a	c #D4D4D4",
"b	c #949494",
"c	c #D1D1D1",
"d	c #E6E6E6",
"e	c #B6B6B6",
"f	c #ADADAD",
"g	c #A5A5A5",
"h	c #A4A4A4",
"i	c #DEDEDE",
"j	c #BABABA",
"k	c #A2A2A2",
"l	c #B3B3B3",
"m	c #C9C9C9",
"n	c #686868",
"o	c #8F8F8F",
"p	c #959595",
"q	c #C4C4C4",
"r	c #ECECEC",
"s	c #848484",
"t	c #8B8B8B",
"u	c #B7B7B7",
"v	c #AEAEAE",
"w	c #767676",
"x	c #9C9C9C",
"y	c #969696",
"z	c #ACACAC",
"A	c #6B6B6B",
"B	c #929292",
"C	c #A6A6A6",
"D	c #9B9B9B",
"E	c #B4B4B4",
"F	c #B0B0B0",
"G	c #BFBFBF",
"H	c #B8B8B8",
"I	c #909090",
"J	c #F2F2F2",
"K	c #C5C5C5",
"L	c #CFCFCF",
"M	c #717171",
"N	c #727272",
"                     ",
"                     ",
"                     ",
".+     @#$           ",
"%&@   *=-;>          ",
",'   )!~{]^/         ",
"(_: <&_  [}|         ",
" 1234.    56         ",
" 7689     0ab      cd",
"  (2e    f{8gh%>!!_ij",
"  7kl     m=  f*c^$in",
"   ogp    q$  lpr  s ",
"    tu/a*i~!  v 67   ",
"    wxja.**)  f yz   ",
"      ABChD   gc0E   ",
"              D.eF   ",
"            G  H3I   ",
"           0!J'8K    ",
"            |{)L6    ",
"             M5 N    "};
