/* XPM */
static char * stripe1_xpm[] = {
"64 22 2 1",
" 	c #6C6C73737D7D",
".	c #A2A2A2A2A2A2",
"                                                                ",
"................................................................",
"                                                                ",
"................................................................",
"                                                                ",
"................................................................",
"                                                                ",
"................................................................",
"                                                                ",
"................................................................",
"                                                                ",
"................................................................",
"                                                                ",
"................................................................",
"                                                                ",
"................................................................",
"                                                                ",
"................................................................",
"                                                                ",
"................................................................",
"                                                                ",
"................................................................"};
