/* XPM */
static char * max_wood_xpm[] = {
"22 22 97 2",
"  	c None",
". 	c #8F755A",
"+ 	c #977B5A",
"@ 	c #97785A",
"# 	c #846D55",
"$ 	c #836650",
"% 	c #846755",
"& 	c #8D6956",
"* 	c #8A6B51",
"= 	c #956F56",
"- 	c #8A6851",
"; 	c #7E6154",
"> 	c #80655B",
", 	c #74584F",
"' 	c #694C40",
") 	c #5E4641",
"! 	c #5E4941",
"~ 	c #58443F",
"{ 	c #584239",
"] 	c #53443C",
"^ 	c #594D42",
"/ 	c #58473F",
"( 	c #5F504A",
"_ 	c #534232",
": 	c #584839",
"< 	c #514336",
"[ 	c #7B5E48",
"} 	c #7D614E",
"| 	c #DBBE8C",
"1 	c #4F3E34",
"2 	c #7E6454",
"3 	c #97705A",
"4 	c #846555",
"5 	c #7D5D4E",
"6 	c #755446",
"7 	c #5A4847",
"8 	c #5A4A47",
"9 	c #735E5A",
"0 	c #534340",
"a 	c #544A45",
"b 	c #403327",
"c 	c #4D443C",
"d 	c #5D4B3C",
"e 	c #63503E",
"f 	c #634D3E",
"g 	c #705543",
"h 	c #765C4B",
"i 	c #705849",
"j 	c #76594B",
"k 	c #7C625D",
"l 	c #725A4F",
"m 	c #7E5E54",
"n 	c #876A5A",
"o 	c #755B46",
"p 	c #846A55",
"q 	c #8D6D56",
"r 	c #8F6E5A",
"s 	c #8A6E51",
"t 	c #926D51",
"u 	c #927151",
"v 	c #7B5A48",
"w 	c #755946",
"x 	c #785C51",
"y 	c #97745A",
"z 	c #705343",
"A 	c #7D634E",
"B 	c #81634A",
"C 	c #7B6148",
"D 	c #836250",
"E 	c #957256",
"F 	c #8F695A",
"G 	c #9C6F51",
"H 	c #926A51",
"I 	c #88664D",
"J 	c #8F684E",
"K 	c #806545",
"L 	c #866847",
"M 	c #886A4D",
"N 	c #90705F",
"O 	c #705449",
"P 	c #81604A",
"Q 	c #5D4336",
"R 	c #63493E",
"S 	c #695440",
"T 	c #9E7155",
"U 	c #5D473C",
"V 	c #655044",
"W 	c #634838",
"X 	c #786051",
"Y 	c #7E6759",
"Z 	c #826B61",
"` 	c #9E7455",
" .	c #956C56",
"..	c #9E7955",
"+.	c #A87553",
"@.	c #8A6451",
"#.	c #9C7451",
". + @ . # # # $ % & * = = = - ; ; > , ' ' ' ",
") ) ! ) ~ ~ { ] ^ / / ^ ( ( ( _ : < < ^ ^ ^ ",
"[ } | | | | | | | | | | | | | | | | | 1 % ; ",
"; 2 | } } } } - & & & & 3 & & 4 5 6 6 1 1 ' ",
"7 8 | 7 7 8 9 0 a a a a a 8 ] b b _ _ 1 1 c ",
"_ d | d e f e g h g g i j j j k k > > 1 1 l ",
"; m | n 4 ; 5 % 2 ; h } % % 4 o } % % 1 1 [ ",
"$ p | q r % % } } 4 $ - $ & & * s t u 1 1 * ",
"* q | q % } v % % % % } } v w m m m m 1 1 x ",
"q 3 | y r % $ z g o A % % % 2 - B B B 1 1 C ",
"D $ | & $ & D p & q q E = q q F F F % 1 1 ; ",
"& $ | - & & q = = * t G u H H 3 3 3 3 1 1 r ",
"q & | q 3 y y - - I J t t t H K L M u 1 1 u ",
"D D | $ - - $ N r r 3 y 3 $ D O O i x 1 1 4 ",
"& & | & - P P Q R S h 2 n ; j 2 2 % % 1 1 T ",
"x l | U Q U V j } 4 } } } D } D - * D 1 1 - ",
"W f | l X Y Z h D D } 5 D & % * = = = 1 1 = ",
"i i | ; 4 ; j } D $ D $ - & q = E ` E 1 1 ` ",
"x X | % D D P v D & &  .=  .- t G G ` 1 1 ` ",
"x ; 1 1 1 1 1 1 1 1 1 1 1 1 1 1 1 1 1 1 1 ..",
"2 % ; 1 1 1 1 1 1 1 1 1 1 1 1 1 1 1 1 1 1 +.",
"w 5 } 5 } } } % 4 D P @.q =  .- H = t t ` #."};
