/* XPM */
static char * menu_wood_xpm[] = {
"22 22 101 2",
"  	c None",
". 	c #8F755A",
"+ 	c #977B5A",
"@ 	c #97785A",
"# 	c #846D55",
"$ 	c #836650",
"% 	c #846755",
"& 	c #8D6956",
"* 	c #8A6B51",
"= 	c #956F56",
"- 	c #8A6851",
"; 	c #7E6154",
"> 	c #80655B",
", 	c #74584F",
"' 	c #694C40",
") 	c #5E4641",
"! 	c #5E4941",
"~ 	c #58443F",
"{ 	c #584239",
"] 	c #53443C",
"^ 	c #594D42",
"/ 	c #58473F",
"( 	c #5F504A",
"_ 	c #534232",
": 	c #584839",
"< 	c #514336",
"[ 	c #7B5E48",
"} 	c #7D614E",
"| 	c #81604A",
"1 	c #8A6451",
"2 	c #8F6E5A",
"3 	c #7E6454",
"4 	c #97705A",
"5 	c #846555",
"6 	c #7D5D4E",
"7 	c #755446",
"8 	c #705343",
"9 	c #5A4847",
"0 	c #5A4A47",
"a 	c #735E5A",
"b 	c #534340",
"c 	c #544A45",
"d 	c #403327",
"e 	c #483C33",
"f 	c #4D443C",
"g 	c #5D4B3C",
"h 	c #63503E",
"i 	c #634D3E",
"j 	c #705543",
"k 	c #765C4B",
"l 	c #705849",
"m 	c #76594B",
"n 	c #7C625D",
"o 	c #796256",
"p 	c #725A4F",
"q 	c #7E5E54",
"r 	c #876A5A",
"s 	c #755B46",
"t 	c #755640",
"u 	c #846A55",
"v 	c #8D6D56",
"w 	c #8A6E51",
"x 	c #926D51",
"y 	c #927151",
"z 	c #957256",
"A 	c #DBBE8C",
"B 	c #4F3E34",
"C 	c #785C51",
"D 	c #97745A",
"E 	c #7D634E",
"F 	c #81634A",
"G 	c #7B6148",
"H 	c #836250",
"I 	c #8F695A",
"J 	c #9C6F51",
"K 	c #926A51",
"L 	c #88664D",
"M 	c #8F684E",
"N 	c #806545",
"O 	c #866847",
"P 	c #886A4D",
"Q 	c #90705F",
"R 	c #705449",
"S 	c #9E7155",
"T 	c #655044",
"U 	c #634838",
"V 	c #6B5246",
"W 	c #786051",
"X 	c #7E6759",
"Y 	c #826B61",
"Z 	c #9E7455",
"` 	c #7B5A48",
" .	c #956C56",
"..	c #AC7A59",
"+.	c #8F6B4E",
"@.	c #9E7955",
"#.	c #755340",
"$.	c #88634D",
"%.	c #A87553",
"&.	c #755946",
"*.	c #9C7451",
". + @ . # # # $ % & * = = = - ; ; > , ' ' ' ",
") ) ! ) ~ ~ { ] ^ / / ^ ( ( ( _ : < < ^ ^ ^ ",
"[ } } $ $ $ $ | | | | 1 & & 1 2 % % % % % ; ",
"; 3 ; } } } } - & & & & 4 & & 5 6 7 7 7 8 ' ",
"9 0 0 9 9 0 a b c c c c c 0 ] d d _ _ e f f ",
"_ g g g h i h j k j j l m m m n n > > o , p ",
"; q ; r 5 ; 6 % 3 ; k } % % 5 s } % % [ t [ ",
"$ u v v 2 % % } } 5 $ - $ & & * w x y z = * ",
"* v A A A A A A A A A A A A A A A A A B q C ",
"v 4 A D 2 % $ 8 j s E % % % 3 - F F F B B G ",
"H $ A & $ & H u & v v z = v v I I I % B B ; ",
"& $ A - & & v = = * x J y K K 4 4 4 4 B B 2 ",
"v & A v 4 D D - - L M x x x K N O P y B B y ",
"H H A $ - - $ Q 2 2 4 D 4 $ H R R l C B B 5 ",
"& & B B B B B B B B B B B B B B B B B B B S ",
"C p T B B B B B B B B B B B B B B B B B B - ",
"U i V p W X Y k H H } 6 H & % * = = = - - = ",
"l l C ; 5 ; m } H $ H $ - & v = z Z z z Z Z ",
"C W ; % H H | ` H & &  .=  .- x J J Z Z ..Z ",
"C ; } } 6 H H H - - - K x x K M +.x x Z ..@.",
"3 % ; m 7 #.` & & H H $.K S  .- K x x Z %.%.",
"&.6 } 6 } } } % 5 H | 1 v =  .- K = x x Z *."};
