/* XPM */
static char * yellowglass_min_xpm[] = {
"16 22 25 1",
" 	c None",
".	c #6E5500",
"+	c #2E2200",
"@	c #443300",
"#	c #7E6400",
"$	c #8C7000",
"%	c #D3C78C",
"&	c #D5C88E",
"*	c #BEA025",
"=	c #C5AD4E",
"-	c #C7B468",
";	c #C1A228",
">	c #C6B369",
",	c #C7B87A",
"'	c #000000",
")	c #C4AA2F",
"!	c #D4C891",
"~	c #E3D9AA",
"{	c #C5B574",
"]	c #E9E3B8",
"^	c #EFEAC4",
"/	c #B28E00",
"(	c #C7A51C",
"_	c #C9A824",
":	c #8A6E00",
"                ",
"                ",
"                ",
".+@++++++++++@+.",
"#$%&&&&&&&&&&%$#",
"#*=----------=*#",
"#;>,,,,,,,,,,>;#",
"#;>,,,,,,,,,,>;#",
"#;>,,,,,,,,,,>;#",
"#;>,,,,,,,,,,>;#",
"#;>,,,,,,,,,,>;#",
"#;>,,,,,,,,,,>;#",
"#;>,''',,,,,,>;#",
"#;>,',',,,,,,>;#",
"#;>,''',,,,,,>;#",
"#;>,,,,,,,,,,>;#",
"#)!~~~~~~~~~~!)#",
"#{]^^^^^^^^^^]{#",
"/(_::::::::::_(/",
"                ",
"                ",
"                "};
