/* XPM */
static char *close-inactive[] = {
/* columns rows colors chars-per-pixel */
"23 23 59 1",
"  c black",
". c #3B518F",
"X c #014FE3",
"o c #4A5A87",
"O c #4E5D8C",
"+ c #515E8D",
"@ c #42659F",
"# c #53608E",
"$ c #5B638C",
"% c #526291",
"& c #576698",
"* c #576995",
"= c #556899",
"- c #5C6692",
"; c #586798",
": c #5D6894",
"> c #5D6D9B",
", c #5D709C",
"< c #4365A1",
"1 c #446AA4",
"2 c #4669A8",
"3 c #4867A5",
"4 c #486EAD",
"5 c #4E78AE",
"6 c #4B75B3",
"7 c #4B78B3",
"8 c #5372A4",
"9 c #5E72A1",
"0 c #61668E",
"q c #616790",
"w c #626A94",
"e c #636D99",
"r c #63709D",
"t c #69729C",
"y c #6374A2",
"u c #6578A7",
"i c #657AAB",
"p c #6A75A1",
"a c #6C78A5",
"s c #6D7BA9",
"d c #707AA7",
"f c #707EAB",
"g c #6F81AE",
"h c #6D84B5",
"j c #7181AD",
"k c #7385B1",
"l c #7788B4",
"z c #798DBB",
"x c #7B90BD",
"c c #6889C2",
"v c #748CC1",
"b c #7592C7",
"n c #7593C8",
"m c #7D95C3",
"M c #7E98C5",
"N c #7F99C8",
"B c #739CF4",
"V c #809ACA",
"C c None",
/* pixels */
"C555555555775555555558C",
"11nNVVVVVVNNVVVVVVVVn1.",
"1nvhuuyr99r9,,e>*,*9vn1",
"1Nhgsjgssaaaappptr>-=N1",
"@Nijljssaaaaaaataet:%V@",
"3Nujjsssaadtpt,reee:%N3",
"<Nusfjzmpaetr>rml,::%V<",
"<NusssmMm,aee,MMztwe%V@",
"@VydsukxMmy>yMmmrqw:%V<",
"<VyaspuumMN9MMm*:ttw%V<",
"3V,tatatyVmVNm>ewww:%V3",
"3Vrtaaat,yNNN,eqwqwq#V1",
"2N9etatarMNNNmreqwww%V2",
"2N>ptauuNMMumNm,ewqw%V2",
"4VeettgMMxr,uxmmeqe-+V4",
"4V>tetxNM,aee,Mmzw0-+V4",
"4V;ettzm>p:ttetzlwq$+V4",
"6V;eeeeretetww0twq0$oV4",
"6N&;weeeeeeeewwq000$OV6",
"6N>%w+-eq-qq0+q0$$$+=N7",
"6nv>+###%%&#%%%%+%+%vn6",
"66nVVVVVVVVVVVVVVVVNn64",
"C666666666666666666664C"
};
