/* XPM */
static char *close-activedown[] = {
/* columns rows colors chars-per-pixel */
"23 23 208 2",
"   c black",
".  c #003DAD",
"X  c #053FB2",
"o  c #0036CB",
"O  c #0040AD",
"+  c #0041B3",
"@  c #0049B4",
"#  c #0048C4",
"$  c #004ECD",
"%  c #004CD2",
"&  c #004EDA",
"*  c #0056CA",
"=  c #085ECB",
"-  c #0052D3",
";  c #005BDC",
":  c #0053E1",
">  c #015AE5",
",  c #025FE8",
"<  c #035CF4",
"1  c #0860CE",
"2  c #0864D8",
"3  c #1A64DF",
"4  c #0060E2",
"5  c #0164EA",
"6  c #096DEC",
"7  c #0165F3",
"8  c #0068F3",
"9  c #0269FD",
"0  c #486FAF",
"q  c #4E78AE",
"w  c #4D76B4",
"e  c #A35642",
"r  c #AD5E5E",
"t  c #B2574F",
"y  c #B35E46",
"u  c #B5594F",
"i  c #B05953",
"p  c #B85C52",
"a  c #B05F60",
"s  c #B6614E",
"d  c #B5615C",
"f  c #B5695C",
"g  c #BB6256",
"h  c #B96359",
"j  c #B96A5A",
"k  c #AE6A6E",
"l  c #B56362",
"z  c #B96B64",
"x  c #B2706C",
"c  c #B87069",
"v  c #B97A77",
"b  c #EC6032",
"n  c #EC6B3F",
"m  c #F26839",
"M  c #C0675A",
"N  c #DC7155",
"B  c #C36961",
"V  c #C66C70",
"C  c #C57075",
"Z  c #C07079",
"A  c #D07F65",
"S  c #D17C76",
"D  c #D57E7C",
"F  c #EC6D45",
"G  c #EC6F4A",
"H  c #E3754E",
"J  c #EA7242",
"K  c #ED764D",
"L  c #E77257",
"P  c #E4715C",
"I  c #E17957",
"U  c #EB7451",
"Y  c #EA7854",
"T  c #ED7F5A",
"R  c #F06C41",
"E  c #F07348",
"W  c #F27A4C",
"Q  c #F8794F",
"!  c #F07757",
"~  c #F37A53",
"^  c #E47F64",
"/  c #E57F6A",
"(  c #EC7B63",
")  c #F57F61",
"_  c #BE7980",
"`  c #C2816C",
"'  c #CE856E",
"]  c #D4896F",
"[  c #DD896D",
"{  c #D38678",
"}  c #D28D76",
"|  c #D58E7A",
" . c #D88D70",
".. c #D6937C",
"X. c #DC917C",
"o. c #E78253",
"O. c #E3895F",
"+. c #EE805F",
"@. c #EE885E",
"#. c #F6814D",
"$. c #F48353",
"%. c #F3825B",
"&. c #E38362",
"*. c #E0846B",
"=. c #E78965",
"-. c #E68B6F",
";. c #EC8160",
":. c #E88B67",
">. c #EF8B6D",
",. c #E08B73",
"<. c #EB8D71",
"1. c #E69273",
"2. c #E3927A",
"3. c #ED9376",
"4. c #ED967B",
"5. c #EC9D7E",
"6. c #F38463",
"7. c #F18168",
"8. c #F38A6B",
"9. c #FA8E6F",
"0. c #F4926B",
"q. c #FD9063",
"w. c #F39172",
"e. c #F3947C",
"r. c #F3997B",
"t. c #FD9572",
"y. c #FC957B",
"u. c #F9997C",
"i. c #F6A27F",
"p. c #B08188",
"a. c #C59A8A",
"s. c #C09A94",
"d. c #D48A85",
"f. c #D48E88",
"g. c #D79181",
"h. c #D6938B",
"j. c #D39D8E",
"k. c #DB9483",
"l. c #D9938A",
"z. c #DB9A87",
"x. c #DD9A8C",
"c. c #D19A90",
"v. c #DC9799",
"b. c #DB9F91",
"n. c #DD9B9F",
"m. c #DB9FA0",
"M. c #D5A092",
"N. c #DDA398",
"B. c #D8AA9D",
"V. c #D7A5A4",
"C. c #DDA7A4",
"Z. c #D7B2B5",
"A. c #E5978C",
"S. c #E69B8A",
"D. c #E99780",
"F. c #EE998A",
"G. c #E59D90",
"H. c #F09787",
"J. c #F39A82",
"K. c #F99A81",
"L. c #F89F8A",
"P. c #E2A38C",
"I. c #E6A090",
"U. c #ECA59B",
"Y. c #F1A486",
"T. c #F3A48D",
"R. c #F8A181",
"E. c #FBA38E",
"W. c #F4A494",
"Q. c #F3AA9B",
"!. c #FCA391",
"~. c #F9A699",
"^. c #FCAC9A",
"/. c #FBB69E",
"(. c #FBBA9E",
"). c #E0A7A0",
"_. c #EBAFA6",
"`. c #E7B0A3",
"'. c #F4B4A4",
"]. c #F3B6AB",
"[. c #F6BAA3",
"{. c #F6BDAB",
"}. c #FBB7A2",
"|. c #FABBA4",
" X c #FAC4AC",
".X c #F1C4B6",
"XX c #F1C8BC",
"oX c #FFCFB6",
"OX c #FFD5B9",
"+X c #CEDEFC",
"@X c #EBC9CA",
"#X c #E5CFD8",
"$X c #FFD6C0",
"%X c #FFDDCF",
"&X c #FFDED4",
"*X c #E8DFF1",
"=X c #FFEAD5",
"-X c #FFECDC",
";X c #EBE2F3",
":X c #FFECE2",
">X c #F4E0F5",
",X c #FFF5E7",
"<X c #FFF4EB",
"1X c #FFF8ED",
"2X c #FFF3F3",
"3X c #FFF9F3",
"4X c #FFFBFE",
"5X c None",
/* pixels */
"5X6 = = = = = = = = = = = = = = = = = = 2 3 5X",
"4 * +X4X4X4X4X4X4X4X4X4X4X4X4X4X4X4X4X4X+X; o ",
"@ +X*Xd d d d d r d d r d d d d d d d d ;X+X; ",
"+ 4Xd v @XC.N.j.j.j.j.h.h.k.d.| } ' ..` p.4X$ ",
". 4Xd #X.X X|.|.Q.Q.Q.W.T.T.Y.J.J.e.<.^ x 4X$ ",
"X 4Xd Z. XoX(.}.Q.W.!.L.R.R.R.r.r.e.>.%.c 4X% ",
". 4Xd V.[. X[.'.'.W.L.K.0.u.5.2.D.2.=.@.f 4X% ",
". 4Xd n./.[.{.&X<XG.T.( t.<.[ z.,X$X=.H f 4X% ",
"X 4Xd n.^.Q.].:X3X1X..T./ ,.{ 1X1X=Xw.Y j 4X% ",
"+ 4Xd v.~.~.G.XX:X1X,Xz.{ b.1X1X,X<.L L z 4X% ",
"+ 4Xh l.K.!.H.G.`.1X3X4Xp.3X1X1XA N %.8.j 4X% ",
"+ 4Xr l.y.K.J.H.S.x.3X2X4X4X3X] ^ %.~ ! j 4X% ",
"+ 4Xd f.w.K.K.K.J.X.M.4X4X3Xa.*.U W F R g 4X& ",
"+ 4Xd d.8.u.u.e.H.S.1X4X4X3X1X1.@.E W Q j 4X& ",
"# 4Xd S 9.8.e.A.B.3X3X1XB.,X1X<X..o.#.R u 4X: ",
"$ 4Xd D ) t.e._.<X3X,XS...P.1X3X1XO.J ~ p 4X: ",
"$ 4Xd D 7.;.D.<X1X1X..T.=.1.] 1X1X=XY G u 4X> ",
"- 4Xd V 7.8.3.&X,Xk.5.N 0.0.O.2.-XOXK F s 4X> ",
"; 4Xr V ( ! T *.4.-.0.%.q.W $.Y @.W n m e 4X> ",
"5 4Xh Z P U %.8.^ ( 6.%.W $.#.W J E R b v 4X5 ",
"7 +X>Xv i B l r a l z r h g p p p p t k >X+X8 ",
"9 7 +X4X4X4X4X4X4X4X4X4X4X4X4X4X4X4X4X4X+X8 < ",
"5X9 7 , , , , , , , , , , , , , , , , , 7 < 5X"
};
