/* XPM */
static char *iconify-activedown[] = {
/* columns rows colors chars-per-pixel */
"23 23 164 2",
"   c black",
".  c #003DAD",
"X  c #053FB2",
"o  c #0040AD",
"O  c #0041B3",
"+  c #0049B4",
"@  c #0048C4",
"#  c #004ECD",
"$  c #004CD2",
"%  c #004EDA",
"&  c #0056CA",
"*  c #085ECB",
"=  c #0052D3",
"-  c #005BDC",
";  c #0053E1",
":  c #015AE5",
">  c #025FE8",
",  c #0860CE",
"<  c #0864D8",
"1  c #0060E2",
"2  c #0063E9",
"3  c #096DEC",
"4  c #0165F4",
"5  c #0068F3",
"6  c #0269FD",
"7  c #0A71F3",
"8  c #3463C2",
"9  c #336ECE",
"0  c #3F65C0",
"q  c #3271C6",
"w  c #3473CD",
"e  c #3A73CA",
"r  c #3474D0",
"t  c #3D7CD5",
"y  c #397BF1",
"u  c #4668BE",
"i  c #4A6DBE",
"p  c #4D72B3",
"a  c #4C70BB",
"s  c #5374B8",
"d  c #5A78C1",
"f  c #4278E7",
"g  c #487BE9",
"h  c #3E84EE",
"j  c #3D80F8",
"k  c #3E92F8",
"l  c #4A87D2",
"z  c #418DEF",
"x  c #438BF3",
"c  c #438DFB",
"v  c #4F81F3",
"b  c #488DF1",
"n  c #488DF9",
"m  c #4491EE",
"M  c #4F93EE",
"N  c #4A92F3",
"B  c #4B92FB",
"V  c #4F98F1",
"C  c #4B9BFD",
"Z  c #508EEF",
"A  c #5C8FEC",
"S  c #5584F4",
"D  c #548CF3",
"F  c #548CFC",
"G  c #5884F8",
"H  c #5C8BF4",
"J  c #5B8DFC",
"K  c #5C93EA",
"L  c #5C9CED",
"P  c #5096F4",
"I  c #5291FA",
"U  c #579EF4",
"Y  c #529CFD",
"T  c #5D92FA",
"R  c #5B9AF5",
"E  c #5B9DFB",
"W  c #4CA4FF",
"Q  c #5BA1FC",
"!  c #6181C5",
"~  c #668BC7",
"^  c #6285DB",
"/  c #6E8CDB",
"(  c #6F94DA",
")  c #708DDA",
"_  c #7194DF",
"`  c #749AD3",
"'  c #7B9DD4",
"]  c #618DED",
"[  c #628EF4",
"{  c #618DFD",
"}  c #6493EA",
"|  c #679DE2",
" . c #669FED",
".. c #6894ED",
"X. c #6390F5",
"o. c #6493FB",
"O. c #629DF2",
"+. c #649AFB",
"@. c #6893F5",
"#. c #6995FD",
"$. c #6D9AF4",
"%. c #6A9CFC",
"&. c #7096E3",
"*. c #739CED",
"=. c #789AE0",
"-. c #729CF3",
";. c #729CFB",
":. c #7B9EF0",
">. c #789FFF",
",. c #63A7FE",
"<. c #6EA4FC",
"1. c #7EA5EB",
"2. c #7FAAEC",
"3. c #76A5F7",
"4. c #73A2FA",
"5. c #75AAFB",
"6. c #7AA3F3",
"7. c #7BA5FA",
"8. c #7BAAF4",
"9. c #7BAFF8",
"0. c #7EB1FA",
"q. c #839DD9",
"w. c #809EE6",
"e. c #8B9AE4",
"r. c #93A9DF",
"t. c #91B3DE",
"y. c #82A4EC",
"u. c #85ACE3",
"i. c #82AAEE",
"p. c #89A9E5",
"a. c #80A5F4",
"s. c #84ACF4",
"d. c #82AAFC",
"f. c #89ACF5",
"g. c #88B0EE",
"h. c #82B2FA",
"j. c #8DB3F1",
"k. c #8BB2FB",
"l. c #94AFE1",
"z. c #92B7EF",
"x. c #92BAEA",
"c. c #94B6F2",
"v. c #91B5FC",
"b. c #93BAF5",
"n. c #95BBFA",
"m. c #9EB6F8",
"M. c #9BBAFB",
"N. c #A7BFFB",
"B. c #9CC5F4",
"V. c #9FC4FC",
"C. c #A4C3FB",
"Z. c #A7CEFA",
"A. c #AEC6FC",
"S. c #ABCBFB",
"D. c #B6D5FC",
"F. c #B3D8FE",
"G. c #BCD8FF",
"H. c #B6EFFF",
"J. c #BAEDFF",
"K. c #C1E1FC",
"L. c #CAE5FF",
"P. c #D4EEFF",
"I. c azure",
"U. c None",
/* pixels */
"U.3 * * * * * * * * * * * * * * * * * * < 7 U.",
"1 & K.I.I.I.I.I.I.I.I.I.I.I.I.I.I.I.I.I.K.- 2 ",
"+ K.L.s s s s s s s s p s s s s p s s s P.K.- ",
"o I.s ~ A.l.r.e.e.q.q.' ` ` ` ( _ / / ^ ~ I.# ",
". I.s C.S.D.S.C.N.c.z.j.g.j.f.6.s.1.-.} d I.$ ",
"X I.s y.G.F.Z.C.m.b.b.b.b.k.k.d.7.6.-.} ! I.$ ",
". I.s f.S.Z.B.V.z.j.g.i.1.:.a.;.;.-...} d I.# ",
"o I.s f.M.C.B.n.k.h.9.5.$.;.;.#.#.+.$.] d I.# ",
"X I.s :.M.n.n.h.9.5.<.%.o.o.J J F F ] H s I.$ ",
"X I.s -.k.v.b.0.5.5.<.%.+.#.o.J F I [ H s I.$ ",
"X I.p -.k.k.k.h.s.3.4.o.%.{ o.J D n K J p I.$ ",
"X I.p $.d.d.d.h.s.7.4.#.#.%.T F I C D D p I.% ",
"O I.p @.>.d.d.8.1.6.%.4.%.O.E I N W M b p I.% ",
"O I.a { ;.d.d.y.u.i.:.6.3.K R Q N C P b a I.% ",
"@ I.i H ;.;.1.x.t.u._ y.&.h. .,.b C N n i I.; ",
"# I.u H #.>.k.I.I.I.I.I.I.I. .R P W P n u I.; ",
"# I.d g J ;.a.I.I.I.I.I.I.I.| L Q W m c d I.; ",
"= I.8 G G #.*.I.I.I.I.I.I.I.L ,.C k x c 8 I.; ",
"- I.e g G { @.;.4.$.$.$.$.O.E Y C N x y 9 I.> ",
"2 I.l f g H H H X.J J T I B B B n z h y l I.2 ",
"4 K.H.t 9 e d w e e e e e w r 9 q q 9 9 J.K.4 ",
"6 4 J.I.I.I.I.I.I.I.I.I.I.I.I.I.I.I.I.I.J.4 6 ",
"U.6 4 : > > > > > > > > 2 > > > : > > > 4 6 U."
};
