/* XPM */
static char *iconify-activeup[] = {
/* columns rows colors chars-per-pixel */
"23 23 240 2",
"   c black",
".  c #0F3B9D",
"X  c #173E9B",
"o  c #0139A0",
"O  c #003DAD",
"+  c #053FB2",
"@  c #1E498D",
"#  c #1E4797",
"$  c #1C439B",
"%  c #1E4991",
"&  c #0047A5",
"*  c #0344AB",
"=  c #0049A4",
"-  c #034BAC",
";  c #0B4AAA",
":  c #0041B3",
">  c #014AB2",
",  c #0C53B7",
"<  c #1C5EB4",
"1  c #224B8E",
"2  c #264B94",
"3  c #2A4C98",
"4  c #345BB5",
"5  c #3B61A6",
"6  c #0048C4",
"7  c #004ECD",
"8  c #004CD2",
"9  c #004EDA",
"0  c #0A4ED3",
"q  c #0C4FD8",
"w  c #0651C1",
"e  c #0254CA",
"r  c #0758C2",
"t  c #0B5DC4",
"y  c #085ECB",
"u  c #0052D3",
"i  c #005BDC",
"p  c #0E51DE",
"a  c #0E5BDB",
"s  c #124FD0",
"d  c #1C5AC8",
"f  c #105FD2",
"g  c #1952D4",
"h  c #1C5AD7",
"j  c #1858DD",
"k  c #0053E1",
"l  c #015AE5",
"z  c #025FE8",
"x  c #0852E0",
"c  c #0D57ED",
"v  c #0860CE",
"b  c #0864D8",
"n  c #1F64CF",
"m  c #1463D3",
"M  c #1164DD",
"N  c #1568DC",
"B  c #1E63D2",
"V  c #1A61DE",
"C  c #1B68DF",
"Z  c #0060E2",
"A  c #0063E9",
"S  c #0B6BED",
"D  c #0165F4",
"F  c #0068F3",
"G  c #0269FD",
"H  c #0A71F3",
"J  c #1462E4",
"K  c #1B66E3",
"L  c #1B64EC",
"P  c #1C6BE4",
"I  c #1E6AEC",
"U  c #1464F3",
"Y  c #1A66F4",
"T  c #1D6BF4",
"R  c #1B68F8",
"E  c #1974F5",
"W  c #1B7AFC",
"Q  c #225DCC",
"!  c #2E5FC3",
"~  c #2C5FD0",
"^  c #375CC0",
"/  c #2459E4",
"(  c #2B5DE6",
")  c #2C5BED",
"_  c #2261D2",
"`  c #2365DD",
"'  c #216CD7",
"]  c #216ADC",
"[  c #2C65D5",
"{  c #2F73D9",
"}  c #3463C4",
"|  c #3464CE",
" . c #3263D5",
".. c #3464DB",
"X. c #306AD5",
"o. c #376BD9",
"O. c #3B69D4",
"+. c #3D6BDA",
"@. c #3C75C9",
"#. c #3173DB",
"$. c #3B77DA",
"%. c #2363E4",
"&. c #2765EC",
"*. c #226EE2",
"=. c #236AEF",
"-. c #2D61E2",
";. c #2860EB",
":. c #2665F5",
">. c #2764FD",
",. c #2269F1",
"<. c #2E67F2",
"1. c #2D62FB",
"2. c #2B6AF5",
"3. c #2C73E3",
"4. c #2E70EB",
"5. c #2272F9",
"6. c #2A74F8",
"7. c #2F79F5",
"8. c #3565E0",
"9. c #3163E9",
"0. c #3069EC",
"q. c #3867E7",
"w. c #3865EA",
"e. c #3D6AE7",
"r. c #3C6BEF",
"t. c #3363F5",
"y. c #3763FB",
"u. c #3269F2",
"i. c #3A69F2",
"p. c #3C6CFC",
"a. c #3775E2",
"s. c #3274ED",
"d. c #3B74EB",
"f. c #3C72F2",
"g. c #3D73FD",
"h. c #3A7FF9",
"j. c #4564BE",
"k. c #466FB5",
"l. c #446BBE",
"z. c #4C73B6",
"x. c #5174B6",
"c. c #5975BD",
"v. c #4362C0",
"b. c #476BC5",
"n. c #466DCB",
"m. c #4E71C7",
"M. c #4773DA",
"N. c #4A73DB",
"B. c #5F6FCA",
"V. c #5676CF",
"C. c #5176DE",
"Z. c #527ADD",
"A. c #587CD9",
"S. c #406FE1",
"D. c #406BFD",
"F. c #4573E5",
"G. c #4472E9",
"H. c #4678ED",
"J. c #4974E4",
"K. c #4C77EB",
"L. c #4E7EE6",
"P. c #4C7CEB",
"I. c #4572F4",
"U. c #4770FC",
"Y. c #447DF1",
"T. c #437CFE",
"R. c #4B74FB",
"E. c #4C7BF2",
"W. c #4B7BFC",
"Q. c #5078E4",
"!. c #567BE9",
"~. c #517CF9",
"^. c #6474CD",
"/. c #2180FE",
"(. c #3680FD",
"). c #5D83CB",
"_. c #5480D2",
"`. c #5582DA",
"'. c #5982DC",
"]. c #5E8ADB",
"[. c #4C84F1",
"{. c #4981FA",
"}. c #5281E5",
"|. c #5580EA",
" X c #5388ED",
".X c #5983E6",
"XX c #5B84EA",
"oX c #5C88E3",
"OX c #588EEE",
"+X c #5682F4",
"@X c #558BF2",
"#X c #578DF9",
"$X c #5885F3",
"%X c #5984FC",
"&X c #5D89F3",
"*X c #6A82C5",
"=X c #688DC4",
"-X c #6B88C8",
";X c #668FDF",
":X c #6995D5",
">X c #6992DD",
",X c #6185E5",
"<X c #638DE2",
"1X c #628BEC",
"2X c #638CF3",
"3X c #628AFD",
"4X c #688FF1",
"5X c #6790E0",
"6X c #6590ED",
"7X c #6C94E5",
"8X c #6B94EB",
"9X c #6092F1",
"0X c #6E96F5",
"qX c #6990FB",
"wX c #6998F2",
"eX c #7492EC",
"rX c #799FED",
"tX c #7297FD",
"yX c #779DFB",
"uX c #7F9BF3",
"iX c #73A2E3",
"pX c #74A2E8",
"aX c #77A5F3",
"sX c #7EA1F6",
"dX c #7DA2F9",
"fX c #7FADF0",
"gX c #83ADEE",
"hX c #86A4F4",
"jX c #81A7FE",
"kX c #87A9F9",
"lX c #8FB6F5",
"zX c #8CBBFA",
"xX c #96BBFE",
"cX c #8FDCFF",
"vX c #94D9FF",
"bX c #A8CCFE",
"nX c #B2DEFA",
"mX c #B2E1FE",
"MX c #DDFDFE",
"NX c None",
/* pixels */
"NXS y v y y y y y y y y y y y y v y v y b H NX",
"Z e nXMXMXMXMXMXMXMXMXMXMXMXMXMXMXMXMXMXnXi A ",
"> nXbXhX-X*X^.B.c.x.x.z.z.k.j.b.j.j.4 4 nXnXi ",
"* MXdXkXzXgXuXeX7X>X>X<X<XoX}.!.Q.N.o.} 5 MX7 ",
"O MXA.xXzXgXuXeX7X7X8X6X1X2X$X+X!.F.o.| 3 MX7 ",
"+ MX,XjXfXiXrX7X5X].'.Z.C.!.K.K.J.+.X.4 3 MX8 ",
"O MXXXyXaXpXwX9XOX XP.H.I.I.p.p.i.F...~ 3 MX8 ",
"* MXN.tX0X8XOX X[.{.f.u.i.t.1.1.;...8. .3 MX7 ",
"+ MXJ.3XqX9X@X[.{.h.g.p.p.y.1.>.,.8.0...3 MX8 ",
"+ MXJ.3X3X&X#X.XK.H.r.I.w.i.u.&.L -.0.~ 2 MX8 ",
"+ MXG.%X%X&X@X.XE.W.p.p.g.u.>.:.5.` %.[ 1 MX8 ",
": MXe.~.$X X}._.}.H.W.d.d.3.=.=.5.' V [ @ MX9 ",
": MXw.R.%XXX'.).`.N.|.P.X.3.7.K E C P ` % MX9 ",
": MX9.U.U.Q.:X=X).m.V.n. Xa.h.K W P L h # MX9 ",
"6 MX-.D.R.2XMXMXMXMXMXMXMX$.s.*.5.*.R j $ MX9 ",
"7 MX( y.I.'.MXMXMXMXMXMXMX@.#.3.W N U 0 $ MXk ",
"7 MX/ t.i.M.MXMXMXMXMXMXMX{ h.E U b U q . MXl ",
"u MX/ ) i.I.G.S.S.G.G.G.s.6.6.5.I L c p . MXl ",
"i MXs g -.9.w.t.u.<.2.2.,.T R Y J a x 0 * MXz ",
"A MX' n d Q Q Q n Q B B m m m f t r e 6 < MXA ",
"F nXvX, * ; ; ; ; ; ; ; ; - > - = = : * vXmXF ",
"G D nXMXMXMXMXMXMXMXMXMXMXMXMXMXMXMXMXMXmXF G ",
"NXG D z z z z z z z z z A z A z z z z z D G NX"
};
