/* XPM */
static char *maximize-inactive[] = {
/* columns rows colors chars-per-pixel */
"23 23 37 1",
"  c black",
". c #3B5E9C",
"X c #3C619E",
"o c #3D63A2",
"O c #014FE3",
"+ c #42639D",
"@ c #4365A1",
"# c #4167A9",
"$ c #446AA4",
"% c #456BAB",
"& c #4867A5",
"* c #496AA5",
"= c #4A6DAC",
"- c #466CB1",
"; c #4A6EB1",
": c #4E70AB",
"> c #4E78AE",
", c #4C73B3",
"< c #4B78B3",
"1 c #5272AC",
"2 c #5778AF",
"3 c #5876AE",
"4 c #5374B4",
"5 c #5375B8",
"6 c #5678B6",
"7 c #5678B9",
"8 c #5877B0",
"9 c #597AB5",
"0 c #5A7BBA",
"q c #5E80BB",
"w c #6182BD",
"e c #6485C0",
"r c #668DC2",
"t c #698BC2",
"y c #6F90C4",
"u c #7999CA",
"i c None",
/* pixels */
"i>>>2>>>>>>>>>>>1>>>>>i",
"$$yuuuuuuuuuuuuuuuuut*$",
"$ytw883311:::=::::**yy$",
"$uwewww0q9999622441=&u$",
"+u4twww0q9009007441=+u+",
"&u7ewqw0969446444:-%+u&",
"+u0wwquuuuuuuuuuu4;;+u@",
"+u4qq0uuuuuuuuuuu;;1+u+",
"+u5000uuuuuuuuuuu,:;+u@",
"@u5000u666,5,5,;u;,-+u$",
"@u5000u9775555;;u=;=+u+",
"&u,707u44454,5;;u-%;Xu*",
"&u,707u44466-;,;u;;=Xu$",
"#u;774u2314;7,5-u--%+u#",
"-u;570u317745,,:u::%+u=",
"-u;542u31411>::,u--#Xu;",
";u-551uuuuuuuuuuu--oou;",
";u=;5;55454;,,,,---%.u;",
",u%%;;;5,5,,;,;---%-ou<",
"<u=%%%%&%%=%%%%%ooooou<",
"<yro.+oo@oXXXXoo..oory<",
"<,yuuuuuuuuuuuuuuuuuy<<",
"i<4<<,,,<,,<,<<,,,<<,,i"
};
