/* XPM */
static char *maximize-activedown[] = {
/* columns rows colors chars-per-pixel */
"23 23 161 2",
"   c black",
".  c #003DAD",
"X  c #053FB2",
"o  c #0040AD",
"O  c #0041B3",
"+  c #0049B4",
"@  c #0048C4",
"#  c #004ECD",
"$  c #004CD2",
"%  c #004EDA",
"&  c #0056CA",
"*  c #085ECB",
"=  c #0052D3",
"-  c #005BDC",
";  c #0053E1",
":  c #015AE5",
">  c #025FE8",
",  c #0860CE",
"<  c #0864D8",
"1  c #0060E2",
"2  c #0063E9",
"3  c #096DEC",
"4  c #0165F4",
"5  c #0068F3",
"6  c #0269FD",
"7  c #0A71F3",
"8  c #3463C2",
"9  c #336ECE",
"0  c #3F65C0",
"q  c #3271C6",
"w  c #3473CD",
"e  c #3A73CA",
"r  c #3474D0",
"t  c #3D7CD5",
"y  c #397BF1",
"u  c #4668BE",
"i  c #4A6DBE",
"p  c #4D72B3",
"a  c #4C70BB",
"s  c #5374B8",
"d  c #5A78C1",
"f  c #4278E7",
"g  c #487BE9",
"h  c #3E84EE",
"j  c #3D80F8",
"k  c #4A87D2",
"l  c #418DEF",
"z  c #438BF3",
"x  c #438DFB",
"c  c #4F81F3",
"v  c #488DF1",
"b  c #488DF9",
"n  c #4491EE",
"m  c #4F93EE",
"M  c #4A92F3",
"N  c #4B92FB",
"B  c #4F98F1",
"V  c #508EEF",
"C  c #5C8FEC",
"Z  c #5584F4",
"A  c #548CF3",
"S  c #538DFD",
"D  c #5884F8",
"F  c #5C8BF4",
"G  c #5C8DFA",
"H  c #5C93EA",
"J  c #5D9CEE",
"K  c #5096F4",
"L  c #5392FA",
"P  c #579EF4",
"I  c #539AFD",
"U  c #5D92FA",
"Y  c #5B9AF5",
"T  c #5B9DFB",
"R  c #5BA1FC",
"E  c #6181C5",
"W  c #668BC7",
"Q  c #6285DB",
"!  c #6E8CDB",
"~  c #6F94DA",
"^  c #708DDA",
"/  c #7194DF",
"(  c #749AD3",
")  c #7B9DD4",
"_  c #7B9ED9",
"`  c #618DED",
"'  c #628EF4",
"]  c #628DFE",
"[  c #6493EA",
"{  c #679DE2",
"}  c #669FED",
"|  c #6894ED",
" . c #6390F5",
".. c #6492FA",
"X. c #629DF2",
"o. c #639DF8",
"O. c #6893F5",
"+. c #6994FC",
"@. c #6D9AF4",
"#. c #699BFC",
"$. c #7096E3",
"%. c #739CED",
"&. c #7999E2",
"*. c #739CF4",
"=. c #729CFC",
"-. c #7B9EF0",
";. c #789FFF",
":. c #7EA2DD",
">. c #65A7FE",
",. c #7EA5EB",
"<. c #76A5F7",
"1. c #73A1FB",
"2. c #7AA3F3",
"3. c #7BA5FA",
"4. c #839DD9",
"5. c #809EE6",
"6. c #8B9AE4",
"7. c #84A2DB",
"8. c #96ABCE",
"9. c #95A7DA",
"0. c #93A9DF",
"q. c #91B3DE",
"w. c #86A7E5",
"e. c #82A4EC",
"r. c #85ACE3",
"t. c #82AAEE",
"y. c #89A9E5",
"u. c #80A5F4",
"i. c #83A7F8",
"p. c #84ACF4",
"a. c #82AAFC",
"s. c #89ACF5",
"d. c #88B0EE",
"f. c #83B0FA",
"g. c #8DB3F1",
"h. c #8CB1FB",
"j. c #94AFE1",
"k. c #92B7EF",
"l. c #94B6F2",
"z. c #91B5FC",
"x. c #93BAF5",
"c. c #97BAFA",
"v. c #9EB6F8",
"b. c #9BBAFB",
"n. c #A7BFFB",
"m. c #9CC5F4",
"M. c #9FC4FC",
"N. c #A4C3FB",
"B. c #A7CEFA",
"V. c #AEC6FC",
"C. c #ABCBFB",
"Z. c #B6D5FC",
"A. c #B3D8FE",
"S. c #BCD8FF",
"D. c #B6EFFF",
"F. c #BAEDFF",
"G. c #CAE5FF",
"H. c #D4EEFF",
"J. c #E7F9FE",
"K. c azure",
"L. c None",
/* pixels */
"L.3 * * * * * * * * * * * * * * * * * * < 7 L.",
"1 & J.K.K.K.K.K.K.K.K.K.K.K.K.K.K.K.K.K.J.- 2 ",
"+ J.G.s s s s s s s s s s s s s s s s s H.J.- ",
"o K.s W V.q.0.6.6.4.4.) ( ( ( ~ / ^ ^ Q W K.# ",
". K.s N.C.Z.C.N.n.l.k.g.d.g.p.2.a.2.%.| d K.$ ",
"X K.s e.S.A.B.N.v.x.x.x.l.h.h.a.3.2.%.H E K.$ ",
". K.s s.C.B.m.N.l.g.d.t.e.-.u.*.=.-.| H d K.# ",
"o K.s s.b.N.m.K.K.K.K.K.K.K.K.K.K.K.@.` d K.$ ",
"X K.s %.b.c.c.K.K.K.K.K.K.K.K.K.K.K.` F s K.$ ",
"X K.s *.z.z.z.K.K.K.K.K.K.K.K.K.K.K.` ' s K.$ ",
"X K.p *.h.h.h.K.p.1.1.+.#. ...G A K.V U s K.$ ",
"X K.p @.a.a.a.K.p.3.1.+.#.#...S L K.V A p K.$ ",
"O K.a O.3.i.a.K.,.<.=.=.#.o.Y L M K.m v s K.% ",
"O K.a  .=.i.a.K.r.,.%.3.<.H P T M K.B b i K.% ",
"@ K.i F =.=.2.K.q.r._ 5.$.f.X.>.v K.v b i K.% ",
"# K.u F +.;.z.K.9.&.i.a.*.3.} Y K K.B N u K.; ",
"# K.d g G =.u.K.8.7.y.7._ :.{ J P K.n x 0 K.: ",
"= K.8 D D +.%.K.K.K.K.K.K.K.K.K.K.K.z x 8 K.: ",
"- K.e g D ....@.*.@.@.@.@.Y T I I M z j 9 K.> ",
"2 K.k f g D F ' U G U U L N N N b z h y k K.2 ",
"5 J.D.t e e e d e e e e e w r w q q 9 9 F.J.5 ",
"6 4 J.K.K.K.J.J.K.K.K.K.K.K.K.K.K.K.K.K.J.4 6 ",
"L.6 4 > > > 2 > > > > > 2 > > > : 2 > > 4 6 L."
};
