/* XPM */
static char *maximize-activeup[] = {
/* columns rows colors chars-per-pixel */
"23 23 228 2",
"   c black",
".  c #0F3B9D",
"X  c #173E9B",
"o  c #0139A0",
"O  c #003DAD",
"+  c #053FB2",
"@  c #1E498D",
"#  c #1E4797",
"$  c #1C439B",
"%  c #1E4991",
"&  c #0047A5",
"*  c #0344AB",
"=  c #0049A4",
"-  c #034BAC",
";  c #0B4AAA",
":  c #0041B3",
">  c #014AB2",
",  c #0C53B7",
"<  c #1C5EB4",
"1  c #224B8E",
"2  c #264B94",
"3  c #2A4C98",
"4  c #345BB5",
"5  c #3B61A6",
"6  c #0048C4",
"7  c #004ECD",
"8  c #004CD2",
"9  c #004EDA",
"0  c #0A4ED3",
"q  c #0C4FD8",
"w  c #0651C1",
"e  c #0254CA",
"r  c #0758C2",
"t  c #0B5DC4",
"y  c #085ECB",
"u  c #0052D3",
"i  c #005BDC",
"p  c #0E51DE",
"a  c #0E5BDB",
"s  c #124FD0",
"d  c #1C5AC8",
"f  c #105FD2",
"g  c #1952D4",
"h  c #1C5AD7",
"j  c #1858DD",
"k  c #0053E1",
"l  c #015AE5",
"z  c #025FE8",
"x  c #0852E0",
"c  c #0D57ED",
"v  c #0860CE",
"b  c #0864D8",
"n  c #1F64CF",
"m  c #1463D3",
"M  c #1164DD",
"N  c #1568DC",
"B  c #1E63D2",
"V  c #1A61DE",
"C  c #1B68DF",
"Z  c #0060E2",
"A  c #0063E9",
"S  c #096DEC",
"D  c #0165F4",
"F  c #0068F3",
"G  c #0269FD",
"H  c #0A71F3",
"J  c #1462E4",
"K  c #1B66E3",
"L  c #1C65EB",
"P  c #1C6BE4",
"I  c #1E6AEC",
"U  c #1464F3",
"Y  c #1A66F4",
"T  c #1D6BF4",
"R  c #1B68F8",
"E  c #225DCC",
"W  c #2E5FC3",
"Q  c #2C5FD0",
"!  c #375CC0",
"~  c #2459E4",
"^  c #2B5DE6",
"/  c #2C5BED",
"(  c #2261D2",
")  c #2365DD",
"_  c #216CD7",
"`  c #216ADC",
"'  c #2C65D5",
"]  c #3463C4",
"[  c #3464CE",
"{  c #3263D5",
"}  c #3464DB",
"|  c #306AD5",
" . c #376BD9",
".. c #3B69D4",
"X. c #3D6BDA",
"o. c #3C75C9",
"O. c #3173DB",
"+. c #3B77DA",
"@. c #2363E4",
"#. c #226EE2",
"$. c #236AEF",
"%. c #2D61E2",
"&. c #2860EB",
"*. c #2665F5",
"=. c #206AF2",
"-. c #2E67F2",
";. c #2B6AF5",
":. c #2C73E3",
">. c #2E70EB",
",. c #2470F8",
"<. c #2A74F8",
"1. c #2F79F5",
"2. c #3565E0",
"3. c #3163E9",
"4. c #3069EC",
"5. c #3867E7",
"6. c #3865EA",
"7. c #3D6AE7",
"8. c #3C6BEF",
"9. c #3263F5",
"0. c #3763FB",
"q. c #3269F2",
"w. c #3B69F1",
"e. c #3D6DFB",
"r. c #3775E2",
"t. c #3274ED",
"y. c #3B74EB",
"u. c #3F73F1",
"i. c #3D72FC",
"p. c #3A7FF9",
"a. c #4564BE",
"s. c #466FB5",
"d. c #446BBE",
"f. c #4C73B6",
"g. c #5174B6",
"h. c #5176BD",
"j. c #5975BD",
"k. c #5D7CBE",
"l. c #4362C0",
"z. c #476BC5",
"x. c #466DCB",
"c. c #4E71C7",
"v. c #4773DA",
"b. c #4A73DB",
"n. c #5F6FCA",
"m. c #5373CE",
"M. c #5579C2",
"N. c #5176DE",
"B. c #527ADD",
"V. c #587CD9",
"C. c #406FE1",
"Z. c #406BFD",
"A. c #4573E5",
"S. c #4570E8",
"D. c #4678ED",
"F. c #4974E4",
"G. c #4C77EA",
"H. c #4E7EE6",
"J. c #4D7BEA",
"K. c #4673F5",
"L. c #4770FC",
"P. c #4B74FB",
"I. c #4C7BF2",
"U. c #4B7BFC",
"Y. c #5078E4",
"T. c #567BE9",
"R. c #517FF0",
"E. c #517CF9",
"W. c #6474CD",
"Q. c #6D84AE",
"!. c #6C80BE",
"~. c #5C82CC",
"^. c #5480D2",
"/. c #5682DB",
"(. c #5982DC",
"). c #5E8ADB",
"_. c #5480E5",
"`. c #5580EA",
"'. c #5789ED",
"]. c #5983E6",
"[. c #5A82EB",
"{. c #5C88E3",
"}. c #5682F4",
"|. c #5883F2",
" X c #5984FC",
".X c #5D89F3",
"XX c #6A82C5",
"oX c #688DC4",
"OX c #6B88C8",
"+X c #668FDF",
"@X c #6992DD",
"#X c #6185E5",
"$X c #638DE2",
"%X c #628BEC",
"&X c #638CF3",
"*X c #628AFD",
"=X c #688FF1",
"-X c #6790E0",
";X c #6590ED",
":X c #6C94E5",
">X c #6B94EB",
",X c #6E96F5",
"<X c #6990FB",
"1X c #7492EC",
"2X c #799FED",
"3X c #7297FD",
"4X c #779DFB",
"5X c #7F9BF3",
"6X c #73A2E3",
"7X c #74A2E8",
"8X c #77A5F3",
"9X c #7EA1F6",
"0X c #7DA2F9",
"qX c #7FADF0",
"wX c #83ADEE",
"eX c #86A4F4",
"rX c #81A7FE",
"tX c #87A9F9",
"yX c #8FB6F5",
"uX c #8CBBFA",
"iX c #96BBFE",
"pX c #8FDCFF",
"aX c #94D9FF",
"sX c #A8CCFE",
"dX c #B2DEFA",
"fX c #B2E1FE",
"gX c #DDFDFE",
"hX c None",
/* pixels */
"hXS y v v y y y y y y y y y y y y v y y b H hX",
"Z e dXgXgXgXgXgXgXgXgXgXgXgXgXgXgXgXgXgXdXi A ",
"> dXsXeXOXXXW.n.j.g.g.f.f.s.d.z.a.l.! 4 dXdXi ",
"* gX0XtXyXwX5X1X:X@X+X+X$X).T.T.N.b. .] 5 gX8 ",
"O gXV.iXuXwX5X1X:X:X>X;X%X&X X}.Y.b. .] 3 gX8 ",
"+ gX#XrXqX6X2X:X-X).(.B.b.T.G.G.F.C.' ! 3 gX8 ",
"O gX[.4X8X7XgXgXgXgXgXgXgXgXgXgXgXC.} Q 3 gX7 ",
"* gXb.3X,X>XgXgXgXgXgXgXgXgXgXgXgX} 2.{ 3 gX8 ",
"* gXF.*X<X%XgXgXgXgXgXgXgXgXgXgXgX2.6.{ 3 gX8 ",
": gXF.*X*X&XgX[.J.D.w.K.6.8.-.&.gX%.4.' 2 gX8 ",
"+ gXS. X X.XgX{.I.U.i.e.i.q.*.*.gX) @.' 1 gX8 ",
": gX7.E.}.|.gX^.`.D.K.u.y.>.$.I gX` j ' @ gX9 ",
": gX6.P. XT.gX~./.b.`.J.| :.1.P gX#.P ( % gX9 ",
": gX3.L.P.Y.gXoX~.c.m.x.'.r.p.K gXC Y h # gX9 ",
"6 gX3.e.P.=XgXk.m.|.|.J.I.+.>.#.gXP R j $ gX9 ",
"7 gX^ 0.P.(.gXQ.k.~.M.h.M.o.O.:.gXN U 0 $ gXk ",
"7 gX~ 9.w.b.gXgXgXgXgXgXgXgXgXgXgXb U q X gXl ",
"8 gX~ / w.w.S.F.A.A.A.y.t.<.<.,.I L c p . gXl ",
"i gXs g ^ 3.3.q.-.-.-.;.=.T R U J a x 0 ; gXz ",
"A gX_ n d E E ( ( ( B B B m m f t r e 6 < gXA ",
"F fXaX, ; ; ; ; ; ; ; ; - - > * = & : * aXfXF ",
"G D dXgXgXgXgXgXgXgXgXgXgXgXgXgXgXgXgXgXdXD G ",
"hXG A z z z z z z z z z A z A z z z z z D G hX"
};
