/* XPM */
static char *panel-start[] = {
/* columns rows colors chars-per-pixel */
"104 30 56 1",
"  c #000000",
". c #0D0D0D",
"X c #10100F",
"o c #111111",
"O c #1C1C1C",
"+ c #1F2020",
"@ c #3E2B0F",
"# c #232323",
"$ c #272827",
"% c #2B2B2B",
"& c #2F302F",
"* c #302F2F",
"= c #30302F",
"- c #333333",
"; c #373837",
": c #373838",
"> c #383837",
", c #3B3B3B",
"< c #403F40",
"1 c #76430D",
"2 c #78450E",
"3 c #434343",
"4 c #484747",
"5 c #4B4B4B",
"6 c #4F504F",
"7 c #504F4F",
"8 c #504F50",
"9 c #50504F",
"0 c #525252",
"q c #595959",
"w c #646464",
"e c #686867",
"r c #6A6A6A",
"t c #797268",
"y c #737373",
"u c #7B7B7B",
"i c #A95E0D",
"p c #AB600E",
"a c #B7730D",
"s c #B8740E",
"d c #DB8E0C",
"f c #DD910E",
"g c #828282",
"h c #8B8B8B",
"j c #939393",
"k c #9A9A9A",
"l c #A4A4A4",
"z c #ABABAB",
"x c #B4B3B3",
"c c #BBBBBB",
"v c #DCBA84",
"b c #C5C5C5",
"n c #C9C9C9",
"m c #DCDCDC",
"M c gray100",
"N c None",
/* pixels */
"oooooooooooooooo.oooooooooooooooXoooooooooooooooooooooooooooooo.XXXXXX.......... .. . . .   <xNNNNNNNNNN",
"#50066666666668888688866888866806666668666668866666666606666665685555554443<3<<<,,,,::::----o5cNNNNNNNNN",
"#qqqqqqqqqqqqqqqqqqqqqqqqqqqqqqqqqqqqqqqqqqqqqqqqqqqqqqqqqqqqqqqq00000068555555443333<<<,,,:-OwmNNNNNNNN",
"+4555555555555555555.X555555555555555555555555555555555555555454455443333<<<,,,::::--*&&*%%%$O#jNNNNNNNN",
"O344334334333333<4<.vv.<333333333333333333343333333333333333333333<<,,,,,,::;---****%%$$$$##++.<bNNNNNNN",
"O,,,<,,,,,<,<<,<,,.vdi.:,<<,<<<,<<<<<,<<<,,,,<<<<<<<<<,<<,<<<,<,,,,>>>;-:&-&&%%%%$$$$###+OOOOOoOhNNNNNNN",
"O<3,3,3<33<<<<3<<.vdiji.<<3<<<3<<,,3<<<<,<,<,3<<<<<<<<,3<<<<<<<,,,,,,>:;---&*&&&%$$$$####+OOOOo.5nNNNNNN",
"O333333333333<...vdijbi.333.3<3<3333333euue,<333333333333333333<<<,<,,>>:-:--*&%%%%$$###+#+OOOO.#kNNNNNN",
"O4344333333...11pddikbmio<.zo<<5333333rmmmg,<33334433443343343333<<,<,,>>:>----**%%%$$$###++OOOO rMNNNNN",
"O444444....vvvvdfdikbmmi..xx.45<54454qcmx%&,33444343434444444443333<<,,,:>>-:-****%%%$$$$##+++OO.0nNNNNN",
"+45444.vvd.a11idddpkmiiiixx.555545545umme$-,34445433343444334543<<<<<,,,::---**-*-*%%%$$$###+++O.;zNNNNN",
"+5555ondfp1adfddfddpiii1xxx.55555555jcmmxgzzz344jzllzz34rxxe33xzh<hzwyzzkqyzlzq%****%%%%$$###+++oOjNNNNN",
"+66566.ni.vffdffddfdap22xx....886655mmmmm0mmm,<4mmzzmm,<cmmy,rmmgwnmxmmmmbmmmmk#****%%%%%$#####+OogNNNNN",
"+606666omos2pfffodffa22mbmnbxx.866653zmm#%mmm&,gmmrlmm&wmmmr:cmc<ymmmwhmmmhqnmmw%*-***%%%$$$###+O yNNNNN",
"#6608008ovfffffXooffaapmmnnxo.0066664zmx%&mmm%,mmj%lmm&kmnmr-mmu$rmm5#$mmh+#lmb5$*-*-%%%%$$$###+O yNNNNN",
"#0000006ovfff.XXoffp222mnnxo00000006gmmr&,ymm&zmn0&kmm%mnjmezmn%*mmm#%rmmq#$mmk+$*--*--%%%$$$#### yNNNNN",
"#000q000os2ffffffffssp2mnxo.00000000gmmr:<umm%mmg&:ymmrmgrmrmmg&-mmx$&ymb5%&nmk#%-----*%%%%$$###O uNNNNN",
"#000000ovffpffffffppppmnnnnn.o0qq006bmm<:3gmmjmn&:3ummcm&rmcmn%&wmmw%:jml#&qmm4#%-:---***%%%$$$#OogNNNNN",
"#00000oofffffffffspopmmmn.xxxxo00006mmm%,4gmmmml-,4ummmc&ymmml&:ummw&:mml$-zmm+%-::----*%*%%%$$#OOjNNNNN",
"#00q0Xt@omffffffsaonOnmnnnooo.000q06mmj&<55xmmh%:35gmmm6&ymmm$&<umc<&,mmy%-lmx#%-:::---***%%%$$$X;zNNNNN",
"+q0qqot@@Xmffffsponoonnnnno00q0q000gmmr-365zmm<-,66gmmc%:ummr&,3mml&:zmme%-mml$*::,:----***%%$$$.0nNNNNN",
"+00000ot@Xmmnfsx.n.m.nxxnnn.00000qq53::<5664,-:<5605,:&:33<::,353,-:<,:&%:::%$%-:::::---****%%%$ rMNNNNN",
"$000000XXnnmnnxXnmmonxxoxxno0q000q66533460054<35600653335553345553<<33<,:<,,:-::,,,:::----*%%%$O$kNNNNNN",
"+00q00000XonnxXnmoonxxo0o.xno00000086666000068680000666660656666554545433333,,,,,,,:::---***%%$.5nNNNNNN",
"#0000000000oXXn..nxx..0000ox.0000000000000q000000000000000000606885555444333<<<<<,,,::::--&&&%#OhNNNNNNN",
"#000000000000XXnxxoo0000000o0000000000000000000000008000000000068685555444434<<<<,,,:::---=*&&.5bNNNNNNN",
"+00000060000800...00000000000000000000008888080000000080000068066685555544433<<<<,,,,,:----=&#$jNNNNNNNN",
"+5565555555555555555555555555555555555555555555555555555555555554444433<<3<,<<,>::--****&%%%#owmNNNNNNNN",
"O:,:,,:,,,,,>,,,,,:,:,:,,:,,:,,:,,,,,,,,,,,,,,,,,,,,:,:,,,:,:,:,::::---*=*&&$$%###$$##++OOOo.6cNNNNNNNNN",
"ooooooooooooXXoXooooooooooooooooXXXXooXXoo.o.o.ooooooooooooooooooX..XX..X..........  .. .  .<zNNNNNNNNNN"
};
