/* XPM */
static char *panel-holder[] = {
/* columns rows colors chars-per-pixel */
"12 30 3 1",
"  c black",
". c gray100",
"X c None",
/* pixels */
"XXXXXXXXXXXX",
"XXXXXXXXXXXX",
"XXXXXXXXXXXX",
"XXXXXXXXXXXX",
"XXXXXXXXXXXX",
"XXXXXXXXXXXX",
"XX  XXXXXXXX",
"XX  .XXXXXXX",
"XXX..XXXXXXX",
"XXXXX  XXXXX",
"XXXXX  .XXXX",
"XXXXXX..XXXX",
"XX  XXXXXXXX",
"XX  .XXXXXXX",
"XXX..XXXXXXX",
"XXXXX  XXXXX",
"XXXXX  .XXXX",
"XXXXXX..XXXX",
"XX  XXXXXXXX",
"XX  .XXXXXXX",
"XXX..XXXXXXX",
"XXXXX  XXXXX",
"XXXXX  .XXXX",
"XXXXXX..XXXX",
"XXXXXXXXXXXX",
"XXXXXXXXXXXX",
"XXXXXXXXXXXX",
"XXXXXXXXXXXX",
"XXXXXXXXXXXX",
"XXXXXXXXXXXX"
};
