/* XPM */
static char * terminal_xpm[] = {
"16 16 68 1",
" 	c None",
".	c #828177",
"+	c #8C8982",
"@	c #898680",
"#	c #83827D",
"$	c #857D7A",
"%	c #7B7B7A",
"&	c #7D7B75",
"*	c #73726C",
"=	c #6C6A65",
"-	c #EFECE4",
";	c #B7B5B2",
">	c #AFAEAA",
",	c #A5A7A8",
"'	c #9F9F99",
")	c #979893",
"!	c #94938D",
"~	c #797572",
"{	c #716E68",
"]	c #C0BCB8",
"^	c #8F8E90",
"/	c #717372",
"(	c #6B6B69",
"_	c #646562",
":	c #5B5C5B",
"<	c #4C4B4C",
"[	c #39363A",
"}	c #312E34",
"|	c #C4C2BD",
"1	c #8E8E8C",
"2	c #6F706F",
"3	c #535253",
"4	c #3D3E3D",
"5	c #333533",
"6	c #696668",
"7	c #575959",
"8	c #474A47",
"9	c #2A2B2A",
"0	c #5E615F",
"a	c #4F524D",
"b	c #484648",
"c	c #242424",
"d	c #AEB0AA",
"e	c #65635E",
"f	c #A8A9A5",
"g	c #434341",
"h	c #1E1D1E",
"i	c #403C40",
"j	c #211F20",
"k	c #19171A",
"l	c #131313",
"m	c #565458",
"n	c #3F4241",
"o	c #615D5A",
"p	c #C0BEB6",
"q	c #938F8D",
"r	c #6B6C5D",
"s	c #656654",
"t	c #565855",
"u	c #928780",
"v	c #8D827B",
"w	c #606441",
"x	c #585658",
"y	c #45433F",
"z	c #53524E",
"A	c #504F4A",
"B	c #4B4947",
"C	c #484643",
"                ",
"  .++@@#$%&&**= ",
" =-;;>,')!@#%~&!",
" {],^//(_::<<[}&",
" =|1%%%2_::3<45&",
" =;%%26_77<3859~",
" =;(2_007a<b49c{",
" _d0((073<b459c=",
" ef7_:73<<g5cch6",
" e'<a8gi[99cjkl_",
" e!<:mm<<n[45}ho",
" <p1q@$~~{(6rs:(",
"  t..uvvv$$~rwx ",
"    y(*2**=*i   ",
"  4aotzABBBCy44 ",
"                ",
};
