/* XPM */
static char *unmaximize-activedown[] = {
/* columns rows colors chars-per-pixel */
"23 23 166 2",
"   c black",
".  c #003DAD",
"X  c #053FB2",
"o  c #0040AD",
"O  c #0041B3",
"+  c #0049B4",
"@  c #0048C4",
"#  c #004ECD",
"$  c #004CD2",
"%  c #004EDA",
"&  c #0056CA",
"*  c #085ECB",
"=  c #0052D3",
"-  c #005BDC",
";  c #0053E1",
":  c #015AE5",
">  c #025FE8",
",  c #0860CE",
"<  c #0864D8",
"1  c #0060E2",
"2  c #0063E9",
"3  c #096DEC",
"4  c #0165F4",
"5  c #0068F3",
"6  c #0269FD",
"7  c #0A71F3",
"8  c #3463C2",
"9  c #336ECE",
"0  c #3F65C0",
"q  c #3271C6",
"w  c #3473CD",
"e  c #3A73CA",
"r  c #3474D0",
"t  c #3D7CD5",
"y  c #397BF1",
"u  c #486FAF",
"i  c #4668BE",
"p  c #4A6DBE",
"a  c #4D72B3",
"s  c #4C70BB",
"d  c #5374B8",
"f  c #5A78C1",
"g  c #4278E7",
"h  c #487BE9",
"j  c #3E84EE",
"k  c #3D80F8",
"l  c #3E92F8",
"z  c #4A87D2",
"x  c #418DEF",
"c  c #438BF3",
"v  c #438DFB",
"b  c #4F81F3",
"n  c #488BF0",
"m  c #488DF9",
"M  c #4491EE",
"N  c #4F93EE",
"B  c #4A92F3",
"V  c #4B92FB",
"C  c #4F98F1",
"Z  c #4E9BFE",
"A  c #508EEF",
"S  c #5C8FEC",
"D  c #5584F4",
"F  c #548CF3",
"G  c #548DFF",
"H  c #5884F8",
"J  c #5C8BF4",
"K  c #5B8DFB",
"L  c #5C93EA",
"P  c #5096F4",
"I  c #5591FB",
"U  c #579EF4",
"Y  c #539AFD",
"T  c #5C91F9",
"R  c #5A99F4",
"E  c #5B9DFB",
"W  c #4CA4FF",
"Q  c #6181C5",
"!  c #668BC7",
"~  c #6285DB",
"^  c #6E8CDB",
"/  c #6F94DA",
"(  c #708DDA",
")  c #7194DF",
"_  c #749AD3",
"`  c #7B9DD4",
"'  c #7B9ED9",
"]  c #618DED",
"[  c #618EF1",
"{  c #628DFE",
"}  c #6493EA",
"|  c #679DE2",
" . c #669FED",
".. c #6894ED",
"X. c #6390F5",
"o. c #6391FC",
"O. c #629DF2",
"+. c #649AFB",
"@. c #6893F5",
"#. c #6994FC",
"$. c #6D9AF4",
"%. c #699CFC",
"&. c #7096E3",
"*. c #739CED",
"=. c #7999E2",
"-. c #739CF4",
";. c #739CFC",
":. c #7B9EF0",
">. c #789FFF",
",. c #7EA2DD",
"<. c #6EA4FF",
"1. c #7EA5EB",
"2. c #76A5F7",
"3. c #70A0F8",
"4. c #77ACFB",
"5. c #7AA3F3",
"6. c #7CA6FA",
"7. c #7BAFF9",
"8. c #7EB1FA",
"9. c #839DD9",
"0. c #809EE6",
"q. c #8B9AE4",
"w. c #84A2DB",
"e. c #96ABCE",
"r. c #95A7DA",
"t. c #93A9DF",
"y. c #91B3DE",
"u. c #86A7E5",
"i. c #82A4EC",
"p. c #85ACE3",
"a. c #82AAEE",
"s. c #89A9E5",
"d. c #80A5F4",
"f. c #83A7F8",
"g. c #86AFF3",
"h. c #82AAFC",
"j. c #89ACF5",
"k. c #88B0EE",
"l. c #83B1F9",
"z. c #8DB3F1",
"x. c #8BB2FB",
"c. c #94AFE1",
"v. c #92B7EF",
"b. c #94B6F2",
"n. c #91B5FC",
"m. c #93BAF5",
"M. c #95BBFA",
"N. c #9EB6F8",
"B. c #9BBAFB",
"V. c #A7BFFB",
"C. c #9CC5F4",
"Z. c #9FC4FC",
"A. c #A4C3FB",
"S. c #A7CEFA",
"D. c #AEC6FC",
"F. c #ABCBFB",
"G. c #B6D5FC",
"H. c #B3D8FE",
"J. c #BCD8FF",
"K. c #B6EFFF",
"L. c #BAEDFF",
"P. c #CAE5FF",
"I. c #D4EEFF",
"U. c #E7F9FE",
"Y. c azure",
"T. c None",
/* pixels */
"T.3 * * * * * * * * * * * * * * * * * * < 7 T.",
"1 & U.Y.Y.Y.Y.Y.Y.Y.Y.Y.Y.Y.Y.Y.Y.Y.Y.Y.U.- 2 ",
"+ U.P.d d d d d d d d a d d d d d d d d I.U.- ",
"o Y.d ! D.c.t.q.q.9.9.` _ _ _ / &.( ^ ~ ! Y.# ",
". Y.d A.F.G.F.A.N.v.b.b.k.z.g.5.5.5.:.} f Y.$ ",
"X Y.d i.J.H.S.A.N.m.m.b.m.x.x.h.6.6.*.} Q Y.$ ",
". Y.d j.F.S.C.Z.b.b.k.a.1.:.d.>.-.-...} f Y.$ ",
"o Y.d j.B.A.C.M.x.Y.Y.Y.Y.Y.Y.Y.Y.Y.$.] f Y.# ",
"X Y.d :.B.M.B.l.7.Y.Y.Y.Y.Y.Y.Y.Y.Y.] J d Y.$ ",
"X Y.d -.x.n.m.7.4.Y.<.%.+.#.o.G G Y.[ [ d Y.$ ",
"X Y.a -.x.x.x.Y.Y.Y.Y.Y.Y.Y.Y.Y.F Y.S T a Y.$ ",
"X Y.a $.h.h.h.Y.Y.Y.Y.Y.Y.Y.Y.Y.I Y.n F a Y.% ",
"X Y.s X.6.h.h.Y.1.5.%.;.%.+.R Y.B Y.N n a Y.% ",
"X Y.s X.;.h.f.Y.p.a.*.h.2.L R Y.B Y.P B p Y.% ",
"@ Y.p J ;.;.5.Y.y.s.' =.&.8. .Y.Y.Y.n m p Y.; ",
"# Y.i J #.>.x.Y.r.=.f.f.-.6. .Y.P W P m i Y.- ",
"# Y.0 H { ;.i.Y.e.w.u.w.' ,.| Y.U W M v 0 Y.: ",
"= Y.8 H K #.*.Y.Y.Y.Y.Y.Y.Y.Y.Y.Z l c v 8 Y.: ",
"- Y.e h H o.#.$.-.-.$.$.%.O.E Y Z B c y 9 Y.> ",
"2 Y.z g h J J J K T T T I V V V m c j y z Y.2 ",
"5 U.K.t e e e f e e e e e w r w q q 9 9 L.U.5 ",
"6 4 U.Y.Y.Y.U.U.Y.Y.Y.Y.Y.Y.Y.Y.Y.Y.Y.Y.U.4 6 ",
"T.6 4 > > > 2 > > > > > 2 > > > > > > > 4 6 T."
};
