/* XPM */
static char *unmaximize-inactive[] = {
/* columns rows colors chars-per-pixel */
"23 23 39 1",
"  c black",
". c #3B5E9C",
"X c #3C619E",
"o c #3D63A2",
"O c #014FE3",
"+ c #415D9D",
"@ c #42639D",
"# c #4365A1",
"$ c #4167A9",
"% c #446AA4",
"& c #456AAB",
"* c #4867A5",
"= c #496AA5",
"- c #4A6DAC",
"; c #456DB1",
": c #4A6EB1",
"> c #4E70AB",
", c #4E78AE",
"< c #4C73B3",
"1 c #4F72B8",
"2 c #4B78B3",
"3 c #5272AC",
"4 c #5778AF",
"5 c #5876AE",
"6 c #5374B3",
"7 c #5375B8",
"8 c #5678B6",
"9 c #5678B8",
"0 c #5877B0",
"q c #597AB5",
"w c #5A7CBA",
"e c #5E80BB",
"r c #6182BD",
"t c #6485C0",
"y c #668DC2",
"u c #698BC2",
"i c #6F90C4",
"p c #7999CA",
"a c None",
/* pixels */
"a,,,4,,,,,,,,,,,33,,,,a",
"%%ipppppppppppppppppi%%",
"%iur0065333>=>>>>>=*ii%",
"%prtrrreqqqqq88886:>=p@",
"@p6utrrewqwwqw8966:-@p@",
"*pwtrweww86888888:-=@p-",
"@pwrreeqppppppppp0::@p@",
"@p6wewq8ppppppppp::>@p@",
"#p7www88p8771711p<<:@p@",
"#p6wwwppppppppp<p::-@p%",
"#p7wwwppppppppp:p:::@p@",
"$p<9w9p686661<p;p&&-+p*",
"*p<9w9p66697><p&p:;-Xp$",
"*p:986p5536>9<ppp;:&@p*",
":p:99wp5>9989>p<2:<&@p;",
":p:168p538333-p<<;;$.p;",
":p::7:ppppppppp<o;1oopo",
";p::77666666<1<<1;11oi2",
"<p$&:::7<<<<:1<<o1ooop2",
"2p-&*-&&-&-&$$$&ooooop1",
"2iy#oXoXoXoXXooo.oooii2",
"22ipppppppppppppppppi22",
"a<<22<<6<<<22<<2122222a"
};
