/* XPM */
static char *unmaximize-activeup[] = {
/* columns rows colors chars-per-pixel */
"23 23 230 2",
"   c black",
".  c #0F3B9D",
"X  c #173E9B",
"o  c #0139A0",
"O  c #003DAD",
"+  c #053FB2",
"@  c #1E498D",
"#  c #1E4797",
"$  c #1C439B",
"%  c #1E4991",
"&  c #0047A5",
"*  c #0344AB",
"=  c #0049A4",
"-  c #034BAC",
";  c #0B4AAA",
":  c #0041B3",
">  c #014AB2",
",  c #0C53B7",
"<  c #1C5EB4",
"1  c #224B8E",
"2  c #264B94",
"3  c #2A4C98",
"4  c #345BB5",
"5  c #3B61A6",
"6  c #0048C4",
"7  c #004ECD",
"8  c #004CD2",
"9  c #004EDA",
"0  c #0A4ED3",
"q  c #0C4FD8",
"w  c #0651C1",
"e  c #0254CA",
"r  c #0758C2",
"t  c #0B5DC4",
"y  c #085ECB",
"u  c #0052D3",
"i  c #005BDC",
"p  c #0E51DE",
"a  c #0E5BDB",
"s  c #124FD0",
"d  c #1C5AC8",
"f  c #105FD2",
"g  c #1952D4",
"h  c #1C5AD7",
"j  c #1858DD",
"k  c #014FE3",
"l  c #0053E1",
"z  c #015AE5",
"x  c #025FE8",
"c  c #0852E0",
"v  c #0D57ED",
"b  c #0860CE",
"n  c #0864D8",
"m  c #1F64CF",
"M  c #1463D3",
"N  c #1164DD",
"B  c #1568DC",
"V  c #1E63D2",
"C  c #1A61DE",
"Z  c #1B68DF",
"A  c #0060E2",
"S  c #0063E9",
"D  c #0B6BED",
"F  c #0165F4",
"G  c #0068F3",
"H  c #0269FD",
"J  c #0A71F3",
"K  c #1462E4",
"L  c #1C65EB",
"P  c #1C6BE4",
"I  c #1E6AEC",
"U  c #1464F3",
"Y  c #1A66F4",
"T  c #1D6BF4",
"R  c #1B68F8",
"E  c #1B7AFC",
"W  c #225DCC",
"Q  c #2E5FC3",
"!  c #2C5FD0",
"~  c #375CC0",
"^  c #2459E4",
"/  c #2B5DE6",
"(  c #2C5BED",
")  c #2261D2",
"_  c #2365DD",
"`  c #216CD7",
"'  c #216ADC",
"]  c #2C65D5",
"[  c #3463C4",
"{  c #3464CE",
"}  c #3263D5",
"|  c #3464DB",
" . c #306AD5",
".. c #376BD9",
"X. c #3B69D4",
"o. c #3D6BDA",
"O. c #3C75C9",
"+. c #3B77DA",
"@. c #2363E4",
"#. c #226EE2",
"$. c #2D61E2",
"%. c #2860EB",
"&. c #2667F3",
"*. c #2764FD",
"=. c #206AF2",
"-. c #2E67F2",
";. c #2E64FE",
":. c #2B6AF5",
">. c #2C73E3",
",. c #2E70EB",
"<. c #2271F9",
"1. c #2A74F8",
"2. c #3565E0",
"3. c #3163E9",
"4. c #3069EC",
"5. c #3867E7",
"6. c #3D6AE7",
"7. c #3F6CEF",
"8. c #3260F7",
"9. c #3763FB",
"0. c #3268F0",
"q. c #3B69F2",
"w. c #3B6CFD",
"e. c #3775E2",
"r. c #3274EF",
"t. c #3B74EB",
"y. c #3F73F1",
"u. c #3E75FE",
"i. c #4564BE",
"p. c #466FB5",
"a. c #446BBE",
"s. c #4C73B6",
"d. c #5174B6",
"f. c #5176BD",
"g. c #5975BD",
"h. c #5D7CBE",
"j. c #4362C0",
"k. c #476BC5",
"l. c #466DCB",
"z. c #4E71C7",
"x. c #4773DA",
"c. c #4A73DB",
"v. c #5F6FCA",
"b. c #5373CE",
"n. c #5579C2",
"m. c #5176DE",
"M. c #527ADD",
"N. c #587CD9",
"B. c #406FE1",
"V. c #406BFD",
"C. c #4573E5",
"Z. c #4570E8",
"A. c #4678ED",
"S. c #4974E4",
"D. c #4C77EA",
"F. c #4E7EE6",
"G. c #4D7CE9",
"H. c #4674F6",
"J. c #4770FC",
"K. c #437CFE",
"L. c #4B74FB",
"P. c #5078E4",
"I. c #567BE9",
"U. c #517FF0",
"Y. c #517CF9",
"T. c #6474CD",
"R. c #2180FE",
"E. c #6D84AE",
"W. c #6C80BE",
"Q. c #5C82CC",
"!. c #5480D2",
"~. c #5682DB",
"^. c #5982DC",
"/. c #5E8ADB",
"(. c #4D85F2",
"). c #5480E5",
"_. c #5580EA",
"`. c #5488EE",
"'. c #5A82EB",
"]. c #5C88E3",
"[. c #598EEE",
"{. c #5682F4",
"}. c #548BF0",
"|. c #5883F2",
" X c #5984FC",
".X c #5D89F3",
"XX c #6A82C5",
"oX c #688DC4",
"OX c #6B88C8",
"+X c #668FDF",
"@X c #6992DD",
"#X c #6185E5",
"$X c #638DE2",
"%X c #628BEC",
"&X c #638CF3",
"*X c #628AFD",
"=X c #688FF1",
"-X c #6790E0",
";X c #6590ED",
":X c #6C94E5",
">X c #6B94EB",
",X c #6092F1",
"<X c #6E96F5",
"1X c #6990FB",
"2X c #6998F2",
"3X c #7492EC",
"4X c #799FED",
"5X c #7297FD",
"6X c #779DFB",
"7X c #7F9BF3",
"8X c #73A2E3",
"9X c #74A2E8",
"0X c #77A5F3",
"qX c #7EA1F6",
"wX c #7DA2F9",
"eX c #7FADF0",
"rX c #83ADEE",
"tX c #86A4F4",
"yX c #81A7FE",
"uX c #87A9F9",
"iX c #8FB6F5",
"pX c #8CBBFA",
"aX c #96BBFE",
"sX c #8FDCFF",
"dX c #94D9FF",
"fX c #A8CCFE",
"gX c #B2DEFA",
"hX c #B2E1FE",
"jX c #DDFDFE",
"kX c None",
/* pixels */
"kXD y b y y y y y y y y y y y y y y y y n J kX",
"A e gXjXjXjXjXjXjXjXjXjXjXjXjXjXjXjXjXjXgXi S ",
"> gXfXtXOXXXT.v.g.d.d.s.s.p.i.k.i.i.4 4 gXgXi ",
"* jXwXuXiXrX7X3X:X@X+X+X$X].).I.P.c.o.[ 5 jX8 ",
"O jXN.aXpXrXqX3X:X:X>X;X%X&X{.{.P.S...[ 3 jX7 ",
"+ jX#XyXeX8X4X:X-X/.^.M.m.I.D.A.S.B.} Q 3 jX8 ",
"O jX'.6X0X9X2X,XjXjXjXjXjXjXjXjXjXB.| ! 3 jX8 ",
"* jXc.5X<X>X[.`.jXjXjXjXjXjXjXjXjX| 2.} 3 jX7 ",
"* jXS.*X1X%X`.(.jXK.u.w.w.w.;.*.jX2.4.| 3 jX8 ",
"+ jXS.*X*X[.jXjXjXjXjXjXjXjXjX%.jX| 4.! 2 jX8 ",
"+ jXC. X|..XjXjXjXjXjXjXjXjXjX&.jX_ @.] 1 jX8 ",
"+ jX6.Y. X|.jXN.).A.H.y.r.,.jXI jXZ C ] @ jX9 ",
": jX5.L. X'.jXQ.~.c._.D. .>.jXP jX#.P ) % jX9 ",
": jX3.J.L.P.jXoXQ.b.b.l.`.+.jXjXjXP Y h # jX9 ",
"6 jX$.V.L.=XjXW.b.'.U.D.U.+.jX#.<.#.T j $ jX9 ",
"7 jX/ 9.H.~.jXE.h.N.n.f.n.O.jX>.E B U q X jXl ",
"7 jX^ 8.7.x.jXjXjXjXjXjXjXjXjXT D K U q . jXz ",
"u jX^ ( q.7.Z.C.C.C.B.Z.r.1.1.<.I K v p o jXz ",
"i jXs g $.3.3.0.0.-.:.:.T T T Y K a c 0 * jXx ",
"S jX` V d W W ) m ) V V M M M f t r e w < jXS ",
"F hXdX, * ; ; ; ; ; ; ; - ; > - & & + * dXhXG ",
"H F hXjXjXjXjXjXjXjXjXjXjXjXjXjXjXjXjXjXhXF H ",
"kXH F x x x x x x x x x x x S x x S x x F H kX"
};
